<svg version="1.1" id="Layer_1" xmlns="http://www.w3.org/2000/svg" xmlns:xlink="http://www.w3.org/1999/xlink" x="0px" y="0px" width="100%" viewBox="0 0 848 656" enable-background="new 0 0 848 656" xml:space="preserve" transform="matrix(-1,0,0,1,0,0)">
<path fill="#000000" opacity="1.000000" stroke="none" d="
M172.940002,225.969528 
	C169.996475,219.576172 167.415512,213.419998 164.377609,207.498230 
	C161.389313,201.673126 160.752640,195.751938 162.721481,189.622452 
	C163.907776,185.929169 163.568741,182.534805 162.408249,178.911270 
	C160.331665,172.427231 158.225677,165.923615 157.648270,159.061737 
	C157.342163,155.424133 157.898727,152.322037 162.553360,151.166046 
	C159.827240,143.747269 157.083755,136.659256 154.628525,129.472763 
	C152.855667,124.283569 151.346283,118.994453 149.971664,113.684593 
	C149.502045,111.870499 148.849365,109.467903 150.987640,108.232338 
	C152.871719,107.143646 154.497040,108.737846 155.896530,109.817307 
	C167.692078,118.915474 177.853912,129.750305 187.941757,140.609055 
	C216.568787,171.423691 242.890625,204.109787 266.240356,239.113235 
	C279.580170,259.110870 292.195343,279.614716 297.481354,303.475494 
	C300.858612,318.720428 302.739807,334.252747 304.333405,349.799438 
	C305.977112,365.835083 307.725098,381.860107 309.453827,397.886902 
	C309.502197,398.335358 309.851105,398.751404 310.071960,399.207520 
	C312.405396,399.793884 313.873444,398.162384 315.511261,397.190613 
	C361.221222,370.069885 407.133362,343.331726 454.181152,318.542358 
	C485.522705,302.028564 518.861450,291.313293 552.723267,281.804352 
	C592.121338,270.740753 631.815002,260.865295 671.833130,252.294662 
	C691.531189,248.075958 711.453125,245.480713 731.491943,243.613205 
	C750.697571,241.823334 769.877991,239.749390 789.096558,238.119598 
	C795.452820,237.580582 801.893250,238.034622 809.397339,238.034622 
	C801.843018,244.637024 794.110352,249.570587 785.999573,253.802460 
	C777.754761,258.104248 768.500427,259.867188 758.457275,263.456116 
	C763.186523,263.761414 766.668030,263.054596 770.118835,264.313049 
	C769.344910,266.959106 766.940308,266.718231 765.283936,267.402649 
	C745.924011,275.402313 725.343994,278.760681 705.043701,283.224121 
	C693.351746,285.794861 681.734680,288.727844 670.143127,291.726349 
	C661.771301,293.891937 655.043396,299.412384 647.653870,303.532074 
	C607.498474,325.918823 567.411316,348.429077 527.394043,371.062012 
	C514.643494,378.273438 502.179352,385.991119 489.437836,393.564087 
	C490.248444,395.517181 492.765900,393.933380 493.647369,396.370972 
	C471.901245,411.227631 451.034729,427.620422 428.617462,442.812683 
	C467.713806,460.671204 507.466492,475.820160 550.219055,482.425751 
	C542.513062,488.450073 537.387695,498.319702 525.996155,494.940765 
	C524.904053,496.976440 526.794556,496.441864 526.864685,497.745087 
	C525.319946,499.159088 522.998657,499.367340 520.862244,499.870911 
	C486.541718,507.960449 452.096771,515.467346 417.261169,521.008911 
	C394.226837,524.673279 371.078766,527.568970 347.687622,526.250549 
	C319.051880,524.636475 291.507904,517.866455 264.729706,507.751678 
	C247.538101,501.257965 231.221725,492.986023 215.240555,483.967621 
	C197.357285,473.875793 179.049240,464.814789 158.576019,460.990723 
	C155.249313,460.369354 152.526733,460.502808 149.498795,461.968109 
	C134.936157,469.015381 120.751564,476.722351 107.132820,485.463837 
	C105.477562,486.526337 103.793434,487.599487 101.785995,487.843079 
	C98.301392,478.253845 103.271057,465.347595 112.176750,461.411713 
	C121.693199,457.205902 130.858002,452.690857 137.767151,444.493835 
	C140.617050,441.112701 142.954681,437.750946 143.754349,433.285278 
	C145.261292,424.869812 149.502945,418.441864 156.924301,413.631775 
	C169.396072,405.548279 181.747559,397.375153 196.189987,393.170959 
	C198.495575,392.499786 199.762985,391.335388 199.449326,388.998322 
	C197.847977,377.066742 203.545883,367.806641 210.267197,358.877655 
	C211.057327,357.827972 211.900467,356.612549 212.116760,355.369171 
	C213.825439,345.546600 217.546021,336.532349 222.753281,328.090698 
	C224.448639,325.342285 222.464737,323.296570 221.390244,321.180237 
	C205.326279,289.540375 189.207962,257.928131 172.940002,225.969528 
z"></path>
</svg>
