<?xml version="1.0" encoding="utf-8"?>
<!-- Generator: Adobe Illustrator 28.3.0, SVG Export Plug-In . SVG Version: 6.00 Build 0)  -->
<svg version="1.1" id="Layer_1" xmlns="http://www.w3.org/2000/svg" xmlns:xlink="http://www.w3.org/1999/xlink" x="0px" y="0px"
	 width="183.2px" height="157.8px" viewBox="0 0 183.2 157.8" style="enable-background:new 0 0 183.2 157.8;" xml:space="preserve"
	>
<style type="text/css">
	.st0{fill-rule:evenodd;clip-rule:evenodd;}
	.st1{fill:#B25959;}
</style>
<path d="M175,123.5c-3.3,0.3-4.9-2.7-8.9-3.1c-1,0-2,0.5-2,2c0.6,1.8,3.8,3.3,6.7,1.9c0.7,1.1,1.4,2.1,2.1,3.3c0.1,2.1-1.5,2-3,2
	c-2.4,0.2-4.6,0-6.9-0.3c-1.6-0.2-3.8-0.7-5.5-1.1c-1.1-0.2-1.9-1.3-1.7-2.5c0.1-0.9,0.2-1.8,0.2-2.7c-0.1-0.9,0.4-1.8,1.2-2.3
	c2.5-1.3,5.8-0.5,7.8-2.7c-4.3-0.2-8.4,0.2-12.4,1.9c-3.2,1.4-6.5,2.9-10,3.2c-4.4,0.3-8.9,2.1-13.4,0.4c-5.9-2.2-12.5-2.6-17.1-7.6
	c-0.6-0.7-1.6-1.2-2.5-1.5c-3.2-1.2-4.9-3.6-5.9-6.7c-0.9-2.7-1.2-5.5-2-8.2c-1.9-7-1.9-13.9-0.6-20.9c0.2-1.3,0.5-2.6-0.3-3.7
	c-0.9-1.3-1.1-2.9-1.6-4.3c-0.5-1.3-1-2.7-2.1-3.6c-1.7-1.3-2.6-3.3-4.1-4.6c-0.8-3.8-1.7-7.4-3.6-10.6c-4-6.9-8.4-13.4-13.6-19.4
	C70.3,26.1,65.1,19.5,61,12.2c-2.1-3.7-4.4-7.2-6.6-10.8c-0.5-0.8-1-1.8-2.4-1.1c-1.4,4.2,0.6,7.9,1.9,11.8
	c-2.8-2.7-4.6-6.2-8.3-8.1c-1.5,2.8-0.3,5.2,0.5,7.5c0.8,2.3,2.3,4.3,3.7,6.4c-8.4-6.8-8.4-6.8-11.2-6.6c-0.4,3.1,1.9,5.4,2.9,8.5
	c-0.9-0.1-1.9-0.5-2.5,0.6c0.1,2.3,0.6,4.7,1.7,7c-0.2,1.3-1.1,2.4-0.7,3.7c0.8,2.4,0.6,5,1.2,7.2c0.9,3.7-0.9,7.5,1.2,10.8
	c-0.5,0.8-1,1.6-1.5,2.4c0.5,1.5,1,3.1,1.5,4.7c-0.6,0.7-1.4,1.3-1.1,2.3c0.4,1.2,0.8,2.4,1.3,3.7c-0.8,1.2-1.2,2.5-1.3,3.9
	c-1.3,0.3-2.6-1.2-4.1,0.1c0.5,2.4,2.8,3.4,4,5.3c-1.2,0.7-2.7-0.3-3.6,1.1c0,1.9,2.1,2.5,2.6,4.1c-0.5,0.7-1.1,1.5-0.5,2.3
	c1.3,1.8,0.9,3.8,0.9,5.7c0,2.6-0.7,5.2-0.6,7.8c0.1,3.3-0.4,6.6,0.1,9.8c0.9,4.9,1.2,9.8,0.9,14.8c-0.1,1.6-0.3,3.2,0.6,4.8
	c1.7,2.9,2.3,6.2,3.3,9.8c-6.2,2.4-11.7,5.9-18.4,7.8l-8,4.3l0,0c-0.5,0.1-0.9,0.2-1.4,0.3c-4.5,1.1-9.2,1.3-13.6,3.1
	c-3.8,1.6-4.3,2.5-3.1,6.7c1.2,0.9,2.9,0.1,4,0.9c2.7,2,5.6,1.4,8.5,0.8c1.4-0.3,2.7-0.6,4.1,0c1.6,0.6,3.4,0.4,5,0.3
	c4.2,0,8.4-0.8,12.6-0.1c1.9,0.4,3.9,0.6,5.9,0.8c7.4,0.8,14.9,0.9,22.4,1.1c6.8,0.1,13.6-0.1,20.1-2.3c0.8-0.3,1.7-0.3,2.5-0.4
	c3.7-0.6,7.7-0.6,11.2-2c5.4-2.1,10.9-4,16.2-6.3c5.6-2.4,10.9-5.3,16.4-8c2.8-1.4,5.6-2.5,8.7-3.2c8.2-1.8,16.4-2.4,24.8-2.4
	c2.3,0,4.6,0.1,6.8-0.4c3.6-0.7,8.6-2.5,12-1.8c0.7,0.1,1.5,0.1,1.5,0.1s0.5-1.5-1.8-2.9C179.2,126.9,176.4,126,175,123.5z
	 M110.7,122.4c-0.4,1.9-0.8,3.9-1.2,5.8c-0.8,3.7-1.4,7.5-1,11.3c0.1,1,0.2,2.3-0.6,3.4c-1.8,0.4-3.7,0.8-5.2,1.1
	c-1.7,0-2.3-1.2-3.7-1.6c-4.6,1.6-8.9-2.1-13.3-1.1c-1.4-0.5-1.6-1.6-2-2.6c-0.8,0.8-1.8,0.8-2.8,0.8c-0.6,0.8,0.1,1.6,0.1,2.6
	c-1.6-0.4-1-2.1-2.2-2.6c-0.9-0.4-1.2,1.6-2.5,0.8c-2-1.4-0.5-3.7-0.9-5.7c-1.7,0.7-1.3,2.5-2,4.2c-0.7-2.1-3.1-2.3-3.2-4.8
	c-0.4,0.8-0.6,1.2-0.9,1.9c-0.8-0.7-0.5-1.9-1.4-2.3c-1.2-0.2-0.7,1.4-1.9,1.7c-0.6-1-1.2-2.3-2.4-3.2c0.9-2,0.5-4.4,2.8-5.7
	c-0.1,1.8-1.5,3.3-0.6,5.2c1.6-1.6,1.4-4.3,3.2-5.9c1.6,1.5-0.9,2.6,0.2,4.2c0.9-1.4,1.7-2.7,2.8-4.5c7.2-2.3,15-3.6,23.4-3.8
	c2.7,0.1,4.1,0.1,5.8-0.4c4.1,0.3,5.4-3.9,8.8-4.9C111.4,118.2,111.2,120.3,110.7,122.4z"/>
</svg>
