<svg xmlns="http://www.w3.org/2000/svg" xml:space="preserve" viewBox="0 0 1024 608">
  <path d="M665.319 263.066c-1.677 9.287-4.509 17.353-9.678 25.17-7.795 11.783-13.105 25.082-15.292 39.267-2.09 13.56-8.242 25.23-16.12 36.136-10.013 13.863-21.952 25.939-35.196 36.688-3.573 2.899-3.787 4.956-.758 8.38 5.19 5.869 9.693 12.295 13.351 19.267 3.35 6.382 3.153 13.265 3.573 21.475-4.87-4.294-4.804-9.55-7.51-13.95-1.145 5.052.581 10.193-2.475 15.294-5.1-8.138-.643-19.127-8.944-25.49-1.72.254-.95 2.796-3.406 3.17-2.893-4.774-2.116-10.867-4.239-16.366l-11.797 2.863c.51 4.353 2.467 8.244 4.131 12.149 6.98 16.372 12.288 33.076 11.396 51.184-.074 1.496.016 3.025-.261 4.483-1 5.248-4.42 6.46-8.61 3.055-4.037-3.28-6.418-8.01-10.164-12.108-1.646 2.366-1.02 4.988-1.837 7.204-.627 1.7-.705 3.596-1.28 5.32-3.03 9.074-8.408 10.645-15.728 4.444-2.629-2.227-4.826-4.962-7.244-7.49-6.065 10.088-6.065 10.088-23.739-.899-1.386 2.643-2.544 5.431-4.204 7.878-2.367 3.485-4.643 3.115-7.677.17-7.571-7.351-8.01-15.767-5.009-25.236 5.745-18.122 15.06-34.437 24.865-50.534 1.208-1.983 2.39-3.982 3.749-6.248-6.263-4.288-5.01-11.562-7.096-17.638-5.121.135-9.708.69-13.184 4.906-2.71 3.288-6.57 5.09-10.499 6.54-6.309 2.328-9.332.773-11.287-5.59-.241-.783-.492-1.563-.715-2.271-16.762-2.545-16.762-2.545-14.656-20.6-2.892-.418-5.821-.739-8.71-1.279-7.333-1.37-9.045-5.147-5.45-11.829.776-1.441 1.57-2.874 2.566-4.698-2.673-1.162-5.153-.523-7.536-.59-2.825-.078-5.666.19-8.422-.742-4.635-1.566-6-4.697-3.398-8.897 1.72-2.778 4.047-5.181 6.267-7.958-2.953-2.221-7.214-.777-9.542-3.857-2.753-3.644.42-6.54 1.359-9.755-1.727-1.83-3.994-1.509-6.06-1.822-8.445-1.279-10.443-5.986-5.408-12.804 1.075-1.456 2.243-2.845 3.658-4.63-7.867-3.251-21.56-1.626-13.94-17.35-5.444-.383-10.378-.604-15.282-1.114-4.044-.42-9.351.103-10.728-4.551-1.415-4.782 3.91-6.235 6.873-8.666.491-.403.98-.81 1.81-1.496-3.752-2.115-7.716-1.312-11.316-2.247-9.515-2.471-11.478-6.01-7.614-15.293-2.06-1.405-4.463-.593-6.653-.879-3.15-.411-6.29-.85-9.23-2.087-5.255-2.214-6.611-5.893-3.745-10.8 1.493-2.556 3.525-4.796 5.69-7.68-3.3-.461-6.329-.862-9.35-1.317-1.64-.246-3.303-.455-4.894-.901-8.474-2.376-9.871-7.33-3.677-13.711 2.835-2.921 6.153-5.374 9.634-8.367-5.365-3.135-10.308-5.813-15.02-8.85-3.122-2.013-7.688-4.083-6.369-8.474 1.236-4.114 6.13-3.837 9.88-4.35 10.622-1.453 21.25.568 32.237.147-.52-2.186-2.34-2.432-3.63-3.13-7.48-4.048-14.989-8.051-21.45-13.673-1.715-1.492-4.1-3.114-3.152-5.731 1.026-2.833 3.972-2.497 6.465-2.627 2.253-.118 4.234.665 6.218 1.584q53.964 24.993 107.944 49.95c1.174.544 2.256 1.466 4.168 1.074-.227-2.96-3.743-4.881-2.962-8.008.927-3.706 4.688-3.164 7.496-4.6-.813-2.13-2.832-3.148-4.112-4.75-1.24-1.553-2.894-3.127-2.35-5.27.623-2.448 3.099-2.083 4.98-2.508.95-.214 1.904-.414 3.258-.708-2.005-4.235-2.862-8.193 2.49-11.123-4.712-4.142-9.05-7.953-13.385-11.769-3.269-2.877-6.237-6.054-8.535-9.745-3.41-5.477-1.475-9.32 4.983-10.013 2.13-.228 4.307-.036 7.25-.036-1.643-3.346-4.158-4.959-6.121-7-3.233-3.362-6.685-6.539-9.048-10.627-.918-1.59-1.88-3.332-.609-5.13 1.268-1.795 3.311-1.519 5.056-1.176 5.617 1.102 10.718 3.614 15.697 6.322 17.565 9.552 31.514 23.403 44.562 38.189 22.37 25.35 40.863 53.453 57.347 82.875 2.55 4.552 5.166 5.916 9.736 4.286 2.012-.718 4.334-.437 6.408-2.094-.39-3.086-3.264-5.702-2.38-9.224.986-3.925 4.944-4.078 7.519-6.015.658-2.845-1.8-4.925-1.613-7.698.213-3.139 3.027-4.187 4.387-6.395-1.55-3.012-3.263-5.869-4.523-8.913-1.665-4.026-1.354-7.561 3.52-9.251.76-.264 1.956-.6 2.097-1.128 1.589-5.982 5.322-3.184 8.103-1.729 14.69 7.688 27.538 18.094 40.676 28.06 2.766 2.1 5.504 4.234 8.34 6.418 9.294-9.13 20.516-9.961 32.264-9.701.653 4.076-2.058 5.637-4.128 7.307-5.603 4.523-11.867 8.085-18.455 10.898-3.974 1.697-5.27 4.226-4.49 8.158.695 3.5.301 6.964-.111 10.875"/>
</svg>
