<?xml version="1.0" encoding="utf-8"?>
<!-- Generator: Adobe Illustrator 28.3.0, SVG Export Plug-In . SVG Version: 6.00 Build 0)  -->
<svg version="1.1" id="Layer_1" xmlns="http://www.w3.org/2000/svg" xmlns:xlink="http://www.w3.org/1999/xlink" x="0px" y="0px"
	 width="67.4px" height="45.4px" viewBox="0 0 67.4 45.4" style="enable-background:new 0 0 67.4 45.4;" xml:space="preserve">
<style type="text/css">
	.st0{fill-rule:evenodd;clip-rule:evenodd;}
	.st1{fill:#B25959;}
</style>
<path d="M0.4,36c0.1,0.1-0.2,0.2-0.2,0.5c1.8-0.1,3.6,0.5,5.5,0.2c-0.1-0.1,8.6,0.8,8.9,0.9c3,0.9,5.9,1.9,8.7,3.4
	c0.8,0.4,1.7,0.9,2.4,1.4c0.9,0.6,1.8,1,2.9,1.4c3.4,1,6.8,1.6,10.4,1.7c3,0,6-0.5,8.8-1.5c1.5-0.6,3.1-1.1,4.6-1.6
	c3.1-0.9,5.7-2.7,8.2-4.5c1.5-1.1,3.1-1.8,4.9-2.1c0.6-0.1,1.2-0.3,1.9-0.4c-0.3-0.8-0.8-1.3-1.3-1.7c-0.8-0.7-1.7-1.3-2.4-2
	c-0.1-0.1-0.2-0.3-0.4-0.3c-1.9-0.7-3.7-1.8-5.8-2c-1.4-0.1-2.8-0.2-4.2-0.3c0.1-0.8,0.4-1.5,0.9-2.2c0.1-0.2,0.3-0.4,0.4-0.6
	c0.8-1.3,0.7-2.6-0.4-3.8c-0.4-0.5-0.8-0.9-1.3-1.3c-1.7-1.3-3.1-3.1-4.8-4.4c-0.3-0.2-0.6-0.5-1-0.8c-2.4-1.6-4.6-3.6-6.8-5.4
	C38.7,9,37,7.8,35.2,6.6c-3.1-2.1-6-4.3-9-6.6c-0.5,0-0.9,0.3-1.3,0.7c-0.2,0.1,0.1,0.5-0.1,0.7c-0.3,0.2-0.7-0.2-1.1,0
	c-0.4,0.2-0.7,0.5-0.9,0.9c-0.2,0.9,0.6,1.5,0.9,2.4C23,5,22.4,4.4,21.7,4.5c-1,0.9-1,0.9-0.4,2.4c-0.4,0.4-1.1,0.7-1.1,1.5
	c0.2,1.1,1.2,1.5,2,2c0.2,0.4-0.2,0.8,0.1,1.4c0.2,0.3,0.5,0.9,1,1.4c0.1,0.5-0.3,1-0.1,1.4c0.2,0.4,0.4,0.8,0.6,1.2
	c0.1,1.5,0.3,2.9,0.9,4.2c-0.3,1.8-1,3.4-1,5.2c0.1,0.2,0.2,0.4,0.4,0.7c-0.6,0.7-0.3,1.6-0.4,2.4c-0.1,0.8-0.8,1.5-0.5,2.3
	c0.2,0.5,0.6,0.1,0.8,0.4c-0.8,0.5-1.6,1-2,2c0,0.1,0.3,0.2,0.3,0.4c-0.1,0.3-0.3,0.5-0.6,0.5c-0.7,0.1-1.4,0.2-2.1,0.2
	c-1.6,0-3.3,0.3-4.9,0.5c-1.5,0.2-3,0.1-4.4,0c-2.3-0.2-4.6-0.1-6.9-0.2c-1.1,0-2.1-0.1-3.2,0.2c1.2,0.3,2.5,0.5,3.9,0.6
	c-1.5,0.4-2.8-0.1-4-0.1C-0.1,35.9,0.3,35.8,0.4,36z M59.3,32.3c0.7-0.2,1.4,0.2,1.6,0.9c0.2,0.7-2.3,1.4-2.5,0.7
	C58.2,33.3,58.6,32.5,59.3,32.3z"/>
</svg>
