<?xml version="1.0" encoding="utf-8"?>
<!-- Generator: Adobe Illustrator 28.3.0, SVG Export Plug-In . SVG Version: 6.00 Build 0)  -->
<svg version="1.1" id="Layer_1" xmlns="http://www.w3.org/2000/svg" xmlns:xlink="http://www.w3.org/1999/xlink" x="0px" y="0px"
	 width="241.7px" height="291.8px" viewBox="0 0 241.7 291.8" style="enable-background:new 0 0 241.7 291.8;" xml:space="preserve"
	>
<style type="text/css">
	.st0{fill-rule:evenodd;clip-rule:evenodd;}
	.st1{fill:#B25959;}
</style>
<g id="_x31_MS6o6_1_">
	<g>
		<path d="M25.3,0c0.2,0,0.3,0,0.5,0c2.8,1.8,5.8,3.3,8.5,5.3c11.2,8.4,22.4,16.9,33.6,25.4c2.7,2,5.4,4.1,8.1,6.1
			c0.1,0.2,0.3,0.4,0.4,0.5l0.1,0l-0.2,0c-0.1-0.2-0.3-0.3-0.4-0.5C69.5,31,63.1,25.2,56.7,19.3c-3.6-3.3-7.1-6.8-9.8-11
			c-0.7-1.2-1.6-2.4-1.2-4.4c2.9,1.6,5.8,2.9,8.4,4.5C66.2,16,76.5,25.6,86.2,35.9c8,8.5,15.8,17.2,23.5,26c5.7,6.5,11,13.3,16.5,20
			c1.6,1.9,2.4,4.1,2.7,6.6c0.5,4.2,1,8.4,2,12.5c2.5,10.2,7,19.5,11.8,28.7c5.5,10.3,12.6,19.3,22.4,25.9c0.9,0.6,1.6,1.4,2.3,2.2
			c0.3,0.3,0.5,0.9,0.5,1.4c-0.2,3.2-0.6,6.3-0.8,9.5c-0.1,2.1,0.2,4.2-0.9,6.2c0,0,0.2,0.2,0.6,0.6c0.6-1.1,1.3-2,1.7-3.1
			c1.2-2.7,2.2-5.5,3.5-8.1c1-2,2.5-3.5,4.8-3.8c3.6-0.4,7.2-0.5,10.8,0.8c1.1,0.4,2.3,0.5,3.5,0.4c3.2-0.2,6.5-0.8,9.7-0.8
			c3.6-0.1,4.8,1.6,4.2,5.4c-2.4-0.6-4.6,0-6.7,1.2c-1.6,0.9-3.2,2-4.7,3.2c-2.3,1.8-4.5,3.8-6.7,5.8c-1.4,1.2-2.9,2.2-4.8,2.3
			c-2,0.1-3.3,1.3-4.1,3.2c0.5-0.1,0.8-0.1,1.1-0.1c3.3-0.8,6.4-0.4,9.3,1.7c1.8,1.3,3.7,2.3,5.8,3.2c5.4,2.3,10.8,4.5,16.2,6.5
			c3.2,1.2,6,2.9,8.3,5.3c3.5,3.7,7.1,7.3,10.6,10.9c4.1,4.3,8.2,8.8,12.2,13.1c0,0.3,0,0.6,0,0.9c-2.4,1.4-4.7,2.8-7.2,4.3
			c0.2,0.7,0.5,1.5,0.7,2.3c1.2,4.1,2,8.3,1.6,12.6c-0.3,3-1.8,5.3-4.2,6c-2.5,0.7-2.5,0.7-2.6,3.3c-0.2,5-0.4,10-0.6,15
			c0,1-0.2,2-0.4,3.2c-4.2-0.2-6.6-2.6-8.6-6c-0.2,6.7,0.3,12.9-0.5,19.3c-3.1-0.3-5-2-6.2-4.2c-1.5-2.8-2.8-5.7-3.6-8.8
			c-1-3.7-1.3-7.5-1.9-11.4c-1.7,10.9-1.8,22-4.5,33.1c-3.5-2.4-5.4-5.3-6.9-8.4c0.9-1.2,1.7-2.1,2.5-3.1c-0.1-0.1-0.2-0.2-0.3-0.3
			c-0.9,0.3-1.8,0.5-3,0.9c0-5.2,0-10.1,0-15.1c-0.5,0.5-0.6,1-0.8,1.4c-1.7,6.8-3.3,13.5-5,20.3c-0.2,0.9-0.7,1.7-1.2,2.7
			c-6.7-8.2-5.9-17.4-4.9-26.7c-1.1,2.3-2.1,4.7-3.1,7c-1.1,2.4-1.8,5-4,7.2c-3.7-5.5-4-11.4-2.9-17.6c-2.1,1.5-4,2.9-6.1,4.4
			c-1.3-2.9-1.6-5.6-1.8-8.4c-1.2,0.6-2.1,1.1-3.2,1.7c-0.9-1.2-1.7-2.3-2.6-3.5c0.2-0.5,0.5-1.1,0.9-2c-1.7,0.6-3.2,1-5.2,1.7
			c0.4-2.2,0.7-3.8,1-5.4c-1.2-0.1-2.2-0.1-3.5-0.2c1.3-1.6,2.3-2.9,3.5-4.5c-2-0.1-3.6,1.3-4.7-0.6c-1.3,0.8-2.4,1.5-3.5,2
			c-1.1,0.5-2.1,1.6-3.9,0.7c0.9-1.3,1.7-2.5,2.5-3.8c-2.7,0.4-5.1,2.3-8.2,2c0.4-1,0.7-1.7,1.1-2.7c-0.6,0.1-1.1,0.1-1.4,0.3
			c-0.9,0.3-1.8,0.9-2.7,1.1c-0.7,0.1-1.4-0.2-2.1-0.3c0.1-0.7,0.2-1.4,0.4-2.1c0.2-0.5,0.6-0.9,1.2-1.8c-2.8,0.8-5,1.4-7.8,2.2
			c0.8-1.4,1.4-2.3,2-3.5c-2.4,0.7-4.6,1.3-7.2,2.1c0.7-1.7,1.2-2.9,1.8-4.4c-2.2,0.5-4,1-6,1.4c0.3-0.8,0.5-1.3,0.8-2
			c-1.9,0.2-3.6,0.4-5.3,0.6c0.2-0.9,0.3-1.4,0.4-2.1c-1.7,0.2-3.2,0.4-4.9,0.6c0.3-0.9,0.5-1.6,0.8-2.5c-1.9,0.5-3.6,0.9-5.7,1.5
			c0.8-1.3,1.3-2.1,2-3.2c-1.8,0.3-3.3,0.5-5.1,0.8c0.6-1.4,1.1-2.3,1.7-3.5c-2,0.3-3.7,0.5-5.8,0.8c1.2-1.6,2.1-2.9,3.2-4.4
			c-1.9,0-3.5,0-5.5,0c0.9-1.2,1.5-2.1,2.4-3.3c-2,0-3.4-1.5-5.1,0.3c-4.1,4.3-8.4,8.6-12.8,12.6c-4.3,4-9,7.7-14.4,10.3
			c-1,0.5-2,0.7-3.3,1.2c0.1-1.6,0.2-2.8,0.3-4.2c-3,0.4-5.6,2-8.6,1.1c0.7-1.1,1.2-2,1.8-3.1c-3.2,0-6.1,0-9.1,0
			c0.6-1.7,2.4-2.7,1.6-4.7c-3.8,0.7-7.6,1.1-11.5,0.8c0.4-0.9,0.7-1.5,1.1-2.3c-1.4,0.2-2.5,0.4-3.6,0.6c-0.1-0.1-0.2-0.1-0.2-0.2
			c0.6-0.9,1.1-1.8,1.8-3c-1.2,0.2-2.1,0.3-3.2,0.4c0.6-0.9,1-1.4,1.6-2.2c-1.4,0.2-2.5,0.3-3.6,0.4l-0.1-0.1c0.3-0.3,0.6-0.7,0.9-1
			c2.6-2.4,5.2-4.7,7.7-7.1c0.6-0.5,0.9-1.2,1.5-1.9c-3-0.7-5.5-1.3-8.6-2c1.8-2.2,3.5-4.2,5.2-6.3c-1-0.6-1.9-1.1-2.8-1.6
			c0-0.5-0.1-1.1-0.1-1.5c-0.9-0.2-1.7-0.3-2.5-0.4c0-0.2,0-0.3-0.1-0.5c0.9-0.5,1.8-1.1,2.8-1.4c3.7-1.3,7.5-2.5,11.2-3.7
			c10.8-3.3,21.6-6.6,32.3-10c1.8-0.6,3.6-1.5,5.4-2.2c0-0.1-0.1-0.2-0.1-0.3c-4.2,0.6-8.4,1.2-13,1.8c0.2-1.4,0.3-2.3,0.4-3.4
			c-1.8,0.5-3.4,1-5.5,1.6c0.3-2.3,0.6-4.1,0.9-6.3c-2,0.7-3.8,1.2-5.9,1.9c0.4-1.6,0.6-2.8,0.9-4c-0.9-0.2-1.6-0.4-2.4-0.6
			c0.5-1.5,1-2.8,1.5-4.4c-1.7,0-3.2,0-4.8,0c0.6-2.1,1.1-4,1.7-6.2c-1.9-0.3-3.5-0.5-5.1-0.7c0.2-1.5,0.5-2.8,0.7-4.2
			c0.1-1.3-0.5-2-1.8-2c-0.9,0-1.8,0-2.8,0c0.5-2.4,0.9-4.5,1.3-6.7c-1.7-0.3-3.1-0.5-4.6-0.8c0.7-2.1,1.3-3.9,2-5.9
			c-1.4-0.2-2.6-0.3-4-0.5c0.7-1.8,1.4-3.3,2-5c-1.5-0.6-2.9-1.1-4.3-1.6c0.3-1.8,2.2-2.9,1.9-5c-1.3-0.1-2.6-0.2-4.2-0.3
			c1.1-2,2-3.7,2.9-5.3c-1.3-0.6-2.4-1.1-3.8-1.7c1.2-1.5,2.2-2.7,3.3-4.2c-2.3-0.2-4.2-0.4-6.4-0.7c1.6-2.6,4.5-3.7,5.7-6.7
			c-2.1,0.4-3.9,0.7-6,1c0.9-1.8,1.7-3.2,2.5-4.7c-0.6-0.3-1.1-0.6-1.6-0.9c1-0.8,1.8-1.5,2.6-2.3c-0.5-0.4-0.9-0.7-1.4-1.1
			c2.6-2.6,5-5.1,7.5-7.5c-0.1-0.2-0.3-0.3-0.4-0.5c-2.4,2.6-5,4.7-9.2,4c0.6-0.9,1.1-1.6,1.6-2.3c-3.3-0.4-6.4-0.7-8.8-3.4
			c1.3-1.2,2.4-2.2,3.7-3.4c-2.9-0.2-5.5-0.5-7.4-3c1.2-1,2.3-1.9,3.5-2.9c-3.5-0.4-6.8-0.3-9.6-2.8c2.1-1.2,4-2.2,6.3-3.5
			c-5.7-0.6-11.1-0.5-15.6-4.8c6.2-1.4,12-2.7,17.8-4c-2.4-0.5-4.8-0.6-7.1-1c-5.4-0.9-10.7-2-16-3.1c-0.8-0.2-1.6-0.7-2.3-1.1
			c0-0.2,0-0.3,0-0.5c1-0.4,2-1,3.1-1.3c2.7-0.6,5.5-1.2,8.3-1.5c8.2-0.7,16.3-1.3,24.5-1.9c0.7-0.1,1.4-0.3,2-0.4
			c-0.4-0.5-0.7-0.7-1.1-0.7c-4.4-0.9-8.9-1.7-13.3-2.7c-6.1-1.4-12.2-3-18.3-4.6c-1.3-0.4-2.5-1.2-3.7-1.9c0-0.2,0-0.4,0.1-0.6
			c1-0.3,1.9-0.7,2.9-0.9c7.8-1.4,15.6-0.6,23.4-0.2c6.2,0.3,12.3,0.9,18.5,1.4c-0.1-0.3-0.3-0.4-0.5-0.5
			c-8.4-2.9-16.8-5.6-25.1-8.7c-3.9-1.5-7.4-3.7-11.1-5.6c-0.5-0.3-0.9-0.9-1.3-1.3c0.1-0.2,0.1-0.3,0.2-0.5c3.2,0,6.5-0.4,9.6,0.1
			c6.3,1,12.5,2.3,18.7,3.8c6.2,1.5,12.2,3.3,18,4.8c-4.3-2-9.1-4.1-13.6-6.4c-8-4.1-15.7-8.6-22.7-14.3c-1-0.9-2-1.8-2.8-2.9
			c-1.1-1.5-0.6-2.5,1.2-2.5c1.3,0,2.8,0.2,4,0.7C27.7,23.4,34.4,26,41,29c8.5,4,16.9,8.3,25.3,12.4c0,0,0,0.1,0.1,0.1
			c0,0-0.1-0.1-0.1-0.1c-4.7-3.5-9.4-6.9-14.1-10.4C44.6,25.4,37.3,19.6,31,12.5c-2-2.2-3.6-4.9-5.1-7.4C25,3.6,24.6,1.8,25.3,0z
			 M180.2,162.6c1.6,1.8,2.2,1.7,3.5-0.2C182.5,161.6,181.5,161.3,180.2,162.6z"/>
		<polygon points="30.4,227.9 30.3,227.9 30.2,227.8 		"/>
		<path d="M34.1,232.5l-0.2,0l0-0.2C33.9,232.4,34,232.5,34.1,232.5z"/>
	</g>
</g>
</svg>
