<?xml version="1.0" encoding="utf-8"?>
<!-- Generator: Adobe Illustrator 28.3.0, SVG Export Plug-In . SVG Version: 6.00 Build 0)  -->
<svg version="1.1" id="Layer_1" xmlns="http://www.w3.org/2000/svg" xmlns:xlink="http://www.w3.org/1999/xlink" x="0px" y="0px"
	 width="155.5px" height="152.1px" viewBox="0 0 155.5 152.1" style="enable-background:new 0 0 155.5 152.1;" xml:space="preserve"
	>
<style type="text/css">
	.st0{fill-rule:evenodd;clip-rule:evenodd;}
	.st1{fill:#B25959;}
</style>
<path d="M133.7,113.1c-2.7-1.5-4.6-2.5-6.5-3.6c0,0,0,0,0,0.1c-5-2.9-10.5-3.4-15.8-3.3c-1,1-1.8,1.7-2.5,2.4c0-0.4-0.2-0.8,0-1.1
	c5.1-8.1,10.7-15.9,17.1-23c0.6-0.7,1.5-1.4,2.3-1.7c7.8-2.7,13.6-8,18.4-14.4c1.9-2.5,4.2-4.9,4.6-8.3c-4.3,3.1-8.5,6.1-14.1,7.3
	c6.4-14.6,6.8-29.3,4.1-44.3c-2.5,13-4.7,26.1-12,37.6c2-20.8,1.6-41.2-5.9-60.9c-1.1,18.1-0.9,36.3-6.4,54.6
	c-4.9-12.5-8.1-24.5-11-37.2c-4.7,11.8-4.2,23.8-3.8,36.5c-8.5-7.5-11.1-17.3-14.9-27.5c-0.5,2.7-1,4.5-1.1,6.2
	c-0.4,6.3,0.2,12.5,1.4,18.7c0.5,2.9,1.2,5.9-0.6,9.3c-6.9-4.3-9.8-11.1-13.4-17.7c-0.4,1.3-0.7,2.6-0.7,3.9c0,5.6,0,11.2,0,16.7
	c0,2.1-0.1,4.2-2.1,5.7c-3.5,0-4.4-3.5-6.9-5c-2.8,3-2.6,6.8-2.4,10.6c-3.2,0.6-6.1,0.6-8.9-2.8c-0.8,4.4-1.4,7.7-2,11.1
	c-2,1.3-4.1,1-5.9-0.4c-2.5,2.8-2.5,2.6-3.4,9.3c-2.4,2-3.2-1.1-4.8-1.6c-3.8,3.4-6.2,7.7-8.9,12.9c3.4-1.9,5.5-4.9,9.6-3.5
	c0.5,2.5,0.8,5.3,1.5,7.9c0.7,2.5,2,4.9,3,7.3c-0.1,0.1-0.3,0.3-0.4,0.4c-1.1-0.9-2.2-1.7-3.2-2.5c-5.7,5.7-11.3,1.3-17.2-0.3
	C14.2,120,6,125.7,0,133.8c2.6,7.8,8.8,12.6,14.4,18.3c8.8-13,20.4-21.6,36-25.8c-1.2,1.4-1.9,2.2-2.7,3.2
	c6.1,2.4,12.3,2.9,18.6,2.9c21.6,5.2,43.3,7.2,64.8,9.7c5.6-4.1,8.9-9.2,11-16.3c-5.6,4.9-10.5,9.4-18,8.3c0.4-2.4,0.8-4.3,1.1-6.2
	c-3.1,1.8-6.2,3.6-9.6,5.5c2.9,1.9,5.7,3.7,8.4,5.6c-7.2-2.6-13.3-7.1-19.1-11.4c6.5-1.5,12.9-3.3,19.3-5.4c3-1,5.8-2.5,8.6-4.1
	c2.8-1.6,5.7-2.3,8.8-1.7c3.1,0.6,6.2,1.5,9.3,2.2c1.5,0.3,3,0.6,4.5,0.9C148.7,114.6,141,112.7,133.7,113.1z M79,127.8
	C79,127.8,79,127.8,79,127.8C79,127.8,79.1,127.8,79,127.8z M79.9,123.6c-0.1,0-0.2-0.1-0.2-0.1c0.2,0,0.5,0,0.7,0
	C80.2,123.5,80,123.6,79.9,123.6z M127.9,111c-0.5,0.8-1.6,1.1-2.4,0.6c-0.8-0.5-1.1-1.6-0.6-2.4c0.3-0.5,1.5-0.1,2.3,0.5
	c0,0,0,0,0.1,0c0,0,0,0,0,0.1C127.7,110.2,128.1,110.7,127.9,111z"/>
</svg>
