<?xml version="1.0" standalone="no"?>
<!DOCTYPE svg PUBLIC "-//W3C//DTD SVG 20010904//EN"
 "http://www.w3.org/TR/2001/REC-SVG-20010904/DTD/svg10.dtd">
<svg version="1.0" xmlns="http://www.w3.org/2000/svg"
 width="2375.000000pt" height="2224.000000pt" viewBox="0 0 2375.000000 2224.000000"
 preserveAspectRatio="xMidYMid meet">
<metadata>
Created by potrace 1.16, written by Peter Selinger 2001-2019
</metadata>
<g transform="translate(0.000000,2224.000000) scale(0.100000,-0.100000)"
fill="#000000" stroke="none">
<path d="M2499 22223 c-19 -23 -16 -278 4 -297 7 -7 21 -33 31 -57 10 -24 26
-62 36 -84 9 -22 20 -53 24 -69 4 -16 20 -41 37 -57 16 -15 32 -41 35 -58 4
-17 10 -31 14 -31 5 0 42 -42 83 -93 41 -51 82 -99 91 -106 9 -7 16 -18 16
-23 0 -6 30 -39 68 -75 139 -133 152 -146 152 -153 0 -4 31 -28 68 -54 57 -38
76 -46 115 -46 46 0 47 0 47 -33 0 -22 -10 -44 -30 -67 -16 -19 -29 -41 -30
-47 0 -25 -65 -12 -140 27 -203 106 -442 219 -720 342 -25 11 -63 28 -86 39
-22 10 -43 19 -46 19 -3 0 -62 27 -131 60 -68 33 -129 60 -135 60 -5 0 -41 14
-79 31 -37 17 -95 40 -128 51 -33 11 -64 24 -70 29 -5 5 -14 9 -21 9 -7 0 -45
15 -86 34 -40 18 -110 44 -156 57 -80 22 -82 22 -96 4 -21 -30 -14 -185 13
-260 12 -33 29 -87 38 -120 17 -66 59 -155 72 -155 4 0 22 -28 39 -63 39 -79
123 -175 175 -202 21 -11 49 -33 60 -50 28 -39 46 -53 81 -61 36 -8 53 -23 61
-55 9 -35 26 -54 65 -74 19 -9 51 -32 70 -50 19 -18 55 -44 80 -56 25 -13 54
-32 65 -42 11 -10 32 -25 48 -33 15 -8 27 -23 27 -34 0 -11 7 -20 15 -20 9 0
37 -11 63 -24 26 -13 61 -26 77 -30 17 -4 59 -31 94 -61 34 -30 66 -55 70 -55
16 0 111 -97 111 -114 0 -9 11 -21 25 -26 28 -11 34 -40 8 -40 -10 0 -31 7
-47 15 -16 8 -54 22 -85 31 -31 9 -79 27 -108 40 -28 13 -57 24 -63 24 -7 0
-24 6 -38 14 -61 31 -145 66 -457 186 -11 4 -65 24 -120 45 -55 20 -109 41
-120 45 -11 5 -60 23 -110 41 -49 18 -126 47 -170 66 -44 19 -109 45 -145 58
-36 12 -78 30 -95 39 -16 9 -35 16 -42 16 -6 0 -93 34 -193 75 -220 91 -262
104 -284 86 -38 -32 -47 -179 -21 -319 52 -273 165 -449 379 -590 56 -36 110
-75 121 -85 29 -28 78 -57 96 -57 9 0 48 -22 87 -50 39 -27 76 -50 82 -50 14
0 127 -57 134 -68 3 -5 36 -24 73 -42 169 -81 243 -121 243 -131 0 -5 31 -18
70 -30 86 -26 120 -51 120 -89 0 -19 6 -29 20 -33 21 -5 28 -37 8 -37 -38 0
-256 48 -323 71 -16 6 -136 37 -265 70 -129 33 -257 66 -285 73 -27 8 -104 26
-170 41 -66 15 -136 32 -155 37 -58 16 -220 54 -328 78 -23 5 -52 15 -65 22
-12 6 -51 12 -87 12 -60 1 -68 -2 -100 -31 -31 -29 -34 -38 -38 -98 -6 -86 29
-236 75 -326 18 -36 33 -72 33 -80 0 -9 15 -33 34 -55 18 -21 36 -49 40 -62
15 -45 65 -90 122 -108 44 -14 57 -23 70 -50 16 -34 22 -37 116 -60 16 -3 28
-12 28 -20 0 -8 8 -14 18 -14 10 0 29 -11 42 -25 18 -19 34 -25 66 -25 37 0
49 -6 82 -39 25 -25 52 -42 75 -46 21 -4 37 -11 37 -16 0 -4 20 -11 44 -14 28
-5 53 -16 68 -32 36 -39 72 -53 133 -53 50 0 59 -3 89 -35 19 -19 41 -35 48
-35 8 0 24 -9 36 -20 15 -14 35 -20 66 -20 25 0 47 -4 50 -9 3 -5 34 -12 68
-16 64 -7 95 -19 113 -40 6 -7 30 -15 54 -18 24 -3 47 -10 50 -15 3 -5 16 -12
29 -16 27 -9 29 -36 3 -36 -39 0 -298 56 -351 76 -19 7 -84 25 -145 40 -60 15
-114 30 -120 34 -5 4 -46 15 -90 25 -44 9 -111 26 -150 37 -38 11 -92 24 -120
29 -64 12 -216 47 -275 64 -25 7 -65 16 -90 20 -25 4 -48 12 -51 17 -4 6 -37
16 -75 23 -121 24 -164 34 -187 47 -12 6 -54 12 -92 12 -66 1 -73 -1 -105 -31
l-35 -33 1 -102 c0 -115 26 -229 68 -304 13 -24 27 -58 31 -76 4 -18 24 -53
44 -78 20 -25 43 -59 50 -76 18 -46 59 -80 116 -99 54 -18 77 -33 70 -44 -11
-18 46 -58 99 -70 36 -8 56 -18 56 -27 0 -8 8 -14 18 -14 10 0 29 -11 42 -25
18 -19 34 -25 66 -25 36 0 48 -6 87 -44 29 -29 57 -47 81 -51 20 -4 36 -11 36
-15 0 -5 22 -11 49 -15 28 -4 56 -14 63 -23 7 -8 31 -28 52 -44 32 -23 49 -28
98 -28 54 0 61 -3 92 -35 19 -19 41 -35 48 -35 8 0 24 -9 36 -20 15 -14 35
-20 71 -20 27 0 53 -4 56 -10 3 -5 20 -10 37 -10 17 0 29 -2 27 -4 -10 -9
-408 -26 -674 -27 -209 -1 -304 -6 -339 -15 -58 -16 -142 -18 -151 -4 -8 12
-147 1 -197 -16 -20 -7 -66 -41 -102 -77 -58 -57 -66 -70 -67 -103 -2 -64 2
-88 17 -105 8 -8 14 -28 14 -42 0 -15 5 -27 11 -27 8 0 10 -17 7 -50 -5 -49
-4 -50 22 -50 22 0 30 -8 45 -40 10 -22 21 -40 25 -40 9 0 28 -47 32 -80 2
-18 11 -27 38 -34 19 -5 56 -24 83 -43 26 -18 59 -33 75 -33 15 0 42 -9 60
-20 18 -11 47 -20 65 -21 63 -2 82 -12 87 -49 l5 -33 79 2 c74 2 80 1 107 -25
16 -15 29 -33 29 -40 0 -19 19 -22 101 -17 68 5 77 4 90 -14 26 -37 70 -51
157 -50 81 0 82 0 117 -36 20 -20 42 -37 50 -37 8 0 15 -6 15 -13 0 -15 -139
-49 -300 -72 -63 -9 -144 -26 -180 -37 -36 -11 -102 -23 -147 -25 -46 -3 -83
-9 -83 -14 0 -5 -14 -9 -30 -9 -101 0 -310 -49 -310 -72 0 -5 -6 -8 -13 -8
-28 0 -97 -93 -97 -130 0 -11 -5 -20 -12 -20 -9 0 -9 -3 0 -12 7 -7 12 -26 12
-43 0 -35 22 -86 45 -105 8 -7 15 -23 15 -36 0 -12 8 -29 18 -36 23 -18 82
-94 82 -107 0 -6 5 -11 10 -11 6 0 10 -6 10 -13 0 -7 26 -28 57 -47 72 -44 96
-66 113 -107 15 -32 34 -43 81 -43 15 0 37 -8 50 -17 57 -43 90 -55 126 -48
58 11 141 -5 170 -31 28 -26 27 -26 129 -24 61 1 77 -2 109 -24 21 -14 44 -26
51 -26 8 0 14 -4 14 -10 0 -5 7 -10 15 -10 8 0 15 -6 15 -13 0 -15 -35 -47
-51 -47 -11 0 -70 -38 -79 -51 -8 -12 -160 -109 -169 -109 -5 0 -22 -17 -37
-37 -24 -32 -29 -47 -28 -93 2 -61 40 -200 56 -200 5 0 78 -69 162 -152 203
-202 292 -267 365 -268 9 0 36 -14 60 -30 42 -29 46 -30 165 -29 150 2 176 -7
176 -57 0 -27 -5 -37 -20 -41 -11 -3 -20 -10 -20 -16 0 -5 -24 -36 -53 -68
-73 -80 -94 -109 -123 -174 -29 -62 -27 -104 6 -173 11 -21 24 -59 30 -84 9
-34 19 -50 44 -64 18 -10 78 -61 132 -112 108 -103 223 -183 296 -210 26 -9
50 -23 53 -31 3 -7 -4 -39 -16 -70 -32 -84 -29 -161 8 -243 17 -37 34 -80 38
-96 3 -17 15 -38 27 -48 11 -11 43 -48 72 -84 111 -140 111 -141 210 -189 114
-55 229 -70 346 -47 46 10 99 24 118 32 19 8 41 14 49 14 8 0 62 23 120 50 58
28 114 50 124 50 10 0 24 7 33 15 8 8 22 15 30 15 27 0 23 -19 -42 -205 -19
-55 -55 -181 -80 -280 -42 -172 -44 -185 -38 -285 6 -109 18 -161 56 -243 14
-29 20 -57 17 -75 -9 -43 -44 -161 -60 -201 -22 -53 -40 -238 -32 -328 12
-126 53 -228 133 -330 84 -106 84 -107 76 -249 -6 -109 -4 -133 12 -182 10
-31 22 -59 25 -62 3 -3 14 -21 25 -40 10 -19 31 -51 47 -72 27 -35 27 -39 27
-170 0 -133 3 -158 36 -253 16 -46 62 -122 96 -159 7 -9 18 -21 24 -28 6 -7
33 -34 60 -59 62 -58 74 -79 74 -126 1 -105 36 -165 136 -232 86 -58 158 -78
309 -86 179 -10 171 -7 203 -78 16 -35 44 -79 62 -100 64 -73 258 -143 463
-168 89 -10 94 -12 137 -54 63 -60 289 -221 344 -246 40 -17 75 -21 248 -26
l202 -6 75 -70 c46 -43 101 -82 141 -101 64 -30 68 -31 244 -35 272 -5 429 20
591 94 69 31 86 35 164 35 77 0 91 3 139 31 54 31 233 207 360 355 38 45 117
148 176 230 58 82 138 187 176 234 39 47 70 88 70 92 0 5 38 86 84 181 47 94
94 201 107 237 50 149 65 166 234 259 33 18 79 49 102 67 23 19 45 34 50 34 9
0 33 -48 33 -67 0 -7 -11 -32 -25 -57 -30 -54 -31 -71 -5 -93 27 -24 26 -71
-6 -163 -14 -41 -30 -100 -36 -130 -5 -30 -14 -59 -18 -65 -9 -10 -35 -170
-51 -310 -5 -44 -13 -159 -18 -255 -7 -147 -13 -187 -35 -252 -23 -71 -44
-206 -76 -495 -7 -66 -20 -114 -44 -170 -76 -176 -95 -297 -107 -707 -5 -192
-15 -351 -23 -400 -22 -119 -28 -208 -31 -415 -1 -115 -8 -221 -18 -276 -9
-49 -21 -157 -27 -240 -9 -122 -16 -160 -36 -205 -20 -42 -24 -64 -19 -96 4
-27 1 -54 -9 -75 -22 -54 -46 -143 -46 -176 0 -17 -11 -64 -24 -104 -13 -41
-27 -95 -31 -122 -4 -26 -11 -50 -16 -53 -5 -3 -9 -16 -9 -30 0 -35 -51 -236
-64 -252 -16 -21 -56 -153 -56 -188 0 -16 -7 -39 -15 -50 -8 -10 -15 -36 -15
-56 0 -20 -5 -40 -10 -43 -6 -3 -10 -16 -10 -28 0 -13 -9 -41 -21 -62 -24 -47
-69 -199 -69 -237 0 -15 -6 -33 -13 -40 -8 -7 -27 -58 -44 -113 -16 -55 -63
-206 -103 -335 -41 -129 -75 -255 -78 -280 -2 -25 -10 -52 -16 -60 -16 -19
-46 -127 -46 -165 0 -16 -6 -36 -14 -44 -21 -24 -75 -185 -82 -244 -3 -29 -15
-78 -25 -110 -11 -33 -22 -80 -25 -105 -3 -26 -9 -56 -14 -67 -12 -30 -28 -95
-35 -140 -4 -22 -13 -51 -20 -65 -24 -44 -37 -122 -41 -240 -2 -63 -8 -137
-14 -165 -14 -66 -18 -264 -7 -390 5 -55 13 -163 17 -240 10 -167 23 -264 44
-325 9 -25 16 -51 16 -59 0 -8 7 -19 15 -25 10 -7 18 -36 22 -81 7 -77 16 -93
53 -91 23 1 25 -3 28 -46 2 -27 7 -48 13 -48 5 0 9 -10 9 -22 0 -13 9 -34 20
-48 11 -14 20 -29 20 -35 0 -14 76 -56 85 -47 4 4 13 22 21 40 10 26 19 33 36
30 21 -3 23 -9 26 -70 3 -62 4 -67 21 -56 14 9 24 6 49 -12 31 -23 52 -21 52
6 0 8 7 14 15 14 8 0 15 -7 15 -16 0 -38 30 -49 149 -54 88 -5 119 -3 129 7 7
7 20 13 28 13 8 0 14 5 14 10 0 18 39 11 61 -11 15 -15 27 -19 42 -13 12 4 48
8 79 8 32 1 63 7 70 14 7 7 31 12 55 12 41 0 43 1 43 30 0 25 4 30 25 30 14 0
25 -4 25 -10 0 -18 25 -10 60 18 19 16 44 34 55 39 29 15 117 14 141 -2 18
-11 22 -11 32 6 13 20 56 26 67 9 4 -6 15 -6 32 1 15 5 33 7 41 4 7 -3 26 4
42 15 37 26 50 25 50 -5 0 -16 6 -25 15 -25 8 0 15 -4 15 -8 0 -5 14 -6 31 -4
l31 5 -7 -41 -6 -40 68 4 c37 2 105 9 150 15 78 11 81 13 87 41 6 29 37 51 44
30 5 -15 58 -16 67 -2 3 6 21 10 38 10 21 0 42 10 63 29 28 27 37 29 131 33
77 3 104 7 117 21 10 9 29 20 44 24 15 3 33 15 40 25 7 10 19 18 25 18 13 0
81 84 104 127 6 13 19 33 27 45 9 12 16 30 16 40 0 13 8 18 31 18 26 0 33 6
50 46 12 27 33 53 50 62 28 17 32 25 44 109 4 25 20 60 39 85 41 54 76 121 76
147 0 11 11 28 24 38 17 13 30 45 50 123 15 58 33 125 40 150 8 25 18 63 24
85 6 22 18 65 28 95 31 102 46 185 44 256 -1 56 2 73 14 77 9 4 16 16 16 27 0
12 5 31 11 42 20 37 50 201 50 271 0 37 4 67 8 67 4 0 13 62 20 138 8 75 20
150 28 165 11 22 12 56 7 167 -6 126 -5 142 11 160 14 16 16 30 10 88 -5 50
-3 77 6 93 10 18 14 126 16 444 3 362 5 422 19 431 13 10 14 42 4 267 -6 140
-15 292 -20 338 -13 109 -13 541 0 607 5 28 16 135 25 238 9 103 17 190 19
193 3 3 9 60 16 126 25 262 81 560 120 640 59 120 248 305 348 341 62 22 181
18 233 -8 72 -37 273 -193 302 -235 34 -50 57 -105 57 -140 0 -37 40 -120 102
-215 66 -101 102 -121 201 -108 57 7 76 15 121 49 l53 41 52 -13 c45 -10 57
-19 87 -59 45 -63 122 -104 166 -89 39 14 158 14 193 1 20 -8 43 -5 98 12 40
12 101 22 137 22 l64 1 51 -100 c28 -55 67 -126 88 -159 20 -32 41 -73 47 -90
8 -26 24 -38 97 -73 49 -23 124 -54 168 -70 72 -25 94 -28 211 -28 127 0 132
1 166 27 20 15 49 51 66 80 16 29 59 86 95 126 55 61 70 86 89 145 13 44 43
103 77 151 61 91 93 163 116 265 9 39 20 71 25 71 11 0 48 -82 59 -132 5 -24
12 -90 16 -148 11 -173 48 -298 141 -470 13 -25 46 -88 73 -141 54 -104 69
-120 236 -241 165 -120 276 -168 391 -168 67 0 111 21 206 97 43 34 91 69 107
79 32 19 36 30 72 203 14 67 23 158 28 296 l7 200 40 85 c66 139 70 135 66
-61 l-4 -169 87 -175 c47 -97 101 -192 119 -213 18 -20 51 -62 73 -92 49 -67
50 -68 149 -125 125 -72 211 -110 314 -140 109 -32 175 -35 243 -12 26 10 70
18 98 19 48 2 51 4 84 54 19 29 35 57 35 63 0 11 96 91 109 91 12 0 35 -22 74
-72 42 -53 259 -241 330 -286 26 -16 68 -35 94 -41 68 -17 101 -27 153 -46 25
-9 79 -18 120 -21 41 -2 76 -8 78 -14 6 -18 53 -10 86 15 18 14 38 25 44 25
16 0 80 71 94 105 6 17 15 32 19 35 15 10 22 60 9 60 -9 0 -11 12 -7 45 5 36
4 45 -8 45 -16 0 -21 36 -6 42 14 5 0 58 -15 58 -8 0 -14 9 -14 19 0 11 -8 26
-18 33 -9 7 -25 38 -36 68 -10 30 -24 69 -31 85 -7 17 -19 47 -26 68 -7 20
-17 37 -21 37 -4 0 -8 11 -8 25 0 14 -3 25 -8 25 -4 0 -13 15 -20 32 -8 18
-17 42 -22 53 -5 11 -23 67 -41 125 -17 58 -42 131 -55 162 -30 71 -31 92 -5
85 17 -4 18 -2 9 18 -17 37 -1 111 27 134 41 31 90 35 140 11 72 -35 125 -98
194 -232 35 -68 76 -143 90 -168 14 -25 27 -61 28 -80 1 -27 11 -43 40 -67 21
-18 44 -33 51 -33 6 0 12 -7 12 -16 0 -17 44 -64 60 -64 5 0 12 -12 16 -28 3
-15 8 -34 10 -42 2 -8 18 -21 35 -29 19 -8 28 -18 25 -27 -3 -8 3 -20 14 -26
11 -7 20 -18 20 -24 0 -7 14 -17 31 -23 17 -6 28 -15 24 -21 -3 -5 -1 -10 4
-10 6 0 11 -11 11 -25 0 -28 32 -65 55 -65 8 0 15 -7 15 -15 0 -9 11 -20 24
-26 14 -7 22 -17 20 -23 -3 -7 4 -21 16 -31 11 -10 20 -26 20 -37 0 -11 7 -18
19 -18 11 0 23 -5 26 -10 3 -6 17 -10 31 -10 13 0 24 -4 24 -10 0 -5 5 -10 10
-10 6 0 19 -9 30 -20 11 -11 27 -20 35 -20 8 0 15 -6 15 -14 0 -13 93 -36 143
-36 9 0 17 -4 17 -9 0 -12 60 -19 200 -26 103 -5 122 -3 180 17 161 56 166
110 40 373 -32 66 -72 151 -90 189 -18 37 -45 82 -59 98 -13 17 -44 67 -67
112 -77 150 -99 191 -132 238 -18 26 -32 52 -32 58 0 7 -8 24 -19 38 -10 15
-24 45 -31 67 -7 22 -20 49 -30 60 -27 30 -83 149 -124 260 -20 55 -75 179
-121 275 -84 171 -100 222 -120 365 l-7 50 64 -60 c35 -33 94 -85 130 -115 37
-30 71 -67 76 -82 6 -14 20 -29 31 -33 12 -3 21 -15 21 -26 0 -12 7 -19 19
-19 11 0 22 -9 26 -19 3 -11 12 -22 20 -25 8 -3 15 -17 15 -31 0 -15 6 -25 14
-25 10 0 16 -19 21 -61 5 -43 12 -63 26 -72 10 -6 19 -17 19 -24 0 -7 6 -13
13 -13 8 0 20 -12 28 -27 19 -38 41 -63 55 -63 26 0 74 -33 74 -50 0 -10 4
-22 10 -25 5 -3 17 -21 26 -40 9 -19 23 -35 30 -35 8 0 14 -4 14 -9 0 -5 12
-12 28 -16 29 -7 72 -50 72 -72 0 -7 9 -13 20 -13 11 0 20 -6 20 -14 0 -8 7
-16 15 -20 8 -3 15 -13 15 -22 0 -10 18 -34 40 -55 22 -21 40 -41 40 -44 0 -3
0 -9 0 -15 0 -5 11 -12 25 -16 13 -3 29 -12 36 -20 6 -8 20 -14 30 -14 11 0
19 -7 19 -15 0 -9 11 -20 25 -25 14 -5 25 -14 25 -20 0 -5 7 -10 16 -10 9 0
22 -17 31 -39 12 -30 22 -40 44 -45 17 -3 29 -12 29 -21 0 -8 4 -15 9 -15 4 0
20 -11 35 -25 15 -14 31 -25 36 -25 17 0 48 -33 43 -45 -5 -14 47 -55 70 -55
8 0 17 -9 20 -20 3 -12 14 -20 26 -20 12 0 21 -6 21 -15 0 -9 7 -18 16 -22 8
-3 19 -16 24 -28 7 -18 21 -25 72 -34 35 -6 64 -15 66 -21 2 -5 10 -10 19 -10
8 0 27 -8 41 -19 37 -25 209 -34 367 -19 107 10 127 15 185 46 142 77 146 133
22 320 -30 47 -69 101 -86 120 -17 20 -30 37 -28 39 5 6 -69 101 -118 153 -26
27 -59 68 -75 91 -41 60 -178 230 -204 253 -11 11 -21 24 -21 31 0 7 -9 20
-20 30 -10 9 -29 36 -41 59 -92 177 -153 260 -305 416 -152 157 -160 165 -219
245 -84 114 -223 347 -203 340 7 -3 19 -1 27 4 12 7 0 27 -56 93 -81 95 -155
199 -148 206 3 3 51 -18 108 -45 105 -51 187 -117 187 -151 1 -22 16 -40 64
-77 58 -45 89 -63 109 -64 11 -1 23 -13 30 -31 6 -16 18 -30 27 -30 8 0 26 -9
40 -20 14 -11 35 -20 46 -20 15 0 24 -8 28 -24 3 -13 18 -32 33 -41 37 -24
133 -122 133 -135 0 -6 11 -16 25 -22 14 -6 25 -17 25 -25 0 -7 9 -13 19 -13
11 0 22 -9 26 -19 3 -11 12 -22 20 -25 8 -3 15 -15 15 -26 0 -11 6 -20 14 -20
10 0 17 -17 21 -55 6 -41 12 -56 26 -60 11 -4 19 -13 19 -21 0 -8 5 -14 11
-14 11 0 39 -25 39 -35 0 -15 36 -41 69 -50 26 -8 37 -17 39 -33 2 -12 7 -22
12 -22 5 0 16 -15 25 -34 12 -25 26 -36 58 -45 38 -12 87 -52 87 -73 0 -4 9
-8 20 -8 11 0 20 -6 20 -14 0 -8 7 -16 15 -20 8 -3 15 -11 15 -18 0 -7 16 -27
35 -43 19 -17 35 -36 35 -42 0 -13 74 -53 97 -53 7 0 13 -7 13 -15 0 -8 20
-24 44 -35 30 -13 47 -28 54 -48 7 -21 19 -31 41 -35 18 -4 31 -13 31 -22 0
-8 4 -15 8 -15 5 0 19 -9 32 -20 13 -11 29 -20 37 -20 19 0 43 -25 43 -43 0
-16 42 -47 64 -47 7 0 16 -7 20 -15 3 -8 15 -15 26 -15 11 0 20 -5 20 -11 0
-28 58 -68 115 -78 33 -6 61 -15 64 -20 3 -5 21 -12 39 -16 17 -3 32 -10 32
-14 0 -15 224 -20 345 -9 99 9 130 16 180 40 82 41 105 64 105 105 0 57 -33
109 -204 322 -54 67 -105 125 -112 128 -8 3 -43 40 -78 82 -35 42 -96 112
-137 157 -41 44 -112 125 -159 179 -47 54 -94 108 -105 119 -11 12 -37 42 -59
66 -21 25 -69 78 -105 119 -36 40 -70 79 -74 87 -4 8 -23 29 -41 47 -17 17
-65 70 -106 117 -40 47 -79 89 -87 93 -7 4 -13 12 -13 17 0 6 -21 32 -47 58
-66 66 -133 151 -133 168 0 24 35 15 58 -15 20 -28 24 -29 77 -24 59 6 85 -5
85 -37 0 -29 46 -77 80 -83 20 -5 34 -15 40 -32 6 -15 17 -25 30 -25 11 0 36
-16 56 -35 19 -19 39 -35 44 -35 6 0 10 -7 10 -15 0 -8 5 -15 10 -15 6 0 19
-8 29 -18 51 -46 75 -62 95 -62 12 0 32 -9 44 -20 12 -11 26 -20 32 -20 5 0
10 -7 10 -15 0 -8 9 -15 20 -15 11 0 20 -4 20 -10 0 -5 6 -10 14 -10 7 0 16
-9 19 -20 4 -17 14 -20 56 -20 34 0 51 -4 51 -12 0 -7 14 -22 30 -33 16 -11
30 -23 30 -27 0 -5 7 -8 15 -8 9 0 18 -7 21 -15 3 -8 21 -17 40 -21 19 -3 48
-19 66 -35 18 -16 41 -29 51 -29 9 0 17 -4 17 -10 0 -5 9 -10 21 -10 12 0 23
-8 26 -20 3 -11 14 -20 24 -20 11 0 22 -6 25 -14 3 -7 24 -19 47 -27 53 -16
87 -38 87 -53 0 -19 57 -66 80 -66 11 0 20 -4 20 -9 0 -5 17 -12 38 -15 52 -9
145 -37 159 -49 8 -5 47 -7 97 -2 71 6 84 4 89 -9 8 -21 25 -20 77 5 29 14 54
19 77 16 18 -3 33 -2 33 3 0 5 27 21 60 36 36 16 70 40 82 57 l22 30 -30 56
c-29 56 -36 66 -86 123 -16 18 -28 40 -28 50 0 10 -6 18 -13 18 -17 0 -61 42
-312 304 -110 114 -462 471 -782 792 -376 377 -583 592 -583 604 0 27 30 25
54 -4 16 -19 26 -22 61 -19 45 6 144 -32 145 -54 0 -6 9 -15 20 -18 11 -3 20
-11 20 -16 0 -5 6 -9 14 -9 8 0 28 -13 44 -30 17 -16 38 -30 46 -30 9 0 16 -4
16 -10 0 -5 7 -10 15 -10 8 0 15 -6 15 -13 0 -14 54 -37 88 -37 13 0 22 -6 22
-15 0 -8 11 -17 25 -21 15 -4 28 -16 31 -30 5 -19 17 -28 50 -36 24 -7 44 -18
44 -25 0 -7 7 -13 16 -13 9 0 24 -8 33 -19 9 -10 26 -21 39 -25 12 -4 22 -12
22 -17 0 -5 7 -9 15 -9 8 0 15 -4 15 -10 0 -5 8 -10 18 -10 19 0 99 -38 120
-58 7 -6 17 -12 22 -12 5 0 12 -9 15 -20 5 -15 15 -20 41 -20 19 0 34 -4 34
-10 0 -5 8 -10 18 -10 10 0 32 -13 50 -30 21 -19 44 -30 62 -30 16 0 46 -11
66 -25 20 -14 43 -25 50 -25 8 0 28 -12 45 -28 30 -27 37 -28 189 -48 25 -4
48 -11 52 -18 9 -14 207 -24 313 -15 55 5 92 14 115 28 19 11 42 24 50 28 48
23 65 64 44 105 -49 95 -788 840 -1169 1178 -33 29 -67 60 -76 69 -8 9 -48 45
-89 81 -100 89 -110 98 -110 110 0 6 -7 10 -15 10 -19 0 -38 36 -30 60 3 10
15 22 26 25 10 4 19 13 19 21 0 10 12 14 40 14 33 0 40 -3 40 -20 0 -13 7 -20
18 -20 10 0 27 -7 38 -15 10 -8 26 -15 35 -15 9 0 19 -9 22 -20 3 -11 14 -20
24 -20 10 0 30 -13 44 -30 27 -30 127 -80 160 -80 10 0 20 -4 23 -9 3 -4 25
-11 48 -15 140 -20 154 -23 173 -43 9 -9 39 -18 66 -21 33 -3 49 -9 49 -18 0
-8 10 -14 23 -15 124 -3 168 -8 183 -24 12 -11 19 -13 24 -5 4 7 34 10 81 8
55 -2 82 2 104 15 17 9 37 19 46 22 20 8 49 57 49 83 0 10 -8 30 -19 43 -10
13 -21 34 -25 46 -4 11 -18 24 -31 27 -14 4 -25 13 -25 20 0 8 -11 24 -25 34
-14 11 -110 101 -213 200 -181 173 -459 429 -612 562 -41 36 -88 77 -103 93
-16 15 -30 27 -33 27 -3 0 -94 71 -208 163 -21 18 -51 41 -67 52 -24 17 -226
175 -254 197 -39 33 -147 107 -310 216 -104 69 -191 129 -193 134 -2 4 -8 8
-13 8 -6 0 -47 24 -92 53 -45 30 -93 60 -106 67 -14 7 -34 21 -45 31 -11 11
-25 19 -32 19 -7 0 -41 16 -76 36 -34 20 -101 57 -148 82 -47 25 -86 49 -88
54 -2 4 -12 8 -21 8 -10 0 -31 11 -47 25 -16 14 -39 25 -50 25 -12 0 -33 9
-47 20 -14 11 -28 20 -33 20 -4 0 -30 11 -58 24 -72 33 -309 143 -381 176
-221 100 -569 235 -709 275 -33 9 -78 25 -100 35 -23 10 -77 30 -121 46 -44
15 -91 35 -105 44 -14 10 -36 21 -50 25 -14 4 -53 21 -88 36 -34 16 -69 29
-77 29 -7 0 -17 5 -20 10 -3 6 -14 10 -23 10 -9 0 -30 7 -46 15 -15 8 -36 15
-45 15 -9 0 -21 4 -26 8 -23 20 -360 132 -460 153 -33 7 -64 15 -70 19 -5 4
-35 13 -65 20 -30 7 -73 18 -95 26 -22 7 -69 18 -105 24 -36 6 -130 22 -210
36 -80 14 -183 30 -230 34 -163 17 -265 30 -280 37 -8 3 -26 5 -40 4 -14 -1
-46 7 -70 18 -25 11 -59 21 -76 21 -16 0 -39 7 -50 15 -10 8 -30 15 -42 15
-13 0 -36 6 -50 14 -15 8 -79 31 -142 52 -63 21 -135 47 -160 58 -25 11 -63
26 -85 32 -66 19 -160 55 -165 64 -3 4 -27 11 -55 15 -63 9 -196 42 -244 60
-20 8 -79 19 -131 25 -52 6 -122 15 -155 21 -33 5 -119 13 -192 18 -172 12
-235 20 -253 36 -14 12 -56 19 -195 31 -33 3 -69 9 -80 14 -34 15 -462 37
-560 29 -229 -18 -275 -19 -275 -5 0 7 9 21 20 31 11 10 20 23 20 29 0 11 76
92 153 165 20 19 53 63 73 98 21 35 41 63 46 63 4 0 8 8 8 18 0 9 14 46 30 81
40 85 106 281 120 356 63 342 47 592 -57 905 -36 110 -133 316 -165 349 -10
11 -18 24 -18 29 0 14 -74 118 -133 187 -29 33 -35 48 -35 90 -1 27 7 79 18
115 10 36 22 83 25 105 6 37 19 76 50 150 8 17 16 53 20 80 4 28 14 77 22 110
8 33 17 74 20 90 23 148 37 255 42 335 3 52 9 100 13 106 4 7 10 51 13 99 3
48 8 92 11 97 3 5 5 77 5 161 -1 84 2 166 8 182 5 17 14 57 21 90 7 33 16 69
20 80 5 11 11 43 14 70 12 115 19 145 32 145 8 0 14 10 14 24 0 14 4 28 10 31
5 3 7 25 4 49 -4 28 2 85 15 155 12 61 21 130 19 153 -2 34 2 49 21 71 13 15
33 27 44 27 28 0 155 -47 186 -69 33 -24 162 -86 139 -68 -10 8 -18 19 -18 26
0 6 -7 11 -16 11 -16 0 -134 67 -134 76 0 3 5 2 11 -2 8 -4 8 0 0 15 -7 12
-22 21 -34 21 -12 0 -31 6 -42 13 -11 7 -38 19 -60 26 -22 8 -43 19 -47 25
-11 17 -9 126 2 126 6 0 10 19 10 43 0 55 22 127 44 142 11 9 19 33 23 69 4
38 10 56 19 56 10 0 14 14 14 49 0 28 5 53 10 56 6 3 10 17 10 31 0 13 4 24 9
24 5 0 13 15 16 33 4 17 20 60 36 94 16 34 29 66 29 70 0 5 9 15 20 23 11 8
20 25 20 37 0 13 4 23 9 23 5 0 12 13 16 29 4 19 20 38 47 56 72 48 145 85
167 85 12 0 21 4 21 10 0 5 20 19 45 31 74 35 68 43 -28 36 l-87 -7 0 24 c0
15 21 50 52 88 72 88 277 288 295 288 9 0 41 21 72 48 73 61 203 161 244 187
18 11 46 32 62 47 17 15 41 36 55 47 50 40 -12 23 -111 -30 -181 -99 -353
-234 -552 -435 -80 -80 -127 -121 -127 -110 0 10 8 30 19 44 36 52 141 233
141 244 0 16 108 158 120 158 6 0 10 6 10 13 0 10 206 269 229 287 3 3 22 23
41 45 36 40 19 32 -35 -17 -16 -16 -34 -28 -38 -28 -14 0 -140 -134 -202 -215
-33 -43 -78 -99 -100 -124 -78 -91 -237 -333 -335 -512 -97 -175 -160 -250
-160 -191 0 9 -14 -8 -31 -38 -38 -70 -49 -81 -49 -50 0 64 126 376 278 690
71 145 82 170 77 170 -5 0 -89 -147 -128 -226 -19 -38 -54 -108 -78 -155 -53
-104 -89 -183 -89 -197 0 -6 -11 -23 -23 -39 -13 -15 -27 -47 -30 -69 -4 -23
-14 -54 -22 -70 -8 -16 -15 -35 -15 -41 0 -7 -4 -13 -9 -13 -4 0 -18 -30 -30
-67 -12 -37 -25 -70 -29 -73 -10 -7 -52 -93 -52 -105 -1 -13 -121 -135 -133
-135 -5 0 -6 8 -2 18 4 9 10 40 15 69 9 51 112 339 171 477 41 97 31 92 -15
-7 -80 -177 -104 -233 -109 -257 -12 -56 -77 -220 -115 -290 -23 -41 -53 -106
-67 -143 -14 -38 -37 -90 -50 -118 -41 -79 -63 -58 -26 24 10 23 22 62 26 87
4 25 27 84 51 131 45 90 87 204 82 221 -5 15 -108 -195 -108 -221 0 -13 -18
-63 -40 -112 -22 -49 -40 -96 -40 -104 0 -8 -6 -15 -14 -15 -8 0 -18 22 -25
63 -24 123 -24 136 -6 143 9 4 20 1 25 -6 5 -8 9 -9 14 -1 4 6 16 11 27 11 38
0 18 19 -23 22 -41 3 -43 4 -49 43 -7 37 -24 199 -50 465 -12 128 2 455 24
550 8 36 23 103 32 148 19 100 50 192 144 446 39 104 70 191 68 192 -4 4 -107
-223 -107 -235 0 -5 -7 -22 -15 -37 -8 -16 -15 -36 -15 -45 0 -9 -6 -22 -14
-28 -7 -6 -23 -44 -36 -84 -12 -39 -30 -96 -41 -125 -10 -29 -19 -65 -19 -80
0 -15 -9 -58 -19 -97 -10 -38 -26 -115 -36 -170 -9 -55 -19 -102 -21 -104 -10
-11 -38 34 -123 201 -87 170 -131 249 -131 238 0 -3 22 -51 49 -105 26 -55 52
-111 56 -125 4 -14 23 -54 41 -90 51 -99 76 -219 94 -460 14 -182 31 -334 41
-374 11 -40 3 -132 -11 -141 -4 -3 -19 28 -33 68 -13 39 -32 92 -40 117 -9 25
-23 79 -33 120 -9 41 -20 77 -23 80 -7 5 -16 40 -87 340 -60 252 -125 580
-118 591 8 13 38 11 53 -3 7 -7 1 5 -14 27 -14 22 -29 42 -33 45 -4 3 -18 18
-30 34 -14 18 -22 23 -22 14 0 -9 -24 -37 -52 -63 -36 -33 -52 -54 -50 -68 2
-10 -5 -29 -16 -41 -28 -29 -92 -154 -92 -177 0 -10 -4 -19 -8 -19 -9 0 -32
-59 -32 -83 0 -9 -7 -17 -15 -17 -16 0 -55 69 -55 98 0 10 -4 22 -10 28 -5 5
-18 34 -28 64 l-19 55 -7 -65 c-11 -104 19 -434 45 -481 30 -58 74 -246 99
-431 5 -37 16 -78 25 -92 20 -30 80 -258 95 -359 24 -166 39 -257 49 -293 15
-60 24 -154 15 -154 -16 0 -55 68 -69 118 -12 49 -98 182 -116 182 -5 0 -9 6
-9 13 0 6 -12 35 -25 62 -14 28 -25 58 -25 68 0 9 -4 17 -10 17 -5 0 -10 5
-10 12 0 6 -20 53 -45 103 -25 51 -48 107 -51 124 -4 17 -11 34 -15 37 -5 3
-9 14 -9 24 0 11 -9 34 -20 52 -10 18 -29 75 -40 128 -15 66 -28 101 -43 113
-18 16 -22 34 -28 135 -4 64 -8 209 -8 321 -1 112 -3 202 -5 200 -4 -4 -21
-255 -36 -534 -9 -167 -5 -289 16 -511 7 -71 6 -71 -19 -78 -22 -5 -26 -11
-22 -34 3 -15 14 -88 26 -162 11 -74 26 -148 33 -165 14 -32 69 -286 86 -400
6 -38 22 -108 36 -155 32 -111 31 -170 -1 -170 -15 0 -138 248 -156 313 -6 22
-17 46 -25 54 -8 8 -14 25 -14 39 0 13 -4 24 -9 24 -7 0 -91 199 -91 218 0 4
-11 34 -24 67 -27 66 -99 286 -115 350 -53 214 -109 415 -110 393 -2 -46 28
-252 44 -304 8 -27 15 -63 15 -80 0 -62 62 -360 87 -419 40 -95 83 -219 80
-228 -5 -17 -65 43 -96 96 -38 64 -65 97 -83 97 -7 0 -42 39 -78 86 -80 105
-152 186 -292 328 -60 60 -108 112 -108 117 0 5 -4 9 -10 9 -5 0 -47 29 -92
64 -46 34 -94 68 -108 75 -30 14 113 -124 188 -181 29 -23 74 -69 99 -102 25
-34 64 -76 85 -95 22 -19 51 -52 65 -75 15 -23 50 -66 78 -96 29 -30 69 -82
90 -115 20 -33 57 -84 82 -112 25 -29 41 -53 37 -53 -3 0 5 -9 20 -21 14 -11
26 -26 26 -33 0 -7 20 -44 45 -82 38 -57 43 -70 29 -73 -13 -2 -5 -14 34 -50
56 -51 83 -103 42 -81 -21 11 -21 10 4 -23 15 -19 26 -39 25 -43 -1 -5 3 -22
10 -39 6 -16 18 -46 25 -65 16 -41 33 -102 40 -148 3 -18 17 -48 31 -66 26
-34 33 -66 15 -66 -17 0 -48 37 -70 82 -35 70 -104 168 -122 174 -10 3 -18 12
-18 20 0 8 -4 14 -8 14 -5 0 -14 12 -21 27 -7 15 -21 33 -32 41 -10 7 -19 20
-19 29 0 19 -45 93 -86 142 -17 20 -34 44 -37 54 -4 9 -10 17 -15 17 -5 0 -15
13 -22 30 -7 16 -27 41 -45 54 -18 14 -54 56 -80 93 -54 80 -90 128 -125 169
-43 50 -205 219 -213 223 -5 2 -32 25 -60 52 -28 27 -57 49 -64 49 -6 0 -16 6
-20 14 -8 14 -89 81 -151 124 -41 29 -42 12 -2 -51 17 -26 30 -52 30 -56 0 -5
16 -28 35 -51 19 -23 35 -45 35 -48 0 -4 18 -27 41 -52 22 -25 46 -57 55 -72
8 -15 24 -38 35 -50 18 -20 102 -128 189 -243 73 -96 128 -174 142 -201 8 -16
24 -45 35 -65 12 -20 27 -47 35 -60 7 -13 15 -26 18 -29 3 -3 18 -23 33 -45
15 -22 41 -58 57 -80 17 -22 39 -56 49 -75 11 -20 37 -58 60 -85 44 -53 136
-224 126 -234 -4 -3 -22 12 -41 34 -97 111 -209 225 -221 225 -8 0 -37 23 -65
50 -56 56 -74 60 -35 8 14 -18 29 -45 32 -61 4 -15 11 -30 16 -33 12 -7 11
-44 -1 -44 -16 0 -104 65 -155 114 -26 25 -51 46 -55 46 -5 0 -26 16 -47 36
-21 19 -56 48 -78 64 -22 15 -56 45 -76 66 -36 40 -56 57 -99 87 -47 31 -82
62 -135 115 -28 28 -55 52 -59 52 -5 0 -64 55 -133 123 -128 125 -193 177
-224 177 -9 0 -41 19 -70 42 -54 42 -178 112 -186 104 -11 -11 96 -185 136
-220 11 -11 21 -23 21 -28 0 -12 -40 0 -61 18 -9 8 -23 12 -31 9 -27 -11 2
-52 57 -81 28 -15 75 -52 105 -83 62 -63 187 -168 263 -221 35 -25 59 -53 82
-94 21 -41 45 -68 72 -85 22 -15 59 -50 82 -78 41 -53 41 -53 16 -53 -14 0
-61 18 -105 40 -44 22 -89 40 -101 40 -11 0 -52 9 -89 21 -139 42 -124 9 30
-69 58 -29 133 -72 167 -95 35 -23 102 -64 150 -92 103 -58 211 -163 332 -319
43 -55 85 -107 94 -114 8 -7 24 -47 33 -88 16 -69 21 -77 55 -96 45 -25 60
-51 26 -43 -12 3 -29 1 -37 -4 -21 -14 -2 -30 46 -38 48 -7 74 -28 74 -61 0
-20 -4 -24 -25 -20 -13 3 -26 1 -27 -3 -5 -15 -498 136 -603 185 -35 16 -76
27 -123 32 -18 2 -38 7 -45 11 -26 16 -235 66 -292 70 -54 4 -58 3 -40 -10 11
-8 54 -31 95 -52 41 -21 97 -54 125 -74 l50 -36 -135 -6 c-74 -3 -151 -10
-170 -17 -19 -6 -71 -18 -115 -27 -44 -9 -93 -22 -109 -30 -16 -8 -36 -15 -43
-15 -8 0 -27 -6 -41 -14 -58 -30 -202 -86 -221 -86 -12 0 -21 -7 -21 -15 0 -8
-8 -15 -18 -15 -10 0 -25 -9 -35 -20 -9 -11 -28 -20 -42 -20 -15 0 -25 -6 -25
-14 0 -8 -13 -17 -30 -21 -16 -4 -30 -11 -30 -16 0 -5 -9 -9 -19 -9 -11 0 -22
-9 -26 -20 -3 -10 -24 -27 -46 -36 -21 -10 -39 -23 -39 -30 0 -7 -9 -16 -20
-19 -11 -3 -20 -10 -20 -14 0 -5 -18 -21 -40 -36 -60 -41 -40 -43 22 -2 29 19
73 40 98 47 24 7 63 25 85 41 31 22 84 40 220 74 99 25 206 54 237 65 32 11
77 20 101 20 23 0 83 7 132 16 123 22 156 16 256 -44 46 -27 114 -65 152 -83
37 -18 67 -37 67 -42 0 -5 -74 -6 -175 -2 -123 5 -175 4 -175 -3 0 -6 -15 -13
-32 -16 -116 -18 -258 -46 -283 -57 l-30 -12 55 -8 c30 -4 108 -11 173 -15
112 -6 118 -8 115 -27 -4 -26 -33 -35 -120 -36 -40 -1 -98 -11 -145 -25 -43
-14 -96 -28 -118 -32 -22 -4 -58 -15 -80 -25 -22 -10 -50 -19 -62 -19 -13 0
-23 -4 -23 -8 0 -13 -47 -32 -79 -32 -15 0 -36 -9 -46 -20 -10 -11 -24 -20
-30 -20 -7 0 -18 -6 -24 -14 -9 -11 -5 -15 20 -20 47 -9 114 -7 145 4 15 6 29
8 32 5 10 -10 -32 -35 -86 -51 -76 -23 -142 -53 -142 -65 0 -16 -42 -47 -73
-54 -15 -4 -32 -15 -37 -26 -6 -10 -15 -19 -21 -19 -10 0 -60 -33 -93 -62 -18
-16 -18 -18 -2 -18 10 0 48 13 84 29 37 16 90 32 117 36 28 4 57 11 65 15 27
13 70 21 70 12 0 -4 -42 -38 -92 -75 -51 -36 -136 -107 -188 -157 -52 -49 -98
-90 -102 -90 -17 0 -70 -66 -75 -93 -3 -15 -14 -32 -24 -38 -11 -5 -19 -16
-19 -24 0 -8 -4 -15 -8 -15 -5 0 -13 -9 -18 -19 -5 -11 -46 -58 -91 -106 -46
-47 -83 -94 -83 -103 0 -10 -23 -45 -50 -79 -28 -34 -50 -64 -50 -67 0 -3 11
-6 25 -6 40 0 31 -53 -17 -104 -10 -11 -31 -41 -45 -66 -14 -25 -34 -56 -45
-69 -10 -13 -18 -26 -18 -30 0 -3 22 -4 50 -3 50 4 50 4 50 -27 0 -18 -9 -40
-20 -51 -11 -11 -20 -26 -20 -33 0 -8 -29 -73 -65 -145 -36 -72 -65 -135 -65
-140 0 -5 -9 -19 -20 -32 -11 -13 -19 -30 -19 -39 1 -15 2 -14 6 0 2 9 15 21
28 27 14 7 25 18 25 27 0 8 9 15 20 15 24 0 24 0 1 -75 -10 -33 -16 -75 -14
-92 5 -31 3 -33 -24 -33 -24 0 -33 7 -50 38 -11 20 -24 55 -28 77 -4 22 -11
45 -16 51 -15 18 -59 108 -59 120 0 5 -8 28 -19 50 -10 21 -24 64 -32 94 -7
30 -16 60 -20 65 -3 6 -12 35 -19 65 -7 30 -16 64 -21 75 -5 11 -16 43 -24 70
-9 28 -20 59 -24 70 -5 11 -14 33 -20 48 -6 15 -11 46 -11 67 0 22 -4 40 -9
40 -5 0 -11 12 -14 28 -3 15 -23 80 -46 146 -23 65 -41 126 -41 135 0 9 -7 28
-14 43 -8 16 -18 49 -22 75 -3 27 -22 89 -40 139 -19 51 -34 99 -34 107 0 8
-13 42 -30 75 -16 34 -30 66 -30 72 0 5 -4 18 -10 28 -5 9 -32 69 -59 132 -57
131 -95 205 -116 227 -8 8 -15 20 -15 28 0 7 -3 15 -7 17 -5 2 -30 32 -58 68
-27 36 -65 81 -83 100 -18 19 -37 51 -42 70 -5 19 -19 41 -30 48 -11 7 -20 17
-20 23 0 6 -11 23 -24 37 -13 15 -58 67 -101 115 -42 49 -110 123 -151 165
-41 42 -74 82 -74 89 0 7 -5 13 -11 13 -13 0 -109 98 -109 111 0 17 -119 197
-178 269 -109 135 -509 520 -540 520 -7 0 -48 32 -82 63 -8 8 -51 40 -95 73
-198 145 -367 288 -417 353 -15 20 -34 43 -43 52 -8 9 -27 38 -40 65 -14 27
-29 56 -34 64 -4 8 -16 33 -27 55 -24 52 -94 158 -111 168 -7 4 -13 13 -13 18
0 39 -380 510 -536 664 -107 106 -300 287 -344 322 -19 15 -50 43 -69 61 -19
19 -53 49 -75 67 -23 18 -61 52 -86 75 -25 23 -57 48 -72 56 -16 8 -28 18 -28
22 0 4 -30 28 -67 52 -73 47 -170 128 -299 249 -90 85 -273 240 -407 346 -49
39 -121 96 -160 127 -63 50 -270 205 -333 248 -12 8 -41 29 -64 45 -62 43 -80
55 -151 102 -35 23 -69 46 -75 51 -5 5 -21 15 -35 22 -13 7 -26 16 -29 19 -7
9 -200 131 -207 131 -3 0 -27 16 -53 35 -26 19 -51 35 -54 35 -4 0 -19 8 -34
19 -75 52 -217 141 -295 186 -48 28 -123 72 -165 98 -42 27 -97 58 -122 69
-25 11 -47 23 -50 27 -3 3 -66 37 -140 74 -74 37 -207 105 -295 152 -88 47
-165 85 -171 85 -6 0 -18 -8 -25 -17z m11311 -2070 c0 -60 7 -153 15 -208 8
-55 15 -137 15 -182 0 -45 4 -84 9 -87 4 -3 11 -41 15 -83 4 -57 32 -531 36
-605 0 -5 -6 -8 -14 -8 -15 0 -66 116 -66 149 0 22 -73 217 -150 401 -64 153
-71 182 -64 245 8 66 38 186 65 255 32 84 112 230 126 230 10 0 13 -28 13
-107z m-165 -690 c7 -41 10 -50 48 -133 102 -223 106 -238 173 -530 27 -121
29 -143 12 -138 -7 3 -33 63 -58 134 -25 71 -78 219 -117 329 -71 197 -76 218
-88 323 -5 42 -3 52 9 52 10 0 17 -14 21 -37z m319 -63 c10 -34 16 -63 13 -67
-3 -3 1 -23 10 -44 8 -22 12 -50 9 -63 -3 -13 1 -43 9 -66 8 -23 17 -88 20
-144 2 -55 11 -126 19 -156 35 -132 39 -165 26 -220 -8 -35 -25 -66 -46 -89
l-33 -36 -1 66 c0 37 -5 91 -10 120 -6 30 -15 108 -20 174 -5 66 -16 203 -25
305 -8 102 -15 206 -15 233 0 68 22 61 44 -13z m-611 -473 c16 -39 35 -84 43
-99 8 -14 16 -48 18 -75 3 -51 7 -62 39 -133 12 -25 22 -58 23 -75 1 -34 85
-298 116 -365 12 -25 23 -69 25 -99 2 -30 12 -74 23 -99 11 -24 20 -53 20 -63
0 -10 4 -20 9 -24 6 -3 13 -27 17 -53 3 -26 12 -65 19 -87 33 -107 51 -265 30
-265 -8 0 -27 59 -49 148 -49 196 -82 311 -176 598 -103 315 -143 451 -180
617 -35 159 -33 147 -17 147 6 0 25 -33 40 -73z m1234 -154 c-7 -15 -22 -64
-32 -108 -10 -44 -32 -107 -49 -140 l-31 -60 -3 55 c-5 90 28 186 89 255 36
41 47 40 26 -2z m-480 -475 c6 -29 11 -95 12 -145 2 -91 2 -93 -21 -93 -38 0
-45 12 -58 94 -11 72 -10 82 10 137 13 32 28 59 35 59 6 0 16 -23 22 -52z
m399 -157 c-8 -36 -18 -90 -22 -119 -11 -92 -27 -45 -22 65 3 77 10 109 29
148 l24 50 3 -39 c2 -22 -3 -69 -12 -105z m-2436 -1613 c0 -13 -23 -5 -28 10
-2 7 2 10 12 6 9 -3 16 -11 16 -16z m294 -29 c97 -28 126 -42 126 -60 0 -13
-124 -11 -138 3 -6 6 -26 17 -45 23 -33 11 -33 11 -29 -13 3 -14 1 -23 -4 -20
-9 4 -61 27 -126 55 -41 17 -50 33 -18 33 11 0 20 -5 20 -12 0 -7 5 -6 13 4
26 33 48 31 201 -13z m1428 -2087 c30 -32 59 -69 63 -82 4 -14 15 -30 23 -36
17 -12 15 -57 -13 -229 -8 -55 -13 -110 -10 -123 3 -13 26 -34 58 -52 83 -49
92 -54 100 -65 31 -39 -53 -338 -148 -526 -41 -81 -81 -114 -165 -139 -41 -12
-90 -30 -109 -41 -18 -11 -70 -34 -115 -51 -44 -17 -99 -41 -121 -53 -22 -13
-56 -28 -75 -34 -20 -6 -93 -49 -163 -95 -74 -48 -130 -79 -132 -73 -2 7 -6
55 -8 107 -3 60 -14 126 -30 180 l-25 85 20 45 c25 55 22 52 41 45 8 -4 18
-18 22 -32 4 -19 9 -22 19 -13 11 8 15 8 19 -2 3 -7 10 1 17 20 10 26 17 32
42 32 27 0 29 3 24 24 -7 28 14 49 39 39 13 -4 16 -3 11 5 -5 8 4 12 28 12 20
0 36 4 36 10 0 5 4 9 10 7 9 -2 45 52 56 86 7 18 44 24 44 6 0 -5 5 -7 11 -3
6 3 9 19 5 35 -4 23 -2 29 12 29 10 0 23 -5 30 -12 19 -19 26 -1 9 25 -15 23
-15 24 10 19 25 -5 26 -4 21 36 -4 29 -2 45 9 53 8 7 12 21 9 31 -2 11 2 22
10 25 8 3 11 9 8 14 -5 8 9 13 29 10 12 -2 8 17 -5 22 -10 4 -10 7 0 15 7 5
10 16 6 25 -8 22 21 34 41 17 40 -33 135 48 137 117 1 45 -21 110 -47 141 -14
17 -25 37 -25 46 0 9 -4 16 -10 16 -16 0 -12 77 5 84 8 3 12 12 9 21 -4 8 1
17 10 21 9 3 16 10 16 16 0 5 -4 7 -9 3 -9 -5 -51 32 -51 45 0 11 41 50 53 50
7 0 6 4 -3 10 -13 9 -13 11 0 20 12 8 11 10 -7 10 -26 0 -35 12 -27 34 7 18
25 23 85 25 44 1 49 -2 101 -57z"/>
<path d="M15235 20189 c-4 -6 -5 -12 -2 -15 2 -3 7 2 10 11 7 17 1 20 -8 4z"/>
<path d="M15163 18122 c21 -23 77 -55 77 -44 0 5 -11 14 -25 20 -14 6 -25 16
-25 21 0 5 -9 11 -21 14 -19 5 -19 4 -6 -11z"/>
<path d="M3258 8973 c6 -2 18 -2 25 0 6 3 1 5 -13 5 -14 0 -19 -2 -12 -5z"/>
<path d="M20107 7319 c12 -12 25 -20 28 -17 3 3 -7 13 -22 23 l-28 17 22 -23z"/>
<path d="M20190 7252 c0 -12 19 -26 26 -19 2 2 -2 10 -11 17 -9 8 -15 8 -15 2z"/>
<path d="M20340 7120 c0 -5 5 -10 11 -10 5 0 7 5 4 10 -3 6 -8 10 -11 10 -2 0
-4 -4 -4 -10z"/>
<path d="M20420 7051 c0 -6 4 -13 10 -16 6 -3 7 1 4 9 -7 18 -14 21 -14 7z"/>
</g>
</svg>
