<?xml version="1.0" encoding="utf-8"?>
<!-- Generator: Adobe Illustrator 28.3.0, SVG Export Plug-In . SVG Version: 6.00 Build 0)  -->
<svg version="1.1" id="Layer_1" xmlns="http://www.w3.org/2000/svg" xmlns:xlink="http://www.w3.org/1999/xlink" x="0px" y="0px"
	 width="199.7px" height="173.8px" viewBox="0 0 199.7 173.8" style="enable-background:new 0 0 199.7 173.8;" xml:space="preserve"
	>
<style type="text/css">
	.st0{fill-rule:evenodd;clip-rule:evenodd;}
	.st1{fill:#B25959;}
</style>
<path d="M197.6,112.3c-0.4-0.8-0.2-1.9-0.4-3.1c-1,0.4-1.8,0.8-2.9,1.3c0.6-2,1-3.7,1.5-5.4c-0.4-0.3-0.7-0.5-1.1-0.8
	c-0.6,1-1.1,2.1-1.7,3.1c-0.1-0.1-0.2-0.2-0.4-0.4c0.1-1.5,0.2-2.9,0.3-5c-1.3,1-2,1.5-2.8,2c-0.1-0.7-0.2-1.4-0.4-2.4
	c-0.9,0.6-1.6,1.1-2.4,1.6c-0.5-1.3-1.1-2.5-1.6-3.8c-6.8,3.2-7.2,4.7-2.2,10.5c-2.5-1.2-4.7-1.9-6.5-3.2
	c-6.7-4.9-14.6-6.6-22.4-8.5c-2.5-0.6-5.1-1.2-7.7-1.3c-3.3-0.2-4.7-2.1-5.3-4.9c-0.8-3.6-1.4-7.4-1.7-11.1
	c-0.4-5.4-0.6-10.9-0.7-16.4c0-2.6,0.2-5.3,0.5-7.8c0.9-6.9,0.2-13.7-1.3-20.5c-1.2-5.2-2-10.5-3-15.8c-1.3-6.8-5.2-11.7-10.9-15.4
	c-0.4-0.3-0.9-0.4-1.8-0.4c4,7.9,7.8,15.9,7.8,24.9c-0.3,0.1-0.6,0.2-0.9,0.2c-0.4-1.7-0.9-3.4-1.1-5.2c-0.6-6.7-3.3-12.5-6.8-18
	c-2.1-3.2-5.2-5.5-9.3-6.2c-0.8,3.1,1.6,5,2.5,7.3c1.5,3.6,3.5,7,5.1,10.6c0.3,0.6,0.1,1.4-0.2,2.2c-4.5-7.7-6.8-17-16.7-20.6
	c-1,2.5-0.9,4.3,0.4,6.3c2.8,4.3,5.2,8.8,7.8,13.2c0.7,1.2,1.7,2.3,2.7,3.6c-0.1,0.1-0.5,0.6-1,1.1c-5.6-7.5-9.8-16.2-19.6-18.8
	c-1.7,0.3-3.3,0.7-5.3,1.1c-0.3,1.3-0.7,2.7-1,4.3c-0.8-0.1-1.6-0.2-2.6-0.3c-1.9,8.1,3.7,13,7.3,18.8C87,26.8,86,20.4,80.6,17.9
	c-1.9,8,3.6,12.6,7.1,18.2c-3.3-1.8-4.2-6.4-8.5-7.2c-2.1,7.1,3.5,10.6,6.7,15.4c-0.5-0.4-1.1-0.7-1.6-1.1c-0.6-0.5-1.1-1.3-1.8-1.6
	c-1-0.4-2.2-0.5-3.3-0.8c-0.2,1.2-0.9,2.6-0.5,3.6c0.7,1.7,2,3.2,3.1,4.8c0.6,0.9,1.4,1.7,2.4,3c-1.7,0-2.9,0-4.1,0
	c-0.5,0.8-1,1.7-1.5,2.5c-0.3-0.2-0.5-0.4-0.8-0.6c-0.8-0.5-1.7-1-2.5-1.5c-0.1,0.1-0.2,0.2-0.3,0.3c1.3,2,2.5,3.9,3.9,6.1
	c-2.9,2.3-5.8,4.6-8.7,6.9c0.1,1,0.1,2.1,0.2,3.8c-6.5,0-12.8,0-19.7,0c2,3.2,4.5,4.1,7.1,4.7c2.8,0.6,5.6,0.7,6.9,4
	c0.3,0.9,1.7,1.3,2.6,1.9c-1.3,6.7-0.7,8.4,4,10.1c1.8,5.5,6.1,7.6,11.6,7.9c3.1,0.2,6.2,0.6,9.1,0.8c2.9,3.5,8.7,6.1,11.9,5.3
	c-0.2,0.9-0.5,1.7-0.7,2.6c2.2-0.3,4.3-0.6,6.3-0.9c0.1,0.2,0.1,0.4,0.2,0.7c-4.6,1.9-9.1,3.8-13.5,5.7c-6.4-4.9-11.7-4.3-17.7,1.2
	c-1.4,1.3-4.1,1.2-6.4,1.9c-0.3,1.5-2.9,3.5-5.3,3.7c-2.8,0.3-5.7,0.6-8.5,0.9c0,0.3,0,0.5,0.1,0.8c2.8,0,5.7,0,8.5,0
	c0,0.1,0.1,0.3,0.1,0.4c-0.7,0.2-1.5,0.4-2.2,0.5c-8.6,1.2-17.3,2.2-25.8,3.6c-4.3,0.7-8.5,2.1-12.6,3.3
	c-8.7,2.6-15.8,7.7-21.4,14.8c-2.8,3.4-4.7,7.2-5,10c2.7-2.2,6.2-5.2,9.9-8c3.8-2.8,7.7-5.4,11.6-8.1c0.2,0.2,0.4,0.4,0.6,0.7
	c-0.5,0.6-1.1,1.2-1.6,1.8c-5.1,5.1-9.4,10.9-12.8,17.2c-2.8,5.2-3.6,10.6-1.3,16.8c2.7-12.5,9.5-21.2,20.1-27.8
	c-0.1,0.8-0.1,1.1-0.1,1.4c-0.1,0.4-0.2,0.8-0.3,1.2c0.5,0.2,1,0.3,1.2,0.3c-0.6,4.1-2.7,8-1.3,12.3c1.7-4.8,3.3-9.5,7.9-13.3
	c-1.1,2.6-2,4.5-3.1,7c4.2-2.7,7.8-5.1,11.4-7.4c0.1,0.1,0.2,0.3,0.3,0.4c-3.8,3.3-7.7,6.6-11.5,9.9c0.2,0.2,0.4,0.5,0.6,0.7
	c3.5-2.7,7.1-5.4,10.6-8.1c0.1,0.1,0.2,0.2,0.3,0.3c-1.9,2.1-3.7,4.2-5.6,6.3c0.1,0.1,0.2,0.2,0.3,0.3c3.1-2.4,6.3-4.8,9.4-7.2
	c0.2,0.2,0.4,0.4,0.6,0.7c-1.3,1.6-2.7,3.1-4,4.7c0.1,0.1,0.2,0.2,0.2,0.3c3-1.8,5.9-3.7,9-5.3c3.3-1.7,6.7-3.3,10.3-4.4
	c3-0.9,6.3-1,9.7-1.5c2.2,0.9,4.8,2,8,3.3c1.3-1.1,3.2-2.8,5.4-4.7c0.6,1.7,1.1,3.3,1.7,5c2.7,1.9,5.5,3.9,4.9,7.5
	c1.6,1,3.2,1.6,4.2,2.8c2.3,2.4,4.5,3.5,8.3,2.6c3.7-0.9,7.8-0.2,11.9-0.2c0.5,0.6,1.2,1.5,2.1,2.7c0.4-1,0.7-1.8,1-2.6
	c4.2,0.3,7.1,4.4,6.1,8.7c1.9,1.2,5.6,0.4,7.4-1.6c0.8-0.9,1.8-1.8,2.9-2.5c3.5-2.3,4.5-7.8,1.8-10.9c-2.7-3.1-5.8-5.6-10.1-6.4
	c-1.3-0.2-2.4-0.8-3.8-1.8c2.8-1.2,5.5-2.7,8.4-3.6c5.3-1.6,9.5-4.4,12.7-9c1-1.5,2.9-2.8,4.6-3.2c5.5-1.4,11.1-3,16.8-3.4
	c3.8-0.2,7-0.7,10-3c0.7-0.5,1.6-0.5,2.8-0.9c0.3,1.8,0.4,3.3,0.7,4.7c0.6,3.3,2.9,4.6,6,3.4c3.2-1.2,5-3.7,5.8-7.4
	c1.9,0.9,3.5,1.7,5.6,2.8c-0.1-1.6-0.2-2.9-0.3-4.4C200.9,118.1,200,117.1,197.6,112.3z M127.3,152.4c0.3,1.4,0.5,2.1,0.8,3.3
	c-5.8,0-11.1,0-16.4,0c-0.1-0.2-0.1-0.5-0.2-0.7c2.1-1.4,4-3,6.2-4.1c1.6-0.8,3.2-0.1,4.1,1.6c0.4,0.7,0.6,1.4,0.8,1.8
	C124.1,153.6,125.6,153,127.3,152.4z M192,120.6c-0.6,0.7-3.2-1.4-2.6-2.1c0.6-0.7,1.6-0.8,2.4-0.3
	C192.4,118.8,192.6,119.9,192,120.6z"/>
</svg>
