<?xml version="1.0" encoding="utf-8"?>
<!-- Generator: Adobe Illustrator 28.3.0, SVG Export Plug-In . SVG Version: 6.00 Build 0)  -->
<svg version="1.1" id="Layer_1" xmlns="http://www.w3.org/2000/svg" xmlns:xlink="http://www.w3.org/1999/xlink" x="0px" y="0px"
	 width="211.4px" height="192.7px" viewBox="0 0 211.4 192.7" style="enable-background:new 0 0 211.4 192.7;" xml:space="preserve"
	>
<style type="text/css">
	.st0{fill-rule:evenodd;clip-rule:evenodd;}
	.st1{fill:#B25959;}
</style>
<path d="M208.5,68.4c-3.9-0.1-7.9-0.2-11.8-0.5c-1.5-0.1-3.1-0.5-4.2-1.4c-3.9-2.9-8.5-4.2-13.1-5.3c-3.4-0.8-7.1-1-10.2,0.7
	c-4.1,2.2-8,5-12,7.4c-1.4,0.8-3,1.6-4.6,1.8c-4.3,0.5-8.5,0-12.6-1.5c-2.6-1-5.3-1.6-8-2.2c-2.7-0.7-5.4-1.1-8.1-1.9
	c-1.2-0.4-2.6-1-3.4-2c-2.9-3.7-4.3-7.8-2-12.4c1-2.1,2.1-4.2,3-6.3c0.8-1.8,0.7-3.4-0.7-4.9c-6.6-7-13.1-14.1-21.4-19.2
	C89.2,14.4,78.6,8.4,69.1,0.9C68.6,0.5,68,0.3,67.3,0c-0.7,2.4,1.9,3.2,2.1,5.5c-2.4-1.5-4.6-2.7-6.7-4c-1.7,2.6,1.8,3.6,1.3,5.9
	c-1.6-0.9-3-1.7-4.5-2.6c-0.2,0.2-0.3,0.4-0.5,0.6c0.9,1.9,1.9,3.8,3,6c-1.2,0-2,0-2.8,0c-0.6,2.4,0.2,4.5,0.9,6.6
	c3,8.3,7.1,16.2,12.1,23.5c1.3,1.9,3,3.5,4.4,5.4c1.4,1.8,1.2,2.1-0.2,3.9c-1.6,2-2.9,4.2-4.3,6.4c-3.5,5.5-6.7,11.1-10.4,16.5
	c-1.2,1.8-3,3.3-4.9,4.5c-3.8,2.4-7.8,4.3-11.6,6.7c-4.2,2.5-8.6,3.6-13.5,3.6c-11,0-20.6,3.8-29.1,10.5c-0.9,0.7-1.7,1.7-2.7,2.8
	c1.2,0.6,2,1.1,2.7,1.5c8.4,4.2,17.2,4.2,26.1,2c5.2-1.3,10.2-3.2,15.3-4.9c0.6-0.2,1.2-0.3,1.8-0.3c8.6,0.1,17.1,0.3,25.7,0.5
	c0.4,0,0.8,0.3,1.7,0.5c-1.2,0.5-1.8,0.8-2.8,1.3c0.9,0.5,1.5,0.9,2.1,1c3.7,1.1,6.4,3.6,8.8,6.3c3.7,4.1,7.1,8.5,10.4,12.9
	c2,2.8,4.2,5.3,7.2,7c1.4,0.7,1.8,1.8,1.6,3.3c-0.8,5.6-1.3,11.2-2.3,16.7c-1.3,7.3-1.7,14.5-0.7,21.8c0.2,1.6,0.5,3.4,1.4,4.5
	c1.1,1.3,1.3,2.6,1.4,4.1c0,1.3-0.5,2.9,0.9,4c0.9-0.1,1.7-0.2,2.8-0.4c0,2.3,0,4.5,0,6.6c0.2,0.1,0.4,0.1,0.5,0.2
	c0.5-0.9,1-1.8,1.6-2.6c0.5-0.8,1.2-1.5,1.8-2.3c0.2,0.1,0.4,0.2,0.6,0.3c0,2.3,0,4.5,0,6.8c0.2,0,0.3,0.1,0.5,0.1
	c1.2-1.9,2.4-3.9,3.6-5.8c0.2,0.1,0.4,0.2,0.5,0.2c0,1.4,0,2.9,0,4.8c0.8-0.9,1.4-1.3,1.7-1.8c3.1-5.3,6.6-10.5,9.1-16
	c4.6-10.2,8.8-20.7,12.9-31.1c1.8-4.5,2.8-9.4,4.7-13.9c2-4.8,1.6-8.7-1.9-12.5c-3.6-3.9-6.9-8.2-10.5-12.1c-2.5-2.8-3.1-6-2.5-9.7
	c0.3-1.6,0.9-2.6,2.4-3.1c4.1-1.5,8.1-3.2,12.3-4.6c5.3-1.8,10.6-3.6,15.4-6.7c5.2-3.3,11-4.9,17.2-5.4c4.6-0.4,9.3-0.8,13.7-2
	c4.3-1.1,8.5-1.9,12.9-1.9c3.5,0,6.9,0,10.7,0C210.5,68.5,210.5,68.5,208.5,68.4z M186.8,69.3c-0.4,0.1-1-0.6-2-1.3
	c0.9-0.6,1.5-1.3,2-1.3c0.5,0,1,0.7,1.5,1.1C187.7,68.4,187.3,69.2,186.8,69.3z"/>
</svg>
