<?xml version="1.0" encoding="utf-8"?>
<!-- Generator: Adobe Illustrator 28.3.0, SVG Export Plug-In . SVG Version: 6.00 Build 0)  -->
<svg version="1.1" id="Layer_1" xmlns="http://www.w3.org/2000/svg" xmlns:xlink="http://www.w3.org/1999/xlink" x="0px" y="0px"
	 width="89px" height="91.7px" viewBox="0 0 89 91.7" style="enable-background:new 0 0 89 91.7;" xml:space="preserve">
<style type="text/css">
	.st0{fill-rule:evenodd;clip-rule:evenodd;}
	.st1{fill:#B25959;}
</style>
<path d="M1.4,61.4C1.5,61.4,1.5,61.4,1.4,61.4c0,0.3-0.1,0.5-0.2,0.9c0.4,0.1,0.6,0.2,0.9,0.3c-0.2,0.3-0.4,0.6-0.5,0.9
	c-0.1,0.3,0,0.7,0,1c0.4,0.2,0.9,0.4,1.3,0.6c-0.1,0.3-0.3,0.6-0.4,0.9c-0.2,0.6-0.1,0.7,0.5,0.9c1.3,0.4,2.6,0.8,3.9,0.7
	c0.1,0,0.2,0,0.3,0C7.2,68,7.1,68.5,7,68.9c0.7,0.3,1.4,0.5,2.2,0.6c1.5,0.3,3,0,4.5-0.3c0.3-0.1,0.7-0.2,1-0.2
	c1-0.2,2.1-0.5,3.2-0.3c1.3,0.3,2.6,0,3.9-0.4c3-0.8,6-1.6,9-2.4c2.3-0.6,4.6-1.2,6.9-1.8c0.4-0.1,0.8-0.1,1.3-0.2
	c1.5-0.1,3.1-0.3,4.6-0.4c0.9-0.1,1.8,0,2.7,0c0.6,0,1.3,0.1,1.8,0.2c0.4,0.3,0.7,0.6,1,1c0,0.7,0.2,1.4,0.8,2
	c0.1,0.1,0.1,0.2,0.2,0.3c0.1,0.5,0.1,0.9,0.2,1.4c0.1,0.3,0.2,0.5,0.6,0.5c0.3,0,0.6,0.1,0.6,0.4c0.1,0.7,0.6,1,1,1.5
	c-0.3,0.5-0.3,1.1,0,1.6c0.1,0.2,0.1,0.5,0.1,0.7c0,0.1,0,0.4,0.1,0.4c0.4,0.3,0.4,0.7,0.3,1c-0.1,0.7,0.2,1.2,0.4,1.8
	c0,0.1,0.3,0.2,0.4,0.4c0,0.3-0.1,0.5-0.1,0.8c-0.1,0.5,0,0.9,0.3,1.3c0.3,0.3,0.4,0.7,0.6,1.1c-0.3,1.7,0.2,2.6,1.6,3.2
	c-0.5,0.9-0.9,1.8-1.4,2.7c-0.7,1.4-0.7,1.4,0.3,2.7c-0.5,0.9-0.4,1.1,0.7,1.6c-0.1,0.9,0.5,1.5,1.6,1.4c0.1,0,0.2,0,0.3-0.1
	c1.6-0.6,3.2-1.1,4.7-1.9c2.3-1.1,4.2-2.7,5.8-4.6c1.2-1.3,2.4-2.5,3.5-3.9c1.6-2.1,2.7-4.5,3.5-7.1c0.4-1.3,0.7-2.7,1.1-4.1
	c0-0.2,0.1-0.3,0.1-0.5c0.7-1.4,0.8-2.8,0.8-4.3c-0.1-2.3-1.1-4.2-2.9-5.7c-0.2-0.2-0.4-0.3-0.6-0.5c0.9-0.5,1.7-0.9,2.4-1.4
	c0.8-0.5,1.5-1.1,2.2-1.7c1.2-1,2.3-2.1,3.4-3.2c0.5-0.5,1.1-1.1,1.5-1.7c0.6-0.8,1.4-1.5,2.4-1.6c0.6-0.1,1.2-0.2,1.8-0.3
	c0.4-0.1,0.8-0.1,1.2-0.2c-0.1-0.6-0.6-0.9-1-1c-0.7-0.2-1.5-0.4-2.2-0.4c-1.3,0.1-2.5-0.2-3.6-0.8c-1.5-0.7-3.2-0.8-4.9-0.5
	c-1.6,0.3-3.2,0.8-4.8,1.3c-0.2,0.1-0.4,0.1-0.7,0.1c-0.2-0.5-0.1-0.9,0.1-1.2c0.8-1.8,1.6-3.5,3.2-4.7c0.4-0.3,0.7-0.7,1.1-1
	c0.9-1,1.4-2.2,1.6-3.5c0.3-1.9,0.1-3.8-0.5-5.7c-0.4-1.3-0.6-2.7-0.9-4c-0.5-2.3-1.3-4.4-2.5-6.5c-1.7-2.9-3.3-5.8-5.1-8.6
	c-1.2-1.9-2.6-3.6-4-5.4C64,6,63.1,4.9,62,3.8c-0.9-0.9-1.8-1.9-2.6-3c-0.1-0.2-0.3-0.4-0.5-0.5c-0.8-0.6-1.4-0.4-1.6,0.5
	c-0.1,0.5,0,1,0.1,1.5c0.1,0.5,0.1,0.8-0.2,1.2c-0.7,0.6-0.6,1.5-0.5,2.3c0.1,0.6,0.3,1.3,0.5,1.9c-0.9,1.2-0.2,2.5-0.1,3.8
	c-0.7,0.4-0.8,1.2-1.2,1.9c-0.3,0.6-0.1,1.2,0,1.7c0.1,0.4,0,0.7-0.2,1.1c-0.5,1-1.1,1.9-0.7,3.1c0.2,0.6-0.1,1.1-0.3,1.6
	c-0.4,0.8-0.6,1.6-0.4,2.5c0.1,0.5-0.1,1-0.3,1.5c-0.3,0.8-0.6,1.5-0.3,2.4c0,0.1,0,0.3-0.1,0.3c-0.6,0.5-0.5,1.2-0.8,1.8
	c-0.2,0.4-0.1,0.9-0.2,1.5c-0.8,0.5-1.3,1.4-1.6,2.4c0,0.2-0.1,0.3-0.2,0.4c-0.3,0.4-0.4,0.7,0,1c-0.1,0.5-0.2,1-0.4,1.5
	c-0.1,0.3-0.1,0.6-0.3,0.8c-0.5,0.4-0.5,1-0.6,1.6c-0.1,0.2,0.1,0.6,0.1,0.9c-0.7,0.3-0.8,1-1.1,1.7c-0.2,0.5-0.4,1-0.6,1.5
	c-0.2,0.5-0.4,1.1-0.1,1.6c0.1,0.1,0,0.4,0,0.5c-0.2,0.5-0.3,1-0.5,1.5c0,0.1-0.1,0.2-0.1,0.3c0.3,0.8-0.2,1.3-0.6,1.9
	c0.3,0.5,0.7,1,1.4,1c0.6,0,1,0.2,1.4,0.7c-0.7,0.2-1.3,0.5-2,0.6c-4.3,0.4-8.4,1.6-12.6,2.6c-1.1,0.3-2.2,0.6-3.4,0.9
	c-0.8,0.1-1.6,0.1-2.4,0.2c-1.9,0.1-3.9,0.1-5.8,0.2c-1.7,0.1-3.4,0.3-5.1,0.3c-1.1,0.1-2.2,0-3.2,0c-1.5,0-3.1,0.2-4.6,0.6
	c-0.3,0.1-0.6,0.4-1,0.5c-0.3,0.1-0.7,0.2-1,0.2c-0.1,0-0.3,0.1-0.3,0.2c-0.2,0.5-0.6,0.4-1,0.5c-0.8,0.1-1.6,0.2-2.3,0.4
	c-1.2,0.3-2.3,0.7-3.3,1c-0.1,0.6-0.2,1-0.2,1.3c0,0.5-0.2,0.7-0.5,0.9c0,0.2,0,0.3,0,0.5c-0.2,0.2-0.4,0.3-0.7,0.5
	c0.4,0.2,0.7,0.4,1,0.5C1.1,61.9,1.3,61.6,1.4,61.4z M79.3,46.9c0.8-0.1,1.7,0.5,1.6,1.4c-0.1,0.9-2.5,1.5-3,0.3
	C77.6,47.8,78.4,47,79.3,46.9z"/>
</svg>
