<?xml version="1.0" encoding="utf-8"?>
<!-- Generator: Adobe Illustrator 28.3.0, SVG Export Plug-In . SVG Version: 6.00 Build 0)  -->
<svg version="1.1" id="Layer_1" xmlns="http://www.w3.org/2000/svg" xmlns:xlink="http://www.w3.org/1999/xlink" x="0px" y="0px"
	 width="124.8px" height="100.2px" viewBox="0 0 124.8 100.2" style="enable-background:new 0 0 124.8 100.2;" xml:space="preserve"
	>
<style type="text/css">
	.st0{fill-rule:evenodd;clip-rule:evenodd;}
	.st1{fill:#B25959;}
</style>
<path d="M0.8,34c1,1,2.1,2.1,3.3,2.9c8.7,5.9,17.7,11.3,27.1,15.9c4.4,2.2,9.3,3.4,14,5.1c1.6,0.6,3.2,0.9,4.8,1.5
	c0.9,0.3,1.8,0.7,2.6,1.2c2.1,1.5,2.7,4.1,1.2,6.2c-1.7,2.5-3.8,4.6-7.1,5.1c-1.5,0.2-2.9,0.5-4.3,0.8c-1,0.2-2.1,0.2-2.7,1.4
	c0.2,0.3,0.3,0.8,0.6,1.1c3.6,3.5,8.1,5.5,12.9,6.6c1.3,0.3,2.9-0.1,4.3-0.3c1.1-0.2,2.1-0.6,3-1c0.3,0.1,0.4,0.2,0.5,0.3
	c2.1,2.9,4.3,5.8,6.4,8.7c1.3,1.7,1.9,3.6,1.9,5.7c0,1.1,0.1,2.2,0.2,3.7c0.2-0.9,0.4-1.5,0.5-2.1c0.2,0.2,0.5,0.3,0.5,0.4
	c0.1,0.6,0.2,1.2,0.5,1.8c0.2-1,0.4-2.1,0.7-3.3c1.4,1,0.8,2.7,1.7,3.9c0.5-2.2,0.5-3.1-0.6-4.7c-1.6-2.3-3.3-4.5-4.9-6.7
	c-1.2-1.6-2.4-3.1-3.6-4.8c-0.5-0.7-0.7-1.5-1.1-2.3c1.3-0.9,2.4-0.4,3.5-0.5c1.9,3.5,5,5.7,7.6,8.3c1.6,1.5,2.5,3.1,2.3,5.4
	c-0.1,1.5,0.2,3.1,0.5,4.7c0.1-1.1,0.2-2.2,0.3-3.8c1.6,1.5,1.3,3.4,2.5,5c-0.2-1.6-0.3-2.8-0.4-3.9c0.1,0,0.2-0.1,0.3-0.1
	c0.6,1.1,1.3,2.2,2.1,3.8c0-2-0.4-3.5-1.2-4.7c-1.3-2.1-2.7-4.2-4.3-6.1c-1.8-2.1-3.8-4.1-5.8-6.1c-2-2.1-1.7-4.1,0.7-5.6
	c0.5-0.3,1-0.6,1.6-0.8c3.1-1.5,5.2-3.6,6.9-7c-2-1.3-3.6-2.9-4.5-5.2c-0.3-0.7-1-1.2-1.5-1.8c-0.7-4.7,1.2-7.8,5.1-8.3
	c0.9-0.7,1.7-1.5,2.4-2.1c1.2,0.1,2.2,0.4,3.2,0.4c1.9,0,3.5,0.5,4.9,1.7C89,54.2,88.4,54,87.7,54c-1.3-0.1-2.6-0.4-3.9-0.2
	c-2.4,0.4-3.8,2-4,4.6c0.2,0.2,0.4,0.5,0.4,0.5c-0.5,1.6-1,2.9-1.4,4.1c1,1.7,2,3.2,3,4.9c3.9,0.1,6.6,2,7.7,4.9
	c0.5,1.3,1,2.3,1,2.3c0.4-0.3,0.8-3.1,0.8-3.1c-0.6-1.6,0-3.1,0.2-4.6c0.1-0.5,0.2-1,0.4-1.5c1.1-2.9,1.1-5.8,0.2-8.6
	c-0.5-1.6-0.1-2.9,1-4c1-1.1,2.1-2.2,3.4-3.1c2.9-2.1,5.8-4.2,8.8-6.2c2.7-1.8,4.9-4,6.1-7c2.2-5.1,4.4-10.2,6.4-15.4
	c2.3-6.2,4.4-12.4,6.5-18.7c0.3-0.9,1-1.9-0.1-2.8c-2.8,2.2-2.8,2.2-4.7,2.3c-0.3,0.5-0.6,1.1-0.9,1.8c-0.5,0.2-1.1,0.3-1.3,0.4
	c-2.8,2.5-2.4,5.6-2.7,8.5c-0.1,0.7,0,1.5-0.1,2.2c-0.1,0.5-0.4,1-0.6,1.5c-0.2,0-0.4-0.1-0.5-0.1c-0.2-1.9-0.4-3.9-0.6-5.8
	c-0.2,0-0.3,0-0.5,0c-0.1,1.1-0.4,2.1-0.4,3.2c0.1,2.5-0.7,4.6-1.9,6.7c-4,6.6-9.6,11.6-16.3,15.4c-2.5,1.4-5.3,2.6-7.8,4
	c-5.7,3.2-10.9,7.2-16,11.2c-1.1,0.9-2.3,1.8-3.5,2.7c-3.3-0.7-6.5-1.5-9.8-2.1c-4.3-0.7-8.5-1.2-12.8-1.7
	c-6.4-0.7-12.8-1.4-18.7-4.3c-4.4-2.1-8.3-5-12.1-8c-1.8-1.5-3.7-2.9-5.6-4.5C7.1,34,6.8,34.4,6.6,35c-2.3-0.9-3.8-3.2-6.3-3.5
	C-0.3,32.6,0.2,33.4,0.8,34z M87.9,68c-0.6,0.5-1.5,0.4-2-0.2c-0.5-0.6-0.4-1.5,0.2-2C86.7,65.3,88.5,67.5,87.9,68z"/>
</svg>
