<?xml version="1.0" encoding="utf-8"?>
<!-- Generator: Adobe Illustrator 28.3.0, SVG Export Plug-In . SVG Version: 6.00 Build 0)  -->
<svg version="1.1" id="Layer_1" xmlns="http://www.w3.org/2000/svg" xmlns:xlink="http://www.w3.org/1999/xlink" x="0px" y="0px"
	 width="101.9px" height="78.2px" viewBox="0 0 101.9 78.2" style="enable-background:new 0 0 101.9 78.2;" xml:space="preserve">
<style type="text/css">
	.st0{fill-rule:evenodd;clip-rule:evenodd;}
	.st1{fill:#B25959;}
</style>
<path d="M100.6,36.1c-2.2-0.2-4.3-1-5.5-2.9c-1.4-2-3.5-2.9-5.7-3.2c-2.7-0.4-5.3-0.2-7.6,1.3c-2.7,1.7-5.3,3.6-7.6,5.8
	c-1.8,1.6-3.9,2.7-6.2,2.7c-1.8,0-3.6-0.4-5.4-0.5c-0.6-0.8-1.3-1.4-1.7-2.4c-1.2-3-1.7-6.2-2-9.4c-0.3-2.8-0.1-5.5,1.5-7.9
	c1-1.5,1.1-3.2,0.7-4.8c-0.4-1.5,0-2.8,0.6-4.1c1.4-3.1,2.3-6.3,2.5-9.7c-0.2-0.3-0.4-0.5-0.6-0.8c-0.2-0.3-0.7-0.2-0.8,0.1
	c-0.2,0.5-0.7,0.7-1.2,0.9c-1.4-0.9-2.2-1-3-0.3c-0.4,0.3-0.1,1-0.6,1.3c-0.3-0.6-0.3-1.3-1.1-1.6c-0.9-0.2-1.9,0-2.9,0.6
	c-1.1-1.1-2.3-1.1-3.5-0.3c-0.3,0.2-0.7,0.4-1.1,0.4c-1.2,0-2.1,0.6-2.7,1.6c-1.5,0-2.9,0.3-3.1,2.2c-1.2,0.1-2.3,0.5-2.4,2
	c0.7,0.3,1.3,0.5,1.5,1.4l-1.6-0.2c-1.7,0.4-1.6,1.8-1.9,2.9c-1.5,1.1-1.2,3.1-2.2,4.5c-0.4,0.5,0.2,1,0.4,1.5
	c-0.3,0.4-0.9,0.4-1.1,1c-0.1,0.4-0.2,0.9,0.3,1.3c0.7,0.2,1.3-0.5,2-0.1c-0.6,0.5-1,1.1-1.7,1.3c-0.9,0.3-1.3,1-1,1.9
	c0.6,0.4,0.9-0.4,1.4,0c-0.5,0.9-1.6,1.5-1.9,2.6c-0.3,1.1-0.2,2.3-0.9,3.1c0.1,0.5,0.6,0.1,0.6,0.6c-0.1,0.2-0.2,0.4-0.7,0.5
	c-3.5-2.5-8.1-3.8-10.9-7.7c-0.2,0.6,0.5,1,0.3,1.6c-0.3,0.1-0.5-0.2-0.7-0.4c-3.3-2.8-6.6-5.5-10.2-7.9c-2.8-1.9-5.7-3.6-9-4.6
	c-0.4-0.1-0.8-0.3-1.1,0c-0.2,0.4,0.4,0.5,0.3,0.9c-0.3,0.2-0.9,0.1-0.7,0.7c0.2,0.6,1,0.5,1.2,1c-0.6,0.2-1.3-0.1-1.7,0.5
	c0,0.8,0.6,1,1.3,1.2c-0.6,0.2-1.1,0.3-1.3,0.8c0,1.5,1.3,1.4,2.5,1.6c-0.8,0.2-1.4,0.2-1.7,0.8c-0.2,1.1,0.5,1.7,1.2,2.2
	c0.1,0.5-0.5,0.7-0.4,1.3c1.3,0.8,0.9,3.3,3.1,3.6c0.2,1.1,0.2,1.1,1.2,1.9c1.4,0.2,2.9,0.1,4.4,0.7c-0.9,0.8-2.1,1-2.7,1.9
	c0.5,0.5,1.1,0,1.6,0.5c-0.7,0.7-0.3,1.5,0.2,1.9c0.6,0.6,1,1.5,1.6,2.1c1.1,1.1,2.5,1.5,3.6,2.3c0.7,0.1,1.3-0.4,2,0
	c0.7-0.5,1.3-1.4,2.4-1c-0.1,1.2-1.2,1.8-1.7,2.7c0.3,0.3,0.5,0.7,0.8,0.7c1-0.3,1.6-0.9,2.2-1.6c-0.1,1-0.1,1.9,0.1,3.1
	c0.8-1.5,1.9-1.6,3.2-1.3c-1,1.6-0.7,3,0.6,4.3c0.4,0.5,1.1,1,0.6,1.8c0.7,0.4,1.2-0.4,1.8,0c-0.5,1.7-1.9,2.1-3.4,2.4
	c0.6,0.4,1.3-0.2,1.6,0.5c-1.1,0.7-2.3,0.5-3.5,0.7c0.1,0.5,1.1,0,0.8,0.9c0.5,0,0.9,0.1,1.5,0.2c-1.1,0.7-1.9,1.7-3,2.2
	c0.1,0.5,0.1,1-0.1,1.5c-1,0.6-2.1,1.2-2.8,1.5c-1.5,2-3.1,3.1-4.5,4.3c-1.3,0-2.4-0.9-3.5-0.2c0.3,0.9,0.9,0.6,1.4,0.5
	c0,0.9,1,0.6,1.4,1.4c-2.1,0.4-4.1,0.1-6.1,0.3c-1.4,0.1-2.7-0.7-3.9-1.5c-1.5,0.3-3,0.4-3.6,2c0.6,1.3,2.1,0.7,2.8,1.5
	c-3.3,0.8-3.3,0.8-3.6,1.7c0.1,0,0.2,0.1,0.3,0.1c4.2,0.1,8.4,0.2,12.7-0.4c3.3-0.4,5.3-1.8,6.7-4.5c0.2-0.4,2.7,2,2.5,2.7
	c0.5,0.4,1-0.4,1.4,0.1c0.1,0.5-0.5,0.8-0.4,1.3c0.5,0.2,1.1-0.4,1.5,0.1c0,0-0.1,0.3-0.3,0.9c-0.2,0.6-0.2,1.2-0.1,1.7
	c0.1,0.3,0,0.6-0.2,0.9c0.9-0.3,1.6-0.1,2.2,0.3c0.4,0.5,0.5,0.9,0.5,1.5c0.4,0.2,0.9,0.3,1.4,0.5C28,70.7,28,71,27.8,71.4
	c0.8,0.3,0.7,1.2,1,1.7c0.7,0.1,1.2,0,1.5-0.1c1.4,1.1,2.8,1.9,3.8,3.2c0.8,0.2,1.6,0.8,2.3,0.7c2.5-0.3,4.9,0.5,7.5,0.4
	c1.3,0.8,2.7,1.2,4,0.1c2,1,8.6,1.3,11.1,0.5c-0.5-0.9-1.7-0.5-2.3-1.2c0.6,0.1,1,0.1,1.4,0.2c1.2,0.2,2.5,0.3,3.8,0.2
	c0.9-0.1,2.1,0.2,2-1.1c-1-0.4-1.9-0.9-3-1.1c-3.8-0.6-7.5-0.4-11.3-0.7c-0.9-0.1-1.9,0.1-2.7-0.4c-0.7-0.4-1.5-0.6-2.2-0.7
	c3-1.2,5.8-2.8,8.4-4.6c3.7-2.6,7-5.8,10.9-8.1c0.1-0.1,0.2-0.1,0.3-0.2c4.4-3.9,8.1-8.4,11.4-13.2c1.2-1.7,2.8-3,4.2-4.5
	c0.5-0.6,1.2-1,2-1.2c1.5-0.4,3-0.7,4.6-0.9c2.6-0.2,5.1-0.4,7.6-1.3c1.1-0.4,2.3-0.8,3.5-0.6c1.1,0.2,2.2,0.1,3.2-0.2
	c0.6-0.4,0.7-1.2,1.2-1.6C101.4,36.4,101.1,36.1,100.6,36.1z M89.2,35.2c0.3-1,1.4-1.6,2.4-1.3c1,0.3,1.6,1.4,1.3,2.4
	C92.7,37.3,88.9,36.2,89.2,35.2z M90.8,39.1c-0.9,0.3-2,0.3-3,0.4c0-0.3,0.1-0.5,0.1-0.7c-1.1,0.2-2.2,0.9-3.5,0.3
	c-0.2-0.2-0.4-0.5-0.7-0.8c-0.8-0.1-1.1,0.3-1.5,0.4c-0.5-0.2,0.1-0.8-0.2-1c-0.5-0.5-1,0.2-1.5-0.2c0-0.1,0-0.2,0.1-0.3
	c1.1-0.7,2-0.8,3.1,0c0.8,0.5,1.7,1.1,2.7,1.3c0.3-0.4-0.4-0.4-0.3-0.5c0.2-0.5,0.6-0.2,0.8-0.5c-0.1-0.4-0.8-0.3-0.8-0.9
	c0.2-0.5,4,0.3,5.1,1.1c0.7,0,1.6-0.4,2.3,0.4C93,39.5,91.7,38.7,90.8,39.1z"/>
</svg>
