<?xml version="1.0" encoding="utf-8"?>
<!-- Generator: Adobe Illustrator 28.3.0, SVG Export Plug-In . SVG Version: 6.00 Build 0)  -->
<svg version="1.1" id="Layer_1" xmlns="http://www.w3.org/2000/svg" xmlns:xlink="http://www.w3.org/1999/xlink" x="0px" y="0px"
	 width="113.5px" height="98.1px" viewBox="0 0 113.5 98.1" style="enable-background:new 0 0 113.5 98.1;" xml:space="preserve">
<style type="text/css">
	.st0{fill-rule:evenodd;clip-rule:evenodd;}
	.st1{fill:#B25959;}
</style>
<path d="M98.9,60c-1.7-0.3-3-0.5-4.4-0.8c-1.6,0.4-3.5,0.6-5.1,1.3c-1.8,0.7-3.4,1.8-5.1,2.6c-1.1,0.6-2.3,1.3-3.4,1.7
	c-3.3,1.3-6.6,2.4-10.2,2.7c-4.6,0.3-8.5-1.7-12.3-3.1c-2.3-6-2-12.4-4.2-18.1c-2-1.7-4-3.4-5.4-5.5c-2.7-4.1-5.1-8.3-7.6-12.6
	c-0.6-1-0.9-2.2-2.4-2.9c0.4,2.1,0.7,3.9,1,6.1c-0.8-0.5-1.3-0.7-1.5-1c-1.5-1.9-3-3.8-5.3-5c-0.4-0.2-0.6-0.6-0.9-0.9
	c-4-4.3-8.1-8.5-12.1-12.8c-0.4-0.5-0.8-1-1.2-1.5C16.4,7,14.2,3.5,11.9,0c-0.1,0-0.2,0-0.3,0c0.2,1,0.5,2,0.7,3
	c0.2,1.1,1.7,1.8,0.9,3.5c-1.7-1.9-3.3-3.7-5-5.6c-0.7,2.5,1.9,3.4,2.1,5.5c-1.9,0-2.3-2-4.2-2.2c0.9,1.6,1.7,3,2.8,5.1
	C7.1,8.3,6.1,7.8,5,7.3c0.3,1.5,1.1,2.5,1.7,3.6C7,11.4,7,12,7.2,12.8c-1.4-0.6-2.5-1-4-1.7c0.6,1.5,1,2.6,1.4,3.7
	c-0.3,0.2-0.6,0.4-1.1,0.7c0.5,1.4,1,2.7,1.5,4.1c-0.2,0.4-0.5,0.9-0.8,1.5c0.7,1.2,1.4,2.5,2.1,3.9c-0.2,0.3-0.4,0.8-0.7,1.3
	c0.7,1.2,1.5,2.5,2.2,3.7c-0.3,0.6-0.6,1-1,1.6c1.1,1.3,2.2,2.5,3.4,3.9c0,2.4,1.6,3.7,3.7,4.5c0,3.4,0,6.8,2.4,9.3
	c0,0.9-0.2,1.7,0,2.3c2,5.6,4,11.1,6.1,17c0.1,1.3,0.2,2.9,0.3,4.5c1.1,0.4,2,0.8,3.4,1.3c-3.1,1.8-5.7,3.2-8.1,4.8
	c-2.5,1.6-4.8,3.5-7.3,5.3c-1.2,0.1-2.5,0.1-3.7,0.2c-1.4,0.7-2.7,1.3-4.1,2c0.7,0.4,1.3,0.8,2.1,1.3C2.8,90,0.6,91.6,0,94.6
	c0.4,0.6,1,1.3,1.6,2.1c0.6,0.3,1.3,0.7,1.9,1c2.3-0.8,4.3-2,6.8-1.2c-0.2,0.6-0.4,1-0.7,1.6c2-0.2,3.9-0.4,5.8-0.6
	c3.2-0.3,6.4-0.6,8.2-3.5c3.5-0.2,6.7,0,9.8-0.5c7.9-1.3,15.6-3.6,22.9-7.1c1.5-0.7,3-1,4.6-1.2c4.7-0.5,9.1-1.9,12.9-5.1
	c3-2.6,6.1-5,9.2-7.4c1.6-1.3,3.6-1.8,5.6-2.1c2.6-0.4,5.3-0.8,7.9-1.1c2.3-0.3,4.6-0.6,7-0.6c2.9,0,5.7,0.2,8.6,0.3
	c0.4,0,0.9-0.3,1.3-0.5c0.1-0.2,0.1-0.5,0.2-0.7C107.4,67.3,102.8,63.8,98.9,60z M97,65.4c0-0.9,0.7-1.6,1.5-1.7
	c0.9,0,1.6,0.7,1.7,1.5S97.1,66.3,97,65.4z"/>
</svg>
