<?xml version="1.0" encoding="utf-8"?>
<!-- Generator: Adobe Illustrator 28.3.0, SVG Export Plug-In . SVG Version: 6.00 Build 0)  -->
<svg version="1.1" id="Layer_1" xmlns="http://www.w3.org/2000/svg" xmlns:xlink="http://www.w3.org/1999/xlink" x="0px" y="0px"
	 width="316.5px" height="364.8px" viewBox="0 0 316.5 364.8" style="enable-background:new 0 0 316.5 364.8;" xml:space="preserve"
	>
<style type="text/css">
	.st0{fill-rule:evenodd;clip-rule:evenodd;}
	.st1{fill:#B25959;}
</style>
<path d="M0,239.1c1.7,2.1,4.1,2.9,7.5,3.9c-3.4,0.3-5.8,0.7-7.5,2.6c0,0.8,0,1.6,0,2.4c2,2.2,4.9,2.3,7.6,2.9
	c-0.6,1.5-1.9,1.2-2.8,1.7c-2,1.2-2.6,2.9-2.5,5.1c0.1,2,1.4,3.2,3.2,3.7c2.3,0.7,4.7,1,7.3,1.5c-1.3,0.4-2.5,0.6-3.6,1.1
	c-2.3,1-3.1,2.3-2.9,4.7c0.2,2.2,1.1,3.3,3.4,3.9c1.5,0.4,3.1,0.4,4.7,0.6c0,0.1,0,0.3-0.1,0.3c-3.4,3.3-2.8,5.9,1.8,7.4
	c2.2,0.7,4.5,0.3,6.8,0c2.8-0.5,5.4-2,8.4-1.9c-2,1.6-4.4,2.8-6.2,4.9c-3.4,4.1-2.5,7.4,2.7,9.1c1.9,0.6,3.7,0.5,5.6,0.6
	c1.5,0.1,3-0.4,4.7,0.3c0.4,5.5,3.4,8.4,9,7.7c1.3,0.6,1.8,1.7,2.5,2.4c3.4,3.3,6.8,3.4,10.3,0.2c1.9-1.7,3.3-3.9,5.1-7
	c0.1,2.2,0.2,3.4,0.2,4.6c0,1.5,0.3,3,1.1,4.3c1.6,2.7,4.1,3,6.4,0.8c1.5-1.4,2.5-3.2,3.4-5c0.7-1.3,1.4-2.6,2.7-3.9
	c0.1,0.9,0.2,1.9,0.2,2.8c0,1.3,0.5,2.4,0.9,3.5c0.8,1.7,1.9,2.9,4,2.9c1.9,0,3-1.1,3.8-2.6c0.6-1.2,1-2.5,1.5-3.7
	c0.5-1.1,0.3-2.4,1.6-3.6c0.5,2,0.3,4,1,5.8c0.9,2.1,2.1,3.6,4.3,3.7c2.4,0.1,4.5-0.7,5.7-3.1c0.9-1.8,1.5-3.8,1.6-5.8
	c0.2-3,0.5-5.9,0.7-8.9c0.1-1.6,0.2-3.2,2-4.4c2.1,3.6,4.6,6.8,9.4,6.4c1.3,3,3.3,4.7,6.9,4.2c0.5,4.5,2.8,7.3,7.2,7.9
	c1.9,5,1.9,5,7.7,6.6c1.4,5.6,5.3,8.3,11.3,7.9c1.1,1.7,1.8,3.8,3.7,4.8c1.7,0.9,3.7,0.8,5.9,0.8c3,3.8,6.3,7.9,12.4,4.8
	c2.6,3.8,3.9,9.5,10.6,6.3c1.5,1.7,2.8,3.6,4.4,5.2c3.5,3.5,5.9,3.5,9.9,0.2c1,1.6,2,3.1,3.1,4.6c1.2,1.8,2.6,3.5,4.4,4.7
	c3.3,2.3,5.6,1.8,7.5-1.7c0.3-0.6,0.6-1.2,0.9-1.8c1.3,0.5,1.7,1.7,2.5,2.6c2.2,2.7,4.4,5.5,7.3,7.6c2.1,1.5,4.3,2.8,7.1,1.7
	c1.6-2.3,1.2-4.9,1-8.2c6.1,5.7,10,13.3,18.4,14.8c1.4-0.8,1.5-1.8,1.2-2.9c-0.6-2.8-1.6-5.4-2.7-8c-0.6-1.4-1.6-2.8-1.7-4.4
	c4.3,2.5,7.8,6.1,11.9,8.9c2.9,2,5.7,4.1,8.9,5.6c1.6,0.7,3.2,1.5,5.2,0.6c-0.4-3.4-2.9-5.3-4.9-7.5c-1.9-2.1-4-4.2-5.6-6.7
	c3.1,1.9,6.1,3.7,9.2,5.6c4.1,2.5,8.4,4.9,12.8,6.9c2.6,1.2,5.3,2,8.1,2.5c1.8,0.3,3.8,0.7,5.3-1c-0.7-2.3-3-2.8-4.4-4.3
	c2.5,0,4.7,1.3,7.1,1.8c3.1,0.6,6,0.9,9.1,0c0.2-1.5-0.9-1.7-1.7-2c-2.7-1.1-5.5-2.2-8.2-3.3c-1-0.4-2.3-0.4-3.1-1.4
	c4.3-0.1,8.3,1.5,12.6,2c3.2,0.4,6.4,0.8,9.5,0.2c0.4-1.5-0.6-1.9-1.4-2.3c-2.7-1.3-5.5-2.1-8.4-2.9c-6.8-1.8-13.5-3.5-20.9-4.8
	c3.3-0.9,6,0.5,8.7,0.3c2.6-0.1,5.4,0.6,8-1.5c-1.1-1.3-2.6-1.4-4-1.6c-4.1-0.7-8.2-1.3-12.4-1.9c-7.6-1.1-14.4-4.3-21-8.2
	c-10.3-6.1-19.1-14-28.2-21.9c1.7-1.6,4.6-1.3,5.5-3.6c-0.1-1.7-1.3-2.1-2.4-2.5c-12.7-5.2-23.3-13.5-33.2-22.8
	c-12.6-11.9-23.6-25.2-34-39c-0.4-0.5-0.7-1.1-1.1-1.7c6.3-5.4,13.5-8.6,21.1-11c3.2-1,6.4-2,9.9-1.5c0.9,0.1,2,0.2,2.8-0.2
	c3.7-1.6,6.2-0.3,8.1,2.9c2-3.6,1.8-7.5-0.4-10.7c-1.6-2.2-3.7-4-6.2-5.1c-2-0.9-3.6-2.2-5.2-3.8c-4.5-4.8-10.5-6-16.7-5.9
	c-5.5,0-11,0.7-16.6,1c-9.4,0.6-18.6-0.6-27.1-4.9c-2.3-1.1-3.9-2.6-4.8-5.1c-3.5-8.7-6.9-17.5-9.4-26.6
	c-4.2-15.1-5.9-30.4-4.8-46.1c0.3-3.8,1-7.5,1.9-11.1c0.6-2.3,1.3-4.7-0.4-7c-3.7,0.2-5.3,3.5-8.3,5.1c-0.8-0.7-1.2-1.5-1.3-2.6
	c-0.3-2.8-0.8-5.6-0.8-8.5c-0.2-13.2,0-26.5,0.9-39.7c0.4-5,0.9-9.9,1.9-14.8c0.5-2.3,0.6-4.6,0.4-6.8c-0.2-2.3-0.8-4.5-2.9-5.9
	c-2.1,0.5-2.7,2.2-3.4,3.7c-2.3,4.8-3.6,9.9-4.9,14.9c-1.3,4.8-2.4,9.7-4,14.5c0-1.5,0-3,0-4.6c0-10.5,0-21.1,0-31.6
	c0-7.2-0.5-14.3-1.6-21.4c-0.2-1.5-0.6-2.9-1.1-4.3c-0.4-1.3-1.3-2.4-2.9-2.5c-2.2,0.4-2.8,2.2-3.5,4c-1.4,4.1-1.9,8.4-2.3,12.7
	c-1,10.2-0.9,20.5-0.9,30.8c0,1.6,0.2,3.2-0.4,5.3c-1.2-8.1-2.4-15.8-3.6-23.5c-1.4-8.2-2.8-16.5-5.6-24.4c-0.6-1.8-1.4-3.5-2.3-5.1
	c-0.8-1.3-1.8-2.4-3.6-2.5c-2.5,1-2.7,3.4-2.9,5.6c-0.3,4.3-0.2,8.6,0.2,12.9c1,9.9,2.5,19.8,4.4,29.6c0.2,0.8,0.1,1.7,0.1,2.6
	c-2-3.3-2.7-7.1-4-10.7c-3.2-9.1-6.4-18.3-10.3-27.2c-1.1-2.6-2.4-5.1-3.8-7.6c-0.7-1.3-1.6-2.6-3.8-2C51.9,5,52,7.3,52.2,9.6
	c1,8.1,3.3,15.8,5.8,23.5c2.4,7.4,5,14.8,7.6,22.2c0.3,1,0.8,1.9,0.7,2.9c-4.1-5.4-7.3-11.4-11-17.2c-4.6-7.2-9-14.4-14.4-21
	c-1.2-1.5-2.4-2.9-3.8-4.2c-1.2-1.1-2.5-2.1-4.3-1.9c-2.1,1.9-1.4,4.2-0.9,6.4c0.9,4,2.5,7.7,4.2,11.4c4.6,10.2,10.3,19.8,15.7,29.6
	c0.5,0.9,1.3,1.7,1.3,3C40.5,54.8,29.5,43.3,15.5,36c-1.5,2.4-1,4-0.2,5.7c1.2,2.9,2.9,5.5,4.7,8c4.2,5.8,8.7,11.3,13.4,16.7
	c0.9,1,2,1.8,2.4,3.2c0.5,0.1,0.7,0.5,0.6,0.9c-0.5,0-0.8-0.2-0.9-0.6c-2.8-1.4-4.8-3.8-7.3-5.6c-2.9-2.1-5.7-4.5-9-6.1
	c-1.5-0.7-3-1.9-5.1-0.8c-1.8,2.4-0.5,4.8,0.6,7c1.4,2.5,3.4,4.5,5.5,6.4c1,0.9,2.3,1.7,3,2.9c-1.8-0.2-3.3-1.6-5.4-1.3
	c-2.2,1.1-2,3.1-1.4,5.1c0.4,1.4,1.4,2.6,2.4,3.7c1,1.1,2,2.2,3,3.3c-6.9,3-7.4,4.6-3.7,11.6c-1.5,2.1-4.5,3.6-3.5,7
	c0.8,2.9,3.4,4.4,5.8,6.3c-1.5,1.7-3.3,3.1-2.7,5.6c0.5,2.2,2.5,3.1,3.9,4.5c-1.1,1-2.6,1-3.5,2.3c-0.3,2.7-0.3,2.7,3.6,7.4
	c-0.7,1-1.4,1.9-2.1,2.9c-0.1,0.2-0.1,0.5-0.2,0.8c0,2,1.8,2.9,2.8,4.3c-0.5,1.3-2.1,2.1-2,3.6c0,1.8,1.5,2.5,2.1,3.9
	c-4.1,5.3-4,6.2,0.9,10.4c0,3.2-0.5,6.9,4.2,8.1c-0.6,2.2-0.9,4.3,0.3,6.2c0.2,0.3,0.5,0.8,0.4,1.1c-1.3,2.8,0.3,5.3,0.7,7.9
	c0.8,5.1,0.9,5.3,5.8,7.7c-1.7,3.6,0.1,6.3,2.8,8.4c-0.3,3.9-0.3,3.9,4,5.6c-0.8,4.4,1.1,7.4,5.4,8.9c0,1.3,0,2.5,0,3.3
	c0.6,1.7,2,1.9,2.7,2.8c-0.2,0.5-0.6,0.5-0.9,0.4c-7.2-0.9-13.8-3.6-20.3-6.7c-2.3-1.1-4.6-2.2-7-3.2c-1.6-0.8-3.4-1.1-5.1-0.9
	c-1.7,0.1-3.1,0.9-3.8,2.6c-0.7,1.6,0,2.9,1,4.1c0.8,0.9,1.7,1.7,2.5,2.5c-1.2,0.3-2.3-0.1-3.4-0.3c-2.5-0.3-4.7,0.8-5.4,2.6
	c-0.7,1.8,0,3.6,2.2,5.1c1.5,1.1,3.3,1.8,5,2.7c1.1,0.6,2.5,0.8,3.8,2.1c-2.9-0.7-5.4-1.3-7.8-2c-1.6-0.5-3.2-0.7-4.8-0.6
	c-3,0.1-4.3,2.4-2.8,5.1c0.7,1.3,1.8,2.4,2.8,3.7c-2.4,0.9-4,2.7-5.8,4.4C0,237.5,0,238.3,0,239.1z M16.4,214.1L16.4,214.1
	C16.5,214.1,16.5,214.1,16.4,214.1z M37.2,71.2c-0.4,0-0.7-0.2-0.7-0.7C37,70.5,37.2,70.8,37.2,71.2z M38,72
	c-0.3-0.1-0.6-0.3-0.6-0.6C37.7,71.4,37.9,71.6,38,72z M38.6,72.6c-0.1-0.1-0.1-0.1-0.2-0.2C38.5,72.5,38.6,72.5,38.6,72.6z
	 M191.2,212.2c0.5-1.3,5.1,0.5,4.6,1.8c-0.5,1.3-1.9,1.9-3.2,1.4C191.3,214.9,190.7,213.4,191.2,212.2z M292,354
	c1-0.6,1.6-0.8,2,0.1C293.5,354.1,292.9,354.1,292,354z M289.9,353c0.1,0,0.2-0.1,0.3-0.1c0,0,0.1,0.1,0.1,0.2
	c-0.1,0-0.2,0.1-0.3,0.1C290,353.1,290,353,289.9,353z M282.8,345.7l0.3,0L282.8,345.7L282.8,345.7z M15.7,273
	c-0.4,0.1-0.8,0.1-1.1,0.1C14.9,272.7,15.2,272.4,15.7,273z"/>
</svg>
