<?xml version="1.0" encoding="utf-8"?>
<!-- Generator: Adobe Illustrator 28.3.0, SVG Export Plug-In . SVG Version: 6.00 Build 0)  -->
<svg version="1.1" id="Layer_1" xmlns="http://www.w3.org/2000/svg" xmlns:xlink="http://www.w3.org/1999/xlink" x="0px" y="0px"
	 width="196.4px" height="161.6px" viewBox="0 0 196.4 161.6" style="enable-background:new 0 0 196.4 161.6;" xml:space="preserve"
	>
<style type="text/css">
	.st0{fill-rule:evenodd;clip-rule:evenodd;}
	.st1{fill:#B25959;}
</style>
<path d="M48.7,157.7C48.7,157.7,48.7,157.7,48.7,157.7c0.1,0,0.1,0,0.1,0C48.8,157.6,48.8,157.6,48.7,157.7
	C48.7,157.6,48.7,157.7,48.7,157.7z"/>
<path d="M45.7,157.7C45.8,157.7,45.8,157.7,45.7,157.7C45.7,157.6,45.7,157.6,45.7,157.7C45.7,157.7,45.7,157.7,45.7,157.7
	C45.7,157.7,45.7,157.7,45.7,157.7z"/>
<path d="M0,40.3c0.2,2.9,1.5,5.5,2.8,8.1c0.2,0.5,0.6,1,1,1.2c1.7,1.1,3.4,2.1,5.1,3.2c-0.5-0.1-1-0.2-1.5-0.2
	c-0.6-0.1-1.1-0.1-1.7-0.2c-1.4-0.1-2,0.6-1.8,2c0.1,1.2,0.9,1.9,1.8,2.4c0.8,0.6,1.8,1,2.7,1.6c-0.6,0.1-1.2,0.1-1.6,0.3
	c-0.4,0.2-1.1,0.7-1.1,1.1c-0.1,1.6-0.2,3.1-0.1,4.7C5.8,65.9,6.7,66.7,8,67c0.5,0.1,1.1,0.2,1.6,0.4c-0.5,1.6-0.4,3.1,0,4.6
	c0.5,1.7,1.8,2.5,3.1,2.9c-0.1,0.6-0.4,1.1-0.2,1.4c0.7,2.3,1.3,4.5,2.2,6.7c0.7,2,1.8,3.8,4.6,3.4c-1.9,1.4-1.9,2.2-0.1,3.3
	c0.3,0.2,0.7,0.4,1,0.6c0.9,0.4,1.8,0.8,2.7,1.2c-0.7,1.2-1.7,2.4-1,3.8c0.8,1.4,2.3,1.3,3.6,1.6c0,0.2,0,0.3,0,0.5
	c-0.2,1.9-0.7,3.9,1,5.5c0,0,0,0.1,0.1,0.2c0.5,1.3,0.9,2.6,1.6,3.7c3.7,5.9,7.4,11.7,11.3,17.4c2.3,3.5,4.1,7.3,7,10.4
	c0,0,0,0.1,0.1,0.4c-1.1,0.8-2.2,1.8-3.5,2.3c-2.9,1.2-5.8,2.3-8.8,3.1c-5.4,1.5-10.9,2.7-16.3,4.2c-2,0.6-3.9,1.5-5.9,2.5
	c-0.5,0.2-1,1-0.9,1.4c0,0.4,0.7,0.9,1.2,1.2c0.4,0.3,1,0.4,1.5,0.4c3.3,0.2,6.7,0.4,10,0.6c4.1,0.2,8.1,0.2,12.2,0.5
	c1.5,0.1,3.1,0.4,4.5,1c3,1.3,5.8,2.9,8.8,4.1c9.6,4,19.7,5.8,30.1,5c8.4-0.6,16.5-2.7,24.3-5.8c11.4-4.4,22-10.4,32.3-17
	c4-2.6,8-5.1,12.7-6.1c6.9-1.5,13.8-2,20.8-2.2c3.8-0.1,7.6-0.4,11.3-0.8c1.7-0.2,3.3-0.9,5-1.1c2.1-0.3,4.2-0.4,6.2-0.6
	c1.5-0.2,3-0.1,4.3-1.2c0-0.3,0-0.5,0-0.8c-0.5-0.2-1-0.5-1.5-0.7c-1-0.2-2-0.4-3-0.5c-2-0.3-3.6-1-4.8-2.6
	c-1.4-1.9-3.3-2.9-5.6-3.5c-3.6-0.9-7.2-0.4-10.8,0.5c-4.4,1.2-8.7,2.7-13.1,3.7c-10,2.4-20,4-30.3,3.4c-4.3-0.2-8.5-1-12.6-2.5
	c-0.6-0.2-0.8-0.5-0.8-1.1c-0.2-4.1-0.3-8.2-0.5-12.3c-0.2-5.1-0.5-10.1-0.7-15.2c-0.1-1.5-0.2-3.1,0-4.6c0.2-1.5,0.8-3,1.2-4.5
	c1.5-5.9,2.8-11.9,2.2-18.1c-0.2-2.6-0.9-5-2.2-7.3c-0.3-0.6-0.5-1.3-0.6-2c-0.1-0.7-0.1-1.4-0.1-2.2c-0.2-9.6-1.5-19.2-4.2-28.4
	c-2.9-9.9-7.3-19-13.6-27.2c-0.3-0.4-0.8-0.7-1.2-1c-0.4,0-0.8,0-1.2,0c-1,0.6-1.2,1.6-0.9,2.7c0.4,1.7,0.9,3.4,1.4,5.1
	c0.4,1.1,0.8,2.2,1.3,3.3c-0.3-0.2-0.5-0.4-0.7-0.7c-1.8-2.4-3.6-4.9-6.1-6.7c-0.7-0.5-1.7-0.8-2.6-0.9c-1-0.2-1.6,0.5-1.6,1.5
	c0,0.6,0.1,1.2,0.3,1.7c0.1,0.4,0.3,0.8,0.4,1.1c-1.2-0.4-2.3-1-3.5-1.3C79.5,5.4,78.6,6.4,79,8c0.2,0.8,0.5,1.7,0.9,2.5
	c0.6,1.1,1.3,2.1,2.1,3.4c-0.5-0.4-0.9-0.7-1.3-1c-1.4-1.1-2.9-1.8-4.7-1.9c-0.8-0.1-1.8-0.2-2.1,0.6c-0.2,0.6-0.1,1.5,0.2,2.1
	c0.4,0.9,1.1,1.8,1.7,2.7c-0.5-0.2-0.9-0.4-1.4-0.5c-0.7-0.2-1.6-0.3-2.1,0.4c-1.9,2.7-2.7,5.9-0.1,8.9c0.1,0.1,0.2,0.2,0.3,0.4
	c-0.9-0.2-1.7-0.4-2.5-0.5c-0.9-0.2-1.6,0.1-2.2,0.9c-0.9,1.2-1.4,2.5-0.8,3.9c0.5,1.4,1.3,2.7,1.9,4c-1.1,0-2.3-0.1-3.5,0
	c-0.8,0.1-1.5,0.6-1.5,1.4c-0.1,1.7-0.2,3.4-0.1,5.1c0.1,1.4,0.6,2.7,0.9,4.1c-0.4,0.1-0.8,0.1-1.2,0.3c-0.8,0.3-1.5,0.8-1.6,1.8
	c-0.2,2.9-0.6,5.7-0.6,8.6c-0.1,3.5-0.2,7.1,2.4,10.2c-1.6-0.1-2.3,0.8-2.5,2.1c-0.2,1-0.1,2.1-0.2,3.1c0,0.2,0,0.5-0.1,0.7
	c-0.8,1.1-1.6,2.2-2.5,3.4c0.1,0.1,0,0-0.1-0.1c-4.9-4.1-10-8-14.8-12.3c-7.6-6.9-13.5-15.2-19.2-23.8c-1.8-2.7-3.5-5.5-5.3-8.2
	c-0.4-0.7-1.6-1-2.3-0.8c-0.9,0.3-0.9,1-0.8,1.8c0.1,0.7,0.2,1.5,0.5,2.1c1.7,3.4,3.4,6.7,5.2,10.1c0.8,1.4,1.7,2.8,2.5,4.1
	c-0.3,0-0.4-0.1-0.6-0.2c-4.6-3.9-9-8-13.1-12.4c-0.6-0.6-1.4-1-2.2-1.3c-0.9-0.3-1.4,0.2-1.2,1.2c0.2,0.6,0.4,1.3,0.8,1.8
	c1.2,1.6,2.5,3.2,3.8,4.7c0.6,0.7,1.3,1.3,1.9,2c-0.8-0.3-1.4-0.7-2.1-1.1c-3-1.6-5.9-3.3-8.9-4.9c-0.9-0.5-1.6-0.3-2,0.7
	C0.1,38.6,0,39.5,0,40.3z M179.4,123.9c0-0.9,0.8-1.6,1.7-1.6c0.9,0,1.6,0.8,1.6,1.7C182.6,124.9,179.3,124.8,179.4,123.9z"/>
</svg>
