<?xml version="1.0" encoding="utf-8"?>
<!-- Generator: Adobe Illustrator 28.3.0, SVG Export Plug-In . SVG Version: 6.00 Build 0)  -->
<svg version="1.1" id="Layer_1" xmlns="http://www.w3.org/2000/svg" xmlns:xlink="http://www.w3.org/1999/xlink" x="0px" y="0px"
	 width="131.1px" height="126.9px" viewBox="0 0 131.1 126.9" style="enable-background:new 0 0 131.1 126.9;" xml:space="preserve"
	>
<style type="text/css">
	.st0{fill-rule:evenodd;clip-rule:evenodd;}
	.st1{fill:#B25959;}
</style>
<path d="M125.5,110.5c-5.4-2.1-11-3.8-16.7-4.8c-4.1-0.8-8.4-0.8-12.6-1.5c-2.1-0.3-4.1-1.3-6-1.9c-1.2-1-2.5-2-3.4-2.7
	c0-1.4,0-2.3,0-3.1c5.6-1.3,10.9-3.4,13.7-8.5c3.6-6.5,7.5-12.9,8.9-20.6c0.9-4.8,3.1-9.6,3.5-14.4c0.5-5.4,2.3-10.6,1.7-16.1
	c-0.4-3.6-0.1-7.4-0.1-10.8c3.5-4.2,6.8-8.1,10.2-12.2c2.2,0,4.2,0,6.5,0c-1.8-2.5-3.4-4.7-5.1-7.2c-1,0.7-1.8,1.1-2.6,1.7
	c-1.4-1-4.1-1.8-4.4-3.2c-0.7-3.4-3.6-3.2-5.8-5.2c0,3,0,5.5,0,7.2c-4.5,6.4-7.6,12.2-4.3,19.5C104,37,104,37,98.3,40.4
	c-1.6,0-3.9,0.7-5.1-0.2c-2.2-1.4-4.3-1-6.5-1.3c-2.4-0.3-4.8-1.4-7.1-1.3c-6.6,0.5-12.6-2.2-18.9-3.4c-6.9-1.3-13.6-0.2-20.4-0.8
	c-0.5,0-1,0.9-1.6,1.2C26.3,41.2,22.4,41.4,18,56.8c-1.1,3.9-2.4,7.9-4.5,11.3c-3.3,5.3-6.7,10.6-11.6,14.6c-0.8,0.6-1.1,1.7-1.9,3
	c3.9-0.7,7.2-1.4,10.2-2c3.6,0.8,7.1,2.1,10.8,2.2c3.7,0.1,7.4-0.8,11.3-1.3c0,2,0,3.5,0,4.7c-3.6,4.7-7.1,9.3-10.5,13.7
	c-2.2-1-3.8-2.7-6.2-0.8c1.5,1,2.9,1.8,4.4,2.8c-2.8,2.8-5.7,5.5-8.1,7.9c0,1.4,0,2.5,0,3.8c1.3-1.1,2.4-1.9,3.5-2.8
	c-2.1,4.6-1.6,8.5,1.8,12.9c0-2,0-3.1,0-4.2c-0.2-5.4,1.1-10.1,5.5-13.7c1.2-1,1.9-2.4,2.9-3.6c3.8-4.7,7.7-9.4,11.2-13.7
	c2.1,0,3.5,0,4.5,0c4.2,3.7,8.9,5.3,14.2,5.6c0.8,0.8,1.8,1.7,3.1,2.9c7.3,0,14.9,0,22.4,0c0.1,1.4,0.2,2.5,0.3,3.6
	c0.3-0.2,0.5-0.4,0.8-0.5c0.9,1.3,1.8,2.7,2.2,3.3c6.7,0.7,12.5,1.4,19,2.1c0.9,1.2,2.3,3.1,3.9,5.1c0.2-1.4,0.4-2.7,0.5-3.8
	c0.9,0.9,1.9,1.9,1.7,1.7c4.1,0.9,6.7,2,9.2,1.9c2.7-0.1,5.5-1.2,8.3-1.8C126.4,111.4,126,110.7,125.5,110.5z M117.4,9.7l1.1-0.9
	c2.3,0.7,1.5,2,1.5,2h-2.5V9.7z"/>
</svg>
