<?xml version="1.0" encoding="utf-8"?>
<!-- Generator: Adobe Illustrator 28.3.0, SVG Export Plug-In . SVG Version: 6.00 Build 0)  -->
<svg version="1.1" id="Layer_1" xmlns="http://www.w3.org/2000/svg" xmlns:xlink="http://www.w3.org/1999/xlink" x="0px" y="0px"
	 width="108.8px" height="75.8px" viewBox="0 0 108.8 75.8" style="enable-background:new 0 0 108.8 75.8;" xml:space="preserve">
<style type="text/css">
	.st0{fill-rule:evenodd;clip-rule:evenodd;}
	.st1{fill:#B25959;}
</style>
<g id="t9CtmH_1_">
	<g>
		<path d="M57.6,39.6c0.9,1.6,1.7,3.2,2.7,4.8c3.1,5.4,6.5,10.5,10.1,15.5c0.2,0.3,0.5,0.6,0.8,0.9c0.1-0.1,0.2-0.1,0.3-0.2
			c-1.4-3-2.8-6-4.2-9c0.3-0.4,0.5-0.6,0.7-0.9c2.5-3.1,5.5-5.6,9-7.5c3-1.6,5.9-3.4,9.1-4.5c0.9-0.3,1.7-0.6,2.4-1.4
			c0.6-0.8,1.5-1.4,2.5-1.6c0.4-0.1,1-0.4,1.2-0.7c0.7-1.7,2.2-2.1,3.8-2.7c0.1-1.2,1-1.8,2.1-2.1c0.3-0.1,0.7-0.3,0.8-0.5
			c0.4-1.1,1.4-1.4,2.3-1.8c-0.6-1.6,0.8-1.6,1.6-2.2c0-1.2,0.9-1.8,1.9-2.3c1-0.5,1.7-0.3,2.3,0.6c2.1,2.9,2.8,6.4,0.5,10.1
			c-0.9,1.4-1.9,2.7-2.9,3.9c-1.8,2-4,3.8-6.4,4.9c-2.8,1.4-5.2,3.3-7.4,5.4c-3.8,3.6-6.7,7.9-9.2,12.4c-0.1,0.2-0.1,0.5-0.2,0.8
			c0.8,0.2,1.5,0.4,2.2,0.6c1.6,0.6,3.2,1.2,4.6,2c0.7,0.4,1.5,1.1,1.8,1.9c0.4,1.2,1.2,1.7,2.2,2.2c0.7,0.3,1.4,0.6,2.1,0.8
			c1.2,0.5,1.5,1.1,1.5,2.8c-0.7-0.1-1.6,0.1-2.1-0.3c-1.5-1.1-3-0.7-4.5-0.4c-3.3,0.7-6.5,1.8-9.7,3.1c-3.2,1.3-6.5,1.9-9.9,1.8
			c-3.8-0.1-7.4-1-11-2.1c-1-0.3-2.1-0.5-3.2-0.4c-2.6,0.2-5.1-0.4-7.5-1.4c-0.7-0.3-1.4-0.4-2.2-0.4c-2.4,0.2-4.7-0.2-7-0.8
			c-0.6-0.2-1.1-0.4-1.9-0.8c2.7-1.9,5.4-1,8.3-0.9c-1.3-1.1-2.7-1.5-4.1-1.4c-1.7,0.1-3.6,0.3-5.2,0.9c-1.8,0.6-3.5,0.6-5.2,0.2
			c-1.9-0.4-3.7-1.1-4.7-2.9c-0.1-0.2-0.1-0.5-0.2-0.7c0.4-0.4,0.8-0.8,1.1-1c3.9,0.3,7.7,0.8,11.5,0.9c3.8,0,7.7-0.2,11.4-1.5
			c-0.4-0.7-0.6-1.3-0.9-1.8c-4.2-7.6-9-14.9-14-22c-1.4-1.9-3.1-3.5-4.8-5.3c-1.8-1.9-3.7-3.8-4.8-6c-3.4-1.5-6.7-2.7-8.6-6.1
			c1.1-0.9,2.6-0.5,3.7-1.6c-0.6,0-1-0.1-1.4-0.1c-2.9,0-5.2-1.2-7-3.5c-1.6-2-3.2-4-4.8-6.1C7.5,10.3,7,9.8,6.6,9.2
			c-1.5-1.8-3-3.5-4.4-5.3C1.9,3.7,1.6,3.3,1.6,3.1C2,2.2,1.3,1.9,0.9,1.4C0.6,0.9,0.3,0.5,0,0c15.7,8.6,31.2,17.4,46.2,26.9
			c0.2-0.2,0.3-0.3,0.5-0.6C51,30.3,54.8,34.5,57.6,39.6z M84.8,65.2c0.9,1,1.5,2.2,3.2,1.4C87.3,64.1,86,64.9,84.8,65.2z"/>
	</g>
</g>
</svg>
