<?xml version="1.0" encoding="utf-8"?>
<!-- Generator: Adobe Illustrator 28.3.0, SVG Export Plug-In . SVG Version: 6.00 Build 0)  -->
<svg version="1.1" id="Layer_1" xmlns="http://www.w3.org/2000/svg" xmlns:xlink="http://www.w3.org/1999/xlink" x="0px" y="0px"
	 width="38.1px" height="48.3px" viewBox="0 0 38.1 48.3" style="enable-background:new 0 0 38.1 48.3;" xml:space="preserve">
<style type="text/css">
	.st0{fill-rule:evenodd;clip-rule:evenodd;}
	.st1{fill:#B25959;}
</style>
<path d="M38.1,48c0-0.2-0.1-0.4-0.2-0.5c-0.4-1.1-0.8-2.1-1.3-3.2c-0.4-0.9-0.8-1.7-1.2-2.6c0-0.1-0.1-0.2-0.1-0.3
	c-0.3-0.6-0.6-1.2-0.9-1.8c-0.2-0.3-0.3-0.7-0.3-1c0-0.3,0-0.7-0.1-1c-0.1-0.7-0.2-1.4-0.5-2c-0.2-0.6-0.4-1.1-0.7-1.7
	c-0.4-0.8-0.9-1.6-1.6-2.2c-0.6-0.6-1.1-1.3-1.8-1.8c-0.5-0.4-0.9-0.8-1.5-1c-0.8-0.4-1.6-0.7-2.3-1c-0.3-0.2-0.7-0.3-0.8-0.8
	c0.1-0.4,0.3-0.9,0.5-1.4c0.4-1.2,0.9-2.4,1.5-3.5c0.3-0.6,0.7-1.2,1.2-1.7c0.8-0.9,1.4-1.9,1.9-2.9c0.5-1,1-2.1,1.5-3.1
	c0,0,0-0.1,0-0.2c0,0-0.1-0.1-0.2-0.2c-0.3,0.3-0.5,0.5-0.8,0.9c0-0.4,0.1-0.6,0.2-0.8c0.6-1.2,1.3-2.5,1.9-3.7c0.3-0.7,0.7-1.3,1-2
	c0.4-0.7,0.8-1.5,1.3-2.1c0.5-0.8,1.2-1.4,2-2c0.3-0.2,0.3-0.4,0.2-0.7c-0.3-0.1-0.6,0.1-0.9,0.2C36,4,35.6,4.3,35.2,4.6
	c-0.2-0.1-0.1-0.3,0-0.4c0.3-0.6,0.6-1.3,1-1.9c0.1-0.2,0.2-0.4,0.3-0.7c-0.1-0.1-0.2-0.2-0.3-0.3c-0.2,0.1-0.4,0.2-0.6,0.3
	c-0.4,0.4-0.7,0.8-1.1,1.2C34.4,2.8,34.3,3,34.1,3c0-0.9,0.5-1.7,0.3-2.6c-0.4-0.1-0.5-0.1-0.6,0.1c-0.2,0.3-0.4,0.5-0.5,0.8
	c-0.1,0.1-0.1,0.2-0.3,0.2c-0.1-0.3-0.1-0.3-0.1-0.6c0-0.3,0-0.6-0.2-0.9c-0.1,0-0.2,0-0.3,0c-0.3,0.3-0.6,0.6-0.9,0.9
	c-0.1-0.2-0.2-0.3-0.3-0.4c-0.3-0.1-0.5,0-0.7,0.2C30,1,29.7,1.3,29.4,1.5c-0.2-0.2-0.3-0.3-0.5-0.4c-0.4-0.1-0.6,0-0.8,0.3
	c-0.2,0.2-0.4,0.4-0.5,0.6c-0.1,0.1-0.2,0.2-0.2,0.2c-0.3-0.1-0.5-0.5-0.9-0.3c-0.2,0.2-0.4,0.4-0.6,0.6c-0.2,0.2-0.2,0.5-0.5,0.7
	c-0.3-0.1-0.5-0.3-0.8-0.4C24.2,2.8,24,3,23.9,3.3c-0.1,0.2-0.2,0.5-0.5,0.7c-0.2,0-0.4,0-0.5,0c-0.3,0.2-0.5,0.4-0.5,0.7
	c-0.1,0.3-0.3,0.5-0.5,0.5c-0.2,0-0.3,0.2-0.4,0.4c-0.1,0.1-0.1,0.2-0.2,0.3C21.1,6,21,6.1,20.9,6.1c-0.4,0.1-0.6,0.4-0.7,0.8
	c0,0.2-0.1,0.3-0.3,0.4c-0.4,0.1-0.6,0.3-0.7,0.7c-0.1,0.3-0.3,0.5-0.6,0.6C18.3,8.8,18.1,9,18,9.4c0,0.1-0.1,0.3-0.1,0.4
	c-0.3,0.1-0.6,0.2-0.8,0.3c-0.2,0.2-0.3,0.5-0.4,0.8c-0.2,0.1-0.4,0.2-0.6,0.3c-0.2,0.3-0.3,0.6-0.3,1c-0.1,0.1-0.3,0.2-0.4,0.3
	c-0.4,0.2-0.5,0.5-0.6,0.9c0,0.1,0,0.2,0,0.4c-0.2,0.2-0.4,0.3-0.7,0.5c0,0.1-0.1,0.2-0.1,0.3c0,0.3,0,0.5,0,0.9
	c-0.1,0.1-0.3,0.2-0.5,0.3c-0.2,0.1-0.3,0.3-0.4,0.4c-0.1,0.3,0.1,0.8,0.3,1c0.1,0.1,0.1,0.1,0.2,0.2c-0.2,0.1-0.3,0.2-0.5,0.3
	c-0.6,0.3-0.7,0.9-0.2,1.4c0.2,0.2,0.4,0.3,0.7,0.4c0.1,0,0.2,0.1,0.4,0.2c-0.4,0.2-0.7,0.4-0.9,0.5c-0.1,0.2-0.2,0.4-0.3,0.6
	c-0.1,0-0.2,0-0.3-0.1c-0.5-0.2-1.1-0.4-1.6-0.6c-1.3-0.4-2.5-0.7-3.8-0.9c-0.5-0.1-1-0.1-1.5-0.3c-0.8-0.4-1.7-0.8-2.5-1.3
	c-0.3-0.2-0.7-0.4-1.1-0.5c-0.7-0.2-1.5,0.2-1.7,0.9c-0.2,0.6-0.4,1.3-0.2,2c0.1,0.7,0.5,1.2,0.9,1.8c0,0.1,0.1,0.1,0.2,0.1
	c0.3,0.1,0.5,0.3,0.8,0.4c0.9,0.4,1.7,0.7,2.7,1c0.7,0.2,1.2,0.6,1.7,1.1c0,0.1,0,0.3,0,0.4c0,0.2,0,0.3,0.2,0.4c0.1,0,0.3,0,0.5,0
	c0.2,0.2,0.5,0.5,0.7,0.7c0,0.3-0.2,0.3-0.4,0.3c-0.3-0.1-0.6-0.2-0.9-0.3c-0.1,0-0.1,0-0.2,0C6,25.9,6,26,5.9,26.1
	c-0.2-0.1-0.5-0.1-0.7-0.2c-0.2-0.1-0.4-0.2-0.6-0.2c-0.2,0-0.2-0.4-0.6-0.3c0,0.1,0,0.3,0,0.4c0.2,0.2,0.4,0.4,0.6,0.6
	c0.2,0.2,0.5,0.3,0.7,0.4c0.2,0.1,0.5,0.2,0.8,0.5c-0.3,0.2-0.5,0.3-0.7,0.4c-0.2,0-0.3-0.1-0.5-0.1c-0.1,0.1-0.1,0.2-0.1,0.3
	c-0.1,0-0.2,0-0.4,0.1c0,0.4,0.3,0.5,0.5,0.6c0.2,0.1,0.5,0.1,0.7,0c0.5-0.2,0.9-0.5,1.4-0.7c0.4-0.2,0.8-0.4,1.3-0.6
	c0.3-0.1,0.5-0.1,0.8,0.1c0.3,0.2,0.5,0.5,0.8,0.7c0.6,0.6,1.2,1.1,1.8,1.7c0.2,0.2,0.4,0.3,0.6,0.4c0.4,0.3,0.8,0.7,1.2,1
	c0.7,0.5,1.3,0.9,2,1.4c0.5,0.4,1.1,0.7,1.6,1c0.6,0.3,1.2,0.6,1.8,0.9c1.2,0.6,2.5,1.1,3.8,1.5c0.3,0.1,0.7,0.2,1,0.2
	c0.7,0.1,5.9,3.8,6.2,3.9c0.1,0.1,0.2,0.1,0.4,0.2c0.6,0.3,1.2,0.6,1.9,0.9c0.4,0.2,0.7,0.5,0.9,0.8c0.5,0.7,0.9,1.4,1.4,2.1
	c0.6,0.8,1.2,1.6,1.8,2.4c0.4,0.6,0.9,1.1,1.4,1.7c0.1,0.1,0.2,0.1,0.3,0.1C38.1,48.3,38.2,48.1,38.1,48z M32.4,38
	c-0.7,0.5-2.6-2-1.9-2.5c0.7-0.5,1.7-0.4,2.2,0.3C33.2,36.5,33.1,37.5,32.4,38z"/>
</svg>
