<?xml version="1.0" encoding="utf-8"?>
<!-- Generator: Adobe Illustrator 28.3.0, SVG Export Plug-In . SVG Version: 6.00 Build 0)  -->
<svg version="1.1" id="Layer_1" xmlns="http://www.w3.org/2000/svg" xmlns:xlink="http://www.w3.org/1999/xlink" x="0px" y="0px"
	 width="88.5px" height="119.2px" viewBox="0 0 88.5 119.2" style="enable-background:new 0 0 88.5 119.2;" xml:space="preserve">
<style type="text/css">
	.st0{fill-rule:evenodd;clip-rule:evenodd;}
	.st1{fill:#B25959;}
</style>
<path d="M0,118.6c0.5,0.2,1.1,0.6,1.6,0.6c5,0,10,0.1,15-0.1c3.3-0.1,6.6-0.4,9.8-1c2.7-0.5,5.3-1.4,8.2-1.6c1.9-0.1,3.9-1.1,5.6-2
	c5.6-3.1,11.2-6.2,16.1-10.2c2.8-2.3,3.4-4.4,2.5-7.9c-0.2-0.6-0.1-1.6,0.2-1.9c0.4-0.4,1.5-0.5,2-0.3c1.3,0.6,2.7,1.4,3.8,2.4
	c1.2,1.1,2.6,1.7,4.1,2.4c3.5,1.6,7,1.4,10.6,0.5c0.8-0.2,1.6-0.8,2.4-1.3c0.5-0.3,1-0.6,1.6-0.8c0.6-0.2,1.3-0.5,2-0.5
	c0.5,0,1.1,0.3,1.8,0.5c-0.4,0.5-0.5,0.8-0.7,1c0.1,0.1,0.2,0.2,0.3,0.2c0.5-0.6,1.1-1.1,1.4-1.7c0.7-1.7,0.1-3.3-1.6-4.7
	c0.3-2.1-1.2-2.8-2.7-3.8c-2.4-1.6-5.4-2.4-6.5-5.6c-0.4-1-1.6-1.8-2.3-2.7c-4-5.5-3.9-6.9,0.1-11.5c2.3-2.7,5.4-4.8,8.3-7
	c2-1.5,3.1-3.1,3.5-5.6c1.2-6.5,1.2-13,0.8-19.5c-0.1-1.5-0.5-3.1-1.1-4.6c-1.3-3.3-1.7-6.8-1.8-10.3c-0.1-2.1,0.1-4.2,0.1-6.4
	c-0.1-1.7-0.4-3.4-0.5-5.1c-0.1-3-0.2-6-0.3-9c0-0.4-0.2-0.8-0.3-1.3c-0.2,0-0.3,0-0.5,0c-0.1,0.8-0.2,1.6-0.4,2.7
	c-0.1-0.8-0.2-1.3-0.2-1.8c-0.1-0.1-0.2-0.2-0.3-0.2c-0.3,0.3-0.7,0.7-0.8,1c-0.2,1.2-0.3,2.3-0.5,3.5c-0.9-0.2-1.1,0-1.2,1
	c-0.5,0.8-0.8,1.1-0.9,1.6c-0.6,2.3-1.1,4.6-1.6,6.9c-0.2,0.9-0.4,1.9-0.5,2.4c-0.6,1.3-1,2.2-1.5,3.2c-0.1,0-0.3,0-0.8,0.1
	c0,1,0.1,1.9,0.1,2.8c0,0-0.1,0-0.1,0c0,1,0,2.1,0,3.2c-0.3,0-0.5-0.1-0.8-0.1c-1,1.1-1,2.5-0.9,3.9c-0.1,0.7-0.2,1.5-0.3,1.9
	c-1.3,2.3-1.8,4.5-1.9,6.9c-1,2.1-0.5,4.4-0.2,6.7c-0.5-0.6-1-1.1-1.6-1.8c-0.3,0.4-0.5,0.6-0.7,0.9c-0.6,1.1-0.8,2.6-2.4,3
	c-0.2,0.1-0.3,0.5-0.6,0.6c-0.4,0.5-0.9,0.9-1.3,1.4c0.1,0.1,0.1,0.1,0.2,0.2c0,0,0,0.1-0.1,0.1c-4.8,1.4-7.8,5.2-11.2,8.5
	c-2.8,2.6-5.2,5.7-8.9,7.3c-1.5,0.7-2.5,1.9-3.2,3.4c-0.4,0.7-1.2,1.3-1.9,1.8c-0.7,0.4-1.5,0.5-2.3,0.7c-1.5,0.4-2.7,0.1-3.8-1
	c-1.1-1.1-2.1-2.2-3.4-3.1c-0.8-0.6-1.9-0.9-2.7-1.3c-0.3,0.4-0.5,0.6-0.6,0.7c0-0.1,0-0.2,0-0.4c-1.5,0.2-3.1,0.3-4.6,0.5
	c0,0.1,0,0.3,0,0.4c-1.1-0.1-2.2-0.3-3.2-0.3c-0.4,0-0.9,0.3-1.3,0.6c-0.8,0.5-1.5,1.1-2.3,1.7c-0.3,0.2-0.7,0.4-1.2,0.6
	c0.3,0.4,0.4,0.7,0.6,0.9c-0.9,0.4-2,0.5-2.5,1.2c-0.5,0.6-0.2,1.7-0.3,2.6c0.1,0,0.3,0.1,0.4,0.1c-0.8,1.1-0.2,1.4,0.8,1.6
	c0,0.2,0,0.5,0.1,0.7c0.7,0.8,1.5,1.6,2.1,2.5c0.4,0.5,0.2,1.4,0.6,1.9c0.8,1.2,1.7,2.3,2.5,3.4c0.5,0.6,1,1.2,1.5,1.7
	c1.2-0.2,2.1-0.4,3.2-0.6c-0.1,0.5-0.2,1-0.4,1.9c0.7-0.3,1.2-0.6,1.7-0.7c0.7-0.2,1.5-0.3,2.3-0.4c1.8-0.3,3.5-0.5,5.3-0.9
	c1.2-0.3,2.3-0.9,3.5-1c0.5-0.1,1.2,0.5,1.6,0.9c0.2,0.3,0,0.9-0.1,1.4c0,0.4-0.1,0.9-0.1,1.4c-0.4,1-0.9,2-1.4,3.1
	c-0.4,0.8-0.8,1.7-1.3,2.5c-0.7,1.3-1.5,2.6-2.3,3.8c-0.5,0.7-1.3,1.1-1.9,1.7c-0.3,0.3-0.6,0.6-0.8,0.8c-0.8,0.9-1.4,1.9-2.4,2.6
	c-2.8,2-5.7,3.9-8.5,5.8c-1.3,0.8-2.6,1.6-3.9,2.3c-0.1,0.1-0.2,0.2-0.4,0.2c-1.8,0-3.4,0.6-4.9,1.5c-1.3,0.8-3,0.8-3.7,2.5
	c-0.6,1.3-1.7,2.3-3.3,2.2c-0.6,0-1.1,0.3-1.7,0.5C0,118.2,0,118.4,0,118.6z M79.8,92.8c0-0.8,3.1-0.7,3,0.1c0,0.8-0.7,1.5-1.6,1.5
	C80.4,94.4,79.7,93.7,79.8,92.8z"/>
</svg>
