<svg version="1.1" id="Layer_1" xmlns="http://www.w3.org/2000/svg" xmlns:xlink="http://www.w3.org/1999/xlink" x="0px" y="0px"
	 width="100%" viewBox="0 0 1024 816" enable-background="new 0 0 1024 816" xml:space="preserve">
<path fill="#000000" opacity="1.000000" stroke="none" 
	d="
M421.680847,383.665497 
	C418.762360,381.170319 418.723663,378.206238 419.155457,375.156006 
	C419.389618,373.501831 419.863525,372.088715 417.823608,370.921600 
	C410.714172,366.853973 410.737335,366.688416 413.477356,358.875000 
	C413.694366,358.256104 413.826508,357.607361 413.981018,357.035736 
	C407.963196,351.324066 407.948425,351.317993 411.399200,342.916412 
	C411.854004,341.809174 412.455292,340.736694 411.671173,339.622986 
	C407.673492,333.945129 410.071869,329.266541 414.309143,324.706451 
	C412.137634,322.748291 410.890656,320.530457 412.201385,317.221619 
	C402.974091,317.411896 394.542358,319.296967 386.082581,320.715973 
	C373.114960,322.891235 360.218964,325.490814 347.265381,327.754578 
	C344.336914,328.266357 341.295441,328.282623 338.308136,328.258636 
	C335.956635,328.239777 333.682190,327.681000 332.653320,325.194214 
	C333.128174,322.804504 336.087952,322.991180 336.785583,320.562714 
	C335.420929,318.821625 333.296661,319.427734 331.469025,319.374695 
	C328.457642,319.287292 325.435669,319.284393 322.618103,318.105286 
	C319.557220,316.824310 319.100220,315.187347 322.884552,313.050476 
	C317.898193,312.210510 314.017578,310.455902 311.470398,306.313019 
	C307.785950,300.320312 308.254211,299.091461 315.465027,298.396667 
	C314.143799,294.419861 316.754639,293.944733 319.623169,294.124603 
	C354.592194,296.317291 389.590118,293.804382 425.821411,295.015686 
	C422.846100,293.835205 420.604004,294.156281 418.217163,291.757355 
	C442.139496,288.806366 465.355164,288.354767 488.603943,288.744232 
	C512.090637,289.137634 535.342224,291.576416 558.169739,297.530457 
	C554.973328,295.199799 550.592834,295.251434 547.897034,292.409943 
	C548.001770,291.117706 548.746704,290.975128 549.370789,291.047699 
	C566.872070,293.081268 584.299316,290.630585 601.760620,290.255859 
	C610.426208,290.069855 619.068970,290.427612 627.462585,293.078857 
	C635.832031,295.722473 642.855103,300.326691 647.983643,307.439606 
	C650.087280,310.357178 652.666992,311.814056 655.981750,312.834869 
	C675.491760,318.843109 694.043823,327.023499 711.414429,337.804718 
	C713.446350,339.065826 713.455383,339.051239 715.156860,341.492554 
	C713.165466,342.473297 711.642517,341.096497 710.034912,340.478027 
	C693.374084,334.067657 676.444336,328.625031 658.765564,325.738007 
	C655.198975,325.155548 652.131958,325.532928 648.752930,327.245056 
	C631.750366,335.860352 613.924988,342.264343 595.241333,346.243591 
	C591.490417,347.042450 589.054626,346.497681 587.149231,342.751892 
	C584.373901,337.296204 580.320740,332.730774 575.342773,329.007782 
	C585.559631,340.915009 590.653381,355.430969 595.910400,369.725159 
	C601.907043,386.030487 611.165649,400.390930 620.627502,414.719025 
	C622.918762,418.188568 624.995117,421.812378 626.966980,425.474731 
	C627.818787,427.056824 628.943970,429.103638 628.586060,430.618195 
	C627.110840,436.859863 631.273804,440.976715 633.770203,445.652191 
	C640.063538,457.438995 646.268738,469.233398 647.851685,482.778748 
	C648.178833,485.578278 648.196106,488.422546 648.208191,491.246857 
	C648.214661,492.772369 647.805969,494.300507 646.188782,494.959717 
	C644.553162,495.626404 643.286072,494.667542 642.133606,493.685211 
	C638.806580,490.849274 636.675110,487.024963 633.223694,482.521088 
	C636.077637,492.063354 638.739197,500.317810 639.808228,508.938568 
	C640.326416,513.117676 641.186768,518.119629 636.736572,520.100525 
	C632.107056,522.161316 629.771301,517.373779 627.445251,514.323425 
	C620.629944,505.385986 616.393005,495.044434 611.389587,484.915894 
	C611.968872,488.686584 612.538025,492.458893 613.129578,496.227661 
	C614.583984,505.493561 614.501831,514.820984 614.164307,524.148438 
	C614.069397,526.772888 614.127258,529.886719 611.070679,530.941711 
	C608.097046,531.968079 605.994446,529.666260 604.233582,527.740967 
	C596.013794,518.753601 593.225098,507.410583 590.798767,495.946442 
	C590.462952,494.359924 590.666260,492.643616 589.341492,490.863312 
	C589.279114,500.167480 589.560669,509.097168 588.309692,517.969910 
	C587.770325,521.795593 587.131409,525.571777 585.218140,528.952209 
	C582.936951,532.982544 579.765503,533.197510 576.961853,529.508667 
	C574.296936,526.002502 573.116760,521.776062 571.749329,517.671814 
	C568.577026,508.150482 567.040710,498.287964 565.714844,487.360687 
	C563.584351,498.116699 561.588989,507.906830 557.737732,517.178955 
	C557.162842,518.562988 556.640808,519.983521 555.915833,521.288025 
	C553.155273,526.255127 549.475098,526.378906 546.542114,521.451904 
	C541.721130,513.353516 540.429504,504.267609 539.780640,495.088562 
	C539.500977,491.133209 539.733765,487.141602 539.733765,481.952209 
	C535.606079,490.248169 532.079956,497.513214 528.375549,504.686218 
	C527.031677,507.288391 525.886719,510.928467 522.543823,510.923553 
	C518.778015,510.917999 518.011963,506.938568 516.817139,504.126099 
	C512.517090,494.004333 511.412323,483.256042 511.177856,471.126282 
	C508.148285,475.517090 505.946991,479.097717 503.357880,482.371643 
	C499.107422,487.746216 496.213623,487.321777 493.227814,481.062500 
	C489.150085,472.514282 490.510651,463.498230 491.203552,454.014130 
	C487.651550,457.064178 484.553375,459.986359 481.185333,462.554626 
	C476.266785,466.305267 473.562439,465.138153 472.193756,458.994843 
	C471.222290,454.634460 472.108429,450.388580 472.816711,446.112793 
	C473.077423,444.539032 474.213806,443.001190 472.950836,440.871124 
	C470.491272,442.515533 468.145416,444.280090 465.618164,445.728058 
	C461.733398,447.953888 460.313049,447.225739 459.514923,442.845367 
	C458.568359,437.650330 459.803986,432.598511 460.505157,427.500305 
	C460.746948,425.742188 461.865173,424.071716 461.130981,421.892761 
	C457.832977,422.225372 455.619690,424.740295 452.819794,425.948059 
	C447.424957,428.275208 444.824829,426.481934 445.440826,420.576813 
	C445.629211,418.770752 446.277374,417.017395 446.576294,415.216858 
	C446.868896,413.454559 448.209076,411.922607 447.680786,409.569153 
	C444.748688,410.977020 442.015076,412.480804 439.138245,413.624268 
	C435.246490,415.171265 433.789490,413.920074 434.448730,409.821808 
	C435.116882,405.668335 437.124237,401.984192 439.107300,397.304840 
	C436.409058,397.998688 434.313354,398.600555 432.188477,399.070282 
	C428.337799,399.921478 426.525482,398.401581 426.649323,394.381073 
	C426.754517,390.967102 428.362854,387.984741 429.246429,384.345459 
	C426.814758,383.751404 424.274750,384.987579 421.680847,383.665497 
z"/>
</svg>