<?xml version="1.0" standalone="no"?>
<!DOCTYPE svg PUBLIC "-//W3C//DTD SVG 20010904//EN"
 "http://www.w3.org/TR/2001/REC-SVG-20010904/DTD/svg10.dtd">
<svg version="1.0" xmlns="http://www.w3.org/2000/svg"
 width="1536.000000pt" height="973.000000pt" viewBox="0 0 1536.000000 973.000000"
 preserveAspectRatio="xMidYMid meet">
<metadata>
Created by potrace 1.16, written by Peter Selinger 2001-2019
</metadata>
<g transform="translate(0.000000,973.000000) scale(0.100000,-0.100000)"
fill="#000000" stroke="none">
<path d="M2300 9719 c0 -2 40 -122 89 -265 85 -249 96 -274 246 -560 135 -256
180 -331 314 -523 153 -219 160 -227 346 -405 105 -100 221 -203 258 -230 37
-26 67 -50 67 -53 0 -5 -154 75 -467 245 l-203 109 -257 234 c-325 294 -590
559 -913 909 -139 151 -266 289 -282 305 l-29 30 11 -29 c19 -52 328 -658 416
-816 l86 -155 236 -202 c343 -294 648 -524 839 -633 48 -27 84 -50 80 -50 -3
0 -121 34 -262 74 l-256 75 -362 192 c-456 242 -485 259 -1045 632 -255 169
-460 301 -455 293 4 -8 111 -138 236 -289 220 -265 234 -281 413 -431 146
-123 228 -184 397 -289 338 -213 341 -215 692 -339 358 -126 347 -117 145
-133 -84 -7 -88 -6 -385 74 -363 97 -447 123 -825 256 -235 83 -360 134 -615
253 -262 123 -340 155 -429 176 -126 30 -138 31 -110 8 12 -9 128 -104 259
-210 l236 -194 340 -195 339 -195 208 -49 c114 -27 328 -70 477 -95 148 -25
275 -49 283 -53 9 -5 -21 -21 -88 -46 l-102 -38 -161 6 c-1030 41 -1392 79
-2037 212 -40 9 27 -27 385 -203 l330 -162 300 -39 c165 -22 343 -45 395 -51
78 -8 660 -48 750 -51 23 0 23 -1 5 -9 -26 -12 -334 -84 -445 -104 -47 -9
-220 -34 -385 -57 l-300 -41 -400 -1 c-275 -1 -406 -6 -419 -13 -22 -13 -38
-6 164 -68 333 -101 438 -127 664 -166 132 -22 242 -42 244 -44 5 -5 -38 -17
-367 -106 -207 -56 -268 -76 -250 -82 13 -4 146 -23 294 -43 149 -19 279 -37
290 -40 14 -3 27 -21 39 -56 19 -51 19 -52 0 -66 -10 -8 -110 -60 -221 -116
-112 -56 -203 -104 -203 -107 0 -3 57 -25 128 -49 70 -24 130 -47 134 -50 4
-4 -6 -62 -24 -129 -17 -67 -29 -124 -27 -126 2 -2 126 -9 274 -16 149 -6 286
-15 306 -18 l36 -7 -144 -164 c-116 -133 -141 -166 -128 -173 8 -5 81 -29 161
-52 80 -24 149 -48 154 -52 4 -5 17 -54 29 -109 12 -54 23 -100 24 -101 1 -1
56 -14 122 -28 109 -25 184 -45 186 -49 0 -1 8 -51 17 -112 l17 -110 137 -50
c76 -27 141 -54 147 -60 5 -5 26 -49 46 -98 21 -48 40 -89 44 -91 3 -2 69 -9
146 -16 77 -6 150 -15 162 -20 16 -7 44 -52 90 -145 l68 -135 157 0 157 0 103
-66 103 -65 151 6 150 7 140 -65 139 -65 120 15 c91 11 164 13 303 8 101 -4
180 -11 175 -15 -20 -17 -663 -324 -815 -389 -423 -178 -628 -256 -1244 -471
-401 -140 -525 -187 -1001 -377 l-393 -156 0 -131 0 -131 99 -53 c55 -29 134
-61 177 -72 42 -11 78 -21 79 -23 1 -1 9 -63 19 -137 10 -74 22 -144 26 -155
6 -15 51 -36 181 -83 144 -52 185 -62 237 -62 l62 0 0 -142 1 -143 107 -120
108 -120 99 -17 c55 -9 183 -22 285 -28 l185 -12 35 -41 c19 -23 58 -67 86
-97 l52 -54 138 21 139 22 217 -115 217 -115 183 7 183 6 64 -66 63 -66 67 -2
c36 -1 125 -2 196 -3 l130 0 7 -84 c4 -46 8 -85 10 -86 2 -2 147 103 324 233
l320 236 92 205 91 206 55 265 c46 224 72 323 171 635 l118 370 -23 64 -23 65
52 48 53 48 21 176 21 176 44 19 c94 41 216 79 269 86 55 6 56 6 50 -18 -16
-71 -29 -169 -24 -183 3 -8 67 -60 141 -115 l134 -99 96 -10 c53 -5 99 -11
101 -14 2 -2 11 -48 19 -103 8 -54 19 -101 23 -105 4 -4 62 -28 128 -54 l120
-46 137 27 c76 15 141 24 144 20 4 -3 9 -56 12 -117 6 -127 11 -139 103 -206
l50 -36 137 46 c75 25 140 46 144 46 4 0 29 -36 54 -80 26 -45 50 -82 53 -85
4 -2 90 -15 191 -30 177 -25 189 -28 269 -71 75 -40 95 -46 199 -58 l116 -15
169 64 c93 36 175 61 181 57 7 -4 43 -29 80 -56 l68 -49 141 22 c78 12 156 24
173 27 29 5 32 2 84 -83 29 -48 55 -90 56 -92 2 -1 69 -7 151 -12 l148 -9 100
100 100 99 120 -71 c100 -59 140 -76 246 -105 l126 -34 60 63 c33 35 107 114
163 176 63 68 109 111 117 107 8 -2 99 -66 202 -140 l189 -136 144 42 145 42
159 -110 c87 -61 185 -127 217 -148 l57 -38 68 20 67 19 -3 59 c-10 196 -35
425 -53 475 -11 30 -23 63 -26 73 -5 15 152 -93 896 -620 57 -40 106 -72 108
-69 2 2 -35 95 -82 207 -157 369 -402 1006 -391 1017 5 5 243 -178 346 -267
36 -30 153 -141 260 -247 l195 -192 227 -130 c214 -123 234 -133 338 -157 60
-15 114 -25 120 -23 5 1 -34 78 -88 170 -93 160 -111 184 -450 583 -194 230
-351 419 -349 421 3 3 150 -52 328 -122 178 -69 394 -153 479 -186 l155 -59
305 -40 c167 -22 310 -38 318 -37 7 2 -117 75 -275 162 -326 180 -570 325
-818 485 -179 115 -368 251 -361 259 3 2 89 -24 193 -59 159 -53 251 -75 593
-144 l404 -82 133 60 c73 34 133 64 133 67 0 4 -150 44 -332 90 -230 57 -393
104 -528 152 -107 38 -214 76 -237 85 -24 8 -43 18 -43 23 0 4 18 20 40 35
l40 28 168 -8 c92 -4 255 -12 362 -18 187 -12 206 -11 474 16 l278 29 134 66
c74 36 132 67 130 69 -1 2 -77 -8 -167 -22 -392 -59 -454 -66 -519 -60 -36 3
-216 22 -400 41 l-335 35 -159 62 c-87 33 -155 62 -150 63 5 2 92 8 194 14
215 12 504 42 675 70 183 29 447 89 475 107 37 24 352 305 347 309 -2 3 -164
-73 -360 -167 l-356 -171 -546 -21 -546 -21 -46 47 c-33 32 -43 47 -32 51 8 2
235 25 504 51 l490 48 167 100 c92 55 166 102 165 103 -2 2 -70 -14 -153 -36
-180 -48 -296 -71 -791 -154 l-382 -65 -234 78 -233 78 -515 77 c-476 72 -538
84 -829 156 -358 90 -676 163 -928 215 -96 20 -231 55 -300 79 -408 140 -1391
492 -1400 500 -8 9 19 40 199 228 l186 193 317 224 c278 197 337 244 479 379
89 85 239 218 332 297 94 78 247 214 340 303 169 161 171 163 358 268 103 59
204 110 225 114 20 4 148 16 283 25 l245 18 90 -32 c49 -18 145 -53 213 -77
l124 -44 -7 132 -7 133 -177 177 -176 177 -273 141 -274 140 -130 0 -130 0
-150 86 c-129 74 -171 93 -295 130 l-144 43 -193 -21 -192 -22 -249 -155 -249
-156 -146 -195 c-132 -178 -152 -210 -224 -365 -120 -258 -151 -336 -136 -345
6 -5 38 -13 70 -19 33 -7 59 -15 59 -19 0 -4 -81 -88 -180 -187 l-180 -180
-56 -210 c-43 -162 -60 -214 -77 -227 -61 -48 -374 -191 -537 -246 l-175 -60
-350 58 c-281 46 -416 74 -685 143 l-335 84 -232 131 c-260 147 -677 376 -916
503 l-159 84 -134 191 -134 192 -238 174 c-130 96 -249 182 -264 192 -15 10
-58 66 -96 124 -38 59 -221 343 -407 632 -186 289 -342 530 -347 535 -13 14
58 -186 91 -260 23 -49 422 -776 520 -945 l26 -45 -40 32 c-87 69 -168 166
-295 353 -73 107 -210 303 -304 434 -145 204 -198 268 -349 426 l-178 187
-117 46 c-213 84 -228 89 -212 74 8 -8 75 -60 148 -117 73 -56 143 -116 156
-134 54 -71 237 -364 343 -550 105 -184 125 -211 275 -385 213 -246 200 -229
163 -204 -153 104 -279 201 -326 250 -88 92 -725 849 -860 1023 -108 138 -273
370 -427 600 -154 228 -152 226 -152 219z"/>
</g>
</svg>
