<svg version="1.1" id="Layer_1" xmlns="http://www.w3.org/2000/svg" xmlns:xlink="http://www.w3.org/1999/xlink" x="0px" y="0px" style="enable-background:new 0 0 108 108;" xml:space="preserve" viewBox="9.58 21.39 88.64 65.11"> <g> 	<g> 		<g> 			<g> 				<path class="st0" d="M97.8,22.1c0,0-9.7,1.1-15.9,4.1c-1.4,0.8-2.6,2-3.4,3.3c-0.8,1.3-2.9,6.6-5.5,9.5c0,0-1.2,1.2-2.5,7.8 					c-1.3,6.6-5.6,10.8-9.3,14.4c0.2,0,0.4,0.2,0.2,0.7c-0.2,0.5-1.5,2.7-4.3,2.1C57,64.4,56,64.3,56,64.3s-0.4,0.7-1.2,2 					c-2.1,2.8-4.7,4.1-5.6,4.4c-0.3,0.4-7.4,12.9-9,15.8c-0.1-0.2,1.6-4.8,3.6-8.9c-1.8,2.8-4.6,8.3-4.6,8.3s3.5-9.5,6.4-16.1 					c0.7-2,1.8-7,2.1-9c0.3-2,1.1-5.2,2.3-7.5c0,0-1.1,0.2-1.8-0.9c-0.7-0.1-1.1-0.5-1.3-0.8c-0.7,0-1.1,0-1.7-1.2 					c-1.1-0.1-1.7-0.4-2-1.4c-1.3-0.1-2-0.4-2.2-0.9c-1.9-0.5-26.8-13-30.2-16.3c-1.3-0.7-1.7-1-0.5-1.5c1.3-0.5,4.4-1.3,12.6-0.6 					c0.1-1,0.4-2.1,3.3-2.9c2.9-0.8,20.1,0.8,33.6,10.8c0.8-1.3,2.4-2.9,3.3-4c0.8-1.1,0.6-5.1,4.4-8c3.7-3,8.4-1.9,11.8-1 					c0.8,0.2,1.1,0.4,2.2-0.1c0.9-0.4,12.9-4,16.5-2.9C98.4,21.8,98.2,22.1,97.8,22.1z"></path> 			</g> 		</g> 	</g> </g> </svg>
