<?xml version="1.0" encoding="utf-8"?>
<!-- Generator: Adobe Illustrator 28.3.0, SVG Export Plug-In . SVG Version: 6.00 Build 0)  -->
<svg version="1.1" id="Layer_1" xmlns="http://www.w3.org/2000/svg" xmlns:xlink="http://www.w3.org/1999/xlink" x="0px" y="0px"
	 width="78.8px" height="74.1px" viewBox="0 0 78.8 74.1" style="enable-background:new 0 0 78.8 74.1;" xml:space="preserve">
<style type="text/css">
	.st0{fill-rule:evenodd;clip-rule:evenodd;}
	.st1{fill:#B25959;}
</style>
<g>
	<path d="M72.5,36.6L72.5,36.6l-0.7-0.2c-0.3-0.2-0.6-0.3-0.9-0.4c-1,0.8-1.7,0.7-2.2-0.5c0-0.4,0.2-0.4,0.2-0.4
		c1.1-0.7,1.4-0.4,2.2,0.7c0.2,0,0.5-0.1,0.7-0.1l0,0l1.9-0.1l0,0c0.2,0,0.4-0.1,0.6-0.2c-0.4-2.7-9.5-5-12.3-3.1
		c0.8,0.2,1.5,0.4,2.5,0.6c-0.8,0.4-1.4,0.7-1.9,1c0,0.1,0,0.2,0,0.3c0.7,0,1.4,0,2.1,0l-0.3,0.1c-2.9,0.2-4.1,0.6-4.1-0.4
		c0-0.5,0-1,0-1.6c0-1.6-0.4-3.3,0-4.8c0.5-2,1.6-3.8,2.5-5.7c0.1-0.2,0.2-0.5,0.3-0.7c-0.1-0.1-0.2-0.1-0.3-0.2
		c-1.6,0.9-1.9,2.7-2.7,4.1c0.2-1.6,0.4-3.2,0.9-4.7c0.5-1.7,1.3-3.3,1.9-5c0.1-0.2,0-0.5,0-0.8c-0.3,0-0.6,0-0.8,0.2
		c-0.3,0.2-0.5,0.4-0.7,0.7c-0.5,1-1,2.1-1.4,3.1c-0.4,1-0.5,2.1-0.8,3.2c0-0.8,0-1.6,0.2-2.4c0.6-2.4,1.2-4.8,1.8-7.1
		c0.1-0.4-0.1-0.8-0.1-1.2c-0.4,0.1-0.8,0.2-1.2,0.4c-0.2,0.1-0.4,0.3-0.5,0.6c-0.6,1.4-1.4,2.8-1.6,4.3c-0.3,2-0.3,4-0.4,6
		c-2.4-4.8-3.2-9.7-1.2-14.9c0.2-0.4,0-0.9-0.1-1.4c-0.4,0.2-0.9,0.4-1.3,0.6c-0.1,0-0.1,0.2-0.2,0.3c-2.3,3.6-2.9,7.3-1.3,11.4
		c0.3,0.8,0.7,1.5,1,2.3c-1.4-1.7-2.7-3.4-3.9-5.1c-1.2-1.8-2-3.9-2-6c0-2.1,0.3-4.2,0.4-6.4c-0.4,0.2-0.8,0.3-1,0.5
		c-0.5,0.7-1.2,1.5-1.4,2.4c-1,3.7-0.4,7.2,1.6,10.4c0.2,0.3,0.4,0.7,0.6,1c-0.5-0.4-0.9-0.9-1.2-1.4c-1.8-2.5-2.7-5.4-3.5-8.4
		c-0.1-0.3-0.4-0.6-0.6-0.8c-0.2,0.3-0.6,0.5-0.6,0.8c-0.1,1.2-0.3,2.4-0.2,3.6c0.2,1.3,0.6,2.6,1,3.9c-0.1,0-0.2,0.1-0.3,0.1
		c-1-2.1-2-4.2-3.1-6.6c-0.3,0.4-0.6,0.7-0.6,1c-0.1,0.9-0.2,1.9,0,2.8c0.2,1.1,0.7,2.1,1.1,3.2c-1.5-1-2.4-2.5-3.1-4.1
		c-0.2-0.3-0.4-0.6-0.6-0.9c-1.5,0.9-1.1,3.2,1,6.7c-1.3-0.5-2.5-1.2-3.8-1.7c-0.4-0.2-1.3-0.4-1.4-0.2c-0.3,0.4-0.5,1.1-0.4,1.6
		c0.1,0.6,0.5,1.1,0.8,1.8c-0.6-0.3-1.1-0.6-1.7-0.7c-0.4-0.1-1.1-0.2-1.2,0c-0.3,0.3-0.4,1-0.2,1.3c0.3,0.8,0.9,1.4,1.2,1.9
		c-0.6,0.1-1.8-0.1-2,0.4c-0.7,1.2,0.4,2,0.9,2.8c-0.5,0.3-1.3,0.6-1.4,1c-0.3,1.2,0.6,1.8,1.3,2.3c-0.4,0.3-1.1,0.6-1.2,1
		c-0.2,1.3,0.8,1.9,1.8,2.4c-0.7,0.6-0.6,1.3-0.2,1.9c0.4,0.6,0.8,1.2,1.2,1.8c-0.2,0.3,0.1,0.9,0.6,1.3c0.7,0.5,1.4,0.9,2.2,1
		c1,0.2,2,0.2,3,0.3c-1.5,0.9-7.6,4.6-10.7,4.8c-5.2,0.4-7.1,1.4-12.3,1.6c-0.6,0-1.2,0.4-1.8,0.5c-1,0.1-2,0.2-2.9,0.3
		c-1.1,0.1-2.2,0.2-2.6,1.5c-0.5,0.1-1,0.2-1.5,0.2c-0.5,0.1-0.9,0.2-1.4,0.2c-1.6,0.2-1.7,0.4-2.1,1.8c-0.5,0.6-1.3,1.2-1.2,1.8
		c0.1,1.3,1.5,1,2.4,1.4c0.2,1.5,1.2,2.2,2.7,1.8c3.6-1,7.2-1.9,10.8-3c2.6-0.8,5.1-1.7,7.6-2.5c0,0,0,0.1,0,0.1
		c-0.9,0.5-1.9,0.9-2.9,1.4c1.3,0.1,2.5,0.2,3.6,0.3c0.1-0.6,0.3-1.1,0.4-1.6c0.2,0.6,0.4,1.1,0.7,1.6c-1,1.2-0.8,1.8,0.9,2.5
		c-0.4,1.5,0.1,1.9,2.6,2.2c0,1.5,0.5,1.9,3.1,2c0,1,0.7,1.5,1.5,1.7c0.8,0.2,1.6,0.2,2.5,0.2c0.2,1.7,0.2,1.7,3.3,1.9
		c0.8,1.7,2.3,1.1,3.4,1c0.1,0.4,0,1,0.2,1.2c1.4,1.2,2.9,0.5,4.3-0.1c-0.3,1.2,0.2,1.9,1.4,1.7c0.9-0.2,1.8-0.6,2.6-0.8
		c1.3,1.2,2.6-0.8,3.8,0c0.2-0.4,0.4-0.6,0.5-0.8c0.2,0.5,0.4,0.9,0.6,1.2c1-0.1,2.1-0.6,2.7-0.3c1.4,0.8,2.3-0.2,3.4-0.6
		c-1.2-1.2-1.7-2.5-1.5-4.1c0.3-2.9-0.1-5.7-1-8.5c-0.3-0.9-0.2-1.5,0-1.8l0,0c0.4-0.2,0.7-0.4,1-0.6c0.9-0.4,1.7-0.9,2.3-1.5
		c3.1-2.4,2.2-3.4,6.7-5.6l0,0c1.2-0.5,2.3-1.1,3.3-2.1c0.2-0.2,0.4-0.2,0.7-0.3c1.6-0.4,3.3-0.7,5-1.1
		C77.1,35.7,74.9,35.4,72.5,36.6z M57.5,22.4C57.6,22.4,57.5,22.4,57.5,22.4L57.5,22.4z"/>
	<path d="M65.6,63.9c0.1-0.2-0.3-0.8-0.5-0.8c-0.6-0.1-1.3,0-2,0.2c-0.7,0.2-1.4,0.6-2.1,1c-0.1,0.3-0.2,0.5-0.2,0.9
		C62.2,66.4,65.1,65.7,65.6,63.9z"/>
	<path d="M66.6,64.3c-1,0-1.4,0.7-1.9,1.3c1.9,1,4.4,0.1,4.7-1.9c-0.3,0-0.6,0.1-0.9,0.1C67.8,64,67.2,64.3,66.6,64.3z"/>
	<path d="M56.9,64.4c1,1.3,3,1.3,3.8,0.1C60.3,63.3,58,63.6,56.9,64.4z"/>
	<path d="M52,64.3c0.5,0.6,2.3,1.2,3.1,0.7c0.4-0.2,0.7-0.7,1-1c-0.5-0.1-1-0.4-1.4-0.3C53.7,63.8,52.8,64.1,52,64.3z"/>
</g>
</svg>
