<?xml version="1.0" encoding="utf-8"?>
<!-- Generator: Adobe Illustrator 28.3.0, SVG Export Plug-In . SVG Version: 6.00 Build 0)  -->
<svg version="1.1" id="Layer_1" xmlns="http://www.w3.org/2000/svg" xmlns:xlink="http://www.w3.org/1999/xlink" x="0px" y="0px"
	 width="164.9px" height="122.9px" viewBox="0 0 164.9 122.9" style="enable-background:new 0 0 164.9 122.9;" xml:space="preserve"
	>
<style type="text/css">
	.st0{fill-rule:evenodd;clip-rule:evenodd;}
	.st1{fill:#B25959;}
</style>
<path d="M1.1,120c2.5,0.8,4.5-0.5,6.8-0.6c-0.2,0.6-0.3,1.1-0.5,1.6c0.5,1,1.4,1.1,2.2,1c2.3-0.3,4.6-0.6,6.8-0.9
	c0.6-0.1,1.2-0.3,1.9-0.4c0,0.5-0.1,1-0.1,1.5c1.7,1.1,3.6,0.8,5.4,0.5c2.3-0.5,4.5-1.3,6.9-2c0.2,0.2,0.4,0.6,0.6,0.9
	c1.9,0.4,3.6,0,5.3-0.8c3.5-1.5,6.2-4,9.1-6.4c3.8-3.2,7.2-6.7,11.1-9.8c2.7-2.1,4.8-4.8,6.6-7.7c3.1-5,7.2-9.2,11.7-13
	c1.3-1.1,1.7-1,3.1-0.3c2.3,1.2,4.7,2.4,7.1,3.4c2.4,1,4.4,2.2,4.7,5c2-0.6,2.4-2.2,1.4-4.8c1.5-1.2,1.4-2.8,1.2-4.5
	c-0.4-2.8-1.2-5.5-1.1-8.4c0.1-1.5,0.4-2.7,1.5-3.6c1.3-1.2,2.7-2.4,4.1-3.4c5.2-3.5,10.7-6.6,16.5-9.1c1.9-0.8,3.8-1.6,5.7-2.3
	c4.4-1.6,8.3-4,12-6.8c3.3-2.5,6.7-4.7,10.1-7c6.2-4.3,11.7-9.4,15.9-15.7c0.4-0.7,0.8-1.4,1.2-2.3c-0.5-0.1-0.8-0.2-1.1-0.2
	c-0.3,0-0.6,0.1-1.3,0.1c0.6-0.8,0.9-1.3,1.3-1.7c2-2.8,4-5.5,5.9-8.3c0.6-0.9,1.3-1.9,1.2-3.2c-2.3,0.1-4.1,1.2-5.8,2.6
	c2.1-3.7,4.6-7.1,6.3-10.8c-0.3-0.8-0.8-0.9-1.3-0.7c-1.7,0.5-3.1,1.6-4.4,2.7c-1.1,1-2.1,2-3.3,3c1-2.4,2.8-4.5,3.6-7
	c-0.7-1.1-1.7-0.8-2.3-0.4c-1.4,0.8-2.8,1.6-4,2.7c-1.5,1.4-2.8,3.1-4.4,4.9c0.6-2.5,2.1-4.4,1.7-6.8c-1.2-0.4-2.1-0.1-2.8,0.6
	c-1.1,1-2.2,2.2-3.1,3.3c-1.1,1.3-2,2.8-3,4.4c-0.3-0.7-0.5-1.2-0.8-1.7c-3.3-0.8-4.7,2.2-6.9,3.6c-2-0.5-3.9-0.1-5.5,1.2
	c-0.2,0.2-0.5,0.3-0.8,0.4c-2,0.8-4,1.6-6,2.6c-0.6-0.1-1.2-0.3-1.9-0.4c-0.4,0.2-0.8,0.4-1.2,0.6c-1.5,0.7-3,1.3-4.6,2
	c-1.6,0.7-3.2,1.5-4.9,2.1c-0.7,0.3-1.5,0.7-2.2,0.7c-1.6-0.1-2.9,0.4-4,1.4c-1.2,0.1-2.4,0-3.5,0.4c-1,0.4-1.8,1.2-2.9,2.1
	c-1.7,0.4-3.4,1.5-5.6,1.3c-1.6-0.1-2.6,1.2-3.5,2.4c-0.3,0.1-0.7,0.1-0.9,0.3c-2,1.7-4.6,2.5-6.7,4c-0.4,0.3-0.8,0.4-1.2,0.6
	c-1.1,0.4-2.1,0.9-3,1.6c-1,0.8-2.3,1.1-3.4,1.7c-1,0.5-2,1.1-3,1.7c-0.7,0.4-1.5,0.7-2.2,1.1c-0.8,0.9-0.3,2.5-1.9,3.1
	c-0.3-0.4-0.6-0.7-0.9-1.1c-6.3-9.3-11-19.4-15.3-29.7c-0.7-1.8-1.5-3.5-2.4-5.3c-0.6-1.2-0.8-1.2-2.5-1c-0.2,0.5-0.4,1-0.5,1.5
	c-0.4,0.3-0.8,0.5-1.3,0.9c-0.2,1-0.5,2.1-0.8,3.2c-0.2,0.8-0.5,1.6-0.7,2.3c-0.3,0.8-0.5,1.6-0.8,2.3c-0.3,0.8-0.4,1.8-0.9,2.2
	c-1.6,1.4-2.2,3.1-2.4,5.2c-1.3,0.1-2.5,0.2-3.6,0.3c-0.7,0.4-1.3,0.8-2.1,1.2c-0.3,0.5-0.5,1.1-0.9,1.7c-1.4,0.8-2.9,1.5-3.4,3.2
	c-1.6,0.9-3.2,0.6-4.8,0.5c-2.5-0.1-5-0.3-7,1.9c-1.9,0.4-3.9,0.8-4.7,3.2c0.7,0.4,1.4,0.9,2.1,1.2c8.9,3,17.4,6.9,25.7,11.2
	c3.1,1.6,6.2,3.3,9.3,5c0.4,0.2,0.7,0.5,1.2,0.9c-1.5,2.1-3,4.2-4.5,6.2c-0.1,0-0.1-0.1-0.2-0.1c-0.7,0.8-1.3,1.7-2,2.4
	c-1,1-2,2.3-3.2,2.9c-1.9,1-2.9,2.2-2.8,4c-0.8,1.2-1.4,2-2,2.9c-1.5,1.2-3.4,1.9-3.1,3.9c-1.4,2.2-2.5,4-3.7,5.8
	c-0.3,0.5-0.6,0.9-0.9,1.4c-0.6,1.1-1.3,2.2-1.8,3.3c-1,1.4-2.8,2.4-2.5,4.6c-1.6,1.7-4.2,2.6-3.9,5.4c-1.2,1.3-2.8,2-3.3,3.8
	c0.1,0.6,0.3,1.3,0.5,2.2c-1.1,0.8-2.2,1.8-3.4,2.6c-1.3,0.9-2,2.1-1.9,3.9c-1.3,0.6-2.6,1.1-3.8,1.7c-1.4,0.8-2.7,1.7-4.1,2.6
	c-0.9,0.6-1.3,1.5-1.7,2.7c1.8,0.9,3.4-0.2,5.4-0.2C3.4,116.4,1.4,117.5,1.1,120z M84.3,83.7c0.4-0.7,2.8,0.8,2.4,1.5
	c-0.4,0.7-1.3,0.9-2,0.5C84.1,85.2,83.9,84.4,84.3,83.7z"/>
</svg>
