<?xml version="1.0" encoding="utf-8"?>
<!-- Generator: Adobe Illustrator 28.3.0, SVG Export Plug-In . SVG Version: 6.00 Build 0)  -->
<svg version="1.1" id="Layer_1" xmlns="http://www.w3.org/2000/svg" xmlns:xlink="http://www.w3.org/1999/xlink" x="0px" y="0px"
	 width="95.3px" height="85.5px" viewBox="0 0 95.3 85.5" style="enable-background:new 0 0 95.3 85.5;" xml:space="preserve">
<style type="text/css">
	.st0{fill-rule:evenodd;clip-rule:evenodd;}
	.st1{fill:#B25959;}
</style>
<path d="M95,81.3c-0.5-3.1-1.2-6.1-1.5-9.2c-1.3-12.3-4.4-24.3-7.7-36.2c-0.2-0.8-0.5-1.5-0.8-2.2c-1.2-3.2-3.2-5.7-6.3-7.4
	c-2.5-1.3-4.9-2.8-7.3-4.2c-0.5-0.3-0.9-0.8-1.4-1.3c4.2-1.8,8-3.6,11.9-0.3c0.2,0.2,0.6,0.2,1,0.3l0,0c0.4-1,0.1-2-0.7-2.7
	c-0.6-0.5-1.1-1-1.7-1.5c-1.1-0.9-1.9-1.8-1.5-3.3c0.5-1.8-0.4-3-1.8-3.8c-2.5-1.5-5.2-2.2-8.1-1.9c-2,0.2-4,0.1-5.9-0.1
	c-2.6-1.4-4-3.7-4.3-6.8c0-0.1,0-0.3-0.1-0.4c-0.3,2.3,0.3,4.4,2,6c0.4,0.4,0.8,0.8,1.1,1.1c-0.7-0.1-1.4-0.2-2.1-0.3
	c-0.5-0.1-1.1-0.1-1.6-0.1c0,0.1,0,0.2-0.1,0.4c2,0.5,3.9,1.1,5.9,1.6c0,0.3,0,0.2,0,0.5c-0.8,0.1-1.6,0.3-2.4,0.4
	c-2.6,0.1-5.2,0-7.8,0.3c-4.8,0.5-9.3,2.4-13.8,3.9c-1.7,0.6-3.4,0.8-5.2,1.3c-3,0.8-6,1.6-9,2.4c-0.2,0.1-0.4,0.2-0.6,0.3
	c-1.5,1.2-3,2.4-4.7,3.8c0,0-0.1,0.3-0.1,0.6C13.5,25,6.6,27.6,0,31.2c0.5,0.2,1,0.1,1.4,0c1.2-0.2,2.4-0.4,3.7-0.6
	c2.2-0.4,4.4-0.8,6.5-1.2c1.4-0.3,2.7-0.8,4-1.1c2.6-0.6,5.1-0.3,7.8,0.6c-1.8,1.6-3.7,2.2-5.3,2c-1.8,0.4-3.2,0.6-4.5,1.1
	c-1.3,0.4-2.7,0.8-3.2,2.4c-0.7,0.4-1.8,0.7-2,2.1c2.5-0.6,4.6-1.6,6.9-1.5c2.2,0.1,4.2-1,5.6-2.6c0.4-0.4,1.1-0.6,1.6-0.9
	c0.1,0.1,0.1,0.1,0.2,0.2c-0.2,0.4-0.4,0.7-0.5,1.1c0.2,0.4,0.4,0.7,0.6,1.1c-0.3,0.4-0.6,0.7-0.8,0.9c-0.3,2.2-1,4.1-2.8,5.3
	c-0.7,0.5-1.4,0.9-2.1,1.4c-1.5,1-2.3,2.4-2.1,4.4c1.8-1.1,3.6-2.2,5.3-3.2c0.6,0.7,1.1,1.2,1.6,1.9c0,0.5-0.1,1.3-0.1,2
	c-1.1,1.1-2.8,2-2.4,3.8c-1.2,1.6-3.4,2.6-2.5,5.1c-1.1,1.1-2.1,2.2-2,4c0.2,0.1,0.5,0.3,0.8,0.5c-1,1.5-2,2.8-1.4,4.5
	c0.5,0.2,0.9,0.5,1.3,0.7c-0.4,1.4-0.7,2.8,0.5,4c0.6,0,1.1-0.1,1.7-0.1c-0.2,1.4-0.6,2.8,0.7,3.8c2.2,0.2,3-1.7,4.6-2.5
	c-0.2,0.6-0.5,1-0.8,1.5c-0.4,0.6-0.8,1.3-1.1,1.9c-0.3,0.8-0.4,1.7,0.4,2.3c0.8,0.6,1.7,0.3,2.3-0.3c0.9-0.8,1.6-1.8,2.4-2.6
	c0.5-0.5,1.1-1,1.6-1.5c-0.4,0.9-0.8,1.7-1.2,2.6c-0.5,1.2-1,2.4-1.5,3.6c1.4,0.6,1.9,0.6,2.7-0.1c0.6-0.6,1.2-1.3,1.7-2
	c1.2-1.6,2.4-3.2,4.1-4.3c0,0.7-0.1,1.3-0.3,1.9c-0.5,1.1-1,2.3-1.4,3.4c-0.3,0.9-0.7,1.9-0.1,3c1.3-0.1,2.2-0.8,2.8-1.8
	c1.1-1.6,2.1-3.3,3.1-4.9c0.5-0.7,1.1-1.4,1.7-2.1c0.2,0.1,0.2,0.1,0.3,0.2c-0.1,0.6-0.3,1.2-0.4,1.9c-0.3,1-0.7,2.1-0.9,3.1
	c-0.1,0.8-0.2,1.8,0.7,2.3c1,0.1,1.5-0.5,1.9-1.2c0.6-1.2,1.2-2.4,1.8-3.6c3.7-7.2,7-14.5,8.4-22.6c0.2-1,0.5-1.9,0.8-2.9
	c0.9,0.7,1.6,1.2,2.4,1.8c-1,1.6-0.7,3.2,0.4,4.5c-0.9,2.1-0.8,4,1.2,5.5c-0.5,2.5-0.1,4.5,2.8,5c0,3.4,1,4.1,3.9,5
	c0.8,1.2,1.3,2.3,2.1,3.3c0.9,1.1,2.2,1.2,3.5,0.6c0.3,0.7,0.4,1.3,0.7,1.9c0.3,0.6,0.6,1.2,0.9,1.7c1.1,1.6,2.5,1.6,3.4-0.2
	c0.3-0.6,0.6-1.1,1-1.6c0.2,0.1,0.2,0.1,0.3,0.1c-0.2,2.1-0.1,4.1,1.3,5.8c0.3-0.1,0.7-0.1,0.9-0.2c0.2,0.3,0.4,0.5,0.7,1
	c0.6-1,1-1.8,1.4-2.7c0.4-0.8,0.6-1.7,0.9-2.5c0.1,0,0.1,0,0.3,0c0.2,2.1,0.5,4.3,0.7,6.3c0.7,0.4,1.2,0.7,1.7,1.1
	c2.1-2.5,1.4-5.7,2.9-8.3c0.4,0.8,0.6,1.6,0.8,2.5c0.3,1.7,0.4,3.3,0.8,5c0.2,1,0.8,1.9,2.2,1.9c1-2.9,0.1-5.9,1-8.8
	c0.4,0.8,0.7,1.6,1,2.3c0.4,1.2,0.7,2.4,1.2,3.5c0.4,0.9,1.1,1.8,2.6,1.7C95.2,83.2,95.2,82.2,95,81.3z M74,13.2
	c0.2-0.7,2.7,0.1,2.5,0.8c-0.2,0.7-0.9,1.1-1.6,0.9C74.2,14.6,73.8,13.9,74,13.2z"/>
</svg>
