<?xml version="1.0" encoding="utf-8"?>
<!-- Generator: Adobe Illustrator 28.3.0, SVG Export Plug-In . SVG Version: 6.00 Build 0)  -->
<svg version="1.1" id="Layer_1" xmlns="http://www.w3.org/2000/svg" xmlns:xlink="http://www.w3.org/1999/xlink" x="0px" y="0px"
	 width="78.8px" height="47px" viewBox="0 0 78.8 47" style="enable-background:new 0 0 78.8 47;" xml:space="preserve">
<style type="text/css">
	.st0{fill-rule:evenodd;clip-rule:evenodd;}
	.st1{fill:#B25959;}
</style>
<path d="M78.5,0c-1.5,1.1-3,2.2-4.4,3.3c-1.4,1.2-2.8,2.4-4.1,3.6c-1-0.1-1.9-0.2-2.8-0.2c-3.6,0.2-7.1,3.3-7.7,7.3
	c-0.4,2.8-0.2,5.8-0.4,8.6c-0.1,1.8-0.3,3.7-0.8,5.4c-0.6,2.2-2.4,3.3-4.6,2.9c-1.5-0.2-3-0.6-4.6-0.9c0.1,0.4-0.3,0.8-0.7,0.7
	l-0.7-0.2c-0.4-0.1-0.5-0.6-0.3-0.8c-0.5-0.1-1-0.2-1.5-0.4c-1-0.2-1.9-0.4-2.9-0.6c0,0.3-0.3,0.6-0.6,0.5c-0.2,0-0.5-0.1-0.7-0.1
	c-0.3-0.1-0.5-0.4-0.4-0.7c-1.5-0.2-3-0.4-4.5-0.5c0.1,0.3-0.2,0.7-0.5,0.7c-0.2,0-0.5,0-0.7,0c-0.4,0-0.6-0.4-0.5-0.8
	c-1.5,0-2.9,0-4.4,0.1c0.3,0.3,0.1,0.9-0.3,0.9l-0.7,0.1c-0.5,0.1-0.8-0.5-0.5-0.8c-1.4,0.2-2.7,0.4-4.1,0.7c-0.2,0-0.4,0.1-0.6,0.2
	c0.4,0.2,0.3,0.9-0.1,1l-0.7,0.2c-0.5,0.1-0.9-0.4-0.6-0.8c-1.5,0.5-3,1-4.5,1.6c0.4,0.2,0.4,0.8,0,0.9c-0.2,0.1-0.4,0.2-0.7,0.3
	c-0.4,0.2-0.9-0.2-0.7-0.6c-1.4,0.6-2.8,1.3-4.2,2.1c0.4,0.2,0.5,0.7,0.1,1L12.3,35c-0.4,0.2-0.9-0.1-0.8-0.6
	c-2.2,1.2-4.3,2.5-6.3,3.9c-0.2,0.1-0.2,0.3-0.4,0.4c0.1,0.2,0.2,0.4,0.3,0.7c-1.6,0.7-3.3,1.4-5.1,2.2c0.5,0.2,0.7,0.4,1,0.5
	c3.1,1.3,6.1,2.6,9.2,3.7c1.8,0.6,3.8,1.1,5.7,1.1C31.3,47,46.6,47,62,47c3.7,0,6.3-2.6,6.3-6.3c0-6.1-0.2-12.2-0.1-18.3
	c0-1.5,0.5-3,0.9-4.5c0.4-1.7,1-3.4,1.5-5.1c0.3-1.1,0.4-2.4,1.1-3.2c2.2-2.9,4.5-5.7,6.8-8.5c0.2-0.2,0.3-0.4,0.4-0.7
	C78.7,0.2,78.6,0.1,78.5,0z M10.6,37c0.3-0.2,0.8-0.3,1.1-0.2c0.5,0.2,0.7,0.9,0.2,1.2l-0.5,0.3l0,0L11,38.7c-0.4,0.3-1.1-0.1-1-0.7
	C10,37.6,10.3,37.2,10.6,37 M12.3,39.6l0.2-0.2c0.4-0.3,1-0.1,1.3,0.4c0.3,0.5,0.2,1-0.2,1.3l-0.2,0.1l0,0l-1,0.7
	c-0.4,0.3-1,0.1-1.3-0.3c-0.3-0.4-0.2-1,0.2-1.3L12.3,39.6 M14.9,35.3c0.1-0.4,0.4-0.8,0.9-1.1c0.4-0.2,0.9-0.2,1.4,0
	c0.6,0.3,0.6,1.2,0.1,1.4c-0.4,0.2-0.8,0.4-1.2,0.6C15.5,36.5,14.8,36,14.9,35.3z M17.8,38.8L17.4,39c-0.4,0.2-1,0-1.2-0.5
	c-0.3-0.5-0.1-1.1,0.3-1.3l0.4-0.2c0.4-0.2,1,0,1.2,0.5C18.3,38,18.2,38.6,17.8,38.8z M33,31.1l-0.6,0c-0.5,0-0.9-0.6-0.5-1.1
	c0.2-0.3,0.6-0.5,1-0.5c0.4,0,0.8,0.1,1.1,0.4c0.4,0.4,0.1,1.1-0.4,1.1L33,31.1L33,31.1z M33,29.5 M20.3,32.6
	c0.2-0.4,0.4-0.7,0.8-0.8c0.4-0.1,0.8-0.1,1.2,0.1c0.5,0.3,0.4,1-0.1,1.2c-0.4,0.1-0.7,0.2-1.1,0.4C20.6,33.7,20.1,33.1,20.3,32.6z
	 M25,35.9c-0.9,0.2-1.8,0.6-2.6,0.8c-0.4,0.2-0.9-0.1-1.1-0.6c-0.2-0.5,0-1.1,0.5-1.3c0.9-0.3,1.8-0.6,2.8-0.9
	c0.5-0.1,1,0.2,1.1,0.7C25.7,35.3,25.4,35.8,25,35.9z M27.8,32.2l-1.5,0.3c-0.7,0.1-1.3-0.6-0.9-1.3c0.3-0.5,0.7-0.8,1.3-0.9
	c0.5-0.1,1.1,0,1.5,0.3C28.8,31.1,28.5,32.1,27.8,32.2z M33.1,32.6l0.3,0c0.5,0,0.9,0.4,0.9,1c0,0.5-0.4,1-0.8,1l-0.3,0h0
	c-1.1,0-2.2,0.2-3.2,0.3C29.5,35,29,34.6,29,34c-0.1-0.5,0.2-1,0.7-1.1C30.8,32.8,31.9,32.6,33.1,32.6L33.1,32.6z M38.1,34.7l-0.4,0
	c-0.5,0-0.8-0.5-0.8-1c0-0.5,0.4-1,0.9-0.9l0.5,0c0.5,0,0.8,0.5,0.8,1.1C39,34.3,38.6,34.7,38.1,34.7z M39.4,31.7L38,31.6
	c-0.6-0.1-0.9-0.9-0.4-1.4c0.3-0.3,0.8-0.5,1.3-0.4c0.5,0.1,0.9,0.3,1.2,0.7C40.4,31,40,31.8,39.4,31.7z M43.6,30.8
	c0.3-0.2,0.7-0.3,1.1-0.2c0.4,0.1,0.7,0.4,0.9,0.7c0.3,0.5-0.2,1.1-0.7,1c-0.4-0.1-0.7-0.2-1.1-0.3C43.3,31.9,43.1,31.2,43.6,30.8z
	 M46.8,35.5c-0.2,0.5-0.7,0.8-1.1,0.7c-0.9-0.3-1.8-0.5-2.7-0.7c-0.5-0.1-0.7-0.6-0.6-1.2c0.1-0.5,0.6-0.9,1.1-0.8
	c0.9,0.2,1.9,0.5,2.8,0.7C46.7,34.4,47,35,46.8,35.5z M53.5,31.7c0.2,0,0.5,0,0.7,0.1c0.2,0.1,0.4,0.3,0.5,0.5
	c0.3,0.5-0.2,1-0.7,0.8l-0.6-0.3C52.9,32.5,53,31.8,53.5,31.7z M48.6,32.5c0.5-0.2,1-0.3,1.5-0.1c0.5,0.2,0.9,0.6,1.1,1.1
	c0.3,0.7-0.5,1.4-1.1,1.1l-1.4-0.5C48,33.8,48,32.8,48.6,32.5z M53.4,39.4c-0.9-0.5-1.9-1-2.9-1.5c-0.4-0.2-0.6-0.7-0.4-1.3
	c0.2-0.5,0.8-0.8,1.2-0.6c1.1,0.5,2.1,1,3.1,1.5l0,0c0.5,0.3,1,0.6,1.4,0.9c0.4,0.3,0.5,0.8,0.1,1.3c-0.3,0.5-0.8,0.6-1.2,0.4
	C54.3,39.9,53.9,39.7,53.4,39.4L53.4,39.4z M55.1,36.4l-0.5-0.3c-0.5-0.3-0.4-1,0.1-1.2c0.4-0.1,0.8-0.1,1.2,0.1l0,0
	c0.4,0.2,0.6,0.6,0.7,0.9c0.1,0.6-0.5,1-1,0.7L55.1,36.4L55.1,36.4z M65.4,12c-0.6,0-1-0.5-1-1c0-0.6,0.5-1,1-1c0.6,0,1,0.5,1,1
	C66.4,11.6,66,12,65.4,12z"/>
</svg>
