<?xml version="1.0" encoding="utf-8"?>
<!-- Generator: Adobe Illustrator 28.3.0, SVG Export Plug-In . SVG Version: 6.00 Build 0)  -->
<svg version="1.1" id="Layer_1" xmlns="http://www.w3.org/2000/svg" xmlns:xlink="http://www.w3.org/1999/xlink" x="0px" y="0px"
	 width="78.8px" height="68.1px" viewBox="0 0 78.8 68.1" style="enable-background:new 0 0 78.8 68.1;" xml:space="preserve">
<style type="text/css">
	.st0{fill-rule:evenodd;clip-rule:evenodd;}
	.st1{fill:#B25959;}
</style>
<g id="_x35_FEnyL_2_">
	<g>
		<path d="M60.2,6.8c1-0.5,2.4-1.1,4.1-1c3,0.2,5.5,1.5,7.8,3.3c0.4,0.3,0.7,0.7,1,1c1.9,0,3.8,0,5.6,0c0,0.1,0.1,0.1,0.1,0.2
			c-1.9,0.7-3.8,1.4-5.7,2.1c0-0.1-0.1-0.1-0.1-0.2c0.6-0.5,1.2-1.1,2-1.8c-0.8,0.1-1.3,0.2-1.9,0.3c-0.6,0.7-1.1,1.4-1.7,2.1
			c-0.4-0.1-0.8-0.3-1.3-0.4c-0.9,1.9-5,5.4-4.2,5.5c-0.4,0.7-0.7,1.2-0.9,1.5c-1.4,1.1-2.5,2-3.8,3c0.5,0.4,0.8,0.7,1.3,1
			c-0.3,0.3-0.6,0.7-1,1.2c0.6,0.5,1.1,1,1.6,1.4c0.8,0.6,1.4,1.3,1.7,2.3c0.4,1.8,0.7,3.6,0.4,5.5c-0.4,2.2-0.7,4.4-1,6.7
			c-0.1,0.9-0.4,1.8-0.6,2.6c-1.3,4-1.8,8.1-2.4,12.2c-0.1,1-0.3,2-0.8,3.2c-0.6-1-1-1.7-1.6-2.5c-1,1.2-1.2,2.8-1.9,4
			c-0.7,1.3-1.4,2.7-2.1,4.1c-0.7,1.3-1.2,2.8-2.1,3.9c-1.1-0.2-1.1-1.1-1.4-1.9c-0.8,0.7-1.2,2.1-2.9,1.5c-0.3-0.8-0.6-1.8-1-2.9
			c-0.3,0-0.7,0-1,0.1c-1.6-0.9-0.8-2.5-1.1-3.8c-0.4,0-0.8,0.1-1.1,0.1c-1-1.1-1.1-1.3-1.2-3.7c-0.5,0-1,0-1.6,0
			c-0.2-0.3-0.4-0.5-0.4-0.8c-0.4-2-0.7-4-1-6c0-0.2,0.1-0.5,0-0.7c-0.7-1.3-0.3-2.6-0.3-3.9c0-1.8,0.4-3.4,1-5
			c0.4-1.2,0.3-2.2-0.4-3.2c-0.7-1-1.3-2-2.3-2.9c-0.7-0.6-2.4-4.6-2.6-5c-0.1,0-0.3,0-0.3,0c-1,1-2.4,1.3-3.6,1.7
			c-0.6,0.2-1.3,0.4-1.8,0.8c-4.1,3.1-8.1,6.2-12.2,9.3c-3.3,2.5-6.5,5-10.1,7.2c-0.3-0.3-0.7-0.6-1.1-0.9c-0.4,0.1-0.8,0.2-1.4,0.3
			c-0.3-0.5-0.6-0.9-0.9-1.5c-0.3-0.1-0.7-0.3-1.1-0.4c0-0.4,0-0.8,0-1.2c-0.3-0.2-0.6-0.4-0.9-0.6c0-0.8,0-1.5,0-2.3
			c-0.6-0.3-1.2-0.6-1.9-0.9c0.3-0.8,0.5-1.5,0.7-2.3c0-0.4-0.1-0.9-0.1-1.1c0.7-2.1,1.3-3.9,1.9-5.8c2-0.6,4.1-1.2,6.2-1.8
			c2.8-0.8,5.6-1.6,8.4-2.5c0.6-0.2,1.3-0.5,1.8-0.9c3.4-2.6,6.7-5.3,9.8-7.9c0.5-3.2,1-6.2,1.6-9.2c-0.6-1.5-1.7-2.3-3.4-2.6
			c-0.7-0.1-1.4-0.4-2.2-0.7c-0.3-0.4-0.7-0.8-1.1-1.2c0.2-0.3,0.3-0.6,0.5-0.9c-0.3-0.3-0.6-0.6-1.1-1.1c1.6-0.5,3-1,4.4-1.3
			c1.7-0.4,3.4-0.6,5.1-0.8c0-0.3-0.1-0.5-0.1-0.9c1.3-0.5,2.6-0.5,3.9-0.5C38.9,0,41.3,0,43.7,0c3,0,4.2,0.9,5.3,3.7
			c0.4,1.1,1,2.1,1.5,3.2c0.6,1.3,1.6,2,3.2,2.1C55.5,8.1,59,7.4,60.2,6.8z M66,13.2c1.3,1.2,2.2,1,2.9-0.8c-0.5,0.4-1,0.7-1.4,1
			C66.9,13.3,66.5,13.3,66,13.2c-0.1-0.3-0.1-0.7-0.2-1.2c0.5-0.3,1-0.6,1.5-0.9c0.6,0.3,1,0.5,1.5,0.7c0-0.1,0.1-0.2,0.1-0.3
			c-0.6-0.3-1.2-0.6-1.9-0.9c-0.7,0.6-1.4,1.1-2.1,1.7C65.3,12.6,65.7,12.9,66,13.2z"/>
	</g>
</g>
</svg>
