<?xml version="1.0" encoding="utf-8"?>
<!-- Generator: Adobe Illustrator 28.3.0, SVG Export Plug-In . SVG Version: 6.00 Build 0)  -->
<svg version="1.1" id="Layer_1" xmlns="http://www.w3.org/2000/svg" xmlns:xlink="http://www.w3.org/1999/xlink" x="0px" y="0px"
	 width="172.1px" height="132.5px" viewBox="0 0 172.1 132.5" style="enable-background:new 0 0 172.1 132.5;" xml:space="preserve"
	>
<style type="text/css">
	.st0{fill-rule:evenodd;clip-rule:evenodd;}
	.st1{fill:#B25959;}
</style>
<path d="M0.1,64.8c8,0,16,0,24.1,0c-7,2.6-14.2,4.5-21,7.4c0.1,0.3,0.2,0.6,0.3,0.9c9.8-1.7,19.6-3.4,29.6-5.1
	c-0.5,0.8-0.9,1.4-1.7,2.7c3-0.5,5.4-0.9,7.8-1.3c-0.1,0.2-0.2,0.6-0.5,1.2c0.7,0.2,1.3,0.7,1.9,0.6c2.1-0.1,4.2-0.3,6.2-0.4
	c2.4-0.2,4.9-0.5,6,1.5c2.4,0.3,4.3,0.5,6,0.6c0.2,1.7,0.3,2.7,0.5,4c1.4,0.6,2.8,1.3,4.3,2c0.3,0.8,0.6,1.7,1.1,3.2
	c-1.2,2.4,0.4,3.6,3,3.9c0.5,2.8-3.1,6.5,1.6,7.6c1,2.1,1.8,3.9,2.8,6c-3.5,0.7-7.1,1.6-10.7,2.1c-5.2,0.6-10.5,0.7-15.7,1.2
	c-4.7,0.5-8.6,3-12.2,5.8c-0.4,0.3-0.5,0.9-0.9,1.8c1,0.3,1.9,0.8,2.7,0.8c8.4,0.7,13.6,0,26.7-3.6c0.2,0.9,0.4,1.8,0.7,3
	c1,0.5,2.2,1.3,3.6,2c0,0.5,0.1,1.1,0.1,1.7c3.2,1.4,6.7,0.7,9.3-2c3.4-0.7,6.9-0.3,10.2,1.1c1.8,0.8,3,2.1,2.3,4.3
	c-1.8,1.3-2.6,3-1.3,5.2c-2.1,1.8-4.8,2-7.3,2.2c-2.5,0.2-5.1,0-7.9,0c0.5,1.7,1,3.5,1.6,5.5c3.5-0.9,7.1-1.9,10.5-2.8
	c1.4,1.7,2.4,3,3.5,4.4c0.1-0.3,0.3-0.5,0.4-0.8c1.3,0.1,2.6,0.1,4,0.2c2.6,0.1,5.3,0.4,7.9,0.1c3.7-0.4,6.3-2.8,8.8-5
	c-0.1-1-0.2-1.6-0.3-2.8c-4.3-1.4-9-2.9-13.9-4.4c-0.2-1.1-0.3-2.5-0.5-3.3c5,1,10.2,2.4,15.5,3c10.7,1.1,21.3,0,31.7-2.7
	c7.7-2,15.3-4.6,22.9-6.8c1.3-0.4,2.8-0.5,4-0.2c1.2,0.3,2.1,1.4,3.3,2.3c2.2-1.4,1.1-5.6-2.7-8.3c-4.4-8.7-12.3-9.8-20.6-10.3
	c-4.8-5.1-6.3-11.2-4.9-18c1.7-8.6,6.8-15.4,12.7-21.5c3.5-3.6,7.1-7.1,11-10.1c3.3-2.5,3.6-5.6,3.1-9c-1.1-8.2-6.2-14.1-12.1-19.3
	c-7.3-6.5-15.8-11.3-24.7-15.5c-0.2-0.1-0.5-0.2-0.7-0.2c-0.9,1.7-0.7,2,6.6,10c-3.7-1.1-7.4-2.3-11.2-3.3c-1.8-0.5-3.6-0.8-5.5-1
	c-0.5-0.1-1.4,0.3-1.6,0.7c-0.2,0.4,0.1,1.4,0.5,1.6c2.5,1.7,5,3.4,7,4.7c-2.9,0-6.4,0-9.9,0c-1.7,0-3.4,0.1-5.2,0.3
	c-0.5,0-0.9,0.5-2.1,1.1c1.5,0.8,2.3,1.4,3.3,1.7c3.2,0.8,6.4,1.5,9.9,2.4c-6.6,1.8-13.3,2.4-19.3,5.8c1.6,2.7,3.7,1.1,5.9,1.6
	c0,1.8,0,3.8,0,5.8c2.5-0.7,5-1.4,7.5-2c0,0.1,0,0.2,0.1,0.3c-1.8,0.7-3.7,1.4-5.5,2.3c-2.6,1.3-2.9,3.2-1.1,5.3
	c-0.2,1.3-0.4,2.5-0.6,3.9c1.1,0,1.8,0,2.5,0c-0.1,2.3-1.2,3.3-5.7,5c-0.3,0.8-0.7,1.7-1.1,2.5c-0.1-0.1-0.2-0.3-0.4-0.4
	c-2.9,2.4-5.9,4.8-9.3,7.6c-4.8-0.3-10.4-0.7-16-0.8c-6.6-0.2-13.2,0.1-19.7-0.3c-3.9-0.2-7.8-1.4-11.7-2.1
	c-8.1-1.4-16.2-2.8-24.2-4.2c-0.7-0.1-1.5,0.1-2.3,0.1c0,0.3-0.1,0.6-0.1,0.9c8,2.1,16,4.1,24.1,6.2c-7,0-14-0.1-21.1,0
	c-7,0.1-14,0-20.7,2.1c0,0.3,0,0.6,0,0.9c8.1,0.3,16.1,0.6,24.8,0.9C19.5,60.9,9.5,61.2,0,64.1C0,64.3,0,64.6,0.1,64.8z
	 M158.4,105.3c0.1-1,3.7-0.6,3.6,0.4s-1,1.7-2,1.6C159,107.2,158.3,106.3,158.4,105.3z"/>
</svg>
