<?xml version="1.0" encoding="utf-8"?>
<!-- Generator: Adobe Illustrator 28.3.0, SVG Export Plug-In . SVG Version: 6.00 Build 0)  -->
<svg version="1.1" id="Layer_1" xmlns="http://www.w3.org/2000/svg" xmlns:xlink="http://www.w3.org/1999/xlink" x="0px" y="0px"
	 width="567.4px" height="422.7px" viewBox="0 0 567.4 422.7" style="enable-background:new 0 0 567.4 422.7;" xml:space="preserve"
	>
<style type="text/css">
	.st0{fill-rule:evenodd;clip-rule:evenodd;}
	.st1{fill:#B25959;}
</style>
<path d="M545.9,19.2c-7-3.5-13.1-8.7-19.8-12.9C510.8-3.3,500-2,487,10.8c-1.1,1.1-2.3,2.2-3.3,3.4c-14.7,17.6-29.5,35.1-44.2,52.8
	c-23.5,28.4-46.9,56.8-70.3,85.2c-6,7.3-14.2,10.4-23.4,10.9c-4.3,0.3-8.7,0.2-12.9,0.7c-4.1,0.5-6.7-0.9-9-4.3
	c-9.2-13.3-20.6-24.4-34.8-32.1c-22.2-12.2-39.2-29-50.5-51.9c-2.1-4.3-7.5-7.9-12.2-9.6c-3.6-1.3-5.2-3.2-7.3-5.8
	c-5.4-6.5-10.7-13.7-17.5-18.3c-9.4-6.3-27.4-1.1-28.1,14.9c-0.1,1.1-0.6,2.2-0.9,3.2c-5.5-8.2-10-16.7-16.3-23.8
	c-5.1-5.8-11.7-11-18.6-14.4c-10.9-5.3-25.7,0.5-33.5,11.4c-5.6,7.8-4,16.3,5.2,27c1.8,2.1,3.7,4,5.4,6.1c0.9,1.1,1.3,2.5,2.5,5
	c-5-0.4-8.8-0.8-12.6-1c-11.1-0.8-17.8,5.5-15.8,16.4c1,5.3,4.9,10.3,8,15c1.7,2.6,4.5,4.5,6.8,6.8c-0.4,0.7-0.9,1.3-1.3,2
	c-1.7-0.6-4.3-0.8-5.1-2c-7-11.5-16.1-11.6-22.8,0.3c-3,5.3-5.1,11.2-7.9,16.6c-1.3,2.6-3.4,4.8-5.1,7.1c-0.8-0.3-1.7-0.5-2.5-0.8
	c-0.2-3.6-1.6-7.6-0.5-10.8c3.4-10,7-20.1,11.9-29.3c4.9-9.1,3.1-17.1-6.5-21c-11.2-4.6-24.6,2-27.5,14.8
	c-1.6,6.9-0.7,14.4-0.9,21.6c-0.1,3.8,0,7.6,0,11.4c-0.8,0.2-1.6,0.4-2.4,0.6c-3-4.6-5.9-9.3-9.1-13.8c-5.7-8-13.9-8.8-19.6-0.7
	c-3,4.2-5.4,11-4.2,15.6c2,7.6,6.7,14.7,11,21.4c3.1,4.9,8,8.8,11.3,13.6c4.6,6.5,2.5,10.7-5.3,11.2c-6.1,0.4-7.9,3.5-7.1,9
	c1.2,8.4,6.5,13.2,14.1,16c4.2,1.5,7.1,3.5,8.4,8.6c2,8.1,8.3,12.4,16.6,12.7c6.3,0.2,12.5-0.6,18-1c1.7,2.3,3.1,4.6,4.8,6.6
	c2.8,3.2,6.7,5.7,8.6,9.4c4.4,8.3,7.5,10.2,16.6,7.7c2.8-0.8,5.5-1.7,9-2.8c-0.3,7,4.3,8.5,9.3,9c9.2,0.8,18.5,1.3,28.4,2
	c-0.9,18.2-4.4,35.2-13.6,50.9c-2.2,3.8-4.1,9.1-3.4,13.2c5.4,32.5,11.3,64.9,17.3,97.3c2.4,13.3,7.4,17.4,20.9,17.6
	c11.4,0.2,22.7,0.2,34.1,0.1c2,0,4.1-0.8,6.4-1.2c-2.4-6.4-6-10.1-11.9-11.4c-4.9-1.1-9.6-3-14.6-3.5c-9.9-1.2-15.7-6.8-18.2-15.9
	c-5.8-21-11.3-42.1-16.7-63.2c-4.8-19,2.3-33.5,17.1-45.5c8.8-7.1,16.9-15.2,24.4-23.6c6.8-7.6,6.3-8.1,18.3-3.3
	c-3.5,11-4.9,23.5-11.1,32.9c-7.6,11.7-6.8,22.4-3.7,34.2c0.5,2,0.8,4,1.2,6c4.7,26.6,9.3,53.3,14.2,79.9
	c1.8,9.4,6.5,13.8,15.7,14.2c13.8,0.6,27.7,0.3,41.6,0.3c1,0,1.9-0.9,4.7-2.2c-4.3-3.8-7.5-7.7-11.6-9.9c-4.3-2.3-9.4-3.6-14.3-4.1
	c-11.2-1.1-18.1-6.8-21-17.4c-5.5-20.6-10.8-41.3-16-62c-4.6-18.5,2.1-32.7,16.6-44.3c7.6-6.1,14.3-13.2,21.7-19.6
	c1.6-1.4,4.4-2.4,6.6-2.2c24,2.5,44.4-6.9,64.1-19.1c10.5-6.5,18.1-17,30.8-20.6c3.1-0.9,5.7-5.1,7.6-8.4c2.8-4.9,4.5-10.4,6.9-15.6
	c1.3-2.8,2.6-5.8,4.6-8.2c27.9-33.8,55.9-67.6,84-101.3c11.8-14.1,23.4-28.5,36-41.8c5.4-5.7,12.8-11.1,20.3-13
	c16.4-4.3,33.2-7.8,50.5-4.7c4.4,0.8,9,0.1,13.5,0.1c0.1-0.5,0.2-0.9,0.3-1.4C560.2,24.3,552.6,22.5,545.9,19.2z M74.1,168.7
	c-2.4-11.6-3.4-23,5.5-33c6,2,6.7,5.5,4.4,10.3c-4.7,9.8-3.8,18.9,4.1,26.7C80.2,179.5,76.1,178.3,74.1,168.7z M522.3,16.3
	c-1,3.3-12.9-0.4-11.9-3.7c1-3.3,4.5-5.1,7.8-4.1C521.5,9.5,523.3,13,522.3,16.3z"/>
</svg>
