<?xml version="1.0" encoding="utf-8"?>
<!-- Generator: Adobe Illustrator 28.3.0, SVG Export Plug-In . SVG Version: 6.00 Build 0)  -->
<svg version="1.1" id="Layer_1" xmlns="http://www.w3.org/2000/svg" xmlns:xlink="http://www.w3.org/1999/xlink" x="0px" y="0px"
	 width="123.1px" height="122.8px" viewBox="0 0 123.1 122.8" style="enable-background:new 0 0 123.1 122.8;" xml:space="preserve"
	>
<style type="text/css">
	.st0{fill-rule:evenodd;clip-rule:evenodd;}
	.st1{fill:#B25959;}
</style>
<path d="M123.1,119.7c-1.1-0.9-2.1-1.9-3.6-3.2c1.4,0,2.1,0,3.2,0c-0.4-0.5-0.6-0.7-0.9-0.9c-5.1-5.1-10.2-10.2-15.3-15.3
	c-2.7-2.8-5-6.2-7.9-8.7c-2.6-2.3-5.9-3.9-8.8-5.9c-4.7-3.1-5.7-2.6-0.8-7.5c4.2-4.2,7-9.7,12.6-12.6c0.3-0.2,0.4-0.9,0.7-1.5
	c-1.7,0.8-3,1.5-4.6,2.3c0.1-1.1,0.2-1.6,0.2-2.1c-1.4,0-2.8,0.3-4,0c-5.4-1.5-10.3,0.2-15.2,2.2c-3.6,1.5-6.4,2.2-8.8-3
	c-1.8-3.9-3.6-7.8-5.7-11.5c-2.4-4.2-5-8.4-7.9-12.3c-4.1-5.5-8.6-10.8-12.9-16.2c-1.8-2.3-3.5-4.8-5.2-7.2c0,0,0,0,0,0
	c-2.3-4.9-4.8-9.7-7.2-14.5C30.2,2.9,30,4,30.5,4.9c2.1,4.5,1,4.5,3.2,9l-0.1,0c0,0,0.1,0.1,0.1,0.1C27.6,11.3,26.6,4.7,23,0
	c0.4,5.1,2.2,9.4,6.1,12.7c0.8,0.7,1.5,1.6,2.3,2.4c-0.4,0.3-0.7,0.7-1.1,1c-4-4.1-7.9-8.3-11.9-12.4c0.5,5.6,3.6,9.4,8.1,12.3
	c-4.6,0.3-6.6-4.4-11.2-4.6c1.2,2,2.5,4.1,3.7,6.1c-2.6,1.3-2.5,2.5,0.2,6.4c-0.6,1-1.8,2.1-1.6,2.8c0.7,2.8,0.3,5.8,0.7,8.5
	c0.5,3.1,2,6.1,3,9.1c0.9,2.9,1.3,6,2.4,8.9c1.4,3.9,3.3,7.5,4.7,11.3c1.3,3.5,3,6,7.6,5c-0.3,0.5-0.7,0.6-1,0.9
	c-2.3,1.9-2.2,2.2,0.3,3.6c0.8,0.4,1.4,1.1,1.9,1.8c0.7,0.8,1.2,1.9,2,2.5c1.9,1.2,1.7,2.3,0.2,3.5c-1.4,1.2-2.9,2.3-4.3,3.5
	c-5.1,4.4-9.9,9.1-16.8,10.8c-4.8,1.2-9.7,2.3-14.4,3.7c-4.2,1.2-5.2,4.7-2.5,7.9c1,1.2,1.8,2.7,3,3.5c2.4,1.6,5.4,2.2,6.9,5
	c0.2,0.4,1.4,0.2,2.1,0.2c3.7,0,6.3-2.2,9.1-4.4c5.4-4.2,11-8.2,17.7-9.8c4.6-1.1,9.2-1.7,13.9-2.4c1-0.1,2.2,0.2,3.1,0.8
	c2.2,1.6,4,3.8,6.4,5.1c4.6,2.6,9.3,4.9,14.1,7c4.1,1.8,8.4,3.2,12.7,4.5c3.6,1.1,7.3,1.9,10.9,2.8c0.3,0.1,0.7-0.1,1,0
	c0.9,0.2,1.9,0.4,2.7,0.7c1.3,0.5,2.6,1.1,3.8,1.7c0.3-1.2,0.6-2.4,0.9-3.6c2.6,1.3,5.2,2.7,7.9,4c0.2-0.3,0.4-0.5,0.6-0.8
	c-1.1-1.5-2.2-3.1-3.4-4.8c2.8,1.2,5.2,2.2,7.6,3.3C122.8,120.3,122.9,120,123.1,119.7z M89.7,64.7c0.7,0,1.2,0.5,1.3,1.2
	c0,0.7-2.4,0.8-2.4,0.1C88.5,65.3,89,64.7,89.7,64.7z M75.6,81.7c-1.7,0.9-3.2-0.6-4.7-2.9c-2.3-3.6,0.1-6.6,1-9.9
	c1.7,2.3,3.4,4.5,4.9,6.9C78,77.7,77.3,80.8,75.6,81.7z"/>
</svg>
