<?xml version="1.0" encoding="utf-8"?>
<!-- Generator: Adobe Illustrator 28.3.0, SVG Export Plug-In . SVG Version: 6.00 Build 0)  -->
<svg version="1.1" id="Layer_1" xmlns="http://www.w3.org/2000/svg" xmlns:xlink="http://www.w3.org/1999/xlink" x="0px" y="0px"
	 width="74.3px" height="106.8px" viewBox="0 0 74.3 106.8" style="enable-background:new 0 0 74.3 106.8;" xml:space="preserve">
<style type="text/css">
	.st0{fill-rule:evenodd;clip-rule:evenodd;}
	.st1{fill:#B25959;}
</style>
<path d="M72.9,59.9c-0.3-0.6-0.5-1.2-0.7-1.8c-0.8-1.3-1.8-2.5-3.1-3.2c-1.3-0.7-2.7-1.1-4.2-1.6c-0.1-0.3-0.2-0.7-0.2-1.1
	c-0.1-3.2,0.2-6.3,1.2-9.4c1.6-5,3.1-9.9,4.4-15c1.6-6,1.1-12-1.5-17.7c-0.5-1.1-1-2.2-1.5-3.4c-0.2-0.5-0.5-0.9-1.2-0.8
	c-1.2,1-0.8,2.5-1.2,3.9c-0.2-0.4-0.4-0.8-0.7-1.2c-0.4-0.7-0.8-1.4-1.2-2.1c-0.4-0.6-0.9-0.9-1.7-0.6c-0.9,1.1,0.1,2.2,0,3.4
	c-1.1-0.6-1.7-1.7-2.9-2c-0.9,1,0.2,2.2-0.2,3.3c-1-0.3-1.4-1.9-3-1.3c0,0.4,0,0.9,0,1.3c0,0.4,0.2,0.8,0.3,1.4
	c-0.4,0.1-0.8,0.1-1.2,0.1c-0.7,1.1,0.2,2.3-0.1,3.5c-0.3,0.1-0.7,0.3-1.1,0.4c-0.8,1.6,0.2,3.1,0.2,4.7c-0.5,0-0.9,0-1.3,0.1
	c-0.8,1.2-0.1,2.5-0.2,3.7c-0.4,0.2-0.8,0.3-1.3,0.5c-0.5,1.1-0.1,2.4-0.4,3.6c-1.4,0.8-1.4,2.3-1.3,3.8c-1.7,0.8-1.5,2.4-1.6,4.1
	c-1.1,1.1-1.4,2.6-0.9,4.3c-2.1,1.1-1.4,3-1.5,4.8c-1,1-1.1,2.3-0.9,3.7c0.1,0.8,0.2,1.6-0.1,2.3c-0.1,0-0.2,0-0.3,0.1
	c-0.1-0.4-0.3-0.7-0.4-1.1c-0.4-1.7-0.8-3.5-1.2-5.2c-0.1-0.5-0.2-1-0.3-1.5c-0.4-2.4-1.4-4.4-2.9-6.3c-1.5-1.9-2.6-4.1-3.9-6.1
	c-0.4-0.6-0.8-1.1-1.2-1.6c-0.2-0.2-0.5-0.2-0.7-0.3c-0.6,1.2,0.5,2.1,0.2,3.1c-0.1,0-0.1,0-0.2,0c-3.4-3-7.1-5.7-10.2-9
	c-2-2.1-3.5-4.6-5.2-7c-1.5-2.1-2.9-4.3-4.4-6.4c-0.2-0.3-0.6-0.6-0.9-1c-0.8,1.1,0,2.1,0,3.3c-0.3-0.3-0.5-0.5-0.6-0.7
	c-2.1-3.3-4.2-6.7-6.3-10C4.8,1.2,4.3,0.6,3.5,0c0,0.5-0.2,0.8-0.1,1c0.2,0.8,0.4,1.5,0.7,2.3c1,2.4,2.1,4.8,3,7.3
	c-0.2-0.2-0.4-0.3-0.5-0.5C5.2,8.4,3.8,6.7,2.4,4.9C2,4.4,1.6,3.6,0.7,3.4C0.6,3.7,0.4,3.9,0.5,4.1C0.7,4.8,0.9,5.4,1.3,6
	c2.1,3.8,4.3,7.5,6.4,11.3c0.2,0.4,0.4,0.7,0.6,1.1c-0.1,0.1-0.1,0.1-0.2,0.2c-0.7-0.7-1.5-1.4-2.2-2.1c-1.5-1.5-2.9-3-4.4-4.6
	c-0.4-0.4-0.7-0.8-1.5-0.5c1.7,4.4,4.3,8.2,6.8,12.2C5.9,22.9,5,22.1,4,21.5c-0.9-0.6-1.6-1.7-3.1-1.7c0.1,0.6,0.2,1.1,0.4,1.5
	c0.5,1,1,2,1.6,2.9c0.8,1.1,1.6,2.2,2.5,3.2c0.3,0.3,0.5,0.7,0.9,1.2c-1.4-0.3-2-1.5-3.2-1.6c-0.4,0.5-0.2,1,0,1.5
	c0.4,0.7,0.8,1.4,1.3,2c2,2.9,4,5.7,6.8,8c0.1,0.1,0.2,0.3,0.4,0.5c-1,0.3-1.9-0.4-2.8,0.1c-0.3,0.7,0,1.3,0.5,1.8
	c0.6,0.7,1.3,1.3,2,1.9c0.4,0.4,0.7,0.7,1.2,1.1c-0.3,0.2-0.5,0.4-0.8,0.6c-0.8,0.6-0.9,1.3-0.1,2c0.4,0.4,0.8,0.7,1.2,1
	c0.3,0.3,0.7,0.5,1.1,0.8c-0.5,0.3-0.8,0.6-1.2,0.8c0.2,0.9,0.2,0.9,3,3.1c-0.4,0.3-0.7,0.5-1.1,0.8c0.6,2.1,2.6,2.3,3.8,3.5
	c-0.2,0.2-0.4,0.3-0.6,0.5c-0.8,0.7-0.7,1.3,0.1,1.9c0.3,0.2,0.6,0.3,0.8,0.4c0.3,0.1,0.6,0.3,0.9,0.4c-0.3,0.5-0.6,0.9-0.9,1.2
	c0,1.4,0.5,1.4,2.3,2.4c-0.3,0.4-0.7,0.8-1,1.2c0.2,1.5,1.5,1.7,2.4,2.3c-0.1,0.3-0.3,0.6-0.4,1c0.2,1.3,1.6,1.3,2.4,1.9
	c-0.2,0.6-1.1,0.9-0.7,1.9c0.5,0.2,1.2,0.5,1.9,0.8c0,0.4,0.1,0.8,0.1,1.1c0.7,1.2,1.9,0.6,2.8,1c0.2,0.4,0.3,0.8,0.5,1.2
	c0.8,0.1,1.6,0.1,2.5,0.2c-0.3,0.3-0.4,0.5-0.6,0.7c-1.7,1.4-3.4,2.9-5.2,4.2c-2.6,1.9-5.6,2.7-8.7,3.3c-3.4,0.6-6.8,1.3-10.2,1.9
	c-0.6,0.1-1.1,0.3-1.7,0.5c0,0.3,0.1,0.6,0.1,0.8c-0.7,0.6-1.8,0.6-2.1,1.8c0.1,0.3,0.3,0.6,0.5,0.9c-0.6,1-0.6,1-0.5,1.8
	c0.1,0.1,0.3,0.2,0.4,0.4c0.1,0.1,0.3,0.2,0.4,0.3c-0.1,0.6-0.1,1.1-0.1,1.6c1.2,0.6,2.3,0.1,3.4,0.5c0.1,0.4,0.1,0.9,0.2,1.3
	c1,0.6,1.9,0.2,2.8,0.1c0.2,0.3,0.4,0.6,0.6,1c0.5,0,1,0.1,1.6,0.2c0.2,0.2,0.4,0.5,0.7,0.8c0.4,0,0.8-0.1,1.3-0.1
	c0.5,0,1-0.1,1.4,0.1c0.8,0.3,1.5,0.2,2.2-0.2c0.9-0.5,1.8-1.1,2.5-1.8c2.4-2.1,4.8-4.2,7.1-6.3c0.5-0.4,1-0.8,1.5-1.2
	c1.5,0.3,2.9,0.7,4.3,1.7c0.1,0.6,0.2,1.2,0.3,1.8c0.3,0,0.5,0.1,0.9,0.2c-0.1,0.6-0.2,1.1-0.3,1.8c0.2,0.2,0.4,0.5,0.5,0.6
	c-0.2,1.1-0.4,2.1-0.5,3c0,0.9-0.9,1.6-0.4,2.9c0.7-0.5,1.3-1,1.9-1.4c-0.4,1.5,0.6,2.6,0.8,3.9c0.2,1.2,0.2,2.4,0.1,3.7
	c0.1,0,0.2,0,0.2,0c0.3-0.3,0.5-0.6,0.9-1c0.3,0.3,0.6,0.5,0.8,0.7c0.3-0.2,0.5-0.4,0.8-0.6c0.2,0.1,0.5,0.1,0.7,0.2
	c0.1-0.1,0.2-0.1,0.2-0.2c1-1.4,1.9-2.7,2.4-4.3c0.4-1.3,0.6-2.6-0.5-3.7c-0.4-0.4-0.6-0.9-0.4-1.5c0.6-1.8,1.1-3.6,1.7-5.5
	c0.1-0.2,0.2-0.4,0.4-0.8c0.2,2.1,0,3.8-1,5.5c0.5,0.3,0.7,0.4,1,0.6c-0.1,0.5-0.1,1-0.2,1.6c0.6-0.1,1.1-0.1,1.7-0.2
	c-0.6,1.5-0.2,2.9,0.1,4.3c0.2,1.1,0.4,2.2-0.3,3.2c-0.1,0.1-0.1,0.2,0,0.3c0,0.1,0.1,0.1,0.1,0.2c0.9,0,0.8-1.2,1.5-1.5
	c0.7,0.6,0,1.2,0.2,1.9c1,0.1,0.9-1,1.5-1.4c0.2,0.1,0.5,0.2,0.7,0.3c0.8-0.2,1.2-0.8,1.5-1.4c0.6-1.3,1.1-2.6,1.5-4
	c0.3-1.1,0-2.1-0.9-2.9c-0.4-0.3-0.6-0.7-1-1.1c0.7-2.4,1-5,2.1-7.2c0.2-0.4,0.5-0.8,0.8-1.2c0.4-0.5,0.9-0.9,1.7-0.7
	c0.4-0.4,0.7-0.8,1.1-1.1c0.5-0.4,0.8-1,1.5-1.1c0.3,0,0.5-0.5,0.8-0.7c1-1.1,2-2.3,3.1-3.3c0.6-0.6,1.3-1,2.1-1.3
	c0.8-0.4,1.7-0.7,2.6-0.9c4.4-1.1,6.8-4.2,8.2-8.2c0.2-0.5,0.4-1,0.6-1.6c0-1.8,0-3.7,0-5.5C73.8,61.7,73.3,60.8,72.9,59.9z
	 M63.2,64.8c-0.5-0.1-1-0.3-1.4-0.6c-0.6-0.5-0.5-1,0.2-1.3c0.4-0.2,0.9-0.2,1.2-0.3c1.4,0,2.1,0.5,2.1,1.2
	C65.2,64.5,64.2,65.1,63.2,64.8z M68.5,70.5c-0.4-1.3-0.7-2.6-0.3-3.9c0.1-0.3,0.5-0.4,0.8-0.6c0.1,0.3,0.4,0.6,0.4,0.9
	C69.5,68.1,69.2,69.3,68.5,70.5z M72.4,65.1c-0.4,0-1,0-1-0.7c0-0.7,0.9-1.5,1.6-1.4c0.3,0.1,0.5,0.4,0.7,0.5
	C73.6,64.5,73.1,65.1,72.4,65.1z"/>
</svg>
