<?xml version="1.0" encoding="utf-8"?>
<!-- Generator: Adobe Illustrator 28.3.0, SVG Export Plug-In . SVG Version: 6.00 Build 0)  -->
<svg version="1.1" id="Layer_1" xmlns="http://www.w3.org/2000/svg" xmlns:xlink="http://www.w3.org/1999/xlink" x="0px" y="0px"
	 width="97px" height="99.6px" viewBox="0 0 97 99.6" style="enable-background:new 0 0 97 99.6;" xml:space="preserve">
<style type="text/css">
	.st0{fill-rule:evenodd;clip-rule:evenodd;}
	.st1{fill:#B25959;}
</style>
<g id="y7UlHd_1_">
	<g>
		<path d="M95.7,49.4c-1.1-2.1-3-3-5.1-3.4c-1.4-0.2-2.8-0.1-4.2,0c-1.4,0.1-2.7-0.4-4-0.4c-0.6,0-1.2,0.2-1.6-0.3
			c-1.9,0-3.7-0.7-5.4-1.3c-0.7-0.2-1.4-0.5-2-1c-2.2-1.9-4-4.2-5.3-6.8c-1-2.1-2-5.3-2.3-7.4c-0.1-0.6-0.1-1.4-0.3-1.9
			c-0.4-1-0.6-2.1-0.9-3.2c-0.5-2-1.8-5.2-3-6.8c-0.9-1.3-1.9-2.5-2.8-3.8c-1.5-2.2-3.3-4.1-4.9-6.1c-0.7-0.9-1.5-1.6-2.2-2.5
			c-1.4-1.6-2.8-3.1-4.6-4.3c-0.1-0.1-0.4,0-0.7-0.1c0.8,1.8,1.8,3.2,2.7,4.7c0.9,1.5,2.1,2.9,2.8,4.5c-3.4-3-6.3-6.6-10.2-9.3
			c0,0.6,0,1.1,0.4,1.6c1.1,1.7,2.3,3.4,3.3,5.2c-2.6-1.9-4.8-4.3-7.8-5.6c-0.2,1,0.3,1.7,0.7,2.2c1.7,2.4,3.3,4.9,5.2,7.2
			c0.3,0.4,0.5,0.8,0.8,1.1c0.3,0.4,0.7,0.7,0.9,1.1c-0.3,0-0.5-0.1-0.6-0.2c-1.7-1.4-3.6-2.5-5.5-3.5c-0.3-0.2-0.7-0.3-1,0.2
			c0.6,0.7,1.3,1.4,1.7,2.2c0.4,0.9,1.5,1.2,1.7,2.2c-1-0.3-2-0.6-2.9-0.9c-0.4,0.4-0.8,0.7-1.1,1c0.6,1.2,1.1,2.2,1.7,3.4
			c0,0,0,0.1,0,0.4c-0.2,0.1-0.4,0.3-0.8,0.6c0.3,0.8,0.6,1.6,0.8,2.4c-0.4,0.3-0.7,0.5-1.2,0.9c0.5,0.9,1,1.8,1.4,2.6
			c-0.7,1.1-0.2,2.2,0.3,3.2c-0.6,1.4-0.3,2.7,0.1,4c-0.3,0.2-0.5,0.4-0.7,0.5c0,0.4,0,0.8,0,0.9c0.4,0.6,0.7,1.1,1.1,1.7
			c-0.6,0.4-0.6,0.8-0.2,1.4c0.3,0.3,0.5,1,0.3,1.2c-0.5,0.6-0.2,1.1-0.3,1.6c0.4,0.7,0.8,1.4,1.1,1.9c-0.1,0.4-0.1,0.7-0.2,1
			c0.6,0.6,1.1,1.1,1.6,1.6c-0.5,0.7-1.1,1.4-1.7,2.2c0.2,0.3,0.4,0.6,0.6,1c1-0.1,1.9-0.2,2.9-0.4c-1.4,2.3-1.4,2.3-1.3,3.4
			c1.3,0.5,2.4-0.6,3.8-0.6c-1.1,1.2-1.2,2.5-1,3.9c0.7,0.2,1.4,0.5,2.1,0.7c0,0.4,0,0.9,0,1.3c-1.2,1.5-2.7,2.5-4.2,3.6
			c-1,0.7-2.2,1.3-3.2,2c-1.7,1.1-3.4,2-5.2,3c-4.1,2.3-8.5,4.1-12.8,6.1c-0.5,0.2-1.1,0.5-1.6,0.7c-1,0.4-2.2,0.7-2.9,1.9
			c0.6,0,1.1,0.2,1.5,0c1.4-0.7,2.9-0.8,4.3-1.2c2.2-0.6,4.3-1.2,6.5-1.8c0.7-0.2,1.4-0.3,2.1-0.5c-0.9,1.2-2,2.1-3,3
			c-0.9,0.8-1.7,1.7-2.7,2.3c-0.8,0.5-1.3,1.2-2,1.7c-1.3,0.9-2.5,1.9-3.8,2.9c-0.7,0.5-1.2,1.2-1.9,1.5c-0.8,0.3-1.3,1-1.9,1.5
			c-1.7,1.1-3.2,2.4-4.8,3.7c-1.2,1-2.4,2-3.6,2.9c-1.4,1-2.8,2-4.1,3.2c-0.7,0.7-1.4,1.4-2.3,1.9c-1,0.6-1.6,1.5-2.4,2.3
			c0.8-0.3,1.6-0.7,2.2-1.1c3.2-2.3,6.5-4.5,9.8-6.8c1.9-1.3,3.8-2.6,5.7-3.9c2.4-1.6,4.7-3.3,7.1-5c2.1-1.5,4.2-3,6.3-4.5
			c0.1-0.1,0.3-0.1,0.5-0.1c-3.7,3.7-7,7.6-11,10.9c-2.2,1.9-4.2,4-6.4,6c-1.1,1-2.1,2.1-3.2,3c-1.8,1.5-3.3,3.2-4.9,4.9
			c-0.1,0.1-0.1,0.3-0.3,0.8c0.9-0.6,1.7-1.1,2.3-1.6c1.1-0.9,2.3-1.8,3.4-2.7c1.8-1.3,3.4-2.7,5.2-4c1.4-1,2.6-2.2,4-3.3
			c1.7-1.4,3.5-2.6,5.3-4c1.8-1.4,3.5-2.8,5.2-4.2c0.1,0.3,0,0.6-0.2,0.7c-2,2.1-4.1,4.1-6.1,6.1c-0.2,0.2-0.5,0.3-0.7,0.5
			c-1.1,1.1-2.4,2-3.1,3.5c0.2,0,0.4,0.1,0.5,0c1.4-0.8,2.7-1.5,4-2.5c1.3-1.1,2.8-1.9,4.1-3c1.6-1.3,3.2-2.5,4.8-3.7
			c2.3-1.7,4.5-3.6,6.8-5.3c1.3-1,2.4-2.2,3.6-3.3c0.2-0.1,0.4-0.2,0.8-0.4c-0.6,1-1,1.9-1.5,2.6c-0.5,0.8-1.3,1.5-1.5,2.8
			c7.1-4.6,12.1-10.5,15.7-17.8c1.5-0.2,2.8,0.2,4.2,0.3c1.9,0.1,3.8,0.1,5.7-0.2c1.5-0.3,3-0.7,4.5-1.2c1.2-0.4,2.2-1.4,3.3-2
			c1.2-0.7,2.4-1.4,3.8-1.3c2.5,0.2,5.1-0.2,7.6,0.3c0.9,0.2,1.8,0.2,2.7,0.6c0.5,0.2,1.1,0.4,1.6,0.4c0.6,0,1.4,0.3,1.8-0.5
			c-0.8-1.4-0.8-2.1,0-3c0.2,0.3,0.4,0.7,0.7,1c0.3,0.3,0.7,0.5,1,0.8c-0.2,0.7-0.4,1.4-0.7,2.2c0.6-0.4,1.2-0.5,1.5-0.9
			c0.4-0.5,0.7-1.1,1-1.7c0-0.9,0-1.9,0-2.7C96.6,51.1,96.2,50.3,95.7,49.4z M92.2,51.3c-0.3,0.8-3.1-0.4-2.7-1.1
			c0.3-0.8,1.2-1.1,1.9-0.8C92.1,49.7,92.5,50.6,92.2,51.3z"/>
		<path d="M76,43.5c-3.2-1.5-5.2-4-6.7-7c-1-2-1.8-4-2.2-6.2c-0.3-1.4-0.6-2.9-0.9-4.3c-0.5-2.3-1.3-5.4-2.5-7.4
			c0.1-0.3,0.2-0.7,0.4-1.2c0.2-0.2,0.6-0.5,1.2-1.1c0-0.2,0.2-0.7,0.4-1.5c0.1-0.1,0.4-0.3,0.8-0.7c0.1,0.1,0.3,0.2,0.5,0.3
			c0.3-0.6,0.5-1.2,0.8-1.8c0.3-0.1,0.7-0.3,1.1-0.5c0.5-1,0.5-2.5,1.6-3.5c1.1,0.5,1.4,1.6,2.2,2.6c0.2-1.6,0-3,0.1-4.3
			c0.2-0.2,0.3-0.3,0.5-0.5c0.7,0.9,0.9,1.9,1.1,2.9c0.2,1,0.7,2,0.6,3.1c0.2,0,0.3,0.1,0.5,0.1c0.1-0.1,0.1-0.2,0.2-0.3
			c0,0,0-0.1,0-0.2c-0.2-2.1,0.3-4.1,0.4-6.1c0-0.8,0.1-1.8,0.3-2.6c0.2-0.8,0.5-1.5,0.6-2.3c0-0.1,0.2-0.1,0.4-0.2
			c0.6,0.5,0.5,1.3,0.8,2c0.2,0.5,0.2,1.1,0.3,1.6C79,5.8,79,7.2,79.1,8.6c0.1,0.1,0.2,0.2,0.4,0.4c0.1-0.1,0.2-0.1,0.2-0.2
			C79.5,7.4,79.9,6,80,4.6c0-0.7,0.4-1.3,0.6-2.1c0.5,0.6,0.6,1.1,0.6,1.7c0,0.8,0.2,1.5,0.3,2.3c0.1,0.7-0.2,1.6,0,2.2
			c0.5,1.8,0.1,3.6,0.5,5.4c0-0.3,0.1-0.6,0.1-0.8c0.1,0.1,0.2,0.2,0.3,0.3c0.3-2.8,0.6-5.5,1.4-8.3c0.2,0.2,0.4,0.4,0.6,0.6
			c0,0.8-0.2,1.7,0,2.5c0.5,1.8,0.1,3.6,0.3,5.3c0.1,1.1-0.5,2.1-0.3,3.2c0.1,1.1,0.3,2.3,0,3.3c-0.4,1.3,0.1,2.6-0.6,3.8
			c0.1,1.6-0.4,3.1-1,4.6c-0.5,1.3-1,2.6-1.7,3.8c-1.1,2-2.6,3.9-3.4,6.1c-0.4,1.2-0.9,2.3-1.3,3.5C76.3,42.6,76.2,43,76,43.5z"/>
	</g>
</g>
</svg>
