<?xml version="1.0" encoding="utf-8"?>
<!-- Generator: Adobe Illustrator 28.3.0, SVG Export Plug-In . SVG Version: 6.00 Build 0)  -->
<svg version="1.1" id="Layer_1" xmlns="http://www.w3.org/2000/svg" xmlns:xlink="http://www.w3.org/1999/xlink" x="0px" y="0px"
	 width="421px" height="221.8px" viewBox="0 0 421 221.8" style="enable-background:new 0 0 421 221.8;" xml:space="preserve">
<style type="text/css">
	.st0{fill-rule:evenodd;clip-rule:evenodd;}
	.st1{fill:#B25959;}
</style>
<g>
	<path d="M26,171.3c0.1-0.1,0.1-0.1,0.2-0.2C26.1,171.1,26,171.2,26,171.3L26,171.3z"/>
	<path d="M415.5,117.3c-1.8-5.6-5.9-8.3-12-8.4c-0.4-1.8-1.7-2.1-3-2.3l-1-6.4l-0.5,0.3c0,0,0,0,0,0l0.8,5.9c0,0,0,0,0,0l0,0l0,0
		c-0.2-0.1-0.4-0.1-0.6-0.2l-2.8-3.4c0.7-0.9,1.5-1.6,2.5-2.3l0,0l0,0c0.4-0.2,0.8-0.5,1.3-0.7c0-0.6-0.1-1.3-0.1-1.9
		c-0.8,0-1.4,0-2,0c-4.6,1.9-6.7,5.9-8.8,9.8c0.4,1.5,0.7,2.7,1.2,4.3c1.2-0.7,2.1-1.2,3.4-1.9c2.1,0.4,4.5,0.8,6.9,1.2
		c-0.4,0.7-0.8,1.1-1.2,1.3c-1.6,0.8-3.2,1.8-4.9,2.4c-0.8,0.3-2,0.3-2.8-0.1c-3.3-1.6-6.7-1.5-8.8-1c-4.1,2.1-6.9,4.4-10,5
		c-8.3,1.5-16.6,1.7-24.8-2.1c0.2-1.2,0.1-2.4,0.5-3.5c1.2-3.7,2.3-7.5,3.8-11.1c1.5-3.7,3.2-7.3,4.9-10.8c0.6-1.3,1.8-2,3.3-2.4
		c2.1-0.6,4.3-1.4,6.3-2.4c8.6-4.2,13-11.5,15-20.5c0.1-0.7-0.1-1.4-0.2-2.1c-0.2,0-0.3-0.1-0.5-0.1c-2.3,2-3.8,4.6-5.3,7.2
		c-0.4-1.5-0.2-2.9,0.8-4.2c1.4-1.8,2.7-3.5,4.1-5.3c5.9-7.3,10.5-15.3,13.2-24.4c0.3-1.1,0.4-2.3,0.7-3.4c-0.1-0.1-0.3-0.2-0.4-0.3
		c-0.7,0.4-1.5,0.6-2.1,1.2c-1.2,1.1-2.5,2.3-3.5,3.6c-2.8,3.8-5.5,7.6-8.2,11.4c-0.4,0.6-0.9,1.1-1.4,1.7c-0.1-0.1-0.2-0.2-0.4-0.3
		c0.3-0.6,0.5-1.3,0.8-1.9c4-9.1,7.8-18.3,9-28.3c0.2-2,0.3-3.9,0.4-5.9c-0.2-0.1-0.4-0.2-0.6-0.3c-0.9,0.6-2,1-2.7,1.8
		c-3.3,4.1-5.6,8.7-7.5,13.5c-0.9,2.2-1.6,4.4-2.5,6.7c-0.3,0.8-0.7,1.7-1,2.5c0.4-4.4,1.4-8.6,1.9-12.9c0.7-5.7,1.2-11.5,1.7-17.3
		c0.1-1.1-0.3-2.2-0.5-3.3c-0.2-0.1-0.5-0.2-0.7-0.2c-1,1.2-2.3,2.2-3,3.5c-1.2,2.1-2.3,4.2-2.9,6.5c-1.7,6.2-3.2,12.4-4.8,18.7
		c-0.2,0.8-0.4,1.6-0.6,2.3c-0.2-1.2-0.3-2.4-0.2-3.6c0.6-7.1,1.3-14.2,1.8-21.3c0.2-3,0.6-6.1-0.6-9.1c-1.9-0.4-3,0.6-3.7,1.9
		c-1.5,2.9-2.9,5.8-4.1,8.9c-2.2,5.6-2,11.5-2.4,17.4c-0.2,3.9,0,7.9,0,11.8c-0.2,0-0.4,0-0.6,0c-0.4-2.4-0.8-4.8-1.1-7.2
		c-1.1-9.8-2-19.6-3.2-29.4c-0.2-1.9-0.5-4-2.1-5.7c-0.3,0.6-0.4,1.1-0.7,1.2c-2.4,0.4-2.6,2.5-3.1,4.2c-1.7,5.1-2,10.2-1.7,15.5
		c0.4,6.6,1.2,13.2,2.8,19.6c-0.5-0.6-0.9-1.1-1.2-1.8c-1.5-3.7-2.9-7.4-4.4-11.1c-2.8-7-5.5-14.1-8.3-21.1c-0.6-1.4-1.5-2.5-2.4-4
		c-1.6,1.2-2.3,2.5-2.2,3.8c0.2,4.4-0.1,8.9,0.9,13.1c1.8,7.7,5.3,14.7,8.8,21.7c0.2,0.4,0.3,0.8,0.4,1.2c-0.2,0.1-0.3,0.2-0.5,0.3
		c-3.1-4.4-6.2-8.8-9.3-13.2c0.6-1.1,1.1-1.9,1.6-2.8c-0.1-0.1-0.2-0.2-0.3-0.3c-0.9,0.3-1.8,0.7-2.8,1.1
		c-4.8-6.7-9.5-13.4-14.3-20.1c-0.3,0-0.6,0-0.9-0.1c0.2,4.1-0.8,7.6-4.3,10c-0.8-1.3-1.6-2.6-2.5-3.8c-0.9-1.3-1.9-2.4-2.9-3.7
		c-0.2,0.1-0.5,0.2-0.7,0.2c-0.2,1.2-0.5,2.4-0.5,3.6c0.1,3.9,1.4,7.4,3.3,10.7c0.7,1.3,1.1,2.5-0.1,4.1c-2.1-2.5-4.1-4.9-6.1-7.3
		c-0.1,0.1-0.3,0.2-0.4,0.2c0.5,4.6-0.5,9.4,2.7,13.3c-0.5,0.7-0.8,1.2-1.1,1.7c0.2,2.1-0.1,8.2-0.8,12.8c-0.7-1.9-1.3-3.8-1.7-5.7
		c-1-4.5-1.3-9.2-0.7-13.9c0.8-5.9,1.1-12,1.6-18c0.2-2.2,0.3-4.4,0.5-7c-4,3.8-3.9,8.8-5.5,13c-1.6,4.5-1.6,9.1-0.9,13.9
		c-0.9,0-1.6,0-2.6,0c0.1,0.8,0,1.6,0.2,2.2c0.5,1.4,1,2.8,1.7,4c2.3,4.5,4.8,8.9,7.1,13.4c-0.5,2.6-1.2,4.1-2,3
		c-2.4-3.2-3.9-6.8-5.4-10.5c-1.8-4.5-3.9-8.9-5.1-13.6c-0.4-1.5-1.2-2.9-1.5-4.3c-1.1-6.3-2-12.7-3-19c-0.1-0.9-0.5-1.7-0.9-2.9
		c-4.1,12.5-0.1,23.4,5.1,34.2c-0.7,0.1-1.3,0.2-1.8,0.2c3.5,5.6,6.9,11,10.3,16.5c-1.2-1.4-2.5-2.6-3.6-4.1
		c-2.4-3.2-4.6-6.5-6.9-9.7c-5.8-8-10.8-16.5-14.5-25.7c-1.3-3.2-2.7-6.4-4-9.7c-1,2.7-0.9,5.1,0.1,8.9c1.8,7,5.5,12.9,9.5,18.8
		c3.5,5.1,7.9,9.6,10.2,16.1c-0.9-0.8-1.4-1.3-1.9-1.8c-3.3-4-7.3-7.4-9.9-12.1c-0.9-1.8-2.6-3.2-4-4.7c-4.4-5-8.2-10.4-11.3-16.4
		c-0.9-1.8-1.9-3.7-2.9-5.6c-1,2.2-0.3,4,0.4,5.9c1.9,5.4,5,10.2,8.6,14.6c4.2,5,8.5,10,12.8,14.9c-0.3,0.5-0.5,0.9-0.6,1.2
		c1.8,1.8,3.4,3.6,5.1,5.3c-0.2,0.2-0.4,0.4-0.6,0.6c-11.6-12.7-25.2-23.6-35-38.1c-0.2,0.7-0.2,1.2,0,1.7c1.5,4.2,3.4,8.2,6.3,11.6
		c3.2,3.7,6.6,7.2,10,10.8c1.8,1.9,3.6,3.7,4.4,6.3c0.4,1.3,1.2,2.6,2.2,3.5c2.7,2.5,5.5,4.7,8.3,7.1c0.6,0.6,1.2,1.2,1.8,1.8
		c-0.2,0.2-0.3,0.3-0.5,0.5c-6.1-3.9-11.3-9.2-17.3-13.4c0.4-0.1,0.7-0.1,1-0.2c-6.8-5.2-13.7-10.4-20.3-15.4
		c0.4,0.6,0.9,1.4,1.6,2.4c-0.8-0.1-1.2-0.1-1.7-0.1c2.1,3.9,6.4,5.9,8.3,10.2c-2.9-1-5.5-2-8.3-3c1.1,1.4,1.9,2.4,2.7,3.5
		c-0.1,0.1-0.3,0.2-0.4,0.4c-0.9-0.6-1.8-1.2-2.9-1.9c0.1,0.6,0.2,1,0.2,1.4c-0.5,0.2-0.8,0.3-1.5,0.6c3,1.9,5.7,3.7,8.4,5.4
		c-0.1,0.2-0.2,0.4-0.4,0.6c-2.6-1.2-5.2-2.4-7.8-3.6c-0.1,0.1-0.3,0.2-0.4,0.3c0.3,0.6,0.4,1.4,0.9,1.9c0.7,0.7,1.5,1.3,2.3,1.8
		c1.2,0.8,1.8,1.8,1.7,3.5c-2.8-0.5-5.4-0.9-8.2-1.4c-0.2,1-0.4,1.7-0.5,2.4c-0.7,0.1-1.4,0.1-2.1,0.2c0.3,2.5,2,3.6,3.8,4.5
		c-0.4-0.7-0.9-1.4-1.3-2.1c0-0.1,0.1-0.2,0.1-0.2c1.9,1.2,3.8,2.4,6,3.8c-2.4,1.4-3.2-0.2-4.2-1.1c0,0.3,0,0.6,0.1,1
		c-1.3,0.1-2.5,0.2-4.1,0.3c0.4,1.3,0.7,2.4,1,3.4c-0.8,0.2-1.7,0.4-2.6,0.6c-0.1,0.2-0.1,0.4-0.2,0.6c0.9,1.2,1.7,2.4,2.6,3.7
		c0.1-0.1,0.2-0.3,0.2-0.4c4,1.9,8,3.8,12,5.6c-0.1,0.2-0.2,0.4-0.3,0.7c-2-0.8-4-1.5-6-2.4c-2.8-1.3-5-0.9-7,1.6
		c1,1.3,2,2.8,3.1,4.3c-0.1,0.2-0.3,0.6-0.8,1.3c2.8,1.9,5.3,3.9,8.2,5.5c3.3,1.8,6.9,2.9,10.2,4.7c5.1,2.8,10.2,4.9,16.1,4.6
		c0.8,0,1.5-0.1,2.3,0c0.6,0.1,1.2,0.4,2.1,0.6c-0.4,0.5-0.6,0.7-0.8,0.9c-1.3,1.1-2.8,0.4-4.2,0.4c-6.1,0.1-12.3,0.3-18.4,0.6
		c-1.4,0.1-2.9,0.6-4.3,1c-0.2,0.1-0.3,0.4-0.5,0.6c-0.5-0.1-1.1-0.2-1.7-0.3c-1.1-2.3-2.6-4.5-1.1-7.3c-2,1.5-4.2,2.7-4,4.9
		c1.3,2.4,2.1,4.1,3,5.8l-0.1,0c0,0,0,0,0,0.1c0,0,0,0,0,0c0.6,1.6,1.2,3.1,2,5.1c-0.8-0.3-1-0.4-1.3-0.5c-0.2-1.5-0.5-3.1-0.7-4.6
		c-0.4,0.3-0.8,0.7-1.2,1c-0.4,0.1-0.7,0.2-1,0.3c-0.3,2.2,2.4,3.8,0.8,6c-0.3-0.2-0.6-0.3-0.8-0.5c-0.1,0.1-0.1,0.2-0.2,0.2
		c0.9,1.1,1.9,2.2,2.5,2.9c1,0.1,1.6,0.2,2.2,0.2c-0.1,1.4-0.2,2.7-0.3,3.9c-0.3-0.3-0.6-0.6-1.1-1.2c0.3,1.5,0.5,2.6,0.6,3.6
		c-3.1,0.9-4.8-0.7-6.3-3c-1.3-1.9-3.4-3-5.2-4.4c-0.2,0.2-0.4,0.4-0.5,0.6c0.5,0.5,0.9,1,1.5,1.5c-1.1,0.7-2.2,1.4-3.4,2.2
		c0.1,0.3,0.1,0.7,0.2,1.2c-0.9-0.1-1.6-0.3-2.4-0.4c0.1-0.1,0.1-0.2,0.2-0.2c-1.4-1.1-2.8-2.3-4.1-3.4c-0.1,0.1-0.2,0.2-0.3,0.2
		c0.6,1.3,1.1,2.6,1.9,4.2c-2.5-1.5-3.1-4.6-6.3-4.8c0.3,0.5,0.5,0.8,0.9,1.3c-1.1,0-1.9,0-2.9,0c0.4,0.2,0.6,0.4,0.8,0.5
		c-0.1,0.2-0.1,0.4-0.2,0.6c-2.2-0.2-4.4-0.4-6.5-0.6c-3.6,3.3-7.3,0.9-11,0.3c-0.4,0.6-0.8,1.1-1,1.5c-1.9,0-3.7,0-5.5,0
		c-0.9,0-1.8,0.1-2.7,0c-5-0.4-9.6-2.2-13.6-4.1c-1.2,0.2-2,0.4-2.8,0.3c-1.5,0-2.9-0.2-4.4-0.2c-3.2-0.2-6.3-0.5-9.2-2.1
		c-2.3-1.2-4.9-1.8-7.3-2.6c-0.1,0.2-0.1,0.4-0.2,0.5c1.9,0.7,3.7,1.4,5.6,2c0,0.1-0.1,0.3-0.1,0.4c-4.5-0.1-8.5-2.5-12.9-3.2
		c0.4,0.2,0.7,0.5,1.2,0.8c-3.5,0.9-6.1-1.4-9.1-2.2c-2.5-0.8-5-1.7-7.5-2.6c-0.2-0.1-0.4,0-0.6,0c0.1,0.3,0.2,0.6,0.2,0.9
		c-2.2,0-4.3,0-6.4,0c-0.5,0.5-1,0.9-1.4,1.4c-1.1,0.1-2.2,0.3-3.3,0.4c0-0.2,0-0.3,0.1-0.5c-4.2-0.9-8.3-2-12.5-2.6
		c-2.6-0.4-5.3,0-7.9-0.3c-2.9-0.4-5.7-1.2-8.6-1.9c-3.9-0.9-7.8-1.1-11.7-0.3c-0.7,0.2-1.4,0.6-2.1,0.9c0,0.1,0.1,0.3,0.1,0.4
		c1.5,0.4,3.1,0.8,4.5,1.2c1.2-0.4,2.3-0.8,3.3-1.1c0.1,0.1,0.2,0.2,0.3,0.4c-0.4,1.1-0.8,2.1-1.2,3.5c-1.5,0-2.9,0-4.2,0
		c-1.7,0-3.5-0.3-4.6,1.9c0.9,0.3,1.7,0.5,2.8,0.8c-1.1,0.5-1.8,0.9-2.6,1.2c0,0.1,0,0.2,0.1,0.3c1-0.1,2-0.1,3-0.2
		c0,0.1,0,0.2,0,0.3c-1.1,0.4-2.2,0.7-3.4,1.1c0,0.2,0,0.5,0.1,0.7c1.3,0.1,2.7,0.3,4.5,0.4c-0.8,0.5-1.2,0.8-1.6,1.1
		c-0.3,0.8-0.5,1.6-0.7,2.3c-1,0.3-1.8,0.6-2.6,0.9c-7.1-1.1-14.1-1.7-20.8,1.1c-0.5,0.8-0.9,1.4-1.3,2c-0.8-0.1-1.6-0.2-1.9-0.2
		c-1.3,0.7-2.3,1.5-3.4,1.7c-2.6,0.6-5.2,1-7.8,1.4c-4.3,0.8-5.8,4.6-8.2,7.4c2.3-0.1,3.2-2.7,5.7-3.2c-1.8,2.7-3.5,5.1-5.1,7.6
		c0.1,0.1,0.3,0.2,0.4,0.3c2.5-2.3,5-4.6,7.5-7c0.2,0.2,0.4,0.3,0.5,0.5c-1.7,2.1-3.5,4.2-5.2,6.3c0.1,0.1,0.2,0.2,0.3,0.3
		c0.6-0.2,1.1-0.4,1.8-0.7c-0.1,1-0.2,1.7-0.2,2.5c-0.7,0-1.3,0-1.8,0c-1,0.9-1.9,1.6-2.7,2.4c-0.5,0.1-1.1,0.2-1.6,0.4
		c-3.3,2-7.1,2.5-10.8,3.2c-0.8,0.2-1.7,0.3-2.4,0.6c-0.6,0.2-1.2,0.5-1.8,0.8c0,0.1,0.1,0.3,0.1,0.4c2.7,0.2,5.1-1.8,7.8-1.1
		c-4.3,1.8-8.5,3.5-12.8,5.1c-4.5,1.7-7,5.6-10.5,8.5c0.1,0.1,0.1,0.3,0.2,0.4c1-0.3,2-0.6,3-0.9c0.1,0.6,0.2,1.3,0.3,1.9
		c0.2,0.1,0.4,0.1,0.6,0.2c1.1-1.2,2.3-2.3,3.3-3.6c2.7-3.1,5.9-5,10.1-5.1c1.1,0,2.2,0,3.3,0c0,0.1,0,0.2,0,0.3
		c0.6-0.3,1.1-0.6,1.7-0.9c0.1,0.1,0.1,0.2,0.2,0.3c-0.4,0.4-0.7,0.8-1.1,1.2c0.1,0.2,0.2,0.3,0.3,0.5c1.5-0.8,3-1.6,4.6-2.5
		c0.1,0.3,0.3,0.8,0.4,1.3c1.6-0.6,3.3-1.2,4.9-1.8c1.5-0.5,2.7-2.1,4.7-1.9c-1.2,2-2.3,3.8-3.3,5.5c-1,0.4-1.9,0.8-3.1,1.3
		c0.8,0.3,1.3,0.6,1.8,0.8c-2.4,1.1-4.6,2.1-6.8,3.1c0-0.2-0.1-0.4-0.1-0.5c-1.5,0.1-2.9,0.2-4.4,0.4c0,0.1,0,0.3,0,0.4
		c0.5,0.2,1,0.4,1.5,0.6c0.6-0.2,1.2-0.4,1.8-0.6c0.1,0.2,0.3,0.5,0.4,0.7c-1,0.7-2.1,1.4-3.1,2c-0.4,0.3-1.1,0.3-1.3,0.6
		c-1.1,2-3.1,1.6-4.8,2c-2.2,0.5-4.4,0.7-6.5,1.3c-0.7,0.2-1.3,1-1.9,1.5c0.1,0.1,0.2,0.3,0.2,0.4c2.5-2.4,5.4-1.5,8.3-1.2
		c-2.9,0.6-5.9,1.2-9.3,1.9c1,0.9,1.5,1.4,2.1,1.9c-0.1,0.8-0.1,1.6-0.2,2.5c1.2,0.9,2.4,1.8,3.8,2.9c0.1,0.4,0.3,1,0.5,1.7
		c-0.4,0.3-0.7,0.5-1.2,0.8c0.9,0.1,1.7,0.3,2.9,0.4c-1.5,1.4-2.6,2.5-4,3.7c0.7-0.1,1.1-0.2,1.5-0.3c0,0.4-0.1,0.6-0.2,1.4
		c1.5-1.4,2.8-2.5,4-3.7c1.2-1.2,2.3-2.4,3.4-3.6c4.5-6.1,6.9-8.7,14.2-9.2c0,0.3,0,0.6,0,0.8c1.2-0.5,2.5-1,4.1-1.6
		c-0.3,0.9-0.5,1.4-0.4,1.3c-2.9,1.4-5.5,2.6-8,3.8c-0.1-0.1-0.1-0.3-0.2-0.4c-0.7,0.6-1.3,1.3-2.2,2.1c1.2,0,2,0,3.3,0
		c-1.3,1.3-2.2,2.4-3.2,3.4c2-1.4,4-2.8,5.7-3.9c1.2-0.1,1.9-0.1,2.6-0.2c0.4,0.3,0.9,0.6,1.5,1c0.9-0.2,1.7-0.5,2.7-0.7
		c-0.2,0.5-0.3,0.9-0.5,1.2c0.1,0.1,0.2,0.2,0.3,0.4c1.3-0.7,2.7-1.4,4.4-2.3c0.8,0.7,2,1.7,2.9,2.4c0.6,3.2-1.2,4.6-3.4,5.9
		c2.5,0.4,4-1.2,4.9-2.9c1.2-2.3,2.8-3.5,5.3-4c0.8,0.7,1.6,1.5,2.4,2.2c-1.6,1.7-3,3.2-5,5.4c-0.8,0.4-2.3,1.1-3.8,1.8
		c0,0.1,0.1,0.2,0.1,0.2c1.1-0.2,2.3-0.4,3.3-0.6c0.6,0.9,1.1,1.8,1.6,2.6c3-2.8,6-5.5,8.5-7.8c0.7,0.3,1.2,0.5,1.6,0.7c0,0,0,0,0,0
		c0.2,0,0.4,0,0.6-0.1c3.9-2.6,8.1-4.5,12.5-6.2c0.9-0.4,1.9-1,2.5-1.7c0.9-1.1,1.8-1.8,3.2-1.9c1-0.1,2.1-0.4,2.8-1
		c1.4-1,2.9-1.2,4.5-1.2c4.5-0.1,8.2-1.6,10.4-5.8c0.1,0.7,0.3,1.3,0.5,2.4c1.2-1.6,2-2.8,3-4.2c0.1,0.7,0.2,1.1,0.3,1.8
		c0.7-0.7,1.2-1.2,1.7-1.9c0.3,0.3,0.6,0.5,0.6,0.5c1.3-0.7,2.5-1.3,3.8-2c2.6,0.4,5.2,0.7,8.2,1.1c-0.6-0.5-0.9-0.8-1.6-1.3
		c2.4,0,4.4,0,6.7,0c-0.4,0.8-0.7,1.3-0.9,1.8c0.1,0.1,0.2,0.2,0.3,0.2c0.6-0.6,1.2-1.1,1.9-1.8c0.7,0.2,1.5,0.4,2.6,0.8
		c-1.3,0.3-2.1,0.4-3,0.6c0,0.1,0,0.2,0,0.3c0.7,0.3,1.4,0.5,2.4,0.8c-0.7,0.5-1.2,0.9-1.7,1.2c0.1,0.1,0.1,0.2,0.2,0.3
		c1.1-0.4,2.2-0.9,3.3-1.3c0,0.1,0.1,0.2,0.1,0.4c-0.2,0.2-0.3,0.4-0.9,0.9c4.6-0.8,8.6-1.5,12.7-2.2c0,0.1,0.1,0.4,0.2,0.8
		c0.6-0.2,1.1-0.3,1.7-0.4c0.1,0.2,0.1,0.3,0.2,0.5c-1.9,1.1-4.2,1.6-6.3,2.4c0.1,0.2,0.1,0.4,0.2,0.6c0.7-0.2,1.5-0.3,2.2-0.5
		c0,0.2,0,0.3,0.1,0.5c1.3-0.2,2.5-0.9,3.6-1.2c0.7-0.8,1.3-1.5,1.9-2.1c0.6,0.5,1,0.8,1.4,1.1c0.7-0.4,1.3-0.7,2.2-1.1
		c0.6,0.5,1.2,1,1.8,1.6c-0.2,0.4-0.4,0.7-0.6,1.1c0.6,0.2,1.2,0.3,1.5,0.4c3.6-1.2,6.9-0.4,10.3,0c-0.5-0.3-1-0.6-1.8-1
		c1-1.4,1.9-2.8,2.9-4.2c0.4,0.2,1,0.5,2,0.9c-1,1.3-2.1,2.8-3.2,4.2c0.9,0.5,1.8,1,2.7,1.5c0.6-0.1,1.2-0.2,1.8-0.3
		c0.3,0.9,0.6,1.8,0.9,2.9c0.7-0.2,1.4-0.3,2-0.5c0-0.1,0-0.2-0.1-0.4c-0.5,0-1,0.1-1.5,0.1c0-0.7-0.1-1.3-0.2-2.1
		c1.1-0.4,2.1-0.7,3.1-1c0,0,0,0,0,0c0.9-0.4,1.9-0.8,2.8-1.2c0.1,0.2,0.2,0.4,0.3,0.6c-0.9,0.5-1.9,1.1-2.8,1.6
		c0.1,0.2,0.1,0.3,0.2,0.5c1.4,0,2.7,0,4.7,0c1.1-0.6,2.7-1.5,4.4-2.5c0.3,0.6,0.5,1,0.6,1.4c3.3-1.3,6.6-2.6,9.8-3.8
		c0,0.2,0.1,0.3,0.1,0.5c1.2,0,2.5,0.3,3.7,0c5.6-1.5,11.2-3.1,16.8-4.7c3.2-0.9,6.3-1.8,9.7-2.7c-0.1,0.6-0.1,1.1-0.2,1.5
		c0.9,0.1,1.6,0.3,2.4,0.4c0-0.1,0-0.2,0.1-0.4c-0.6-0.3-1.1-0.6-1.7-1c0-0.2,0-0.4,0-0.6c3.5-0.9,6.9-1.8,10.2-2.6
		c0.6,1.2,1.1,2.1,1.4,2.7c1.3,0.1,2.4,0.1,3.5,0.2c-0.1,0.2-0.1,0.3-0.2,0.5c0.3,0.8,0.6,1.7,0.9,2.5c1.7-0.1,2.4-2.3,4-0.9
		c0.6,0.9,1.2,2.2,2.1,2.5c1.5,0.6,3.3,0.7,5,1.1c0.1,0.3,0.2,0.6,0.4,1c0.4-0.1,0.6-0.1,1-0.2c0.2,0.6,0.5,1.1,0.7,1.8
		c0.6-0.2,1.1-0.3,1.6-0.4c0,0.3,0.1,0.5,0.1,0.8c0.5-0.2,1-0.3,1.6-0.5c0.3,0.5,0.6,0.9,0.8,1.2c0.6,0.1,1,0.2,1.8,0.3
		c-0.8,0.5-1.4,0.8-2.1,1.3c1.7,0.6,2.9,1.1,4.3,1.6c-0.5,0.7-0.9,1.2-1.2,1.7c-0.4,0.8-1.1,1.7-1,2.4c0.5,2.8,1.2,5.6,2,8.3
		c1.1,3.5,2.4,7,3.6,10.5c0.1,0.2-0.1,0.4-0.2,0.7c-0.4-0.1-0.7-0.2-0.8-0.2c-1,1.3-1.9,2.4-2.7,3.4c-1.2,0.1-2.3,0.2-3.8,0.3
		c1.7,1.2,3,2,4.3,2.9c-0.2,0.9-0.4,1.6-0.6,2.3c-0.1-0.1-0.2-0.1-0.3-0.2c-0.6,0.8-1.1,1.6-1.6,2.4c-3.1,1.9-6-0.3-9.1-0.9
		c-0.4,0.7-0.7,1.2-1.1,1.8c0.7-0.1,1.2-0.2,1.7-0.3c0.3,0.7,0.5,1.2,0.7,1.7c1.6,0.2,3.1,0.4,4.7,0.6c-1.3,4.5-4.8,6.9-7.7,10
		c-0.1,0.4-0.3,1-0.5,1.5c-0.7,0.3-1.2,0.5-2,0.8c1.9,0.7,2.1,0.8,3.4-0.4c1.8-1.6,3.4-3.3,5.2-4.9c0.4-0.3,1.1-0.4,1.8-0.7
		c-1.1,3-3.6,4.9-3.4,8c-0.4,0.2-0.7,0.3-1.3,0.6c1.6,0.5,1.6,0.5,4.5-3.7c0,0.7,0.1,1.5-0.2,2.1c-1,1.9-2.1,3.8-3.1,5.7
		c-0.6,1.2-1.2,2.5-1.7,3.7c0.2,0.1,0.3,0.2,0.5,0.3c-0.7,0.5-1.3,0.9-2.2,1.5c1.5,0.6,2.6,0,3.3-1c2.1-2.9,4.2-5.9,6.2-8.7
		c2.3-1.2,4.4-2.5,6.7-3.4c3.6-1.5,6.5-3.7,7.3-7.8c0.1-0.5,0.1-1,0.4-1.4c1.3-2.1,0.5-4-0.2-6c-1.3-3.5-2.1-7.1-3.6-10.4
		c-1.6-3.6-0.1-6.8,0.7-10.2c2.5-1.4,4.9-2.9,7.5-4c1.9-0.8,7.2,0.4,7.6,1.5c1.4,0.1,2.8,0.2,4.1,0.5c5.5,1.2,10.7-0.6,15.9-1.8
		c0.4-0.1,0.8-0.4,1.1-0.5c1.5-0.8,3.1-1.6,4.2-2.2c1.6,0.3,2.7,0.7,3.7,0.6c5.6-0.9,11.3-0.9,16.8-3.2c5.7-2.4,10.4-5.8,14-10.8
		c1.8-2.5,3.5-5.2,6.8-6c5.3-1.3,10.6-2.5,16-3.4c5.8-0.9,11.6-1.9,16.9-4.6c3.8-2,7.7-3.9,11.6-5.8c4.8-2.3,9.5-4.8,13.4-8.1
		c5.9-1.9,11.6-2.8,17.5,0.5C420.7,121.1,417.1,120,415.5,117.3z M395.2,104.9L395.2,104.9c0.3-0.6,0.7-1.2,1-1.7l2.8,3.6
		c-0.1,0.3-0.3,0.6-0.4,0.9L395.2,104.9C395.1,104.9,395.1,104.9,395.2,104.9L395.2,104.9z M398.9,110.3c-1.7-0.3-3.5-0.6-5.4-0.9
		c0.4-1.3,0.8-2.5,1.3-3.7l0,0l0,0c0,0,0,0,0,0l3.7,2.3c-0.2,0.4-0.3,0.7-0.5,1.1c0.4,0.3,0.7,0.6,1.1,0.9
		C399,110.1,399,110.2,398.9,110.3z M242.6,99.1L242.6,99.1L242.6,99.1L242.6,99.1z M102.9,104.4c0.5-0.1,1.1-0.1,1.9-0.2
		c-0.1,0.8-0.1,1.4-0.1,2.1c-0.7,0.1-1.3,0.1-2.1,0.2C102.7,105.6,102.8,105.1,102.9,104.4z M100.3,115.5c1.5-0.8,2.5,0.4,3.8,0.8
		c-0.1,0.2-0.1,0.4-0.2,0.6c-1.2-0.3-2.5-0.5-3.7-0.8C100.2,116,100.2,115.8,100.3,115.5z M90.8,115.7c-1.5,0.1-2.5-0.4-3.2-1.9
		C89.1,113.8,90.3,113.9,90.8,115.7z M74.1,114.5c1.1,0,2.6,0,4.2,0c-0.2,0.5-0.4,1.1-0.7,1.7c-1.6,0.2-3.1,0.3-4.7,0.5c0,0,0,0,0,0
		c0,0,0,0,0,0c0.6,0.5,1.2,1.1,2.1,1.8c-1.3-0.1-2.2-0.2-3.5-0.3c0.5-0.5,0.9-1,1.4-1.5c0,0,0,0,0,0c0,0,0,0,0.1,0
		c-0.8-0.4-1.7-0.7-2.5-1.1C71.6,115.2,72.8,114.9,74.1,114.5z M73.4,147.8c-0.6,0.2-0.8,0.3-1.1,0.3c-0.3,0-0.5,0-0.5,0
		c-0.6-0.7-1-1.3-1.6-2.1c2.8-0.2,5.6-0.4,8.4-0.6c0,0.2,0,0.4,0.1,0.6c-2.1,0.2-4.2,0.3-6.3,0.5c0,0.2,0,0.3-0.1,0.5
		C72.5,147.3,72.8,147.5,73.4,147.8z M69.4,144.5c0.7-0.9,0.7-0.9,7.8-0.8c-0.3,0.5-0.4,0.8-0.4,0.8
		C74.2,144.5,71.8,144.5,69.4,144.5z M69.1,119.7c0.9,0.1,1.8,0.2,2.8,0.4c0,0.2-0.1,0.5-0.1,0.7c-0.9-0.1-1.8-0.2-2.8-0.3
		C69.1,120.3,69.1,120,69.1,119.7z M73.5,138.1c0,0.1,0,0.2,0.1,0.3c-1.8,0.2-3.7,0.3-5.5,0.5c0-0.2-0.1-0.5-0.1-0.7
		C69.8,138.1,71.6,138.1,73.5,138.1z M71,139.9c1.2,0.2,2.4,0,3.8,0c-0.1-0.8-0.1-1.4-0.2-1.9c0.5,0,0.9,0,1.4,0
		c-0.1,0.5-0.2,0.9-0.4,1.4c0.3,0.3,0.7,0.6,1.2,1c-0.2,0.3-0.5,0.6-0.7,0.9c-4-0.7-7.3-0.1-8,1.5c-0.6-0.4-1.2-0.9-1.8-1.4
		C67.7,140.2,69.1,139.5,71,139.9z M61.4,157.3c-0.1,1.2-0.2,2-0.3,2.9c-0.2,0-0.4-0.1-0.6-0.1c0.1-0.4,0.2-0.8,0.3-1.3
		c-0.4-0.1-0.9-0.2-1.3-0.3c0-0.1,0-0.3,0-0.4C59.9,157.9,60.5,157.7,61.4,157.3z M63.2,160.8c-1.4,2-2.6,3.7-3.8,5.4
		c-0.3-0.2-0.5-0.4-0.8-0.6C60.4,164.3,59.6,161.1,63.2,160.8z M58.5,113.6c0.1,1.3,0.2,2.1,0.3,3.5c-1.9-0.4-3.4-0.7-4.9-1
		c0-0.2-0.1-0.5-0.1-0.7C55.2,114.9,56.6,114.3,58.5,113.6z M59.2,119.1c-0.2,0.7-0.4,1.2-0.8,2.2c-0.5-0.3-1.2-0.7-1.8-1.1
		c0.1-0.2,0.1-0.4,0.2-0.6C57.6,119.5,58.4,119.3,59.2,119.1z M52.3,118.6c0.1-0.3,0.1-0.6,0.2-1.1c1-0.1,2-0.3,3-0.4
		c0.1,0.2,0.1,0.3,0.2,0.5c-1.4,1.1-2.9,2.1-4.5,3.4c0,0,0,0.4-0.1,0.9c-0.7,0.1-1.5,0.2-2.2,0.3c-0.1-0.2-0.2-0.4-0.3-0.5
		c0.4-0.2,0.8-0.5,1.1-0.7c-0.4-0.1-0.8-0.2-1.2-0.3c0-0.2-0.1-0.3-0.1-0.5C49.6,119.8,50.9,119.2,52.3,118.6z M48.6,125.1
		c0.1-0.1,0.3-0.1,0.4-0.2c0.3,0.5,0.7,1,1.1,1.6c-0.7,0.3-1.1,0.5-1.9,0.8C48.4,126.2,48.5,125.7,48.6,125.1z M50.7,144.8
		c-2.9,1.4-5.5,2.2-8.3,1.9C44.9,145.6,47.2,143.5,50.7,144.8z M44.4,127.5c-1,0.2-1.9,0.4-2.8,0.7c-0.1-0.1-0.1-0.2-0.2-0.4
		c0.9-0.7,1.7-1.4,3-2.4C44.4,126.4,44.4,126.9,44.4,127.5z M43.3,119.3c0.4,0.9,0.5,1.3,0.7,1.7c-1.3,0.6-2.5,1.2-3.7,1.8
		c-0.1-0.1-0.2-0.2-0.3-0.3C41.1,121.5,42.1,120.5,43.3,119.3z M29.4,137.3c0.9-0.6,1.7-1.2,2.6-1.7c0,0,0,0,0,0
		c1.7-0.6,3.3-1.3,5.3-2c-0.3,0.7-0.5,1-0.9,1.8c1.5-0.8,2.7-1.3,4.1-2.1c0,0.9,0,1.7,0,2C36.9,137.9,33.1,137,29.4,137.3z
		 M37.9,144.5c0.5-0.1,1.2-0.2,2.1-0.4c0.2,0.7,0.3,1.3,0.5,2.3c-1.7,0.5-3.3,0.9-4.8,1.3c-0.1-0.1-0.1-0.3-0.2-0.4
		C36.2,146.5,36.9,145.6,37.9,144.5z M36.2,148.6c0,0.6-0.1,0.9-0.1,1.2c0,0,0,0,0,0c0,0,0,0,0,0c3.7-2,5.2-2.3,8.3-1.5
		c-0.6,0.3-1.2,0.6-1.8,0.8c-1.7,0.5-3.4,1-5.1,1.5c-0.7,0.2-1.4,0.3-1.4-0.7c0,0,0,0,0,0c0,0,0,0,0,0c-0.9,0.3-1.7,0.6-2.6,0.9
		c-0.1-0.3-0.2-0.5-0.3-0.8C34.1,149.5,35.1,149.1,36.2,148.6z M30.9,161.1c-0.5,0-1-0.4-1.5-0.7c0,0,0,0,0,0c-0.5,0.4-1,0.9-1.5,1
		c-2.4,0.4-4.8,0.6-7.3,0.9c0-0.6,0-1.2,0-1.9c3.7-2,7.3-3.9,11-5.9c0-0.3,0-0.7,0-1.1c1.5-0.4,2.9-0.8,4.5-1.3
		c0.3,0.3,0.8,0.9,1.2,1.4c0,0,0,0,0,0c0,0,0,0,0,0c0.3-0.6,0.6-1.2,0.7-1.5c2.4-0.8,4.5-1.5,6.7-2.3c0,0.1,0.1,0.2,0.1,0.2
		c-1.5,1.3-3.1,2.5-4.6,3.8c1.8-1.4,3.8-2.5,6.3-2.2c-2.3,1.4-4.5,2.8-7.2,4.5c0.4-0.9,0.5-1.3,0.7-1.8c-0.9-0.3-1.8-0.5-2.7-0.8
		c0,0,0,0,0,0c0,0,0,0,0,0c0,0.3,0,0.7,0.1,1.1c0.5,0.2,1,0.3,1.4,0.4c0,0.2,0.1,0.4,0,0.5C37.5,159.4,34.7,161,30.9,161.1z
		 M41.7,163.7c-0.1-0.2-0.1-0.4-0.2-0.6c1.3-0.4,2.7-0.8,4-1.2c0.1,0.2,0.1,0.5,0.2,0.7C44.4,163,43,163.3,41.7,163.7z M43.6,157.7
		c-1.8,0.8-3.7,1.7-6,2.7c0.5-1.2,0.9-1.9,1-2.3c1.9-0.7,3.6-1.3,4.9-1.7c0.9-0.7,1.4-1.1,2-1.6c0.1,0.1,0.2,0.2,0.4,0.3
		c-0.2,0.4-0.4,0.7-0.6,1.2c1.4-0.9,2.7-1.7,4.2-2.7c0.4,1,0.6,1.6,0.9,2.5C48,156.7,45.8,157.2,43.6,157.7z M49.5,168.3
		c-0.3-1.1-0.5-2.1-0.9-3.7c1.1,0.9,1.9,1.6,2.8,2.4C50.6,167.6,50.1,167.9,49.5,168.3z M53.1,142.1c-0.1,0.1-0.2,0.2-0.3,0.4
		c-1.3,0-2.6,0-4.2,0c1.3-1.6,2.4-2.6,4.6-1.7c-0.7,0.2-1,0.3-1.6,0.6C52.2,141.7,52.7,141.9,53.1,142.1z M53.7,159.3
		c0-0.3,0-0.6-0.1-0.9c1.4-0.1,2.7-0.1,4.1-0.2c0,0.2,0.1,0.4,0.1,0.5C56.4,159,55.1,159.1,53.7,159.3z M56.6,162.5
		c0.9-0.4,1.8-0.9,3.1-1.5c-0.4,1.1-0.6,1.8-0.9,2.9c-0.3-0.7-0.4-1-0.6-1.5c-0.4,0.2-0.8,0.4-1.3,0.7
		C56.8,162.8,56.7,162.6,56.6,162.5z M62.4,169.5c0-0.5,0.1-0.8,0.1-1.1c0-0.7,0-1.4-0.1-2.2c0,0,0,0,0,0c0,0,0,0,0,0
		c-0.5,0.9-0.9,1.8-1.5,2.6c-0.8,1.1-1.7,2.2-2.6,3.3c-0.2-0.1-0.4-0.3-0.5-0.4c1.4-2.1,2.8-4.2,4.4-6.6c0.2,0.7,0.2,0.9,0.3,1.1
		c0,0,0,0,0,0c0,0,0,0,0,0c1.6-2.4,3.4-4.6,5.7-5.9c1-1.3,1.8-2.3,2.6-3.4c0.2,0.1,0.4,0.3,0.7,0.4c-0.5,0.9-1.1,1.9-1.6,2.8
		c0.3-0.1,0.6-0.2,1.1-0.3C70.1,165,66.6,167.4,62.4,169.5z M69.2,166c1.6-3,3.1-5.6,4.5-8.3c0.1,0.1,0.3,0.1,0.4,0.2
		C74.4,160.8,72.1,164.7,69.2,166z M76.8,162.4c-0.9,0.1-1.3,0.1-1.8,0.2c-0.4,0.5-0.9,1.1-1.4,1.7c0.9-4,1.2-8.1,4.4-11.1
		c0.2,0.1,0.3,0.1,0.5,0.2C78,156.4,77.4,159.4,76.8,162.4z M81,158.7c-0.3,1.1-1.5,2-2.3,3c-0.3-0.1-0.5-0.2-0.8-0.4
		c0.6-2.6,1.3-5.3,1.9-8c0.5-0.3,1.3-0.8,2.3-1.5C81.8,154.2,81.6,156.5,81,158.7z M77.8,142.1c1.9,0.6,3.4,1,4.8,1.4
		C81.2,143.1,79.1,145.1,77.8,142.1z M81.2,114.5c0-0.1,0.1-0.2,0.1-0.3c1.2,0.3,2.4,0.5,3.7,0.8c-0.2,0.7-0.4,1.2-0.6,1.7
		C83.3,115.9,82.3,115.2,81.2,114.5z M89,157.4c-0.6,0.5-1.3,1-2,1.6c-0.2-0.5-0.3-0.7-0.4-1c-1.2,0.4-1.8,2.1-3.4,1.6
		c0.2-0.7,0.5-1.3,0.7-2.1c0.5-0.1,1.1-0.3,1.8-0.4c-0.2-0.6-0.3-1.2-0.5-1.8c0.1-0.1,0.2-0.1,0.3-0.2c0.2,0.2,0.3,0.4,0.6,0.7
		c0.4-0.5,0.9-1,1.4-1.6c-0.5,0-0.9,0-1.2-0.1c0.2-1,0.4-1.8,0.6-2.8c0.6-0.3,1.3-0.6,2.1-1c1.8,0.6,1.2,2.4,1.9,4
		c-0.7-0.2-1-0.3-1.4-0.5c-0.3,1.1-0.5,2.3-0.8,3.4C88.8,157.2,88.9,157.3,89,157.4z M83.5,155.6c1.1-1.2,0.2-3.4,2.2-4.2
		c0.2,0.1,0.4,0.2,0.5,0.4c-0.7,1.4-1.4,2.7-2.1,4.1C83.8,155.8,83.7,155.7,83.5,155.6z M91,157.2c-0.1-0.1-0.3-0.2-0.4-0.3
		c0.9-2.3,1.8-4.5,2.7-6.9c1.6,1.1,0.4,2,0.2,3c0.2,0.5,0.4,1,0.7,2.1C93.2,155.7,92.1,156.5,91,157.2z M96.5,154.7
		c-0.2,0-0.4-0.1-0.6-0.1c0-0.5-0.1-1.1-0.1-1.5c0.7-1.1,1.4-2,2-3c0.2,0.1,0.4,0.2,0.6,0.3C97.8,151.8,97.1,153.3,96.5,154.7z
		 M109.1,141c-1.4,0.9-6.6,0.8-7.5,0.1c-4.5,1.6-8.9,0.3-13.6,0.4c-0.2,0.1-0.7,0.4-1.3,0.7c-0.4-0.2-0.7-0.5-1.1-0.8
		c-0.5,0.3-1,0.6-1.5,0.9c-0.3-0.2-0.6-0.4-0.6-0.6c0.1-0.6,0.3-1.2,0.4-1.9c1.1,0.4,1.6,0.6,2.2,0.8c0-0.1,0-0.3,0-0.4
		c7.9-0.3,15.8-0.7,24.1-1.1C109.6,140.1,109.3,140.6,109.1,141z M113.3,117.8c-0.1,0.1-0.3,0.2-0.4,0.3c-0.7-1.6-3-2-3.1-4.3
		c2.2-0.1,3.7,0.5,4.7,1.9c-0.5,0.3-1.1,0.6-1.7,0.9C113,117.1,113.2,117.4,113.3,117.8z M190.3,115.5c-1.3,0.7-2.6,1.3-3.9,2
		c-0.1-0.2-0.2-0.5-0.4-0.7c1.3-0.6,2.7-1.2,4-1.9C190.1,115.2,190.2,115.4,190.3,115.5z M186.6,114.4c-1.1,1.2-1.9,2.1-2.8,3.1
		c-0.6-0.2-1.3-0.4-2.1-0.7C182.8,114.8,184.4,114.6,186.6,114.4z M182.6,123.7c-1.1,0-2,0-3,0C180.9,122.4,181.3,122.4,182.6,123.7
		z M175.2,115.4c0.9,0.5,1.8,0.9,2.7,1.4c-0.1,0.2-0.1,0.3-0.2,0.5c-1.3,0.2-2.1-0.4-2.8-1.3C175,115.7,175.1,115.6,175.2,115.4z
		 M168.8,117.7c-1,1.8-2.2,1-3.7,0.9C166.3,117.1,167.3,117.1,168.8,117.7z M161.7,111.8c-0.8,1-1.3,1.6-1.9,2.4
		c-0.7-0.1-1.5-0.1-2.4-0.2C158.3,112,160,112.3,161.7,111.8z M141.1,108.1c0.9-0.2,1.7-0.4,3.1-0.7c-0.6,1-0.9,1.5-1.4,2.2
		c-0.7-0.4-1.3-0.7-1.8-1C141,108.4,141,108.2,141.1,108.1z M141,117c-0.2,0.8-0.3,1.2-0.4,1.8c-0.8-0.2-1.5-0.3-2.2-0.5
		c0-0.2,0-0.3-0.1-0.5C139.1,117.6,139.9,117.4,141,117z M116,115.1c3.6-2.4,6.7,0,10.1,0.9C124.4,117.5,119.4,117,116,115.1z
		 M125.9,152.1c2,0.3,3.8,0.7,5.6,1C130.4,154.8,128.2,154.5,125.9,152.1z M127.9,148c1-1.3,2.6-1.4,4.1,0
		C130.7,148,129.4,148,127.9,148z M142.6,147.9c0.1-0.2,0.2-0.6,0.2-0.9c-3.9,1.5-7.2,1.7-9.6,0.3c1.6,0,3.3,0,4.8,0
		c2.4-2.7,5.5-2.2,8.5-2.2c0,0.2,0,0.5,0,0.8c1.1-0.1,2.2-0.2,3.4-0.3c0,0.9,0,1.5,0,2.4C147.5,147.9,145.1,147.9,142.6,147.9z
		 M155.5,155.3c-2.7,0-5.4,0-8,0c0.8-0.5,1.6-1,2.4-1.6c0.8,0.3,1.6,0.7,2.7,1.1c0.6-0.1,1.4-0.3,2.1-0.5c0.8-0.9,1.5-1.6,2.2-2.4
		c0.2,0.2,0.4,0.3,0.6,0.5C156.9,153.4,156.2,154.4,155.5,155.3z M153.7,149.4c0-0.2-0.1-0.4-0.1-0.5c1.4-0.2,2.7-0.5,4.1-0.7
		c0,0.2,0.1,0.4,0.1,0.6C156.6,150,155.1,149.5,153.7,149.4z M156.9,119c-0.5-0.5-0.8-0.9-1.2-1.4c1.9-0.1,3.8-0.2,5.6-0.3
		c0.8,0.7,1.6,1.4,2.4,2.1C161.3,120.1,159.3,116.9,156.9,119z M163.1,157.9c-0.3-0.4-0.5-0.9-0.7-1.3c1.4-2.1,2.4-2.5,4.2-1.6
		C165.3,156,164.2,156.9,163.1,157.9z M189.4,151c-3.1,0.9-6.2,1.8-9.2,2.6c-0.1-0.1-0.1-0.2-0.2-0.2c0.4-0.4,0.7-0.9,1.1-1.3
		c-0.8,0.5-1.6,1-2.4,1.6c0-0.1-0.1-0.2-0.1-0.3c-2.3,1-4.6,2-6.9,2.9c-0.1-0.1-0.1-0.2-0.2-0.3c0.6-0.5,1.2-1.1,2-1.9
		c-2.4,0.5-4.6,0.8-6,2.7c-0.1-0.2-0.2-0.3-0.3-0.5c-0.1-0.2-0.1-0.4-0.1-0.7c0.6-0.4,1.2-0.8,1.9-1.3c-1.2-0.4-2.2-0.7-3.2-1
		c0-0.2,0-0.4,0.1-0.5c0.8-0.2,1.7-0.3,2.4-0.7c0.7-0.3,1.2-1,1.8-1.5c0.1,0.1,0.2,0.2,0.4,0.3c-0.2,0.5-0.3,1-0.5,1.5
		c0.1,0,0.2,0.1,0.2,0.1c0.5-0.6,0.9-1.1,1.4-1.7c1.5,0,2.9,0,4.3,0c1.9-0.1,3.7-0.2,5.6-0.2c0.4,0,0.8,0.4,1.1,0.6
		c1.6-0.5,3.2-0.9,4.8-1.4c1.5-0.4,3-0.7,4.6-0.8C191.1,149.9,190.3,150.5,189.4,151z M201.6,113.8c0.5,0.1,1,0.2,1.3,0.2
		c-0.4,1.2-0.7,2.2-1,3.1c-0.3-0.4-0.7-0.9-1.2-1.4c0.4-0.5,0.8-1,1.2-1.4C201.8,114.2,201.7,114,201.6,113.8z M194.2,120
		c-0.5-0.1-1-0.3-1.6-0.5c0-0.2-0.1-0.4-0.1-0.6c0.9-0.2,1.9-0.5,2.8-0.7c0.1,0.2,0.2,0.4,0.3,0.7
		C195.1,119.3,194.7,119.6,194.2,120z M196.2,124.3c0-0.2,0-0.4,0-0.6c0.6-0.2,1.2-0.5,2-0.8c0.1,0.8,0.1,1.3,0.2,2.3
		C197.5,124.9,196.9,124.6,196.2,124.3z M207.3,146.9c-1.8,0.6-3.7,1.2-5.6,1.9c-0.8-0.1-1.7-0.3-2.6-0.4c2.5-2,5.4-1.7,8.2-1.9
		C207.3,146.6,207.3,146.7,207.3,146.9z M205.1,117.4c0.3-0.1,0.6-0.2,1.1-0.4c-0.5-0.6-0.9-1.1-1.3-1.6c0.1-0.1,0.2-0.3,0.3-0.4
		c2.4,0,3,2.8,5.1,3.5C208.4,118.7,206.6,119,205.1,117.4z M210.5,115.8c1.4-0.4,2.7-0.8,4.1-1.2c0.1,0.1,0.2,0.3,0.2,0.4
		c-0.5,0.8-1.1,1.6-1.8,2.6c-0.8-0.3-1.7-0.7-2.6-1.1C210.5,116.3,210.5,116,210.5,115.8z M210.9,129.1c-0.1-0.7-0.3-1.3-0.4-2.1
		c0.7-0.4,1.4-0.7,2.2-1.1c0.3,1,0.5,1.7,0.8,2.7C212.6,128.7,211.8,128.9,210.9,129.1z M214,145.1c0-0.2-0.1-0.4-0.1-0.6
		c4-0.7,8.1-1.5,12.1-2.2c0,0.2,0.1,0.5,0.1,0.7C222,143.7,218,144.4,214,145.1z M226.2,118.1c-0.1,0.2-0.3,0.4-0.5,0.8
		c-0.7-0.2-1.3-0.4-2-0.6c0-0.2,0-0.4,0-0.6c0.9-0.3,1.7-0.5,2.6-0.8c0.1,0.1,0.2,0.3,0.3,0.4C226.4,117.6,226.3,117.9,226.2,118.1z
		 M257.1,206.9c-0.1-0.1-0.2-0.3-0.4-0.4c1.4-1.2,2.9-2.5,4.3-3.7c0.2,0.2,0.3,0.4,0.5,0.5C260,204.6,258.6,205.8,257.1,206.9z
		 M408.4,120.4c-4.9-1.3-7.1-4.9-4.9-8.4c1.4,1.2,0.9,2.4,1.4,3.9c0.2,0.5,0.5,1,0.9,1.3c0.8,0.7,2.5,0.9,2.8,2.7
		C408.5,120.2,408.5,120.2,408.4,120.4z M411.2,119.3c-1.2-1-0.8-2.5-1.5-3.6c-0.7-1.3-2.9-1.8-2.9-3.6
		C409.9,112.2,411.3,114.4,411.2,119.3z"/>
	<path d="M43.8,170.9c0-0.1,0-0.2-0.1-0.3c-6.7,1.3-13.3,2.7-20,4c0.1,0.1,0.2,0.3,0.3,0.4c-0.8,0.5-1.6,1.1-2.4,1.6
		c4-0.9,7.3-3.7,11.8-2.2c-0.2,0.7-0.4,1-0.6,1.8C36.6,174.3,40.2,172.6,43.8,170.9z"/>
	<path d="M61.3,172.6C61.3,172.6,61.3,172.6,61.3,172.6C61.3,172.6,61.3,172.6,61.3,172.6C61.3,172.6,61.3,172.6,61.3,172.6z"/>
	<path d="M57.1,176c1.6-0.9,3.6-1.4,4.2-3.4C59.3,173,58.5,174.8,57.1,176z"/>
	<path d="M146.8,156.4C146.8,156.4,146.8,156.4,146.8,156.4C146.8,156.4,146.8,156.4,146.8,156.4
		C146.8,156.4,146.8,156.4,146.8,156.4C146.8,156.4,146.8,156.4,146.8,156.4z"/>
	<path d="M142.7,157.1c1.5-0.3,2.8-0.5,4.1-0.8C145.3,155.3,144.2,155.4,142.7,157.1z"/>
	<path d="M29.4,160.4C29.4,160.4,29.4,160.4,29.4,160.4c0.1-0.1,0.2-0.2,0.3-0.3C29.5,160.2,29.4,160.3,29.4,160.4z"/>
	<path d="M32.6,155.9c-1,1.4-2,2.8-2.9,4.2c1.2-1.2,2.4-2.5,3.5-3.7C33,156.2,32.8,156.1,32.6,155.9z"/>
	<path d="M67.2,161.9c-1.1,1.8-2.3,3.6-3.4,5.5c0.7-0.6,1.4-1.1,2-1.8c0.7-0.8,1.4-1.6,2.1-2.5c0.7-0.9,1.2-1.9,1.9-2.9
		c-0.8,0.6-1.6,1.2-2.4,1.9C67.3,162,67.3,161.9,67.2,161.9z"/>
</g>
</svg>
