<?xml version="1.0" encoding="utf-8"?>
<!-- Generator: Adobe Illustrator 28.3.0, SVG Export Plug-In . SVG Version: 6.00 Build 0)  -->
<svg version="1.1" id="Layer_1" xmlns="http://www.w3.org/2000/svg" xmlns:xlink="http://www.w3.org/1999/xlink" x="0px" y="0px"
	 width="155.7px" height="158.1px" viewBox="0 0 155.7 158.1" style="enable-background:new 0 0 155.7 158.1;" xml:space="preserve"
	>
<style type="text/css">
	.st0{fill-rule:evenodd;clip-rule:evenodd;}
	.st1{fill:#B25959;}
</style>
<g>
	<path d="M2.3,131c0.2,0.2,0.5,0.5,0.7,0.7c0.1,0,0.1-0.1,0.2-0.1C2.9,131.3,2.6,131.2,2.3,131z"/>
	<path d="M106.8,101.2c17,1.4,32.4,8.3,48.9,10.1c-0.4-0.9-0.9-1.5-1.6-1.8c-10.5-4.3-21.1-8.4-31.5-12.9c-5.2-2.3-10.2-5.1-15-8.1
		c-4.7-3-9.5-4.3-15.1-3c-7,1.6-9.3,5.3-6.4,11.8c1.6,3.5,4.5,6.5,7,10c-7.8-3.5-15.6-7-23.4-10.5c-0.9-4.7-1.7-9-2.4-13.3
		c-1.9-11.6-1.2-23,3.6-33.9c0.6-1.4,0.7-3.1,1-4.7c0-0.2-0.1-0.4-0.1-0.5c-0.5-0.2-1-0.4-1.5-0.6c-0.5-4.9-0.8-9.6,0.7-14.5
		c2.4-7.5,4.1-15.2,5.9-22.9c0.4-1.5,0.4-3.1,0.5-4.7c-0.4-0.1-0.7-0.2-1.1-0.3c-2.3,6.5-4.7,13.1-7.1,19.7
		c0.1-7.1,1.2-14.1-0.4-21.1c-0.4,0-0.9-0.1-1.3-0.1c-1.2,6.3-2.3,12.7-3.3,18.1c-0.7-4.6-1.6-10.3-2.4-15.9c-0.5,0-0.9,0.1-1.4,0.1
		c-1.8,6.5-1.4,13.3-1.6,20.6c-2.3-6.2-3.5-12.2-7-17.2c-0.4,0.1-0.8,0.2-1.3,0.3c0.8,5.5,1.6,11.1,2.4,16.4
		c-2.2-3.8-3.7-8.4-7.3-11.4c-0.4,0.2-0.8,0.3-1.1,0.5c0.6,3.5,1.1,7,1.6,10.2c-1.8-0.3-3.6-0.7-5.5-1.1c-0.2,0.3-0.4,0.6-0.6,0.9
		c1.1,1.9,2.1,3.9,3.1,5.7c-1.8,0-3.7,0-5.6,0c-0.2,0.3-0.3,0.5-0.5,0.8c1.3,1.8,2.7,3.6,3.7,5.1c-1.9-0.1-4.1-0.3-6.3-0.4
		c-0.1,0.3-0.3,0.7-0.4,1c0.9,1.4,1.7,2.8,2.6,4.1c-1.5,0.2-3,0.5-5.5,0.8c1.8,2.2,3,3.7,4.3,5.2c-1.3,0.3-2.7,0.6-4.3,0.9
		c0.5,1,0.8,1.7,1.2,2.6c-1.5,0.3-2.9,0.6-4.4,1c0.6,0.9,1.1,1.6,1.6,2.5c-1.2,0.5-2.3,0.9-3.5,1.4c0.6,0.7,1.1,1.2,1.6,1.8
		c-1.2,0.6-2.2,1.2-3.4,1.9c0.5,0.7,1,1.3,1.5,1.9c-1,0.5-1.8,1-2.8,1.5c0.5,0.4,0.9,0.7,1.4,1.1c-0.9,0.6-1.6,1.1-2.5,1.8
		c0.5,0.4,0.9,0.6,1.4,1c-0.7,0.5-1.3,1-2,1.5c0.7,0.4,1.3,0.7,2,1c-0.8,0.6-1.3,1-2.1,1.6c0.5,0.2,0.8,0.4,1.3,0.7
		c-0.8,0.5-1.3,0.9-1.9,1.3c0.5,0.3,0.8,0.5,1.4,0.8c-0.5,0.3-0.9,0.6-1.3,0.9c0.4,0.3,0.6,0.5,0.9,0.7c-0.6,0.6-1,1.1-1.6,1.7
		c0.6,0.1,1.1,0.2,1.7,0.3C21,74.5,20.5,75.2,20,76c0.4,0.3,0.7,0.5,0.9,0.7c-0.3,0.6-0.6,1.1-0.9,1.5c0.2,0,0.3,0,0.5,0.1
		c0,0.8-0.1,1.7-0.1,2.5c0.3,0,0.7,0.1,1.1,0.1c-0.4,0.6-0.7,1.1-1,1.6c-0.2,6.7,3.7,10.8,8.9,14.3c-0.9,6.5,2.4,14.1-4.9,18.5
		c-2.6-1.1-4.6-2-7.4-3.2c0.5,2.2,0.8,3.5,1.1,4.5c-2-0.2-4.1-0.4-6.2-0.6c0,0.2,0,0.5-0.1,0.7c1,0.6,2,1.3,3.5,2.3
		c-2.9,0.8-5.2,1.4-7.6,2.1c0.4,0.6,0.7,0.9,1,1.4c-1.1,0.6-2.1,1.1-3.2,1.6c0.7,0.7,1.1,1.3,2.3,2.5c-1.7,1.8-3.4,3.6-5,5.3
		c0,0-0.1-0.1-0.1-0.1c-1.1,0.6-2,1.2-3,1.8c0.3,0.3,0.6,0.7,0.9,1c0.9,0.1,1.7,0.1,2.8,0.2c-0.8,1-1.4,1.8-2.1,2.6
		c0.7,0.1,1.1,0.2,1.6,0.2c0.1,0.5,0.2,0.9,0.3,1.3c3.8-1.6,7.5-3.1,11.2-4.6c0.1,0.3,0.3,0.6,0.4,0.9c-3,1.8-6,3.5-8.9,5.3
		c0.6,0.7,1,1.2,1.5,1.9c-2.1,1.9-4,3.6-6,5.4c0.6,0.3,1,0.5,1.4,0.7c-0.2,0.4-0.3,0.7-0.4,1c-0.1,0.3-0.2,0.6-0.4,1.1
		c7.3-4,15-7.2,17.1-15.7c1-0.3,1.5-0.5,2.1-0.6c0.5-0.1,1-0.2,1.6-0.4c-1,7.4-5.9,11.3-12.2,13.8c0.2,0.8,0.3,1.3,0.4,1.7
		c-3.2,2.3-5.6,6.6-4.7,8.8c3.9-2.6,7.9-5.1,11.7-7.8c1.3-1,2.3-2.5,3.1-3.9c2.1-3.7,4-7.6,6.1-11.4c1-1.9,2.6-2.7,4.9-2.6
		c3.6,0,7.3-0.2,10.9-0.4c15-0.9,29.5-3.6,42.6-11.6c0.6-0.4,1.5-0.4,2.3-0.6c5.5-1.8,11.3-3.1,16.5-5.5c4.6-2.1,5.2-5.9,2.9-10.5
		C107.4,103.2,107.3,102.5,106.8,101.2z M102.4,91.5c-1-0.3-1.5-1.3-1.2-2.3c0.3-1,3.8,0.1,3.5,1.1
		C104.4,91.3,103.3,91.8,102.4,91.5z"/>
</g>
</svg>
