<?xml version="1.0" encoding="utf-8"?>
<!-- Generator: Adobe Illustrator 28.3.0, SVG Export Plug-In . SVG Version: 6.00 Build 0)  -->
<svg version="1.1" id="Layer_1" xmlns="http://www.w3.org/2000/svg" xmlns:xlink="http://www.w3.org/1999/xlink" x="0px" y="0px"
	 width="108px" height="41.8px" viewBox="0 0 108 41.8" style="enable-background:new 0 0 108 41.8;" xml:space="preserve">
<style type="text/css">
	.st0{fill-rule:evenodd;clip-rule:evenodd;}
	.st1{fill:#B25959;}
</style>
<g>
	<path d="M107.5,32.5c-8.4-1.7-12.8-4.7-18.2-12c-0.1-0.1-0.2-0.2-0.3-0.2c-1.8-3.1-6.2-7-8.1-10c-0.1,0-0.1-0.1-0.2-0.1
		c0.5-0.2,1.3-0.2,1.6-0.6c1.4-1.3,4.5-1.6,4.3-1.4c2.3-0.5,4.5-0.6,6.8-0.8c-1.2-2.2-3.4-2.3-5-3.8C83.1-1.7,75.3,1.3,68.8,0
		C56.6,0.3,45.9,9.6,39,17.1C28.9,23.1,19,29.3,9,35.5c-2.8,2.3-7.2,3-9,6.2c15.8-4.5,30.7-13.2,45-21.6c0.3,0,0.7,0,1.1,0
		c-0.5,2.9,3.1,3.3,3.8,5.7c0.5,0.9,2.1,0.7,2.7,1c0.7,2.7,2.4,3.4,4.8,3.1c-0.3,2.2,2.7,4.6,4.9,3.1c1.2,1.9,2.5,2.2,3.9,1.6
		c1,1.4,2.5,2.4,4.1,2.4c0.7,0,1.8-0.2,2.7-1.3c1.1,1.6,2.8,2.4,4.2,2.4c0.9,0,1.6-0.3,2.1-0.9c0.2-0.2,0.4-0.6,0.5-1
		c1.5,2.6,4.2,4.5,7.4,5.2c0.1,0,0.1,0,0.2,0c0,0,0.1,0,0.1,0c0.8-0.1,1.2-0.5,1.3-0.9c0.3-0.7,0-1.6-0.5-2.6c2.3,2.1,5,3.2,7.9,3.2
		l0.1,0c0.3,0,0.6-0.2,0.7-0.5c0.1-0.3,0-0.6-0.2-0.8c-1.2-1.2-2.2-2.5-3-3.9c2.7,1.4,5.7,2.7,8.8,2.7c0.9,0,1.8-0.1,2.7-0.4
		c0.3-0.1,0.5-0.4,0.5-0.7c0-0.3-0.2-0.6-0.5-0.7c-3-0.9-5.6-2.3-7.8-4.2c2.1,0.8,4.4,1.6,6.7,1.6c1.3,0,2.5-0.3,3.6-0.8
		c0.3-0.1,0.4-0.4,0.4-0.7C108,32.8,107.8,32.5,107.5,32.5z M85,3.3c0.6,0,1.1,0.5,1.1,1.1c0,0.6-2.2,0.7-2.2,0.1
		C83.9,3.9,84.4,3.4,85,3.3z M64.6,11c-0.5,0-1,0-1.5-0.1c-2.5,0-5-0.1-7.5-0.2c-2.1,0-4.2,0.1-6.4,0.2c-0.3,0-0.6,0-1,0
		c0.2-0.4,0.5-0.7,0.8-1c1.3-1.4,3.3-2.4,5.6-3c3.2-1.1,7.1-1.7,10.4-2.2c0.3-0.1,0.6-0.1,0.9-0.2c1.3-0.3,2.7-0.4,4.1-0.3
		c0.1,0,0.2,0,0.2,0c1,0,1.9,0.2,2.7,0.5c1.8,0.5,3.5,1.5,4.6,3c-0.1,0-0.3,0.1-0.4,0.1c0,0,0,0,0,0c-1,0.4-2.1,0.7-3.1,1
		c-1.7,0.5-3.4,1.1-5.1,1.5c-0.3,0.1-0.5,0.1-0.8,0.2c-0.2,0-0.5,0-0.7,0.1C66.5,10.8,65.6,10.9,64.6,11z M104,33.9
		c-3.3,0-6.7-1.7-9.6-2.9c2.8,3.4,6.4,5.6,10.6,6.9c-0.8,0.2-1.7,0.3-2.5,0.3c-3.7,0-7.4-2-10.5-3.8c1.1,2.2,2.4,4.4,4.2,6.1
		c0,0-0.1,0-0.1,0c-4.2,0-7.7-2.6-9.9-6C85,36,90,40.4,87.2,40.8c-3.1-0.7-5.9-2.7-7.3-5.6c-0.2-0.4-0.1-1.1-0.6-1.1
		c-0.1,0-0.2,0-0.3,0.1c0.5,2.4-0.6,3.4-1.9,3.4c-1.5,0-3.4-1.2-4.2-3.2c-0.6,1.5-1.7,2.1-2.7,2.1c-1.3,0-2.6-0.8-3.4-2
		c3.6-2,8.3-8.4,16.4-8.7c5.2-0.3,6.8-1.7,6.5-3.6c5,6.4,9.4,9.3,17.7,11C106.2,33.7,105.1,33.9,104,33.9z"/>
</g>
</svg>
