<?xml version="1.0" encoding="utf-8"?>
<!-- Generator: Adobe Illustrator 28.3.0, SVG Export Plug-In . SVG Version: 6.00 Build 0)  -->
<svg version="1.1" id="Layer_1" xmlns="http://www.w3.org/2000/svg" xmlns:xlink="http://www.w3.org/1999/xlink" x="0px" y="0px"
	 width="135.7px" height="103.8px" viewBox="0 0 135.7 103.8" style="enable-background:new 0 0 135.7 103.8;" xml:space="preserve"
	>
<style type="text/css">
	.st0{fill-rule:evenodd;clip-rule:evenodd;}
	.st1{fill:#B25959;}
</style>
<g>
	<path d="M0.9,9.4C0.9,9.4,0.9,9.4,0.9,9.4C1,9.4,0.9,9.4,0.9,9.4L0.9,9.4z"/>
	<path d="M135.2,64.5c-0.6-1.1-1.2-2.1-1.7-3c0-0.9,0-1.6,0-2.4c-0.1-3-1.7-5.1-4.6-6c-2.7-0.8-5.4-1-8.2-0.1
		c-0.6,0.2-1.2,0.2-1.8,0.2c-2.7-0.2-5.5-0.5-8.2-0.8c-4.1-0.4-8.1-0.8-12.5-1.3c-2.2-2.5-4.6-5.1-6.8-7.9c-1.5-2-2.8-4.2-4.1-6.4
		c-2-3.4-4.1-6.5-6.7-9.5c-0.4-0.4-0.9-0.7-1.3-1c-0.1,0-0.2,0-0.3,0c-0.1,0.2-0.2,0.5-0.3,0.7c0,0-0.1-0.1-0.1-0.1
		c-0.4,0.4-0.8,0.8-1.3,1.2c-0.1,0-0.2-0.1-0.3-0.2c-4.7-3.3-9.4-6.5-14.1-9.8C55.2,12.9,47.6,7.3,41,0.6c-0.2-0.2-0.4-0.3-0.8-0.6
		c0,0.4,0,0.6,0.1,0.7c0.5,1.1,0.9,2.2,1.5,3.3c1.5,2.9,3.6,5.3,6,7.5c-5-2.4-10-4.7-15.1-7.1c-0.1,0.1-0.2,0.2-0.2,0.3
		c1.6,1.6,3.2,3.2,4.9,4.8c1.7,1.5,3.5,2.9,5.5,4.5c-4.9-1.1-9.4-2.4-13.7-4.4c1.9,4,5.6,5.8,9.2,8.1c-3.2-0.2-6.1-0.5-9.2-0.7
		c0.3,1.3,1.1,1.7,1.8,2.2c1.5,1,3,2,4.4,3c0.3,0.2,0.5,0.4,0.7,0.6c-1.7-0.8-3.5-1.5-5.2-2.3c-8.6-4-17-8.5-24.6-14.3
		C6.1,6.1,6,6,5.9,6c0.2,0.7,0.5,1.2,0.9,1.7c2.3,3,5.3,5.4,8.4,7.5c0.3,0.2,0.6,0.5,0.9,0.7c-1.5-0.7-3-1.3-4.5-2
		C8,12.4,4.5,10.9,1,9.4c0.3,0.2,0.5,0.5,0.8,0.7c4,2.7,7.9,5.4,11.9,8c0.3,0.2,0.5,0.5,0.8,0.7c-0.3-0.1-0.6-0.1-0.9-0.2
		C9.4,17.4,5.3,16.2,1.2,15c-0.4-0.1-0.7-0.2-1.1-0.3c0,0.1-0.1,0.2-0.1,0.2c3.7,2.3,7.4,4.6,11,7c-2.7,0-5.2-0.4-7.9,0
		c0.3,0.4,0.7,0.6,1.1,0.9c3.8,2.2,8,3.6,12.3,4.7c0.7,0.2,1.2,0.4,1.4,1.1c-0.9,0-1.7,0-2.6,0c-1.8,0.1-3.6,0.2-5.3,0.3
		C9.5,29,9,29.3,8.4,29.5c0,0.1,0,0.3,0,0.4c0.4,0.2,0.7,0.5,1.1,0.7c2.1,1,4.2,1.9,6.3,2.9c-0.9,0.4-1.6,0.7-2.3,1.1
		c0,0.1,0,0.3,0,0.4c2.1,1.4,4.6,1.1,7,2c1.5,2.8,4.1,4.3,7.3,5.1c0.2,2.9,2.6,3.4,4.5,4.3c0.4,2.5,2.6,4.1,5,3.7
		c1.9-0.3,3.9-0.5,5.7-0.8c-0.8,0.8-1.6,1.5-2.2,2.3c-0.6,0.9-0.6,1.8,0.1,2.3c1,0.7,1.7,1.7,2.6,2.6c0.7,0.7,1.8,0.9,2.9,1.4
		c0.1,2.4,1,4.4,4.1,4.5c0.4,2.3,1.4,3.9,4,3.9c0.8,1.6,1.6,3.2,3.5,3.7c0.5,2.5,0.5,2.5,3.2,2.6c0.3,1.4,1,2.5,2.7,2.4
		c-0.1,0.5-0.1,0.8-0.2,1.2c-1.3,0.8-2.5,1.5-3.7,2.2c-2.9-0.5-5.6-0.9-8.4-0.6c-2.2,0.3-2.9,0.9-3.3,2.9c-2,0.5-3.9,1-5.8,1.6
		c-1.7,0.6-1.9,1.3-1.4,3c-0.3,0.1-0.7,0.3-1,0.4c-1.5,0.7-3.1,1.4-4.6,2.2c-0.4,0.2-0.7,0.7-1.2,1.2c0.5,0.2,0.7,0.4,0.9,0.5
		c0.2,0.1,0.5,0.1,0.8,0.2c-2.5,1.3-5.2,2-7.2,4.4c0.8,0.3,1.4,0.5,2,0.8c-1.4,1.1-3.1,1.7-4.2,3c0,0.1,0.1,0.2,0.1,0.2
		c0.4,0,0.7-0.1,1.1-0.1c-0.1,0.2-0.2,0.3-0.3,0.5c0.6-0.1,1-0.2,1.7-0.3c-0.5,0.6-0.9,1-1.3,1.4c0.5,0,0.8-0.1,1.1-0.2
		c3.2-1.5,6.5-3,9.7-4.5c0.5-0.2,1-0.4,1.4-0.5c3.8-0.6,7.5-1.7,11-3.2c1.4-0.6,2.9-1.3,4.3-1.9c0.5,1.6,1.1,2.1,2.9,2.3
		c0.6,0,1.3,0.1,2,0c2.4-0.4,4.7-0.8,7.1-1.2c0.7-0.1,1.4-0.1,2.1,0.1c2.5,0.8,5,1.3,7.6,0.8c2.2-0.4,3.9,0.7,5.9,1.1
		c-0.9,0.9-1.8,1.7-2.4,2.7c-0.6,0.9-1,2-1.5,3c1-0.4,1.8-0.7,2.4-1.3c0.7-0.6,1.2-1.4,1.8-2.1c0.6,0.7,0.6,1.3,0.4,2.1
		c-0.4,1.3-0.7,2.6-1.2,4.1c1.7-0.5,1.7-2,2.5-3c-0.1,1-0.3,2.1-0.4,3.1c0.1,0,0.2,0,0.2,0c-0.2,0.3-0.4,0.6-0.6,0.9
		c0,0,0.1,0.1,0.1,0.1c0.4-0.2,0.9-0.4,1.3-0.6c0.7,0.8,0.3,1.5-0.2,2.4c1.3-0.8,1.5-1.9,1.6-3c0.9-1.8,1.9-3.5,2.4-5.4
		c0.8-2.8-0.1-4.6-2.8-5.8c-0.1-0.1-0.2-0.1-0.3-0.2c0.1-0.1,0.1-0.2,0.1-0.2c0.3-0.2,0.5-0.3,0.8-0.5c2.4-1.6,4.6-3.4,6.3-5.7
		c0.4-0.5,0.9-1,1.4-1.3c3-2.1,5.9-4.3,8.4-6.9c0.8-0.8,1.6-1.6,2.5-2.3c1.6-1.1,3.1-2.2,4.8-3.2c5.2-3,10.7-4.9,16.8-4.8
		c2.7,0,5.1,1,7.2,2.6c0.2,0.1,0.4,0.3,0.7,0.4C135.9,66.4,135.7,65.4,135.2,64.5z M14.5,18.9C14.5,18.9,14.5,18.9,14.5,18.9
		C14.5,18.9,14.6,18.9,14.5,18.9z M36.1,22.8C36.1,22.8,36.1,22.8,36.1,22.8C36.1,22.8,36.1,22.8,36.1,22.8z M130.4,59.9
		c-0.4,0.8-3.4-0.5-3-1.3c0.4-0.8,1.3-1.2,2.2-0.8C130.4,58.1,130.7,59.1,130.4,59.9z"/>
</g>
</svg>
