<?xml version="1.0" encoding="utf-8"?>
<!-- Generator: Adobe Illustrator 28.3.0, SVG Export Plug-In . SVG Version: 6.00 Build 0)  -->
<svg version="1.1" id="Layer_1" xmlns="http://www.w3.org/2000/svg" xmlns:xlink="http://www.w3.org/1999/xlink" x="0px" y="0px"
	 width="193.8px" height="165px" viewBox="0 0 193.8 165" style="enable-background:new 0 0 193.8 165;" xml:space="preserve">
<style type="text/css">
	.st0{fill-rule:evenodd;clip-rule:evenodd;}
	.st1{fill:#B25959;}
</style>
<g id="NSJos8_1_">
	<g>
		<path d="M184.2,83.4c-1.6-1.9-1.9-2-4.1-0.9c0.5,0.4,1,0.7,1.4,1.1C182.5,83.5,183.3,83.5,184.2,83.4z"/>
		<path d="M1.9,29.2c-0.1,0.3-0.2,0.6-0.4,0.9c1.2,0.6,2.4,1.4,3.7,1.9c3.8,1.5,7.7,2.8,11.5,4.2c1,0.4,2,1,2.9,1.9
			c-1.7,0-3.5,0-5.2,0c-0.1,0.2-0.1,0.3-0.2,0.5c0.6,0.4,1.2,1,1.9,1.3c3,1.3,6.1,2.5,9.1,3.9c1,0.4,1.6,1.4,2.6,1.9
			c2,1.2,4,2.2,6.1,3.3c0.9,0.4,1.8,0.7,2.9,1.1c0.6-0.1,1.3-0.3,2.1-0.5c1.3,0.4,2.7,0.8,4,1.2c0,0.2,0,0.4,0,0.7
			c-1.5,0.2-3,0.4-4.6,0.6c-0.1,0.2-0.2,0.4-0.2,0.5c2.2,2.6,5.2,3.7,8.7,4.7c0.2,0.2,0.7,0.8,1.1,1.3c-0.2,4.4,2.8,5.7,6.1,7
			c2.9,1.1,5.9,2.1,8.9,3.1c2.1,0.7,4.3,1.2,6.5,1.9c-0.5,0.5-1.2,1.1-1.7,1.5c0.8,1.5,1.4,2.9,2.1,4.3c-0.1,0.1-0.3,0.2-0.4,0.3
			c0.6,0.4,1.2,1,1.9,1.2c2.6,0.8,4.4,2.2,5.6,4.7c0.6,1.2,2.3,1.9,3.2,2.6c2.1,2.7,2,6.8,6.6,7.1c0.1-0.1,0.5-0.3,1-0.5
			c1.5,1.3,1.9,3.8,4.4,3.8c1.9,0,3.8-0.2,6-0.3c1.6,1.7,3.6,2,6.1,1.1c2.9-1.1,6-1.9,8.8-2.8c0.7,1.1,1.2,1.9,2,3
			c-2.5,2.7-5.1,5.7-7.8,8.5c-4.2,4.2-8.5,8.1-12.7,12.3c-4,4-8.6,7.1-13.5,9.7c-4.6,2.5-9.6,4.3-14.5,6.3c-1.2,0.5-2.4,0.6-3.7,0.9
			c0,0.1,0.1,0.3,0.1,0.4c1.7-0.3,3.3-0.6,5-1c0.1,0.2,0.2,0.4,0.2,0.6c-4.5,2.5-8.9,5-13.5,7.6c1.4,0.9,2.5,1.7,3.9,2.6
			c-2.1,1.2-4,2.2-4.1,4.8c4.9,0.5,7.3-4.5,12-4.9c-2.7,3.5-7.4,5.1-8.3,9.6c0.2,0.3,0.3,0.5,0.5,0.8c1.9-0.5,3.8-0.9,5.9-1.4
			c-0.3,1-1.4,1.9,0.3,3c0.8-1,1.7-2.1,2.8-3.4c-0.2,1-0.4,1.7-0.6,2.4c0.3,0.5,0.6,1.1,0.8,1.5c0.8,0,1.5,0.1,2.2,0.1
			c0,0.1,0.1,0.2,0.1,0.3c2.8-1.8,5.5-3.7,8.3-5.5c0,0.3,0.1,0.8,0.1,1.7c3.7-1.7,6.6-4,9.5-7.1c-0.3,1.1-0.5,1.7-0.6,2.4
			c0.1,0.1,0.3,0.3,0.4,0.4c1.4-1.4,2.8-2.7,4-4.1c1.4-1.6,2.6-3.3,4-4.9c1.3-1.6,2.7-3.1,3.9-4.7c1.2-1.6,2.3-3.3,3.7-5.5
			c0.7,1,1.1,1.7,1.6,2.4c0.7,1,1.2,2,2,2.8c2.4,2.6,4.8,5.1,7.3,7.6c-0.9,0.8-1.4,1.3-2,1.8c0,0.1,0.1,0.2,0.1,0.3
			c0.7-0.2,1.5-0.5,2.5-0.8c0.7,1.1,1.5,2.3,2.3,3.5c-0.1,0.2-0.2,0.4-0.3,0.6c-1.8-0.6-3.6-1.1-5.4-1.7c-2.3-0.8-3.6-0.4-4.9,1.9
			c1.5-1.1,3-1.6,4.6-0.3c0,0.5,0,1,0,1.4c1,1.7,2.3,0.8,3.5,0.8c1.3-0.1,2.5,0,4.1,0c0.3,3.5,0.7,6.9,1,10.6
			c-0.1,0.2-0.4,0.9-0.7,1.6c1.2-0.4,2.4-0.8,3.6-1.3c0.7,0.6,1.3,1.1,1.9,1.7c0,0.7,0,1.4,0,2.2c2-1.8,1-4,1-6.3
			c0.3-0.2,0.8-0.5,1.2-0.8c0.1,0.1,0.2,0.1,0.3,0.2c-0.2,0.6-0.4,1.2-0.6,1.7c1.8-0.7,2-1.4,1-4.7c0.4-1.3,0.8-2.6,1.3-3.9
			c1.5-3.7,0.7-7-1.5-10.2c-1.8-2.6-3.4-5.4-5-8.1c-1-1.6-1-3.2,0-4.7c1.2-1.9,2.4-3.8,5.1-3.8c1.4,0,2.6-1.6,4.2-0.7
			c0.4,0.2,1.1-0.4,1.7-0.7c1.6-0.8,3-1.7,4.6-2.5c1.7-0.8,3-3.1,4-5c1.4-2.7,3-5,5.3-7c1-0.9,2-1.8,2.8-2.9c3.4-4.4,8-7.2,12.8-9.8
			c3.3-1.8,6.6-3.5,9.8-5.3c1.2-0.7,2.3-1.5,3.5-2.3c1.7-1.1,3.6-0.9,5.5-0.6c3.4,0.7,6.9,1.3,10.4,1.9c0.4,0.1,0.8,0,1.5,0
			c-2.4-4.4-5.8-7-9.9-8.8c-0.1,0.2-0.3,0.3-0.4,0.5c1.9,1.4,3.8,2.9,5.6,4.3c-0.1,0.1-0.1,0.2-0.2,0.3c-1-0.4-2-0.8-3-1.3
			c-0.3,0.4-0.6,0.8-1,1.3c-3.1-1.9-6.7-2-10.5-1.8c0.6-1.7,0.9-3.2,1.6-4.2c0.8-1,2.1-1.6,3.5-2.6c0.7,0.3,1.7,0.8,2.7,1.2
			c0.1-0.1,0.2-0.2,0.3-0.4c-1.7-2.6-4.3-4.5-6.9-5.8c-2.7-1.3-6-1.5-9.2-2.2c1.8-2.5,3.8-5.3,5.8-8.1c1.6-2.1,3.5-4.1,4.9-6.3
			c2-3.3,3.3-6.8,2.2-10.8c-0.9-3.4-2.4-4.7-6.1-5c-2.5-10-7.5-18.5-16.9-23.7c0.1,2.6,1.1,4.8,2.7,6.7c1.6,1.8,3.1,3.7,4.7,5.6
			c-0.1,0.1-0.2,0.2-0.3,0.3c-0.8-0.8-1.6-1.6-2.4-2.4c-6-6.3-12-12.7-18.1-18.9c-2.6-2.6-5.6-4.9-9.5-6.7c0.2,1,0.1,1.7,0.4,2.2
			c0.9,1.6,1.7,3.3,2.9,4.6c4.6,5.2,9.4,10.3,14.1,15.4c0.3,0.4,0.6,0.8,1,1.2c-0.2,0.2-0.3,0.3-0.5,0.5c-10-7.8-19-16.8-29-25.1
			c-1,1.8-0.7,3.2,0.2,4.4c2.2,3,4.4,6,6.9,8.7c3.6,3.9,7.6,7.5,11.4,11.3c0.5,0.5,1,1.1,1.5,1.7c-0.1,0.2-0.2,0.3-0.2,0.5
			c-0.7-0.3-1.4-0.4-2.1-0.8c-6.3-3.4-12.7-6.8-19-10.1c-1.5-0.8-3.2-1.2-5.2-1.9c0.3,2.3,1,3.7,2.2,4.7c3.5,2.9,7.2,5.7,10.8,8.5
			c0.5,0.4,1,0.8,1.6,1.2c-0.1,0.2-0.2,0.3-0.2,0.5c-0.7-0.2-1.4-0.3-2.1-0.5c-4.1-1.1-8.1-2.2-12.3-3.1c-1.5-0.3-3.2-0.7-4.8,0.8
			c2.7,3.2,6.8,4.2,10.2,6.4c-0.1,0.4-0.2,0.9-0.2,1.3c-3.1,0.2-6.4-0.6-9.1,1.4c-0.1,0.2-0.1,0.5-0.2,0.7c1.6,1,3.2,2,4.7,2.8
			c0.5,1.3,1,2.5,1.6,4.1c-1.3,1.8-1.1,3.7,1.7,5.2c-1.4,1-2.7,1.6-3.5,2.7c-0.7,1-0.9,2.3-1.4,3.6c0.8,0.6,1.3,1,1.9,1.5
			c-0.2,0.8-0.3,1.6-0.6,2.6c-1-0.1-1.8-0.1-2.6-0.3c-7.9-2.4-15.8-4.6-23.6-7.3c-11.3-3.9-22.6-7.8-33.8-12.2
			c-12.1-4.7-22.1-12.6-30.8-22.1c-2.9-3.2-5.7-6.4-8.6-9.5c3.5,7.9,9.4,13.8,15.8,19.4c-5-2.5-9.4-5.9-13.5-9.6
			c-4.1-3.8-7.9-7.9-12-12.1c0.2,0.7,0.3,1.5,0.6,2.2c1.5,3.6,3.7,6.8,6.5,9.5c1.7,1.7,3.3,3.4,5,5.1c0.4,0.4,1,0.7,1.6,1
			c0.5,0.3,1.2,0.4,1.5,0.7c1.3,1.6,3.1,2.4,4.8,3.5c2.7,1.9,5.5,3.3,8.3,5.1c0.4,0.3,0.7,0.6,1,1.1C23.4,28,11.7,21.3,0.4,13.8
			C0.3,14,0.1,14.1,0,14.2c0.5,0.8,0.9,1.8,1.6,2.5c4,4.1,8.3,7.8,13.4,10.4c5.6,2.8,11.3,5.4,16.9,8.1c0.6,0.3,1.2,0.8,1.8,1.2
			c-0.1,0.2-0.2,0.5-0.3,0.7C22.9,34.4,12.4,31.8,1.9,29.2z M173.4,86.4c2-2.2,4.2-2.1,6.4-1.1c-0.9,0-1.7,0-2.9,0
			c0.4,0.8,0.6,1.4,1,2.1C176.4,87.1,174.9,87.4,173.4,86.4z M164.6,80.7c0.1-1.3,1.1-2.3,2.4-2.2c1.3,0.1,2.3,1.1,2.2,2.4
			C169.2,82.2,164.6,82,164.6,80.7z M124,150.5c-1-1.5-1.6-2.5-2.4-3.6c1.3-0.1,2.5-0.1,3.9-0.2C125,148,124.6,149,124,150.5z
			 M121.4,156.3c0.6,0,1,0,1.4,0c0.3,1,0.6,1.9,0.9,2.9c-0.7,0.6-1.4,1.2-2.3,2C121.4,159.3,121.4,157.9,121.4,156.3z M125.1,143.3
			c-2.2,1.6-5.4,1.6-6.9-0.2c-2.4-2.8-4.7-5.8-7-8.6c0.9-2.9,1.6-5.3,3.5-6.7C118.6,132.8,123,137.4,125.1,143.3z"/>
	</g>
</g>
</svg>
