<?xml version="1.0" encoding="utf-8"?>
<!-- Generator: Adobe Illustrator 28.3.0, SVG Export Plug-In . SVG Version: 6.00 Build 0)  -->
<svg version="1.1" id="Layer_1" xmlns="http://www.w3.org/2000/svg" xmlns:xlink="http://www.w3.org/1999/xlink" x="0px" y="0px"
	 width="51.3px" height="57.6px" viewBox="0 0 51.3 57.6" style="enable-background:new 0 0 51.3 57.6; transform: scale(-1,1)" xml:space="preserve">
<style type="text/css">
	.st0{fill-rule:evenodd;clip-rule:evenodd;}
	.st1{fill:#B25959;}
</style>
<path transform="scale(-1 1)" d="M51.1,8.1c-2.2,0.8-4.2,2.2-6.6,2.9c0.3-0.4,0.6-0.6,0.9-0.9c0.9-0.7,1.8-1.4,2.6-2.3c0.8-0.9,1.2-1.9,1.3-3
	c0-0.2,0.1-0.5-0.3-0.7c-2.4,1.6-4.4,3.9-7.2,5.2C42,9.1,42.1,9.1,42.2,9c0.8-0.8,1.4-1.7,2.1-2.5c1.1-1.5,1.8-3.1,1.3-5
	c-0.1-0.3-0.1-0.6-0.4-0.8c-0.2,0-0.2,0.2-0.3,0.3c-0.4,0.6-0.8,1.2-1.2,1.8c-1.1,2-2.5,3.7-4.1,5.2c-0.3,0.3-0.6,0.6-1,0.7
	C38.6,8.5,38.7,8.2,39,8c0.4-0.3,0.7-0.7,1-1.1c0.6-0.9,1.2-1.7,1.4-2.8c0.1-0.4,0.2-0.9,0.3-1.3C41.9,2.3,42,1.7,42,1.1
	c0-0.4,0-0.8-0.3-1.1c-0.2,0.1-0.3,0.3-0.4,0.5c-0.5,0.8-1,1.7-1.5,2.6c-1.3,2.4-2.7,4.6-4.6,6.6c-0.2,0.2-0.5,0.5-0.8,0.7
	c-0.2-0.2-0.1-0.4,0-0.5C34.9,8.9,35.5,8,35.9,7c0.3-1,0.7-2.1,0.9-3.2c0.1-0.6,0-1.2-0.6-1.7c-1.9,4.1-3.2,8.4-6.1,11.9
	c0-0.4,0.1-0.6,0.2-0.9c0.3-0.9,0.6-1.8,0.5-2.7c0-0.3,0-0.5-0.3-0.8c-0.2,0.6-0.3,1.1-0.4,1.6c-0.3,1.6-0.8,3.2-1.4,4.7
	c-0.3,0.7-0.8,1.1-1.3,1.6c-0.2-0.1-0.3-0.3-0.4-0.4c-0.8-0.7-1.2-0.6-1.8,0.3c-0.5,0.6-0.8,1.3-1.2,2c-0.5,0.9-1.1,1.8-1.9,2.5
	c-0.2,0.2-0.4,0.4-0.7,0.2c0-0.1,0-0.1,0-0.2c0.4-1.2,0.7-2.4,0.7-3.6c0-0.8-0.2-1.5-0.6-2.2c-0.2-0.3-0.5-0.5-0.7-0.7
	c-0.4-0.3-0.9,0-1.1,0.5c-0.4,0.9-0.5,1.9-0.8,2.9c-0.3,1.1-0.4,2.3-0.8,3.4c-0.1,0.3-0.2,0.5-0.5,0.5c-0.2-0.2-0.1-0.4-0.1-0.6
	c0-0.8,0-1.5-0.2-2.3c-0.2-0.8-0.6-1.6-1.2-2.2c-0.1-0.2-0.3-0.4-0.6-0.3C15,17.3,15,17.5,15,17.8c-0.1,1-0.3,2-0.3,2.9
	c0,1-0.2,2-0.1,2.9c-0.3,0.1-0.5,0-0.6-0.1c-0.5-0.2-1-0.4-1.5-0.6c-1.3-0.3-2.5-0.4-3.8-0.4c-2.1,0-3.7,0.9-5.1,2.4
	c-0.4,0.5-0.8,1-0.9,1.7c-0.1,0.3-0.2,0.5-0.5,0.6c-0.5,0.2-1,0.3-1.5,0.6C0.4,27.8,0.1,28,0,28.4c0.2,0.2,0.4,0.2,0.6,0.2
	c1,0.1,2-0.2,2.9,0.1c0.3,0.1,0.7,0,0.9,0.2c0.6,0.5,1.2,0.9,1.8,1.5c0.6,0.5,1.2,1,1.5,1.7c0.5,1.1,1.2,2.1,1.6,3.2
	c0.6,1.8,1.8,3.3,3.1,4.6c1.9,2,4.2,3.5,6.7,4.7c1,0.5,1.9,1,2.8,1.5c-0.3,0.1-0.5,0.1-0.8,0.2c-1.1,0.2-2.3,0-3.3,0.8
	c-0.4,0.3-1.1,0.4-1.3,1c0,0.1-0.2,0.2-0.3,0.2c-0.4,0.3-0.9,0.6-1.1,1.1c0,0.1-0.2,0.2-0.3,0.2c-0.6,0.5-0.9,1.3-1.4,1.8
	c-0.1,0.1-0.1,0.2-0.1,0.2c0,0.4-0.2,0.8-0.4,1.2c-0.2,0.5-0.4,1-0.3,1.5c0,0.4,0.2,0.7,0.6,0.8c-0.1-0.4-0.3-0.7-0.2-1.1
	c0.3,0,0.5-0.1,0.7-0.4c0.2,0.2,0.2,0.4,0.5,0.5c-0.1-0.3-0.3-0.6-0.2-0.8c0.8-0.6,0.9-1.6,1.6-2.3c0.1,0,0.2,0.3,0.4,0.2
	c-0.2-0.5-0.2-0.5,0-0.7c0.2,0.2,0.2,0.5,0.5,0.5c0-0.2-0.2-0.4-0.1-0.7c0.2-0.1,0.4-0.1,0.6-0.2c0.6,0.4,1.1,0.8,1.8,1
	c0.1,0,0.2,0.1,0.3,0.2c0.3,0.4,0.5,0.4,0.8,0c0.1-0.1,0.1-0.2,0.3-0.2c0.7,0.1,0.9,0.6,1.1,1.3c0.3-0.6-0.2-1.5-0.9-1.7
	c-0.6-0.2-1.1-0.4-1.7-0.6c-0.4-0.2-0.8-0.3-1.1-0.6c0.4-0.4,1-0.7,1.5-1c0.1,0,0.2,0,0.3,0c0.6,0.5,1.4,0.8,1.9,1.4
	c0.2,0.3,0.4,0.3,0.8,0.1c0.1-0.1,0.1-0.2,0.3-0.2c0.6,0.3,0.9,0.9,0.8,1.7c0.4-0.8,0.2-1.6-0.5-2.1c-0.5-0.3-0.9-0.6-1.4-0.8
	c-0.2-0.1-0.4-0.2-0.6-0.4c0.1-0.1,0.1-0.1,0.2-0.1c0.9-0.2,1.8-0.4,2.7-0.7c0.2-0.1,0.5-0.2,0.7,0.1c0.1,0.1,0.3,0.1,0.4,0
	c0.4-0.1,0.7-0.1,1.1-0.1c0.4,0.1,0.7-0.1,1-0.2c0.6-0.3,1.2-0.5,1.9-0.3c0.3,0.1,0.7,0.3,0.9,0.2c0.6-0.1,1.2,0,1.7-0.4
	c0.1-0.1,0.3-0.1,0.4,0c0.7,0.2,1.5,0.4,2.1,1c0.9,0.8,1.8,1.6,3.1,1.7c0.1,0,0.1,0.1,0.2,0.1c0.8,0.7,1.6,1.5,2.2,2.4
	c0.8,1.3,1.8,2.5,2.7,3.7c0.4,0.5,1.2,0.6,1.5,1.3c0.3-0.1,0-0.4,0.2-0.5c0.4,0.3,0.4,0.9,1,1c0.1-0.2-0.1-0.4,0-0.5
	c0.2,0.1,0.3,0.4,0.6,0.3c0.1-0.2-0.1-0.4,0.1-0.7c0.1-0.1,0.4,0,0.5-0.2c0.3-0.7,0.3-0.7,0-1.3c-0.4-0.8-0.8-1.5-1.4-2.1
	c-1.1-1.3-2.2-2.6-3.4-3.8c-1.2-1.3-2.4-2.7-3.6-4c-0.5-0.6-0.9-1.2-1.4-1.8c-0.8-0.9-1.7-1.7-2.5-2.7c-0.2-0.2-0.4-0.4-0.4-0.7
	c0.4-0.4,0.8-0.6,1.3-0.7c0.4,0,0.7-0.2,0.9-0.7c0.1-0.4,0.4-0.7,0.8-0.8c0.4-0.1,0.8-0.3,1.1-0.5c0.1-0.1,0.3-0.2,0.3-0.3
	c-0.1-0.4,0-0.7,0.3-1c0.1-0.1,0.1-0.2,0-0.3c-0.1-0.3,0.1-0.4,0.3-0.5c0.5-0.3,1-0.6,1.5-0.8c0.2-0.1,0.4-0.2,0.3-0.4
	c-0.1-0.5,0.5-1,0.2-1.5c-0.1-0.2,0.1-0.3,0.3-0.4c0.4-0.3,0.9-0.4,1.4-0.5c0.3-0.1,0.5-0.1,0.7-0.2c0.6-0.3,0.6-0.8,0.1-1.2
	c0.4-0.5-0.3-0.7-0.4-1.2c0.4-0.1,0.7-0.4,1-0.7c0.5-0.5,0.9-1,1.4-1.5c0.5-0.5,0.4-1.1-0.2-1.5c-0.1-0.1-0.3-0.1-0.3-0.3
	c0.6-0.5,1.1-1.2,2-1.4c0.5-0.1,0.8-0.5,1.1-0.9c0.1-0.2,0.1-0.4-0.1-0.6c-0.4-0.4-0.8-0.4-1.3-0.4c-0.4,0-0.9,0-1.3,0.1
	c-1.8,0.1-3.7-0.2-5.5-0.5c1.3-0.1,2.6,0,4-0.2C42.5,21,42.1,21,42,20.5c1-0.4,2-0.8,3.1-1.1c0.7-0.2,1.4-0.4,2.1-0.7
	c1.1-0.5,1.9-1.4,2.3-2.6c0.3-0.9,0.1-1.1-0.9-1c-0.3,0-0.6,0.2-1,0.2c1.2-1.1,2.4-2.1,2.3-3.8c-0.2-0.2-0.5,0-0.8-0.1
	c0.2-0.4,0.5-0.5,0.8-0.8c0.6-0.5,1.1-1.1,1.3-1.9C51.3,8.6,51.4,8.4,51.1,8.1z M5.7,26.6c0-0.8,0.6-1.5,1.4-1.5s1.5,0.6,1.5,1.4
	C8.6,27.3,5.7,27.4,5.7,26.6z M23.2,47.1c-1,0.3-2,0.6-2.9,0.9c-0.2,0.1-0.4,0.1-0.6-0.2c1.2-0.6,2.4-0.8,3.7-0.9
	C23.3,47.1,23.2,47.1,23.2,47.1z" />
</svg>
