<?xml version="1.0" encoding="utf-8"?>
<!-- Generator: Adobe Illustrator 28.3.0, SVG Export Plug-In . SVG Version: 6.00 Build 0)  -->
<svg version="1.1" id="Layer_1" xmlns="http://www.w3.org/2000/svg" xmlns:xlink="http://www.w3.org/1999/xlink" x="0px" y="0px"
	 width="85px" height="45.1px" viewBox="0 0 85 45.1" style="enable-background:new 0 0 85 45.1;" xml:space="preserve">
<style type="text/css">
	.st0{fill-rule:evenodd;clip-rule:evenodd;}
	.st1{fill:#B25959;}
</style>
<path class="st0" d="M0,20.5c1.1,0.2,2.3,0.3,3.6,0.2c4.1,1.5,11.9,2.6,17.8,2.7c2,0.6,3.4,0.9,5.3,1.2c-0.7-0.9-1.1-1.6-1.7-2.7
	c1.7,2.6,3.8,4.9,6.4,6.9c-1,0.9-1.3,1.6-1.3,2.3c-1.5,0.9-2.1,1.6-2.2,2c-0.9,0.6-1.7,1.1-1.7,1.7c-2.2,1.3-2.3,1.6-2.2,1.9
	c-1.7,0.7-2.3,1.5-2.5,2.2C19.4,40,18.8,40.6,19,41c-1.8,0.6-2.3,1.2-1.9,1.9c-1,0.3-1.8,1.4-1.3,1.7c1.9,1.7,14.5-1,22.1-4.3
	c7.3-3.3,18.3-10.5,18-13.7c-0.2-2.2-8-4.3-8.3-5.7c0.9,1.1,3.9,1.9,6,2.9c3.6-2,4.4-3.3,6.5-5c2.1-1.2,4.9-2,7.5-1.6
	c8.3,1.5,14,3.4,17.4,3.9c-0.8-2-12.9-4.5-19.3-6.8c-2.4-2.4-3.5-3.8-7-4.2c-3-0.2-5.7,0.5-8.5,0.7c-8.6-6,0.9-7.7,0.4-8.5
	C46.9-4.5,7.5,6,8,7.5c5.8-1.2,20.7-6,17.7-2.6c-3.4,4.1-1,7.1-3.4,9c1.5-0.5,3.3-0.9,5.3-1.4c-4.3,1.3-8.4,2.7-12.2,4.5
	c-4,1-7.7,1.6-11.3,2C1.7,19.2,0.1,19.6,0,20.5z M58.6,14.7c0-0.8,0.7-1.4,1.5-1.4c0.8,0,1.4,0.7,1.4,1.5
	C61.5,15.6,58.6,15.5,58.6,14.7z"/>
</svg>
