<svg xmlns="http://www.w3.org/2000/svg" xml:space="preserve" viewBox="0 0 38.6 37.6">
  <path d="M36.5 21.3c-.6-2.1-2.5-3.5-4.7-3.4-1 0-1.9.3-2.8.7-.4.2-.7.3-1.1.5 0-.3 0-.5.1-.8.1-1 .2-2.1.3-3.1.2-1.6.3-3.1.7-4.7q.9-3.75 2.7-7.2c.1-.2.2-.4.2-.7-.6-.3-.9-.3-1.3.1-.5.5-.9 1-1.4 1.5-.1.1-.2.3-.3.5h-.1c.3-.7.6-1.4.9-2.2-.8-.2-1.4.1-1.8.6-.4.6-.7 1.3-1 2 0 .1 0 .2-.1.3 0 .1-.1.1-.2.3 0-.8.3-1.5.1-2.2-.5-.3-.8 0-1 .3-.6.5-.8 1.3-.9 2s-.1 1.4-.2 2.2c-.2-1.1.1-2.1-.3-3-.7-.1-.9.1-1.2.7-.4 1.1-.4 2.3-.2 3.4 0 .2 0 .4.1.6h-.1c-.2-1-.5-2.1-.7-3.2-.8.2-.9.8-.9 1.4v1.9c-.2-.4-.5-1-.7-1.6-.3.2-.4.2-.6.4-.8-2.8-1.3-5.7-1.3-8.6-.6-.2-.9 0-1 .4-.2.4-.3.7-.4 1.1-.1.6-.1 1.3-.2 1.9-.1-.8-.2-1.7-.3-2.5-.5 0-.8.3-1 .7-.4.6-.4 1.2-.3 1.8.1.5.2 1.1.3 1.6-.5-.6-.4-1.5-1.1-1.9-.6.4-.9 1.1-.7 1.9.2.7.5 1.4.8 2.1.1.2.1.3.2.5h-.1c-.4-.7-.8-1.4-1.2-2-.6 0-.6 0-.7.3-.1.2-.2.5-.1.7.1.5.2 1 .5 1.5.4.7.8 1.5 1.2 2.2v.1c-.7-.8-1.4-1.5-2.1-2.3-.8.5-.7.9-.5 1.4.3 1 .9 1.8 1.6 2.5.2.2.3.3.4.5l-.1.1c-.4-.3-.8-.6-1.3-.9-.1.3-.2.6-.1.7.1.3.3.7.5.9.2.3.4.6.6.8h-1c-.4.9.4 1.4.7 2-.9.2-1.8.4-2.5.8.3.8.9 1.1 1.4 1.6-.2.1-.3.3-.4.4-.9 0-1.8-.1-2.5.7.4.9 1.2 1 1.9 1.4-1-.1-2.1-.6-2.8.6.6 1.1 1.7 1.2 2.7 1.6-.3.1-.6.1-.9.1s-.7 0-.9.4c.1.6.6.8 1.1 1s1 .2 1.5.3c-.6.3-1.3.2-1.6 1 .5 1.3 1.8 1.9 2.8 2.7-.4.3-.8.6-1.1.8-2.6 1.6-5.4 3-8.4 3.7-.8.2-1.6.4-2.3.7-.8.1-1.3.3-1.3 1 .7.9 1.8.6 2.8.8-.5.6-.5.6-.5 1 .7.6 1.5.3 2.2.1.8-.2 1.5-.5 2.3-.7.1.2.1.3.1.4.5.1.9 0 1.3-.2.6-.3 1.2-.6 1.7-1 .7-.4 1.5-.7 2.3-.8h4.9c.6.4 1.1.7 1.9 1.2 1 .1 2.2.1 3.4.2-.1.6-.8.8-.8 1.5.7-.5 1.1-1.4 2.1-1.4.1.1.1.2.2.3.1 0 .2-.1.5-.2.4.4.8.9 1.3 1.4 0 0 .1 0 .1-.1v-.5c-.2-.7-.9-1-1.4-1.4.5-1.1 1.1-1.4 2.1-1.1.3.1.6.3.9.5.2.1.3.3.6.1-.1-.5-.4-.7-.8-.9q-.9-.45-1.8-.3c-.6.1-1.2.3-1.8.4-.4.1-.9.2-1.3.3v-.1c.2-.1.3-.3.4-.4.3-.1.5-.1.8-.2 2.1-.5 4-1.3 5.4-3 .7-.8 1.2-1.7 1.8-2.6.8-1.2 1.7-2.2 2.9-2.9.7-.4 1.3-.8 1.9-1.3.3-.3.7-.5 1.1-.7.7-.2 1.4-.4 2-1.1-.8-.1-1.4-.5-2.1-.9M24.3 34.8c-.1.3-.2.5-.3.8-.6-.1-1.2-.1-1.8-.2v-.1c.7-.2 1.3-.3 2.1-.5m9.8-13.1c-.1.6-2.2.2-2.1-.4s.7-.9 1.2-.8c.6 0 1 .6.9 1.2"/>
</svg>
