<?xml version="1.0" encoding="utf-8"?>
<!-- Generator: Adobe Illustrator 28.3.0, SVG Export Plug-In . SVG Version: 6.00 Build 0)  -->
<svg version="1.1" id="Layer_1" xmlns="http://www.w3.org/2000/svg" xmlns:xlink="http://www.w3.org/1999/xlink" x="0px" y="0px"
	 width="106.9px" height="157.5px" viewBox="0 0 106.9 157.5" style="enable-background:new 0 0 106.9 157.5;" xml:space="preserve"
	>
<style type="text/css">
	.st0{fill-rule:evenodd;clip-rule:evenodd;}
	.st1{fill:#B25959;}
</style>
<path d="M106.8,119.9c-0.1-2.2,0.1-4.4-0.3-6.7c-0.3-2-0.4-4-0.9-5.9c-0.4-1.5-0.7-3-1.5-4.4c-0.9-1.7-1.8-3.5-2.7-5.3
	c-1.6-2.9-3.8-5.3-6.2-7.5c-1.9-1.7-4-3.3-5.8-5.1c-0.6-0.6-1.3-1.3-1.9-1.9c0.4-0.6,1.1-0.9,1.8-1.1c1.6-0.4,3.1-0.8,4.5-1.7
	c0.4-0.3,1.1,0,1.7,0c0.3,0.4,0.7,0.7,1,1.1c0.9-1,1.3-1.9,0.6-3.2c-0.6-1.2-0.8-2.5-1.3-3.7c-0.9-2.2-2.6-3.5-4.7-4
	C88.7,70,86.4,69.3,84,69c-0.9-0.1-1.3-0.8-2.1-1.1c-0.8-1.6-1.6-3.1-2.3-4.7c-0.2-0.4-0.4-0.8-0.4-1.2c0-1.4-0.1-2.7,0-4.1
	c0.1-1.3,0.6-2.5,0.9-3.7c0.4-1.3,0.6-2.5,0.6-3.8c0-0.8,0-1.7,0-2.5c0.1-1-0.3-1.9-0.7-2.8c-1-2.5-2.9-4.3-4.9-5.9
	c-2.3-1.8-4.5-3.7-6.9-5.4c-1.5-1.1-2.9-2.3-4.4-3.4c-2-1.4-3.8-3-5.7-4.5c-0.7-0.6-1.4-1.2-2.2-1.7c-1.8-1.1-3.4-2.4-5.1-3.7
	c-1.4-1.1-2.8-2.2-4.1-3.2c-2.1-1.6-4.1-3.2-6-5c-1.9-1.7-3.4-3.7-5-5.7c-1.5-1.9-3.2-3.6-4.9-5.4c-0.2,0.3-0.4,0.4-0.5,0.6
	c0.4,0.9,0.8,1.8,1.1,2.8c0.2,0.9,1.3,1.7,0.6,2.9c-0.1,0-0.2,0-0.2,0c-2.2-1.5-4.4-3.1-6.3-5c-1-1-2.1-1.8-3.6-2.5
	c0.7,1.4,1.2,2.5,2.1,3.4c0.9,0.9,1.6,2,2.1,3.5c-2.4-1.5-4.5-2.8-6.6-4c-0.1,0.6,0,1,0.2,1.3c2.2,3.7,5.3,6.7,7.7,10.1
	c0.2,1.2,0.4,2.3,0.6,3.3c1.3,0.9,2.4,1.8,3.4,2.5c-0.2,0.9-0.3,1.5-0.4,2.2c1.1,0.9,2.1,1.8,3.2,2.6c0,0.6,0,1.1,0,1.7
	c0.7,0.2,0.6,1.1,1.4,1.4c0.7,0.3,1.1,1,1.8,1.7c-0.2,0.9-0.5,1.8-0.8,2.7c1,1.1,2.4,0.8,3.4,1.1c0.3,0.1,0.6,0.2,0.9,0.4
	c-0.6,0.9-1,1.5-1.4,2.2c0.5,1,1.5,0.9,2.3,1.1c0.8,0.2,1.7,0,2.5,0.7c-0.4,0.1-0.8,0.1-1.2,0.2c-0.3,0.5-0.5,0.9-0.8,1.4
	c0,2.4,0,4.8,0,7.2c0,0.4-0.2,0.9,0,1.1c0.7,0.8,0.2,1.7,0.4,2.6c0.1,0.9,0.3,1.8,0.4,2.8c0,1.1,0.4,2.1,0.7,3.2
	c0.4,1.8,1.4,3.2,2.4,4.6c1.2,1.7,2,3.5,2.5,5.6c0.2,1.2,0.3,2.1-0.1,3.2c0,0.1-0.1,0.2-0.1,0.3c-0.9,1.2-2.2,1.9-3.5,2.5
	c-1.5,0.8-3.1,1.2-4.7,1.8c-2,0.7-4,1.2-6.1,1.7c-1.7,0.4-3.5,1-5.2,1.4c-2,0.5-4.1,0.8-6.1,1.3c-0.8,0.2-1.7,0.5-2.5,0.4
	c-1.7,1-3.7,0.6-5.5,1.1c-0.5,0.2-1,0.3-1.6,0.4c-1.4,0.1-2.7,0-4.1,0.3c-1.4,0.3-3,0.2-4.5,0.4C2.3,81.6,1.3,82,0,83.7
	c0,1.2,0,2.3,0,3.5c0.2,0.3,0.4,0.5,0.6,0.8c0.4,0,0.8,0,1.2,0c0.4,0.9,0.9,1.8,1.3,2.8c0.9-0.2,1.8,0.3,2.5-0.4
	c0.1-0.1,0.6,0.1,0.9,0.1c1,0.1,1.2,1.2,1.7,1.7c1,0,2,0.2,2.9,0c1.8-0.5,3.6-0.8,5.4-1c2-0.2,4-0.7,6-0.5c0.1,0,0.3,0.1,0.4,0
	c0.8-0.6,1.8-0.1,2.5-0.4c0.9-0.3,1.8-0.3,2.8-0.3c0.2,0,0.5,0.1,0.6,0c0.6-0.6,1.5-0.1,2-0.4c0.7-0.4,1.3-0.3,2-0.3
	c0.2,0,0.4-0.1,0.5-0.1c1-0.4,2-0.5,3-0.6c1.1-0.1,2.2-0.7,3.3-0.4c2.1-1,4.5-0.7,6.7-1.1c2-0.3,4.1-0.1,6.2,0
	c0.8,0,1.8,0.1,2.5,0.6c1.5,1,2.9,2,3.6,3.9c1.4,3.6,3.9,6.6,6.1,9.7c1.2,1.7,2.4,3.4,3.6,5.1c1.4,2,2.9,4,4.4,6
	c0.5,0.6,1,1.3,1.4,1.9c0.7,1.1,0.9,2.3,0.8,3.6c0.7,0.3,1.2,0.5,1.8,0.8c0.5,0.3,1,0.7,1.4,1c-0.5,0.9-0.9,1.7-1.3,2.6
	c0.9,1.2,2.1,1.5,3.9,1.5c0,0,0.1-0.4,0.2-0.8c0.2,0.8,0.3,1.5,0.2,2.1c-0.5,2.9-0.6,2.9,0.4,5.1c0,0.1,0.2,0.1,0.3,0.3
	c0.5-0.1,1-0.3,1.6-0.5c-0.3,2.1-1.6,3.7-1.6,5.8c0.6,0.4,1.2,0.8,1.7,1.3c0.6,0,1.2,0,1.7,0c0.1-0.1,0.2-0.2,0.3-0.3
	c0,0,0.1,0.1,0.1,0.1c-0.1,0.1-0.2,0.2-0.3,0.3c0,0-0.1-0.1-0.1-0.1c-0.1,1.5-0.3,3-0.4,4.4c0.8,0.7,1.4,1.6,2.3,1.9
	c0.2,0.6,0.7,1.2,0.4,1.8c-0.6,1-0.3,2-0.4,3c0.6,0.5,1.3,0.9,2.1,1.5c-0.1,1.1-0.3,2.2-0.4,3.5c0.1,0.1,0.3,0.4,0.5,0.6
	c0.6,0,1.1,0,1.8,0c0.7,1.1,1.4,2.3,2.1,3.5c0.3-0.3,0.5-0.4,0.5-0.5c0.3-0.9-0.1-1.8,0.4-2.9c1.3,1.3,1.6,3,2.8,4.1
	c0.1,0,0.3,0,0.4,0c0.6-1,1.3-2,1.6-3.2c0.2-1.1,1-2.1,1.2-3.2c0.1-0.3,0.5-0.4,0.9-0.7c0.3,0.6,0.6,1.2,0.9,1.7
	c0.9-0.3,1.1-1.1,1.3-1.9c0.5-2,1.6-4,1.6-6.2c1-1.9,0.7-4.1,1.1-6.1c0.3-1.4,0.1-3,0.4-4.5c0.3-2.3,0.1-4.7,0.4-7
	C107,124.3,106.8,122.1,106.8,119.9z M92.3,75.6c0.8,0,1.5,0.6,1.6,1.4c0,0.8-3,0.9-3,0.1C90.8,76.3,91.5,75.6,92.3,75.6z"/>
</svg>
