<?xml version="1.0" encoding="utf-8"?>
<!-- Generator: Adobe Illustrator 28.3.0, SVG Export Plug-In . SVG Version: 6.00 Build 0)  -->
<svg version="1.1" id="Layer_1" xmlns="http://www.w3.org/2000/svg" xmlns:xlink="http://www.w3.org/1999/xlink" x="0px" y="0px"
	 width="94.8px" height="110.4px" viewBox="0 0 94.8 110.4" style="enable-background:new 0 0 94.8 110.4;" xml:space="preserve">
<style type="text/css">
	.st0{fill-rule:evenodd;clip-rule:evenodd;}
	.st1{fill:#B25959;}
</style>
<path d="M94,84.6c-0.8-0.2-1.5-0.4-2.1-1c-1.7-1.5-4.3-2.3-5.8-4c-2.6-2.9-6.3-4.8-10.3-5.2c-2.3-0.3-4.6-0.4-6.9-0.7
	c-1.7-0.2-2.4-0.9-2.5-2.6c-0.2-3.6-0.2-7.2,0.5-10.8c0.5-2.4,0.9-4.9,1.1-7.4c0.2-1.7,0.2-3.4,0-5.1c-0.3-2.9-0.8-5.7-2.7-8
	c-0.3-0.3-0.4-0.9-0.4-1.3c-0.5-2.1-0.8-4.2-1.3-6.3c-0.9-3.5-1.8-7-2.8-10.5c-0.8-3-1.7-6-2.5-8.9c-0.7-2.6-1.1-5.3-1.5-7.9
	c-0.1-0.7-0.9-4.1-1.8-4.7c-0.6-0.4-3.6,0.8-1.5,16.5C53.2,13.7,51.5,2,51.5,2S47.4,2,52,17.3L48.1,4.8c-2.8-0.1-0.7,9,1.4,13.1
	C48.8,17.8,45.7,7,45.7,7c-2.1,0-1.6,4.1-1.5,6.3c0.2,2.2,2,7.9,2,7.9l-2.9-8.3c-1.2,0.3-2,2.7-1.1,4.7c0.4,0.8,0.8,4.6,1.2,6.6
	l-1.9-6.7c-0.4,0.2-2,0.7-2.6,2.9c-0.9,3.2-0.5,4.7-0.3,6.2c-0.3-0.3-0.5-0.7-0.6-1.1c-1.5-4-2.2-8.1-2.1-12.3
	c0-0.5,0.1-0.9-0.6-1.2c-0.7,1.6-0.3,3.1-0.4,4.8c-1-1.5-1-3.3-2-4.7c-0.2,0.3-0.3,0.6-0.2,0.8c0.3,1.4,0.5,2.9,1,4.3
	c0.4,1.2,1,2.4,1.5,3.6c0.2,0.4,0.2,0.9,0.4,1.4c-0.1,0-0.2,0.1-0.4,0.1c-1.1-2.6-2.3-5.1-3.4-7.7c-0.1,0-0.2,0.1-0.3,0.1
	c-0.3,2.4,1,4.4,1.5,6.7c-0.5-0.7-0.9-1.5-1.4-2.2c-0.1,0-0.3,0.1-0.4,0.1c0.3,1.3,0.5,2.6,0.8,4c-0.4-0.2-0.7-0.3-1.1-0.4
	c0.1,1.4,0.2,2.7,0.2,4c-0.3,0.1-0.6,0.2-0.9,0.2c-0.4,1.6,0,3,0.4,4.5l-1.1,0.9c0.3,1.4,0.6,2.8,0.8,3.8c0,1.1-0.2,2,0,2.8
	c0.5,1.8,1.2,3.5,1.8,5.2c0.3,0.9,0.8,1.7,1,2.3V51l-1,0.9c0.1,1.4,0.2,2.8,0.4,4.1l-1,1.5c0.4,2.1,0.4,2.1-0.2,3.3
	c0.3,2.2,0.5,4.2,0.7,6.1c0.2,1.6,0.6,3.1,0.9,4.7c0.3,1.3,0.7,2.5,2.4,2.9c-0.5,0.2-0.7,0.3-0.9,0.4c-6,1.8-11.8,4.3-17.7,6.7
	c-1.3,0.5-2.5,1.3-3.8,1.7C10.5,84.1,8,85,5.5,85.8c-2.1,0.6-3.4,2.3-5.2,3.4c-0.1,0.1-0.2,0.3-0.3,0.5c0.6,0.9,1.4,0.5,2.1,0.3
	c1.4-0.3,2.7-0.8,4.1-1.1c2.5-0.5,5-1,7.6-0.6c3.9,0.5,7.8,0.6,11.9,0.8c0.2,0.3,0.4,0.8,0.8,1.4c0.1,0,0.4,0.1,0.8,0.2
	c-0.4,2.2,0.5,4,1.5,5.7c-0.7,0.4-1.2,0.7-2,1.2c1,0,1.7,0,2.3,0c0.9,1.6,1.5,3.7,1.5,5.2c-0.9-0.6-1.8-1.2-2.5-1.8
	c-0.6-0.5-1.1-1.2-1.7-1.7c-1-0.9-1.9-0.9-2.9-0.1c1,0.2,2.1,0.1,2.7,1.1c-0.1,0.2-0.2,0.3-0.2,0.5c-0.1,0.2-0.1,0.4-0.1,0.5
	c1.6,1,3.2,2,4.8,3c-0.1,0.4-0.2,0.7-0.3,1c-0.6-0.1-1.1-0.2-1.5-0.3c0.1,0.4,0.2,0.5,0.4,0.7c0.2,0.2,0.3,0.3,0.7,0.6
	c-0.7,0.3-1.4,0.5-1.9,0.9c-0.5,0.3-1,0.8-1.6,1.3c0.3,0.1,0.7,0.2,1,0.2c0.4,0,0.8,0,1.2,0c0,0.1,0,0.1,0,0.2c-0.6,0-1.1,0-1.6,0
	c-0.4,0.3-0.7,0.5-1.1,0.7c-0.5-0.2-0.9-0.5-1.4-0.7c0.7,1.4,1.7,1.9,3.1,1.4c0.7-0.2,1.4-0.4,2.1-0.7c0.4-0.1,0.9-0.4,1.2-0.7
	c0.5-0.5,1.1-1,1.6-1.5c0.1-0.5,0.1-1,0.2-1.6c2,0.1,3.5-1.1,5.1-2.1c0.2-2.2,0.6-4.4-1-6.3c-0.4-0.5-0.6-1.1-0.9-1.6
	c-0.3-0.6-0.6-1.1-1-2c0.9,0.1,1.5,0.2,2.1,0.2c0.4-0.1,0.8-0.4,1.2-0.4c1.1,0.2,2-0.3,2.9-0.6c0.4-0.1,0.8-0.3,1.2-0.3
	c1.8-0.1,3.6-0.1,5.4-0.3c2.6-0.2,5.2-0.4,7.8-0.9c3.1-0.5,6.2-1.4,9.4-2c5.6-1,11.1-2.2,16.4-4.3c1.7-0.7,3.6-1.1,5.5-0.9
	c2.2,0.3,4.3,0.7,6.5,1c0.4,0.1,0.9,0.1,1.3,0.2c0-0.1,0.1-0.2,0.1-0.2C94.6,85,94.4,84.6,94,84.6z M32.6,102.8c-0.4-1-0.8-2-1.3-3
	c1.1-0.7,1.6,0.5,2.4,0.6c0.8,0,1.6,0.2,2.2,1.1C35,102.2,34,102.7,32.6,102.8z M36,99.5c-0.7-0.1-1.2-0.2-1.6-0.3
	c-1.1-0.5-2.2-1.1-3.3-1.7c-1.1-0.6-1-1.8-1.4-2.9c0.4-0.4,0.7-0.9,1.1-1.3c0.6-0.5,1.5-0.6,1.9-0.1C34.2,95,35.4,97,36,99.5z
	 M79.5,80.2c0-0.9,0.7-1.6,1.5-1.7c0.9,0,1.6,0.7,1.7,1.5C82.8,81,79.6,81.1,79.5,80.2z"/>
</svg>
