<?xml version="1.0" encoding="utf-8"?>
<!-- Generator: Adobe Illustrator 28.3.0, SVG Export Plug-In . SVG Version: 6.00 Build 0)  -->
<svg version="1.1" id="Layer_1" xmlns="http://www.w3.org/2000/svg" xmlns:xlink="http://www.w3.org/1999/xlink" x="0px" y="0px"
	 width="78.8px" height="74.1px" viewBox="0 0 78.8 74.1" style="enable-background:new 0 0 78.8 74.1;" xml:space="preserve">
<style type="text/css">
	.st0{fill-rule:evenodd;clip-rule:evenodd;}
	.st1{fill:#B25959;}
</style>
<path d="M70.4,29.1c-0.3-0.9-0.8-1.7-1.6-2.3c-0.8-0.5-1.5-1.1-2.3-1.5c-1.8-0.9-3.6-0.8-5.4-0.1c-0.4,0.2-0.7,0.4-1.1,0.7
	c-0.1-0.3-0.2-0.5-0.3-0.7c-0.5-1.7-1.1-3.4-2.5-4.6c-0.1-0.1-0.3-0.3-0.4-0.4c-0.8-0.8-1.6-1.7-2.5-2.4c-1.4-1.1-2.9-2-4.3-3
	c-0.5-0.4-1-0.8-1.5-1.2c-1.2-0.8-2.4-1.6-3.6-2.4c-1.1-0.7-2.1-1.5-3.2-2.2c-0.2-0.1-0.4-0.2-0.6-0.3c-0.5-0.3-1-0.5-1.5-0.8
	c-1.6-0.9-3.2-1.9-5-2.6c-0.6-0.2-1.3-0.5-1.8-0.8c-1.5-0.9-3.2-1.5-4.8-2.1c-2.6-1-5.4-1.6-8.2-2c-0.6-0.1-1.3-0.1-1.9,0
	c-0.6,0.1-0.8,0.4-0.9,1.1c0.6,0.7,1.5,1,2.3,1.4c0,0.3-0.1,0.6-0.1,0.8c0,0.4,0.1,0.7,0.4,1c0.6,0.5,1.2,1.1,1.8,1.7
	c-0.3,0.6,0,1,0.4,1.4c0.3,0.3,0.6,0.6,0.8,1c0.2,0.6,0.6,1.1,1,1.5c0.2,0.2,0.5,0.4,0.5,0.6c0.1,0.8,0.7,1.3,1.3,1.7
	c0.6,0.5,1.2,0.9,1.7,1.3c0.1,1,0.7,1.7,1.3,2.3c0.9,1,2.2,1.4,2.9,2.7c0,0,0,0,0.1,0c0.8,0.4,1,1.2,1.6,1.8
	c-0.1,0.1-0.2,0.1-0.2,0.1c-0.4,0-0.8,0-1.2,0c-4.9,0.1-9.9-0.1-14.8,0.5c-1,0.1-1.9,0.5-2.7,0.8c-0.1,0-0.2,0.2-0.3,0.3
	c0.1,0.2,0.1,0.4,0.2,0.6c0.3,0.1,0.5,0.2,0.7,0.2c0.3,0.8,1.1,0.7,1.7,0.8c0.2,0.2,0.3,0.3,0.5,0.5c0.3,0.1,0.5,0.2,0.8,0.2
	c1,0.1,1.8,0.7,2.8,1c0.2,0.1,0.4,0.2,0.6,0.4c0.3,0.3,0.6,0.4,0.9,0.4c0.2,0,0.4,0.1,0.6,0.1c0.1,0.2,0.3,0.4,0.4,0.6
	c0.4,0.1,0.9,0.1,1.3,0.2c0.2,0.2,0.3,0.3,0.5,0.6c0.7,0.1,1.5,0.2,2.2,0.3c0.4,0.7,1,0.8,1.7,0.8c0.3,0,0.6,0.1,0.8,0.2
	c0.4,0.1,0.7,0.3,1.1,0.5c0.2,0.1,0.4,0.1,0.5,0.2c0.5,0.5,1.2,0.6,1.8,0.6c0.3,0,0.5,0,0.8,0.1c0.2,0.2,0.3,0.3,0.4,0.5
	c0.3,0,0.7,0,1,0c0.1,0.2,0.2,0.4,0.4,0.5c0.6,0.2,1.1,0.3,1.7,0.5c0,0.4,0,0.8,0,1.1c0.2,0.3,0.4,0.5,0.5,0.8
	c-0.1,0.4-0.2,0.8-0.4,1.2c0.1,0.2,0.3,0.3,0.4,0.5c-0.2,0.5-0.4,0.9-0.6,1.4c0.2,0.1,0.3,0.2,0.5,0.3c-0.1,0.4-0.3,0.8-0.4,1.3
	c0.3,0.1,0.6,0.2,0.8,0.3c0,0.1,0.1,0.1,0.1,0.2c-0.3,0.2-0.7,0.5-1.1,0.7c0.5,0.2,0.7,0.4,1,0.5c-0.2,0.2-0.4,0.4-0.6,0.8
	c0.6,0,0.9,0,1.4,0c-0.3,0.5-0.5,0.8-0.8,1.3c1.3,0,2.3-0.6,3.4-0.7c-0.3,0.5-0.7,1-1.2,1.5C37.9,45,36,46.6,34,48.1
	c-1.3,0.9-2.5,1.8-3.8,2.7c-0.6,0.4-1.3,0.7-2,1c-0.4,0.2-0.8,0.4-1.2,0.6c-0.8,0.4-1.8,0.7-2,1.9c-0.6,0.3-1.3,0.6-1.9,0.9
	c-2,0.8-4.1,1.6-6.1,2.5c-1,0.4-2.1,0.9-3,1.5c-2.2,1.4-4.5,2.6-7,3.2c-0.1,0-0.2,0.2-0.3,0.2c0.3,0.1,0.6,0.1,0.8,0
	c1.3-0.3,2.6-0.8,3.8-1.4c1.6-0.8,3.2-1.8,4.8-2.5c1.7-0.8,3.6-1.5,5.3-2.3c1.8-0.8,3.5-1.6,5.3-2.5c0.2-0.1,0.3-0.1,0.5-0.2
	c0,0.1,0.1,0.1,0.1,0.2c-0.6,0.4-1.1,0.9-1.7,1.3c0,0,0.1,0.1,0.1,0.1c0.6,0,1.1-0.4,1.7-0.6c0.5-0.3,1.1-0.6,1.6-0.9
	c0,0.1,0.1,0.1,0.1,0.2c-0.6,0.6-1.4,1-2,1.6c-0.7,0.6-1.4,1.2-2.1,1.8c0.1,0.2,0.2,0.3,0.3,0.5c-0.5,0.4-0.9,0.7-1.3,1
	c0,0.1,0.1,0.1,0.1,0.2c0.8,0.1,1.4-0.6,2.4-0.5c-1.2,1.4-2.9,2.1-4.1,3.3c0,0.2,0.1,0.4,0.1,0.6c-1.6,1.3-3,2.7-4.3,4.2
	c-1.6,1.9-2.8,3.9-3.7,6.2c-0.1,0.1,0,0.3,0,0.4c0.1,0,0.1,0,0.2,0c0.1-0.2,0.2-0.5,0.3-0.7c0.2-0.5,0.3-0.9,0.5-1.4
	c1.2-2.2,2.7-4.2,4.4-6c1.9-2,4.1-3.6,6.3-5.1c0.3-0.2,0.6-0.5,1-0.7c2.3-1.5,4.6-3,6.9-4.5c1.5-1,2.9-2,4.5-3.1c0.5,0,1.3,0,2.1,0
	c0.7,0,1.3-0.1,2-0.1c0.7,0,1.3,0,1.8-0.4c0.5,0,1,0,1.3-0.1c0.6-0.2,1.1-0.3,1.6,0c0.4-0.2,0.7-0.3,1.1-0.4
	c0.1,0.2,0.3,0.4,0.4,0.5c0.3-0.1,0.5-0.2,0.7-0.2c0.1,0.3,0.3,0.6,0.4,1c0.5-0.8,0.9-1.4,1.2-2.1c0.4-0.8,1.1-1.3,1.9-1.6
	c0.2-0.1,0.4,0,0.5,0c0.4,1,0.4,1,0.9,1.2c0-0.2-0.1-0.5-0.1-0.7c0.5-0.8,1-0.9,1.6-0.5c0,0.2,0,0.4,0,0.8c0.3-0.2,0.4-0.4,0.6-0.5
	c-0.2-0.3-0.3-0.6-0.5-0.9c0.6-0.4,1.1-0.5,1.8,0c-0.1-0.2-0.2-0.4-0.3-0.6c-0.3,0-0.5,0-0.7-0.1c0.8-0.7,1.5-1.4,2.2-2
	c1.4-1.3,2.7-2.7,3.6-4.4c0.5-0.9,1.1-1.8,1.6-2.7c0.3-0.6,0.6-1.1,0.8-1.7c0.2-0.8,0.6-1.5,1.3-1.9c0.4-1.1,0.4-1.1,1.2-1.7
	c0.5-0.4,1-0.7,1.3-1.2c0.7-1.2,1.7-1.7,3-1.8c0.4,0,0.8-0.1,1.3-0.2c0-0.1,0-0.1,0-0.2C71.9,29.4,71.1,29.3,70.4,29.1z M63.9,28.9
	c0-0.8,0.6-1.5,1.4-1.5c0.8,0,1.5,0.6,1.5,1.4C66.8,29.6,63.9,29.7,63.9,28.9z"/>
</svg>
