<?xml version="1.0" encoding="utf-8"?>
<!-- Generator: Adobe Illustrator 28.3.0, SVG Export Plug-In . SVG Version: 6.00 Build 0)  -->
<svg version="1.1" id="Layer_1" xmlns="http://www.w3.org/2000/svg" xmlns:xlink="http://www.w3.org/1999/xlink" x="0px" y="0px"
	 width="324.6px" height="184.8px" viewBox="0 0 324.6 184.8" style="enable-background:new 0 0 324.6 184.8;" xml:space="preserve"
	>
<style type="text/css">
	.st0{fill-rule:evenodd;clip-rule:evenodd;}
	.st1{fill:#B25959;}
</style>
<path d="M0,58.6c0,0.1,0,0.1,0,0.2c0.7,0,1.4,0.2,2.1,0.1C3.6,58.5,5,58.2,5.8,58c2.2,0.8,3.8,1.7,5.5,2c1.7,0.4,3.6,0.4,5.3,0.3
	c2.7-0.1,5.3-0.4,8-0.5c7.8-0.5,15.5,0.1,23.2,1.2c3.8,0.5,7.6,1,11.1,1.4c1.1,0.8,2,1.4,3,2.1c-0.8,2,0.4,3,2.1,3.6
	c0.3,2.9,0.3,2.9,2.1,5.5c0.1,0.1,0.2,0.2,0.2,0.4c0,1.5,0.8,2.5,1.8,3.4c-0.3,2.1,0.9,3.5,2.1,4.7c-0.8,3.5,1.3,5.4,3.5,7.5
	c0.1,2.4,0.9,4.5,3.6,5c0.4,3.3,0.9,6.5,4.9,7.5c-0.9,2.7,0.4,4.8,2.1,6.5c-0.3,1.5-0.7,2.9-0.9,4.2c-0.3,2.4,0.6,3.5,2.7,3.7
	c-0.3,2-0.8,4.1-0.8,6.1c-0.1,2.6,0.5,3,2.8,3.3c-0.1,2.3-0.4,4.6-0.3,6.9c0.2,2.9,1.3,3.6,4.2,3c0,0.3,0,0.6,0,0.9
	c0.5,2.8,0.8,5.6,1.5,8.3c0.5,2,1.5,2.2,3.3,1.2c0,0,0.1,0,0.2,0.1c0,0.5,0.1,0.9,0.2,1.4c0.4,3.4,1.3,6.7,2.9,9.7
	c1.1,2,2.2,2.1,3.7,0.3c0,0,0.1,0,0.2,0c0.1,1.2,0.1,2.4,0.3,3.5c0.4,3.4,1.3,6.7,2.9,9.7c0.4,0.7,1.3,1.6,2.1,1.7
	c1.1,0.1,1.7-1,2.1-2c0.1-0.3,0.3-0.7,0.5-1.3c0.1,1.4,0.1,2.5,0.3,3.6c0.4,2.6,0.7,5.2,1.3,7.7c0.3,1.3,1.1,2.5,2.7,2.6
	c1.5,0.1,2.4-1.2,2.9-2.4c1-2.2,1.8-4.4,2.5-6.7c0.5-1.6,0.9-3.2,1.4-4.8c0.2,2.7,0.3,5.3,0.7,8c0.4,2.9,1,5.9,3.9,7.6
	c0.3,0,0.7,0,1,0c2.5-1.7,3.1-4.5,3.8-7.1c0.1-0.4,0.2-0.8,0.3-1.3c0.4,1.2,0.7,2.2,1.1,3.1c0.6,1.5,1.6,2.7,3.2,3.4
	c1.1,0.5,2,0.3,2.4-0.8c0.6-1.7,1.1-3.4,1.5-5.1c0.3-1.6,0.3-3.2,0.5-4.7c1,0.2,1.9,0.4,2.9,0.5c2.6,0.1,4.2-1.5,4-4.1
	c-0.7-12.9-1.3-25.7-2.1-38.6c-0.7-10.8-2.6-21.5-5-32c-0.1-0.7-0.2-1.4,0-2.1c2.1-6.4,2.4-13,3-19.6c0.2-2.9,0.3-5.7,0.4-8.6
	c0.1-3-0.9-5.5-2.8-7.8c-1.8-2.3-3.5-4.7-5.3-7.3c1.3-0.5,2.3-0.9,3.4-1.3c-0.2,3.6,0.3,4,5,3.6c-0.5,1.7-0.2,3.2,1,4.4
	c1.3,1.3,2.9,0.8,4.1,0.4c0.7,1.7,1.1,3.4,2.1,4.8c1.1,1.7,2.8,2,4.5,1.2c0.3,1.3,0.4,2.7,0.9,4c1.5,3.9,3.6,4.6,7.3,2.8
	c0.8,1.9,1.4,3.9,2.4,5.7c0.5,1.1,1.4,2,2.4,2.8c1.5,1.3,3,1,4.2-0.6c0.3-0.3,0.5-0.7,0.8-1.2c0.1,3.2,1.2,5.7,3.2,7.9
	c0.8,0.8,1.6,1.6,2.6,2.2c1.5,1,2.7,0.6,3.6-1c0.3-0.5,0.5-1.1,0.8-1.8c0.2,1.1,0.2,2.2,0.5,3.3c0.6,2.8,2,5.2,4.3,6.9
	c2.1,1.6,3.2,1.3,3.7-1.3c0.5-2.3,0.7-4.6,0.8-6.9c0.1-3.1,0-6.2,0.3-9.3c0.4,2.1,0.7,4.3,1.3,6.4c0.7,2.8,1.5,5.6,2.5,8.3
	c0.9,2.5,2.8,4.2,5,5.4c0.5,0.3,1.4,0.4,1.9,0.2c0.3-0.2,0.4-1.1,0.4-1.7c-0.5-4.2-1-8.3-1.5-12.9c2.6,5.4,4.7,10.9,11.5,12.5
	c-0.2-1-0.3-1.7-0.5-2.4c-1.8-4.7-3.6-9.3-5.4-14c-0.7-1.7-1.5-3.4-2.2-5.1c0.2,0.1,0.5,0.3,0.6,0.5c1.7,2.3,3.3,4.6,5.1,6.8
	c2.4,3,5.6,4.5,9.5,4.2c0.8-0.1,1.7-0.4,2.5-0.8c0.4-0.2,0.5-0.8,0.9-1.4c-1.6,0.2-2.9,0.3-4.2,0.5c-1.6,0.2-3-0.2-3.9-1.4
	c-1.5-1.9-3.2-3.7-4.4-5.8c-2.4-4.3-4.4-8.8-6.6-13.1c-2.7-5.3-5.5-10.5-8.2-15.8c-1.8-3.4-3.5-6.7-5.2-10.1
	c-0.1-0.2-0.2-0.4-0.3-0.8c2.9,0.2,5.7,0.2,8.4,0.5c8,1,16,2.3,24.1,3c11.4,1,22.8,1.9,34.2,2.5c11.1,0.6,22.2,0.7,33.4,1
	c2.9,0.1,5.8-0.1,8.8-0.1c0.4,0,0.9,0.1,1.2,0.3c1.8,1,3.7,1.4,5.7,1.1c0.7-0.1,1.3-0.6,2-0.9c0.7-0.3,1.4-0.6,2.1-0.7
	c3.6-0.1,7.3,0,10.9,0c1.3,0,1.8-0.8,1.1-1.9c-0.4-0.6-1-1-1.6-1.4c-0.5-0.3-1.1-0.6-1.6-0.8c-3.9-0.9-7-3.1-10.3-5.2
	c-0.2-0.1-0.4-0.3-0.6-0.5c1.7-2.1,1.5-3.2-0.9-4.6c-0.8-0.5-1.8-0.7-2.7-1c-0.2-0.1-0.5-0.1-0.6-0.2c-2.1-2.1-4.8-2.3-7.5-2.3
	c-4.4,0-8.6,1.1-12.8,2.3c-9.8,2.9-19.8,4.8-30.1,4.1c-6.7-0.5-13.3-1.2-20-2c-9.8-1.2-19.6-2.5-29.2-5.1
	c-5.9-1.7-11.8-3.6-17.7-5.4c-0.4-0.1-0.7-0.3-1-0.4c0-3.2-1.7-5.4-4.5-6.6c-10.2-4-20-8.9-30.6-11.9c-8.4-2.4-17-2.9-25.6-1.9
	c-2.9,0.3-5.6,1.7-8.4,2.5c-8.1,2.5-16.3,4.6-24.3,7.5c-6.6,2.4-12.8,5.5-19.2,8.4c-0.6,0.3-1.1,0.7-1.5,1.3c0.8,0,1.7,0,2.6,0
	c-0.1,0.3-0.2,0.5-0.4,0.8c0.7,0,1.3,0.1,1.9,0.1c-1,0.6-2,1.2-3,1.8c0.2,0.3,0.3,0.4,0.4,0.6c-0.4,0.2-0.7,0.4-1.1,0.6
	c-6.7,3.1-13.4,6.3-20.1,9.4c-6,2.8-12,5.6-18,8.3c-1.3,0.6-3,0.5-4.5,0.7c-1.5,0.2-2.9,0.4-4.4,0.7c-0.3,0-0.6,0.2-1.1,0.4
	c0.5,0.3,0.8,0.4,1.1,0.6c-1.8,0.3-3.6,0.6-5.4,0.9c0,0.4,0.1,0.5,0.1,0.7c-2.2,0.3-4.4,0.7-6.5,1c0,0.1,0,0.3,0,0.4
	c0.2,0.2,0.5,0.3,0.8,0.5c-2.3,0.3-4.6,0.7-6.9,1c0,0.2,0,0.4,0,0.6c1.8,0.3,3.5,0.6,5.4,0.9c-2.3,1-5,1.3-7,3.5
	c0.7,0.3,1.2,0.4,1.4,0.5C6,55.6,3,57.1,0,58.6z M296.6,37.1c0.1-1.5,1.4-2.7,2.9-2.7c1.5,0.1,2.7,1.4,2.7,2.9
	C302.1,38.8,296.5,38.6,296.6,37.1z M206.8,75.7C206.8,75.7,206.8,75.7,206.8,75.7C206.8,75.6,206.8,75.6,206.8,75.7z"/>
</svg>
