<?xml version="1.0" encoding="utf-8"?>
<!-- Generator: Adobe Illustrator 28.3.0, SVG Export Plug-In . SVG Version: 6.00 Build 0)  -->
<svg version="1.1" id="Layer_1" xmlns="http://www.w3.org/2000/svg" xmlns:xlink="http://www.w3.org/1999/xlink" x="0px" y="0px"
	 width="78.8px" height="74.1px" viewBox="0 0 78.8 74.1" style="enable-background:new 0 0 78.8 74.1;" xml:space="preserve">
<style type="text/css">
	.st0{fill-rule:evenodd;clip-rule:evenodd;}
	.st1{fill:#B25959;}
</style>
<g id="BzqKuh_2_">
	<g>
		<g>
			<path d="M45.5,63c1.8,0,1.8-2.9,0-2.9C43.6,60.1,43.6,63,45.5,63L45.5,63z"/>
		</g>
	</g>
	<g>
		<path d="M47.2,54.3c0.8-0.4,1.5-0.6,2.4,0.1C48.6,55.2,48,54.4,47.2,54.3z"/>
		<path d="M53.6,61.2c-0.2,0.3-0.4,0.6-0.8,1.1c-0.3-0.4-0.5-0.7-0.8-1C52.4,60.9,52.9,60.6,53.6,61.2z"/>
		<path d="M52,61.3C52,61.3,52,61.3,52,61.3C52,61.3,52,61.3,52,61.3C52,61.3,52,61.3,52,61.3C52,61.3,52,61.3,52,61.3z"/>
		<path d="M49.9,57.9c0.1,0.1,0.1,0.3,0.2,0.4c-0.2,0.3-0.5,0.6-0.8,1c-0.3-0.4-0.5-0.7-0.9-1.2C49,57.9,49.4,57.9,49.9,57.9z"/>
		<path d="M48.5,57.2c-0.5,0.2-1,0.4-1.6,0.6c-0.2,0.2-0.4,0.5-0.6,0.7c-1.5,0.2-1.6,0.2-1.6-0.7c0.7-0.4,1.3-0.8,2-1.1
			C48,56.3,48,56.3,48.5,57.2z"/>
		<path d="M52.4,59.9c-0.2,0.6-0.3,1-0.4,1.4c-0.3-0.1-0.7-0.1-1-0.2c-0.3,0.2-0.7,0.4-1.1,0.7c-0.2-0.4-0.4-0.8-0.6-1.2
			c0.5-0.4,0.9-0.6,1.4-0.9C51.2,59.8,51.7,59.8,52.4,59.9z"/>
		<path d="M51.2,53.8c0.5,0.1,1,0.2,0.6,0.8c-0.6,0.3-1.1,0.5-1.8,0.9C49.7,54.2,50.8,54.3,51.2,53.8z"/>
		<path d="M51.8,54.7C51.8,54.7,51.8,54.7,51.8,54.7C51.8,54.7,51.8,54.6,51.8,54.7L51.8,54.7z"/>
		<path d="M39.2,55.2c1.4-1.1,1.8-1.2,2.6-0.6C39.7,55.9,39.7,55.9,39.2,55.2z"/>
		<path d="M43.2,59.7c-0.4,0.3-0.9,0.7-1.5,1.2c0-0.7,0-1,0-1.5c0.5,0,1,0,1.4,0C43.1,59.5,43.2,59.6,43.2,59.7z"/>
		<path d="M44.1,54.3c0.5,0.1,0.9,0.2,1.3,0.2c0,0.1,0,0.2,0,0.3c-0.3,0.2-0.6,0.3-1.1,0.5C44.3,55,44.2,54.7,44.1,54.3z"/>
		<path d="M43.6,58c-0.3-0.4-0.5-0.6-0.8-0.8c-0.7,0-1.2,0-2,0c0.6-1.2,1.5-1.1,2.2-1.2c0.6,0.4,1,0.8,1.7,1.3
			C44.3,57.5,44,57.8,43.6,58z"/>
		<path d="M41.2,61.7c0.6-0.2,0.9-0.4,1.3-0.5c0,0.1,0.1,0.2,0.1,0.3C42.3,61.9,42.1,62.4,41.2,61.7z"/>
		<path d="M40.3,62.1c-0.3,0.7-0.6,1.2-1.7,1C39,62.3,39.4,62,40.3,62.1z"/>
		<path d="M42.2,62.7c-0.2,0.6-0.5,1-1.3,0.8c-0.1-0.1-0.1-0.3-0.2-0.4c0.4-0.2,0.9-0.5,1.3-0.7C42.1,62.5,42.1,62.6,42.2,62.7z"/>
		<path d="M43.8,59.3c0.8-0.3,1.1-0.1,1.3,0.5c-0.3,0.2-0.7,0.3-1.2,0.6C43.9,59.9,43.8,59.6,43.8,59.3z"/>
		<path d="M39.9,59.5c0.1-0.3,0.3-0.6,0.5-0.9c0.4,0,0.8,0,1.2,0c0,0.1,0.1,0.2,0.1,0.3C41,59.5,41.3,61,40.2,61
			c-1.1-0.2-1.9-0.4-2.8-0.6C38,58.9,39.1,59.7,39.9,59.5z"/>
		<path d="M2.1,69.6c0.4,0.2,1,0.6,1.7,0.9c-0.3,0.5-0.5,1-0.8,1.5c0.6,1.4,1.5,1.9,2.9,1.7c1.4-0.3,2.7-0.8,4-1.1
			c4.4-1.2,8.7-2.7,13.1-3.3c4.4-0.6,9-0.4,13.5-0.5c4.5,1.5,23.2-5.2,25.6-8c1.7-1.6,3.4-3,4.9-4.6c1.3-1.3,2.6-2.6,3.6-4.1
			c1.2-1.8,2.8-3.2,4.6-4.4c0.6-0.4,1.1-0.8,1.5-1.4c-0.6,0-1.1-0.1-1.7-0.1c0,0.1,0,0.1,0,0.2c-1.4,0.3-2.7,0.5-4.1,0.8
			c-0.3,0.1-0.7,0-1.1,0c-1-0.2-2-0.3-3-0.3c0.1,0,0.3,0.1,0.5,0.1c0.3,0.1,0.6,0.3,0.9,0.6c-1.1,0.5-2.6-1.1-3.4,0.6
			c0.2,1.4,0.9,1.6,2.7,0.7c0.6,0.7,0.1,0.9-0.5,1.2c-1.1-0.2-2.3-0.4-3.7-0.7c0.4-0.2,0.6-0.4,0.9-0.6c0.1-0.4,0.1-0.7,0.2-1.1
			c0.2-0.2,0.4-0.4,0.7-0.6c-0.4,0-0.7,0.1-0.9,0.1c-1.3,0.2-2.5,0.5-3.7,0.8c-0.7,0.2-1.4,0.3-2.1,0.4c-1.5,0.3-2.3-0.1-2.6-1.6
			c-0.5-2.6-1.1-5.3-1.3-8c-0.2-2.7-0.7-5.2-1.8-7.7c-2.1-4.5-4.2-9-6.3-13.5c-1.7-3.5-3.5-7-5.2-10.6c-0.9-1.8-1.6-3.7-2.5-5.5
			c-0.3-0.6-0.6-1.2-0.9-1.7c-0.1,0-0.2,0.1-0.3,0.1c-1.3,3.2-0.2,6.1,1.1,9c-2.4-2.8-3.8-6.2-6.2-9c-1.3,1.7-0.8,4.9,1.9,9.3
			c-2.1-2.2-4.1-4.4-6.2-6.6c-1.2,1.9,0.1,4.9,3,7.8c0.6,0.1,1.1,0.3,1.6,0.4c0,0.1,0,0.3,0,0.4c-0.4,0-0.9,0.1-1.2-0.1
			c-1.2-0.6-2.3-1.4-3.4-2.1c-1-0.6-1.9-1.2-3-1.7c-0.3,2.3,1.1,3.7,2.4,5.3c-0.5,0-1,0.1-1.5,0.1c-0.7,1.4,0.2,2.6,0.4,3.9
			c-1.6,1.2-0.9,2.7-0.5,4.2c-1.5,1.3-0.7,2.8-0.3,4.3c-1.1,1.4-0.6,2.8,0,4.1c-0.5,1.6-0.5,1.6,0.3,3.8c-0.9,1.4-0.1,2.7,0.5,4
			c-1.2,1.5-0.3,2.8,0.5,4.1c-0.9,1.7-0.1,2.9,1.1,4.1c-0.2,0.4-0.4,0.7-0.6,1.1c0,1.7,1.4,2.5,2.6,3.5C29.7,49.9,29.4,50,29,50
			c-0.5,2,1.4,2.5,2.3,3.7c-0.3,0.2-0.6,0.3-0.7,0.4c0.1,1.2,0.2,2.1,0.3,3.1c-0.6,0.3-1.1,0.6-1.6,0.9c-2.5,1.3-4.9,2.7-7.4,3.8
			c-2.6,1.1-5.4,2-8.1,2.6c-2.5,0.6-5,0.9-7.5,1.3c-0.1,0-0.2,0-0.2,0C3.9,66.1,2,66.7,2.1,69.6z M54.1,45.1c0,0.1,0,0.1,0,0.2
			c-0.5,0-1-0.1-1.6-0.1c0-0.1,0-0.2,0-0.3C53.1,45,53.6,45.1,54.1,45.1z M55.2,46.8c-0.3,0.8-0.3,0.8-3,1.2
			C52.2,47.1,53.7,46.4,55.2,46.8z M55.6,48.7c-0.6,0.4-1.1,0.8-1.6,1.2c0-0.1-0.1-0.2-0.1-0.3c-1.7,0.4-3.5,0.9-5.3,1.3
			c0.5-0.9,0.8-1.1,1.7-1.3c1.4-0.4,2.7-0.8,4.1-1.3C54.9,48.1,55.4,48,55.6,48.7z M53,51.2c-0.1,0.3-0.2,0.6-0.2,0.9
			c-0.4-0.1-0.7-0.2-1-0.3c-1.3,0.5-2.1,0.5-2.7-0.1C50.3,51.5,51.6,51.3,53,51.2z M56.4,51.3c0,0.2,0,0.3-0.1,0.5
			c-0.3-0.1-0.6-0.1-0.9-0.2c0-0.1,0-0.2,0-0.3C55.8,51.3,56.1,51.3,56.4,51.3z M57.5,52.3c-0.3,0.4-0.7,0.7-0.9,1
			c-0.5,0.1-0.9,0.2-1.2,0.3c0-0.1-0.1-0.2-0.1-0.3c0.7-0.4,1.4-0.8,2.1-1.2C57.4,52.2,57.5,52.2,57.5,52.3z M59.8,54.1
			c-0.3-0.1-0.5-0.2-0.8-0.3c0.2-0.5,0.4-1,0.6-1.5c0.1,0,0.1,0,0.2,0C59.8,53,59.8,53.5,59.8,54.1z M61.6,52.5
			c-0.4-0.2-0.7-0.3-1.1-0.5c0-0.1,0.1-0.2,0.1-0.3c0.6-0.3,1.2,0,1.5,0.6c0.4,0.6,0.8,1.1,1.6,1.2c0.2,0,0.4,0.2,0.6,0.4
			c0,0.1-0.1,0.2-0.1,0.2c-0.4-0.1-0.9-0.2-1.3-0.3c-0.3,0.2-0.5,0.3-0.8,0.5c0.1-0.4,0.1-0.6,0.2-0.8c-0.3-0.1-0.6-0.2-0.9-0.2
			C61.5,53,61.5,52.8,61.6,52.5z M60.1,49.1c1,0.7,1.1,1.1,0.2,2.1C60.3,50.5,60.2,49.9,60.1,49.1z M57.2,55
			c-0.1,0.4-0.2,0.7-0.4,1.1c-0.3-0.6-0.5-1-0.7-1.4c0.5-0.2,1-0.5,1.6-0.8c0.7,0.6,1.5,1.3,2.3,2.1C58.8,56.2,58.4,54.5,57.2,55z
			 M27.9,63.9c0-0.4,0.2-0.6,0.3-0.7c1.2-1.5,3.2-2,4.3-3.7c0.2-0.3,0.5-0.6,0.7-0.8c1-1,2.1-1.9,3.7-1.7c0.9,0.1,2,0.5,2.8-0.4
			c-1.8-1-4.4-0.7-6,0.6c-0.6,0.1-1.3,0.2-2,0.3c0-0.1-0.1-0.2-0.1-0.3c1.5-0.7,3-1.5,4.6-2.1c1.6-0.6,3.3-1,4.7-2.2
			c0.4,0.3,0.8,0.6,1.3,1c0.8-0.1,1.7-0.1,2.8-0.2c-0.9-1-2.2,0.3-2.6-1c1.3,0,2.5,0,3.8,0c0.1,0.1,0.1,0.2,0.2,0.3
			c-0.3,0.1-0.6,0.2-0.9,0.3c1.1,0.9,1.4-0.2,2-0.5c-0.4-0.2-0.8-0.4-1.2-0.5c0-0.1,0.1-0.2,0.1-0.2c0.6,0.2,1.2,0.3,1.7,0.4
			c0.2,0.4,0.3,0.7,0.4,1c1-0.2,2-0.4,3-0.6c0.3,0.3,0.5,0.6,0.7,0.8c0.6-0.1,1.2-0.3,1.7-0.4c0.1,0.1,0.1,0.2,0.2,0.2
			c-0.4,0.4-1.3,0.7-0.8,1.3c0.7,0.2,1.2,0.4,1.8,0.6c0,0.1-0.1,0.2-0.1,0.3c-0.1,0-0.3,0-0.4-0.1c-0.9-0.3-1.8-0.5-2.7-0.8
			c0.2,0.6,0.4,1.2,0.5,1.7c0.9,0.2,1.6,0.3,2.3,0.5c0.1,0.2,0.3,0.4,0.5,0.5c0.7,0,1.2,0,1.9,0c1-0.4,1-0.4,1.7,0.4
			c-1.5,0.2-2.9,0.4-4.3,0.7c0-0.1,0-0.2,0-0.3c-0.8-0.2-1.5-0.4-2.3-0.5c-0.2-0.3-0.4-0.6-0.5-0.9c-0.7-0.1-1.3-0.3-2.1-0.4
			c0.1,0.6,0.1,0.9,0.2,1.1c1.6,0.6,2.4,1.8,3.5,2.8c0.8,0,1.8-0.2,2.6,0.6c-1.1,0.7-2.1,1.3-3.2,2c-0.5,0.1-1.3,0.1-1.9,0.2
			c-0.5,0.4-0.9,0.8-1.4,1.2c0-0.8-0.1-1.4-0.1-2c-0.2,0-0.4-0.1-0.5,0c-0.3,0-0.7,0.1-1,0.1c-0.2,0.4-0.5,0.7-0.7,1
			c0.4,0,0.8-0.1,1.2-0.1c-0.7,1.1-1.7,1.7-2.4,1.5c-0.4-0.2-0.9-0.3-1.3-0.4c0,0.1,0,0.1-0.1,0.2c-0.2-0.2-0.4-0.4-0.7-0.7
			c-0.5,0.4-1,0.8-1.7,1.2c-3.3,0.2-6.8,0.5-10.3,0.7c0-0.1-0.1-0.2-0.1-0.3c0.2-0.2,0.3-0.4,0.5-0.6c1.5-1.1,3.3-0.9,5-1.2
			c0.4-0.6,0.8-1.1,1.2-1.7c-0.1-0.1-0.1-0.2-0.2-0.2c-1.8,0.5-3.6,1-5.4,1.4c-0.1-0.1-0.1-0.1-0.2-0.2c1.6-1.3,3.3-2.5,4.9-3.8
			c0-0.1-0.1-0.2-0.1-0.2c-0.5,0-1,0-1.5,0c-0.3,0.4-0.5,0.7-0.6,0.9c-0.4,0.1-0.8,0.2-1.2,0.3c-0.8,1.3-2.9,1.1-3.1,3
			C30,63.5,28.9,63.7,27.9,63.9z"/>
		<path d="M45.1,59.8c0.8,0,1.5-0.1,2.5-0.2c0.3-0.2,0.9-0.6,1.5,0.4c-0.4,0.4-0.9,0.8-1.3,1.2c-0.3-0.3-0.6-0.4-0.7-0.6
			c-0.7,0.1-1.2,0.2-1.9,0.3C45.2,60.5,45.2,60.2,45.1,59.8z"/>
		<path d="M44.9,60.9c-0.2,1.2-1.1,1.3-2,1.3C43.4,61.5,43.7,60.6,44.9,60.9z"/>
		<path d="M45.1,59.8C45.1,59.8,45.1,59.8,45.1,59.8C45.1,59.8,45.1,59.8,45.1,59.8C45.1,59.8,45.1,59.8,45.1,59.8
			C45.1,59.8,45.1,59.8,45.1,59.8z"/>
		<path d="M46.9,63.3C46.9,63.3,46.9,63.3,46.9,63.3C46.9,63.3,47,63.3,46.9,63.3L46.9,63.3z"/>
		<path d="M46.9,62.3c0,0.4,0,0.7,0,1c-0.8,0.8-1.6-0.1-2.5-0.1C45.1,62.2,46.1,62.6,46.9,62.3z"/>
		<path d="M66.9,46.9C66.9,46.9,66.8,46.9,66.9,46.9C66.9,46.9,66.9,46.9,66.9,46.9z"/>
	</g>
</g>
</svg>
