<?xml version="1.0" encoding="utf-8"?>
<!-- Generator: Adobe Illustrator 28.3.0, SVG Export Plug-In . SVG Version: 6.00 Build 0)  -->
<svg version="1.1" id="Layer_1" xmlns="http://www.w3.org/2000/svg" xmlns:xlink="http://www.w3.org/1999/xlink" x="0px" y="0px"
	 width="78.8px" height="74.1px" viewBox="0 0 78.8 74.1" style="enable-background:new 0 0 78.8 74.1;" xml:space="preserve">
<style type="text/css">
	.st0{fill-rule:evenodd;clip-rule:evenodd;}
	.st1{fill:#B25959;}
</style>
<path d="M76.7,48.6c-0.5-0.2-0.9-0.4-1.3-0.5c-0.1-0.8,0-1.5-0.4-2c-0.1,0-0.1,0-0.2,0c-0.1,0.4-0.2,0.9-0.2,1.4
	c-0.2-0.1-0.4-0.2-0.6-0.2c-0.6-0.1-1.1-0.2-1.7-0.2c-0.8,0-1.5,0.4-2.2,0.9c-0.9,0.7-1.9,1.1-3,1.1c-1,0-1.9,0.2-2.8,0.5
	c-0.3,0.1-0.7,0.3-1,0.4c-0.4,0.1-0.7,0.2-1.1,0.2c-0.9-0.1-1.7-0.3-2.4-0.7c-2.6-1.5-5.3-2.8-8.2-3.8c-0.7-0.2-1.4-0.4-2-0.6
	c0-0.6,0-1.1,0-1.7c0-0.2,0.2-0.5,0.4-0.6c0.2-0.2,0.5-0.4,0.8-0.6c0.3-0.3,0.5-0.7,0.5-1.2c-0.1-1-0.1-2.1,0.2-3
	c0.5-1.6,0.9-3.3,1.1-5c0.1-1.1,0.2-2.2,0.3-3.3c0-0.3,0-0.6-0.3-0.9c-0.8,1.8-1.5,3.6-2.3,5.3c0-0.1,0-0.2,0-0.2
	c0.1-0.6,0.2-1.2,0.3-1.7c0.3-1.7,0.6-3.4,0.8-5.1c0-0.2,0-0.4-0.1-0.5c0,0-0.1,0-0.1,0c-1.9,1.4-3.1,3.3-3.3,5.7c0-0.5,0-0.9,0-1.4
	c0-1.3,0-2.6,0-3.9c0-1,0.1-2,0.1-3.1c0-0.6-0.4-0.8-0.9-0.6c-0.3,0.1-0.5,0.3-0.7,0.6c-0.4,0.7-0.8,1.4-1.2,2.1
	c-0.1,0.1-0.1,0.3-0.2,0.4c-0.5-0.4-1-1.2-1.1-2.1c-0.2-2.2-0.3-4.4-0.5-6.6c-0.1-1.2-0.1-2.3-0.2-3.5c0-0.2-0.1-0.4-0.2-0.7
	c-0.6,0.6-0.6,1.4-1,2c-0.1-0.5-0.1-1-0.1-1.5c0-0.6,0-1.1-0.1-1.7c0-0.2-0.2-0.4-0.3-0.5c-0.1,0-0.4,0.1-0.5,0.3
	c-0.1,0.2-0.2,0.5-0.3,0.7c-0.5,2-0.5,4.1-0.3,6.2c0.1,0.6,0.2,1.2,0.3,1.7c-0.1-0.1-0.2-0.2-0.2-0.3c-0.3-1-0.7-2.1-1-3.1
	c-0.7-3-1.1-6-1.2-9.1c0-0.4,0-0.8-0.4-1.2c-0.1,0.3-0.3,0.5-0.3,0.7c-0.1,0.8-0.3,1.6-0.4,2.5c-0.3,2.5-0.2,5,0.4,7.4
	c0.1,0.7,0.3,1.3,0.5,2c-0.1,0-0.1,0-0.1,0c0-0.1-0.1-0.1-0.1-0.2c-1.5-2.8-2.7-5.7-3.3-8.8c-0.3-1.3-0.3-2.7-0.5-4
	C34,6.1,34,5.7,33.5,5.4c-0.2,0.3-0.4,0.5-0.4,0.8c-0.2,1-0.5,2-0.6,3.1c-0.1,1.9,0.2,3.8,0.7,5.6c0.4,1.5,1,2.9,1.7,4.2
	c0,0,0,0,0,0.1c-1.5-1.8-2.9-3.6-3.7-5.8c-0.7-1.8-1.4-3.6-2.1-5.5c-0.1-0.3-0.2-0.6-0.6-0.7c-0.1,0.2-0.3,0.4-0.3,0.7
	c-0.3,1.5-0.1,2.9,0.1,4.4c0.2,1.8,0.7,3.6,1.6,5.3c0,0,0,0,0,0.1c0,0,0,0-0.1,0c-1.5-1.5-2.9-3.1-4.1-5c-0.4-0.7-0.7-1.5-1.1-2.2
	c-0.1-0.2-0.3-0.3-0.4-0.6C24,10,24,10.1,24,10.2c0,0.6,0,1.3,0,1.9c0.2,1.5,0.8,2.9,1.7,4.1c0.7,1,1.4,1.9,2.1,2.9
	c0,0,0,0.1,0.1,0.1c0,0-0.1,0-0.1-0.1c-0.1-0.1-0.2-0.1-0.3-0.2c-1.3-1.2-2.6-2.3-3.9-3.5c-0.5-0.4-1-0.9-1.5-1.4
	c-0.2-0.2-0.5-0.5-0.9-0.3c-0.1,0.5,0.1,0.9,0.3,1.3c0.6,1.3,1.4,2.6,2.4,3.7c0.7,0.8,1.6,1.6,2.4,2.4c0,0,0,0,0,0
	c-0.1-0.1-0.3-0.1-0.4-0.2c-1.9-1.2-3.8-2.4-5.8-3.5c-0.2-0.1-0.3-0.2-0.5-0.2c0,0-0.1,0.1-0.1,0.1c0,0.1,0,0.3,0.1,0.4
	c0.2,0.4,0.4,0.8,0.7,1.2c1.3,1.8,2.9,3.2,4.7,4.4c0.1,0.1,0.3,0.2,0.4,0.3c0,0,0,0.1,0,0.1c-0.1,0-0.2,0-0.3-0.1
	c-1.2-0.3-2.4-0.5-3.5-0.8c-0.3-0.1-0.6,0-1-0.1c0,0.1-0.1,0.1-0.1,0.2c0.3,0.4,0.7,0.8,1,1.1c0.4,0.4,0.8,0.7,1.2,1
	c-0.3,0.1-0.6,0.2-0.9,0.3c-0.6,0.3-0.7,0.9-0.3,1.4c0.2,0.2,0.4,0.5,0.6,0.6c0.6,0.4,1.2,0.7,1.8,1c0.2,0.1,0.3,0.1,0.5,0.2
	c-0.1,0.1-0.2,0.1-0.3,0.1c-0.7,0-1.5,0.1-2.2,0.1c-0.5,0-1,0.3-1.1,0.6c-0.1,0.5,0,0.9,0.4,1.2c0.2,0.1,0.4,0.3,0.6,0.5
	c-0.2,0.1-0.3,0.1-0.4,0.1c-0.4,0.2-0.9,0.4-1.3,0.7c-0.3,0.2-0.7,0.6-0.6,1c0.1,0.5,0.5,0.6,0.9,0.7c1.1,0.2,2.2,0.3,3.3,0.5
	c0.1,0,0.3,0,0.4,0.1c0,0,0,0.1,0,0.1c-0.4,0.1-0.7,0.2-1.1,0.3c-0.7,0.2-1.4,0.4-2,0.6c-0.7,0.3-0.9,0.9-0.4,1.5
	c0.3,0.3,0.6,0.5,0.9,0.7c0.1,0.1,0.2,0.1,0.3,0.2c0,0,0,0.1,0,0.1c-0.4,0.1-0.9,0.3-1.3,0.4c-0.4,0.1-0.8,0.2-1.2,0.5
	C19,39,19,39.6,19.4,40c0.3,0.2,0.6,0.4,0.9,0.5c1,0.3,2,0.6,3,0.8c0.1,0,0.1,0.1,0.2,0.1c-0.2,0.1-0.4,0.1-0.5,0.2
	c-0.5,0.2-1.1,0.4-1.6,0.7c-0.5,0.3-0.9,0.8-1,1.4c-0.1,0.6,0,1.1,0.6,1.4c0.4,0.2,0.8,0.3,1.3,0.4c0.3,0.1,0.6,0.1,1.1,0.2
	C23.3,46,23.1,46,23,46.1c-0.5,0.5-1,0.9-1.5,1.4c-0.7,0.8-0.5,1.7,0.5,2.2c0.3,0.1,0.6,0.2,0.9,0.3c0.2,0.1,0.4,0.1,0.7,0.1
	c-0.4,0.8-0.5,1.5-0.1,2.3c0,0,0,0,0,0c-0.1,0-0.1-0.1-0.2-0.1c-1.1-0.8-2.2-1.5-3.2-2.3c-0.7-0.5-1.5-0.7-2.4-0.6c-0.7,0-1,0.4-1,1
	c0,0.1,0,0.3,0,0.4c-0.2,0-0.3,0-0.4,0c-1.1-0.1-2.1-0.2-3.2,0c-0.9,0.2-1,0.5-0.7,1.3c0,0,0,0.1,0,0.2c-0.2,0.1-0.4,0.1-0.6,0.2
	c-0.8,0.2-1.4,0.6-1.8,1.4c-0.2,0.3-0.4,0.6-0.6,1c-0.2,0.4-0.5,0.6-0.9,0.6c-0.8,0.1-1.5,0.3-2.3,0.4c-1.2,0.2-2.3,0.4-3.5,0.6
	c-0.8,0.2-1.3,0.6-1.6,1.4c-0.1,0.1-0.2,0.2-0.3,0.3c-0.3,0.3-0.5,0.5-0.7,0.8C-0.1,59.6,0,60,0.4,60.2c0.1,0.1,0.3,0.2,0.4,0.3
	c0.1,0.9,0.5,1.4,1.4,1.4c0.6,0.1,1.3,0,2,0c0.4,0,0.9-0.1,1.3-0.2c0.2,0.5,0.5,0.7,0.9,0.8c0.8,0.2,1.6,0.4,2.5,0.5
	c0.6,0.1,1.2,0,1.8,0c0,0,0.1,0.1,0.1,0.1c0.3,0.8,0.6,1,1.4,0.8c0.4-0.1,0.8-0.2,1.1-0.3c0.9-0.4,1.9-0.6,2.9-0.7
	c0.9,0,1.8-0.2,2.6-0.5c1.6-0.7,3.2-1.4,4.7-2.1c0.3-0.1,0.6-0.3,1-0.4c0.1,0.1,0.2,0.2,0.2,0.3c0.9,1.4,2.1,2.5,3.7,3
	c0,0,0.1,0,0.1,0c2.2,0.8,4.4,1.6,6.6,2.4c0.2,0.1,0.5,0.2,0.7,0.4c0.2,0.2,0.1,0.6-0.2,0.6c-0.6,0.1-1.2,0.4-1.7,0.8
	c0.3,0.1,0.6,0.3,0.9,0.4c-0.3,0.3-0.6,0.5-0.9,0.7c0,0,0,0.1,0.1,0.1c0.4,0,0.9,0,1.3-0.1c0.7-0.1,1.5-0.2,2.2-0.3
	c0.7-0.2,1.1-0.8,1-1.5c-0.1-0.8-0.5-1.5-1.3-1.8c-0.8-0.3-1.5-0.5-2.3-0.8c-0.9-0.3-1.8-0.6-2.8-0.9c-0.3-0.1-0.6-0.2-0.7-0.6
	c1.1,0.1,2.1,0.2,3.2,0.3c1.4,0.1,2.8,0.2,4.1,0c2.5-0.3,5-1,7.3-2.1c2-0.9,3.9-2.1,5.3-3.9c0.4-0.5,0.8-1.1,1.2-1.7
	c0.1,0,0.3,0,0.4,0c1.4,0,2.8,0,4.1-0.6c0.2-0.1,0.5-0.2,0.7-0.2c1-0.1,2-0.1,3-0.3c0.7-0.1,1.3-0.2,1.9-0.4c1.1-0.3,2.3-0.7,3.4-1
	c1-0.3,2-0.3,3.1-0.1c1.1,0.3,2.2,0.2,3.3-0.4c1.2-0.6,2.4-1.4,3.6-2c0.3-0.2,0.8-0.3,1.1-0.3c0.5,0,1.1,0.1,1.7,0.1
	C78.1,49.4,77.5,48.9,76.7,48.6z M72.9,48.7c0-0.3,0.2-0.5,0.5-0.5c0.3,0,0.5,0.2,0.5,0.5C73.9,49,72.9,49,72.9,48.7z"/>
</svg>
