<?xml version="1.0" encoding="utf-8"?>
<!-- Generator: Adobe Illustrator 28.3.0, SVG Export Plug-In . SVG Version: 6.00 Build 0)  -->
<svg version="1.1" id="Layer_1" xmlns="http://www.w3.org/2000/svg" xmlns:xlink="http://www.w3.org/1999/xlink" x="0px" y="0px"
	 width="78.8px" height="74.1px" viewBox="0 0 78.8 74.1" style="enable-background:new 0 0 78.8 74.1;" xml:space="preserve">
<style type="text/css">
	.st0{fill-rule:evenodd;clip-rule:evenodd;}
	.st1{fill:#B25959;}
</style>
<g>
	<path d="M37,34.1c-0.2-2.4,2.1-10.1,3-12.6c0-0.5-0.1-0.9-0.1-1.4c0.2-0.3,0.5-0.6,0.7-0.9c0-0.1,0-0.3,0-0.4
		c-0.4-1.2,0.2-2.4,0.1-3.6c0-0.8,0.2-1.5,0.1-2.3c0.2-0.3,0.3-0.7,0.5-1.1c-0.1-0.5-0.2-1-0.3-1.6c0.2-0.3,0.4-0.6,0.6-1
		c-0.2-0.7-0.3-1.4-0.6-2.3c0.5-0.1,1-0.1,1.4-0.1c0-0.1,0.1-0.3,0-0.4c-0.3-1.4-0.4-1.4,0.1-2.5c0.5,0.2,0.9,0.4,1.4,0.6
		c0.1-0.9,0.2-1.7,0.3-2.6c0-0.1,0.2-0.1,0.4-0.3c0.6,0.4,1.2,0.9,1.8,1.4c0.5-0.8-0.3-2,0.9-2.8c0.4,0.3,0.8,0.6,1.1,1
		c1.9,2.5,3.6,5.2,4.9,8.1c0.3,0.6,0.6,1.1,1,1.7c1.6,2.3,2.4,5,3,7.7c0.2,0.8,0.2,1.7,0.1,2.5c-0.3,2.3-0.7,4.6-1.1,6.8
		c-0.1,0.4,0,0.8,0,1.4c0.4-0.1,0.7-0.1,1.1-0.2c1.9-0.5,3.8-0.2,5.7,0.3c0.4,0.1,0.8,0.5,1.2,0.7c-0.1,0.3-0.2,0.5-0.3,0.8
		c-1.5-0.3-2.8,0.1-3.9,0.9c-0.7,0-1.3,0.1-1.9,0.1c0.1,1.2,0.1,2.3,0.2,3.5c0.2,0.3,0.4,0.7,0.7,1.1c0.2-0.2,0.3-0.3,0.4-0.4
		c0.2-0.5,0.4-1.1,0.6-1.7c1.6,0.5,2.9,0.3,4.1-0.6c0.4-0.3,0.9-0.4,1.4-0.6c0.2-0.3,0.5-0.7,0.8-1.2c0.6,0,1.2,0,1.8,0
		c0,0.1,0,0.2,0.1,0.2c-0.2,0.1-0.5,0.3-0.7,0.4c-0.6,0.3-1.2,0.5-1.7,0.9c-1.5,1.3-3,2.6-4.5,3.9c-0.9,0.8-1.7,1.6-2.7,2.6
		c1,1.6,2,3.3,3.2,4.9c1.2,1.6,2,3.2,2.1,5.3c0.1,1.9,0.7,3.7,1,5.5c0,0.1,0,0.1,0,0.2c0,2.7,0.6,5.4,0.2,8.2
		c-0.3,2.4-0.6,4.9-1.1,7.3c-0.2,0.7-0.4,1.4-1.1,1.9c-0.8-0.5-0.2-1.4-0.7-2c-0.5,1-0.9,1.9-1.4,2.8c-1.2-0.4-0.8-1.6-1.5-2.2
		c-0.4,0.6-0.8,1.3-1.2,1.9c-1.4-0.6-0.9-1.9-1.6-2.8c-0.4,0.2-0.7,0.5-1.2,0.7c-0.6-1-0.5-1.9-0.7-2.9c-0.3-0.1-0.7-0.3-1.1-0.4
		c-0.1-0.8-0.3-1.5-0.4-2.3c-0.3,0-0.6,0.1-1.1,0.1c-0.1-0.8-0.3-1.6-0.4-2.4c-0.3,0-0.6,0-1.1,0c-0.2-0.6-0.4-1.2-0.7-2
		c-0.2-0.1-0.6-0.2-1-0.4c-0.2-0.5-0.3-1.1-0.5-1.8c-0.2-0.1-0.6-0.4-1-0.7c-0.1-0.5-0.3-1.2-0.5-1.8c-0.3-0.1-0.7-0.3-1.1-0.5
		c-0.1-0.7-0.3-1.3-0.4-2c-0.3,0-0.6,0.1-1.1,0.1c-0.2-0.5-0.4-1-0.6-1.5c-0.4-0.3-0.8-0.6-1.3-1c-0.1-0.6-0.1-1.2-0.2-1.8
		c-0.1,0-0.4,0-0.7,0c-0.4-0.9-0.8-1.7-1.2-2.6c0,0-0.1,0-0.1,0.1c0-0.4-0.1-0.8-0.1-1.2c-0.4-0.4-0.8-0.7-1.3-1.2
		c2.7-0.6-1.1-0.8-2.9-1.6c0.5-0.8,1.5-0.6,2-1.1c-1.1-0.2-1.8,0.1-3.6,1.4c-2-0.2-4,0.5-6,1c-3.8,1-7.6,2-11.4,2.9
		c-1,0.3-2,0.5-3,0.7c-1,0.2-2.1,0.5-3.1-0.1c-0.1-2.2-0.5-4.2-0.4-6.7c0.2-0.3,0.8-0.4,1.5-0.5c5-0.7,10-1.4,15-2.3
		c1.3-0.2,2.5-0.9,3.8-1.4c1.2-0.5,2.5-1,3.9-1c0.6,0,1.1-0.2,1.7-0.5c-0.5,0-1-0.1-1.7-0.1c0.4-0.4,0.7-0.6,0.9-0.8L37,34.1z"/>
	<path d="M63.3,32.8c-0.3-0.3-0.6-0.5-0.9-0.7c0.1-0.2,0.2-0.4,0.3-0.4c0.6-0.4,1-0.4,1.5,0.3C63.9,32.3,63.7,32.5,63.3,32.8z"/>
	<path d="M56.6,47.6c-0.9,0.3-1.8,0.7-2.9,1.1c0.7-0.7,1.1-1.2,1.6-1.7l0,0C55.9,46.9,56.4,46.8,56.6,47.6L56.6,47.6z"/>
	<path d="M55.3,46.9c-1,0.4-2,0.9-3,1.3c0-0.1-0.1-0.2-0.1-0.3c0.8-0.5,1.6-0.9,2.5-1.4C54.9,46.7,55.1,46.8,55.3,46.9L55.3,46.9z"
		/>
	<path d="M52.7,46.6c0.3-0.6,0.8-0.9,1.5-0.5C53.8,46.7,53.2,46.6,52.7,46.6L52.7,46.6z"/>
	<path d="M52.7,46.6c-0.3,0.5-0.8,0.6-1.4,0.4C51.8,46.9,52.2,46.8,52.7,46.6L52.7,46.6z"/>
</g>
</svg>
