<?xml version="1.0" encoding="utf-8"?>
<!-- Generator: Adobe Illustrator 28.3.0, SVG Export Plug-In . SVG Version: 6.00 Build 0)  -->
<svg version="1.1" id="Layer_1" xmlns="http://www.w3.org/2000/svg" xmlns:xlink="http://www.w3.org/1999/xlink" x="0px" y="0px"
	 width="78.8px" height="74.1px" viewBox="0 0 78.8 74.1" style="enable-background:new 0 0 78.8 74.1;" xml:space="preserve">
<style type="text/css">
	.st0{fill-rule:evenodd;clip-rule:evenodd;}
	.st1{fill:#B25959;}
</style>
<path d="M0,69.3c0.5,0.2,1.1,0.3,1.2,1.1c0.3-0.2,0.6-0.4,0.9-0.6c0.1,0.2,0.2,0.3,0.3,0.5c0.9,0.3,1.8,0.5,2.7,0.7
	c0.4,0.1,0.9,0.1,1.3,0.1c1.8-0.1,3.6-0.3,5.4-0.4c1.3-0.1,2.5,0,3.8,0.1c1.4,0.1,2.8,0.2,4.2,0.2c0.2,0,0.5,0.1,0.8,0.1
	c0.1,0.1,0.2,0.3,0.3,0.4c0.6,0.1,1.2,0.3,1.7,0.3c2.4,0.2,4.8,0.3,7.2,0.5c2.4,0.2,4.8-0.1,7.2-0.7c0.9-0.2,1.8-0.3,2.8-0.5
	c3.1-0.6,6-1.8,8.6-3.5c2.9-1.9,5.8-3.8,8.7-5.7c1.7-1.1,3.6-2,5.7-2c0.4,0,0.7,0,1.1,0.1c2.1,0.6,4.2,1.2,6.3,1.8
	c2.6,0.7,5.1,1.6,7.5,2.6c0.3,0.1,0.7,0.1,1,0.2c0-0.1,0.1-0.1,0.1-0.2c-0.1-0.2-0.2-0.4-0.3-0.5c-0.8-0.5-1.5-1.1-2.3-1.5
	c-2.7-1.2-5.5-2.4-8.2-3.6c-1.4-0.6-2.9-1.3-4.3-2c-0.2-0.1-0.5-0.2-0.7-0.3c-0.9-0.3-1.4-0.9-1.5-1.8c0-0.4-0.2-0.7-0.6-0.9
	c-0.1-0.1-0.2-0.2-0.3-0.3c-0.2-0.2-0.5-0.4-0.7-0.5c-0.1-0.1-0.2,0-0.3-0.1c-0.6-0.5-1.3-0.6-2.1-0.8c-1.5-0.4-3-0.2-4.5-0.3
	c-1.4-0.1-2.8,0.1-4.1,0.2c-0.4,0-0.7,0.2-1.2,0.4c-0.8-0.5-1.4-1.3-1.7-2.1c-0.5-1.1-0.9-2.3-1.3-3.5c-0.5-1.4-0.4-2.9-0.1-4.3
	c0.5-2.3,1.3-4.4,2.4-6.4c0.3-0.6,0.6-1.2,0.9-1.9c0.5-1.2,0.4-2.3-0.2-3.4c-0.6-1.1-1.3-2.1-2.1-3.1c-1-1.3-2-2.7-2.9-4.1
	c-0.2-0.3-0.3-0.6-0.4-0.9c-0.5-1.5-1.4-2.6-2.4-3.8c-0.3-0.4-0.6-0.9-0.9-1.3c-0.9-1-1.8-2.1-2.6-3.1c-0.9-1-1.7-2-2.6-3
	c-0.7-0.8-1.4-1.5-2.2-2.1c-1.1-0.9-2.2-1.8-3.2-2.7c-0.1,0-0.1-0.1-0.2-0.1C27.6,6.4,27,6,26.5,5.7c-0.3-0.2-0.7-0.3-1-0.5
	c-0.5-0.3-1-0.6-1.4-0.8c-1.1-0.9-6.4-2.8-7.5-2.6C16.3,2,16.2,2.4,16,2.9c0,0.2,0.1,0.6,0.2,1.1c-0.2,0.2-0.3,0.4-0.6,0.7
	C15.7,5.3,16,6.1,16.2,7c-0.1,0.1-0.2,0.3-0.4,0.5c0,1-0.1,1.9,0.3,2.9c0.1,0.3,0.1,0.7,0.1,1.1c-0.2,0.9,0,1.7,0.3,2.5
	c0.1,0.2,0.1,0.4,0.1,0.6c0,0.3-0.1,0.5-0.1,0.8c0.1,0.9,0.1,1.9,0.4,2.7c0.1,0.2-0.1,0.6-0.2,0.9c0.2,0.9,0.4,1.9,0.6,2.8
	c0.1,0.4,0,0.8-0.1,1.3c0.2,0.6-0.1,1.5,0.7,2c0,0.3,0.1,0.5,0.1,0.8c0.1,0.1,0.2,0.2,0.3,0.4c0,0.1,0,0.1,0,0.2
	c-0.1,1,0.2,1.7,1.2,2.2c0.2,0.1,0.3,0.3,0.5,0.5c0.2,0.3,0.3,0.6,0.5,0.8c0.4,0.6,0.4,1-0.3,1.4c-0.5,0.3-0.7,0.7-0.7,1.2
	c-0.1,0.5-0.3,0.9-0.7,1.3c-0.5,0.5-0.6,1.1-0.5,1.8c0.2,0.2,0.4,0.5,0.6,0.7c-0.1,0.4-0.2,0.7-0.3,1.1c-0.4,0.2-0.5,0.7-0.6,1.2
	c0,0.3-0.1,0.6-0.2,0.9c-0.3,0.8-0.3,1.5,0,2.3c-0.1,0.4-0.3,0.7-0.5,1.2C17.1,43,17,43.5,17.1,44c0.1,0.4,0.3,0.8,0.4,1.2
	c0.1,0.3,0.1,0.6,0,0.8c-0.2,0.4-0.2,0.8-0.1,1.2c0.1,0.4,0,0.9,0,1.3c0,0.1,0,0.3,0.1,0.5c-0.4,0.5-0.2,1.3,0.4,1.6
	c0,0.2,0.1,0.5,0.2,0.7c-0.1,0.2-0.2,0.4-0.3,0.5c-0.1,0.9,0.5,1.5,0.8,2.2c-0.5,0.6,0.1,1.3,0,1.9c-0.1,0.6,0,1.3,0,2
	c-0.1,0-0.2-0.1-0.4-0.3c-0.4,0.2-0.9,0.4-1.4,0.6c-0.1,0.2-0.2,0.5-0.3,0.6c0,0.5,0,1,0,1.5c-0.3,0.2-0.7,0.5-1,0.7
	c0,0.2,0,0.4,0,0.5c-0.3,0.4-1.1,0.5-0.8,1.2c-0.4,0.3-0.8,0.7-1.2,1c-0.2,0.2-0.5,0.3-0.7,0.4c-0.5,0.3-1.1,0.6-1.6,0.8
	c-0.3,0.1-0.5,0.3-0.8,0.3c-2,0.5-4.1,1-6,1.9c-0.8,0.4-1.7,0.7-2.2,1.6c-0.6,0.1-1.2,0.2-1.8,0.3C0,69.2,0,69.2,0,69.3z M55.8,56
	c0-0.6,0.6-1.1,1.2-1.1s1.1,0.6,1.1,1.2C58.1,56.8,55.8,56.7,55.8,56z"/>
</svg>
